<?xml version="1.0" encoding="UTF-8"?>
<svg id="Layer_1" data-name="Layer 1" xmlns="http://www.w3.org/2000/svg" viewBox="0 0 5120 5120">
  <defs>
    <style>
      .cls-1 {
        fill: #e6e7e8;
      }

      .cls-2 {
        fill: #bcbec0;
      }
    </style>
  </defs>
  <path class="cls-1" d="M4815.43,1978.29l1.66,1.67-2700.38,2700.38c-10.18,8.14-21.77,14.73-34.68,19.8-175.13,68.83-591.57-140.9-987.47-508.57-438.22-406.98-685.32-853.35-551.9-997.01,5.45-5.87,11.45-11.14,17.97-15.82l-.73-.73L3241.72,496.19c6.65-9.81,14.16-18.93,22.55-27.32,173.31-173.31,656.74,29.14,1079.78,452.17,80.75,80.75,153.46,163.7,217.05,246.27,256.11,332.52,364.37,658.94,254.33,810.98Z"/>
  <path class="cls-2" d="M4817.43,1978.29l1.66,1.67-2634.1,2634.1-.12-.12c-4.2,7.55-21.08,36.57-55.15,60.53-227.39,159.93-768.95-223.03-1029.1-456.96-365.46-328.62-530.01-681.85-527.66-683.46,2.59-1.77,154.87,320.44,497,621.02,354.46,311.41,876.79,568.43,998.1,431.1,14.54-16.46,23.96-36.8,28.54-60.5,24.79-127.8-90.7-353.18-298.06-593.79-80.75-93.69-175.43-189.69-281.19-283.14-355.01-313.68-723.22-499.97-908.78-474.28,190.09-62.48,602.73,128.83,994.21,474.73,88.39,78.1,169.1,158.26,240.65,237.8l2719.67-2719.68c256.11,332.52,364.37,658.94,254.33,810.98Z"/>
</svg>