<?xml version="1.0" encoding="UTF-8"?>
<svg id="Layer_1" data-name="Layer 1" xmlns="http://www.w3.org/2000/svg" viewBox="0 0 5120 5120">
  <defs>
    <style>
      .cls-1 {
        fill: #e6e7e8;
      }

      .cls-2 {
        fill: #bcbec0;
      }
    </style>
  </defs>
  <path class="cls-2" d="M4060.82,3193.78c-156.22,33.85-336.12,25.04-347.22,24.45-149.18-8.02-271.59-38.52-357.53-66.23-63.96,55.36-165.88,131.14-306.09,187.4-41.13,16.5-215.1,72.72-525.32,72.72s-604.5-73.46-796.04-189.24c-137.97-4.77-267.82-23.53-386.24-55.45-101.89,38.2-214.61,59.4-333.18,59.4-455.7,0-825.14-313.32-825.14-699.83,0-336.64,280.24-617.77,653.66-684.7,154.33-170.24,1077.95-1162.03,2144.91-1013.48,155.64,21.67,917.09,127.68,1061.66,581.33,26.81,84.11,26.32,161.07,20.99,215.26,56.87,35.94,154.14,107.92,233.51,231.86,68.73,107.32,95.58,209.18,107.13,272.42,87.02,35.87,358.54,159.68,393.74,376.5,50.34,310.12-414.14,617.24-738.86,687.61Z"/>
  <path class="cls-1" d="M3893.51,3148.25c-232.7,48.75-451.37,28.29-610.07-43.69-174.15,151.4-495.1,252.95-862.24,252.95-305.69,0-579.37-70.41-762.95-181.37-132.24-4.58-256.68-22.56-370.18-53.15-97.66,36.61-205.7,56.93-319.33,56.93-436.76,0-790.85-300.3-790.85-670.74,0-299.58,231.56-553.3,551.16-639.39-15.87-239.62,174.55-497.7,476.18-617.4,105.54-41.88,212.78-62.1,314.16-62.75,149.2-87.76,312.84-164.08,487.41-224.83,890.35-309.85,1727.96-97.66,1870.89,473.93,16.77,67.1,23.24,136.17,20.12,206.31,165.52,142.5,275.44,330.61,312.43,509.26,213.54,47.75,366.31,168.02,391.43,334.91,41.14,273.41-275.89,568.46-708.16,659.03Z"/>
  <ellipse class="cls-2" cx="3916.37" cy="3565.51" rx="441.99" ry="207.99"/>
  <ellipse class="cls-1" cx="3879.44" cy="3577.09" rx="441.99" ry="207.99"/>
  <ellipse class="cls-2" cx="4714.49" cy="4199.18" rx="227.61" ry="107.11"/>
  <ellipse class="cls-1" cx="4673.54" cy="4210.77" rx="227.61" ry="107.11"/>
  <ellipse class="cls-2" cx="4313.22" cy="3932.78" rx="338.48" ry="159.28"/>
  <ellipse class="cls-1" cx="4266.78" cy="3944.37" rx="338.48" ry="159.28"/>
</svg>