<?xml version="1.0" encoding="UTF-8"?>
<svg id="Layer_1" data-name="Layer 1" xmlns="http://www.w3.org/2000/svg" xmlns:xlink="http://www.w3.org/1999/xlink" viewBox="0 0 5120 5120">
  <defs>
    <style>
      .cls-1 {
        fill: url(#linear-gradient-2);
      }

      .cls-2 {
        fill: #939598;
      }

      .cls-3 {
        fill: #754c29;
      }

      .cls-4 {
        fill: #d1d3d4;
      }

      .cls-5 {
        fill: #603913;
      }

      .cls-6 {
        fill: url(#linear-gradient);
      }

      .cls-7 {
        fill: #bcbec0;
      }
    </style>
    <linearGradient id="linear-gradient" x1="2586.42" y1="4334.51" x2="2567.91" y2="1453.94" gradientUnits="userSpaceOnUse">
      <stop offset=".21" stop-color="#886247"/>
      <stop offset=".52" stop-color="#8b6649"/>
      <stop offset=".85" stop-color="#947250"/>
      <stop offset="1" stop-color="#9b7b55"/>
    </linearGradient>
    <linearGradient id="linear-gradient-2" x1="2580.42" y1="3179.63" x2="2599.38" y2="1956.77" gradientUnits="userSpaceOnUse">
      <stop offset="0" stop-color="#b78461"/>
      <stop offset=".45" stop-color="#bd8f67"/>
      <stop offset="1" stop-color="#c3996c"/>
    </linearGradient>
  </defs>
  <path class="cls-6" d="M3151.53,4445.45c-390.41,211.11-780.83,422.22-1171.24,633.33-12.09-1679.19-24.17-3358.38-36.26-5037.56,410.65,120.56,821.3,241.13,1231.95,361.69-8.15,1347.52-16.3,2695.03-24.45,4042.55Z"/>
  <path class="cls-1" d="M3128.14,4403.68c-349.97,178.71-699.94,357.41-1049.9,536.12-5.96-1589.52-11.91-3179.03-17.87-4768.55,355.79,91.4,711.59,182.8,1067.38,274.19.13,1319.41.26,2638.82.39,3958.24Z"/>
  <rect class="cls-3" x="3073.95" y="445.51" width="54.12" height="3958.43"/>
  <path class="cls-5" d="M2060.37,171.25c.03,7.41.06,14.82.08,22.22,337.83,84.01,675.66,168.03,1013.49,252.04l53.8-.07c-355.79-91.4-711.59-182.8-1067.38-274.19Z"/>
  <path class="cls-5" d="M2078.07,4896.23c.05,14.52.11,29.04.16,43.57,349.94-178.62,699.89-357.23,1049.83-535.85h-54.12c-331.96,164.1-663.92,328.19-995.87,492.29Z"/>
  <g>
    <ellipse class="cls-2" cx="2038.66" cy="2400.9" rx="36.4" ry="61.85"/>
    <ellipse class="cls-4" cx="2042.93" cy="2400.9" rx="32.13" ry="61.85"/>
    <rect class="cls-7" x="2037.05" y="2388.59" width="35.04" height="27.63" rx="4.82" ry="4.82"/>
    <path class="cls-2" d="M2162.12,2410.33c-20.03,1.2-62.05,7.76-102.61,7.76-6.84,0-12.39-6.71-12.39-14.99v-.45c0-8.28,5.55-14.99,12.39-14.99,34.59,2.21,69.17,4.42,103.76,6.63,3.3-.22,6.22,1.96,7.2,5.2.75,2.49.28,5.3-.92,7.22-2.13,3.4-6.29,3.54-7.42,3.61Z"/>
    <path class="cls-7" d="M2168.05,2410.43c-20.03,1.18-62.05,7.66-102.61,7.66-6.84,0-12.39-6.63-12.39-14.8v-.44c0-8.17,5.55-14.8,12.39-14.8,34.59,2.18,69.17,4.37,103.76,6.55,3.3-.21,6.22,1.94,7.2,5.14.75,2.46.28,5.24-.92,7.13-2.13,3.36-6.29,3.5-7.42,3.57Z"/>
  </g>
</svg>