<?xml version="1.0" encoding="UTF-8"?>
<svg id="Layer_1" data-name="Layer 1" xmlns="http://www.w3.org/2000/svg" viewBox="0 0 5120 5120">
  <defs>
    <style>
      .cls-1 {
        fill: #e38dac;
      }

      .cls-2 {
        fill: #ebb7ce;
      }

      .cls-3 {
        fill: #f5a2c6;
      }

      .cls-4 {
        fill: #e790b7;
      }

      .cls-5 {
        fill: #f498c0;
      }
    </style>
  </defs>
  <path class="cls-5" d="M2904.8,4673.67L390.31,3642.45c-84.84-34.8-128.09-138.99-96.6-232.73l405.2-1206.03c31.49-93.74,125.81-141.52,210.65-106.73l2514.49,1031.22c84.84,34.8,128.09,138.99,96.6,232.73l-405.2,1206.03c-31.49,93.74-125.81,141.52-210.65,106.73Z"/>
  <path class="cls-5" d="M4297.03,2649.81l-2228.08-913.76c-84.84-34.8-128.09-138.99-96.6-232.73l318.61-948.3c31.49-93.74,125.81-141.52,210.65-106.73l2228.08,913.76c84.84,34.8,128.09,138.99,96.6,232.73l-318.61,948.3c-31.49,93.74-125.81,141.52-210.65,106.73Z"/>
  <path class="cls-3" d="M4759.91,1379.68c-424.33,600.2-848.66,1200.41-1272.99,1800.61-859.12-361.11-1718.24-722.21-2577.36-1083.32,524.01-551.68,1048.01-1103.35,1572.02-1655.03,759.44,312.58,1518.89,625.16,2278.33,937.74Z"/>
  <path class="cls-1" d="M4507.58,2546.3c-467.8,682.38-935.6,1364.76-1403.4,2047.13,138.82-410.84,277.65-821.68,416.47-1232.51,436.2-591.92,872.4-1183.83,1308.6-1775.75-107.22,320.38-214.45,640.75-321.67,961.13Z"/>
  <path class="cls-4" d="M4829.25,1585.17c-436.2,591.92-872.4,1183.83-1308.6,1775.75-11.24-60.21-22.49-120.42-33.73-180.63,424.33-600.2,848.66-1200.41,1272.99-1800.61,14.02,9.22,37.77,27.88,55.34,60.79,34.35,64.33,17.55,131.53,14,144.7Z"/>
  <path class="cls-2" d="M2481.58,441.94c-524.01,551.68-1048.01,1103.35-1572.02,1655.03-14.19-5.78-48.84-17.47-91.63-7.28-44.49,10.6-71.22,40.18-71.9,39.37-3.48-4.13,721.91-752.58,1603.52-1659.5,9.28-8.32,22.46-18.05,39.69-25.09,40.74-16.65,77.42-7.35,92.33-2.53Z"/>
</svg>