<?xml version="1.0" encoding="UTF-8"?>
<svg xmlns="http://www.w3.org/2000/svg" xmlns:xlink="http://www.w3.org/1999/xlink" viewBox="0 0 5120 5120">
  <defs>
    <style>
      .cls-1 {
        fill: #de3d6d;
      }

      .cls-2 {
        fill: #66c07f;
      }

      .cls-3 {
        stroke: #231f20;
        stroke-width: 15px;
      }

      .cls-3, .cls-4 {
        fill: none;
        stroke-miterlimit: 10;
      }

      .cls-5 {
        fill: #c49a6c;
      }

      .cls-6 {
        fill: #e59884;
      }

      .cls-7 {
        fill: #3b2660;
      }

      .cls-8 {
        fill: #67b4dc;
      }

      .cls-9 {
        fill: #e3b165;
      }

      .cls-10 {
        fill: #f1f2f2;
      }

      .cls-11 {
        fill: #231f20;
      }

      .cls-12 {
        fill: #de9484;
      }

      .cls-13 {
        fill: #69cef6;
      }

      .cls-14 {
        fill: #2bb673;
      }

      .cls-15 {
        fill: #ee2a7b;
      }

      .cls-16 {
        fill: #4164af;
      }

      .cls-17 {
        fill: #ec008c;
      }

      .cls-18 {
        opacity: .4;
      }

      .cls-18, .cls-19 {
        mix-blend-mode: multiply;
      }

      .cls-20 {
        isolation: isolate;
      }

      .cls-4 {
        stroke: #fff;
        stroke-width: 6px;
      }

      .cls-21 {
        fill: #c3996c;
      }

      .cls-19 {
        opacity: .51;
      }

      .cls-22 {
        fill: #d1d3d4;
      }

      .cls-23 {
        fill: #e6e7e8;
      }

      .cls-24 {
        fill: #2e3192;
      }

      .cls-25 {
        fill: #006838;
      }

      .cls-26 {
        fill: url(#linear-gradient);
      }

      .cls-27 {
        fill: #bcbec0;
      }

      .cls-28 {
        fill: #fbb997;
      }
    </style>
    <linearGradient id="linear-gradient" x1="2725.57" y1="1173.98" x2="2725.57" y2="-404.97" gradientUnits="userSpaceOnUse">
      <stop offset="0" stop-color="#644d47"/>
      <stop offset=".02" stop-color="#6d544a"/>
      <stop offset=".09" stop-color="#876954"/>
      <stop offset=".17" stop-color="#9d7b5d"/>
      <stop offset=".27" stop-color="#ae8864"/>
      <stop offset=".38" stop-color="#ba9268"/>
      <stop offset=".55" stop-color="#c1976b"/>
      <stop offset="1" stop-color="#c3996c"/>
    </linearGradient>
  </defs>
  <g class="cls-20">
    <g id="Layer_1" data-name="Layer 1">
      <rect class="cls-14" x="2326.23" y="1794.56" width="774.96" height="966.89" rx="131.3" ry="131.3"/>
      <rect class="cls-4" x="2333.54" y="1813.13" width="765" height="960.66" rx="131.3" ry="131.3"/>
      <g class="cls-19">
        <path class="cls-17" d="M2336.91,1873.91c1.49-3.41,3.22-6.99,5.23-10.68,4.23-7.75,8.79-14.3,13.12-19.71,101.34-13.47,214.94-23.27,338.95-25.53,136.03-2.48,260.09,4.55,369.69,16.18,2.46,2.55,4.98,5.34,7.52,8.37,4.15,4.96,7.68,9.81,10.69,14.37,2.86,4.88,5.82,10.65,8.52,17.28,3.38,8.32,5.54,16.01,6.94,22.58,2.39-.48,29.65-5.75,33.34,2.58,1.04,2.34.46,6.37-1.74,8.9-2.17,2.5-5.85,2.84-9.16,3-11.03.53-649.1.63-709.33,5.47-5.53.44-25.87,4.74-44.68-5.78-15.08-8.43-23.82-23.12-29.11-37.03Z"/>
      </g>
      <g>
        <path class="cls-28" d="M3185.6,2349.58s115.94,182.41,116.23,493.55c0,0,5.23,98.4-16.3,136.08l146.04,20.34s54.74-334.77-97.76-701.2c-152.49-366.43-148.21,51.24-148.21,51.24Z"/>
        <g>
          <path class="cls-28" d="M3251.19,2945.93c13.59-33.34,73-51.41,118.54-37.14,40.46,12.68,60.31,47.88,64.03,54.47,9.84,17.44,12.23,32.49,17.01,62.59,4.27,26.87,6.45,41.75-.06,59.06-5.38,14.32-17.29,31.89-31.05,37.58-53.67,22.21-194.82-111.89-168.47-176.56Z"/>
          <path class="cls-28" d="M3251.19,2945.93s-73.77,57.84-86.79,47.08c0,0-36.41,11.39,7.6,34.65,44,23.26,84.48-2.52,84.48-2.52l-5.29-79.22Z"/>
          <path class="cls-28" d="M3419.66,3122.49c-107.44,18.88-150.83,1.37-168.13-23.31-32.08-45.78-.34-153.24-.34-153.25h0l168.47,176.56Z"/>
          <path class="cls-28" d="M3301.79,3114.28s-18.5,128.72-27.88,143.05c-6.23,9.52-19.84,16.08-30.33,11.2-7.8-3.63-10.95-13.17-12.16-17.26-10.6-35.85,9.09-147.58,12.55-166.87,19.27,9.96,38.55,19.91,57.82,29.87Z"/>
          <path class="cls-28" d="M3366.5,3125.01s-20.51,142.81-30.13,158.83c-9.62,16.02-35.89,24.86-42.49-6.06-6.6-30.91,18.05-175.78,21.65-175.27s50.97,22.49,50.97,22.49Z"/>
          <path class="cls-28" d="M3396.25,3119.79s-18.5,128.72-27.88,143.05c-9.38,14.34-35.48,21.96-42.49-6.06-7.01-28.01,15.6-158.53,19.19-158.02,3.6.51,51.18,21.02,51.18,21.02Z"/>
          <path class="cls-28" d="M3450.71,3084.9s-11.65,110.27-18.57,122.85c-6.93,12.58-26.84,20.12-32.8-3.43-5.95-23.55,8.82-135.52,11.59-135.23,2.77.29,39.77,15.81,39.77,15.81Z"/>
        </g>
      </g>
      <path class="cls-28" d="M2187.42,1966.06c-15.27-8.94-30.39-8.75-52.14-7.64-40.95,2.08-100.27,3.4-178.08-.54.36-5.9.67-15.49-.28-27.2-5.23-64.06-40.3-90.49-64.27-150.53-10.26-25.69-13.89-52.69-21.16-106.68-7.44-55.26-8.58-102.35-7.93-137.16l-121.29,2.83s-55.84,333.81,53.43,568.46c57.41,18.58,138.39,37.89,236.49,39.99,76.57,1.64,142.24-7.66,192.97-18.71,4.17-34.91,12.56-133.39-37.74-162.82Z"/>
      <path class="cls-6" d="M1965.22,2143.42s-40.52-77.44,23.61-184.18l88.62,2.72-16.65,181.46s-67.14,5.41-95.58,0Z"/>
      <path class="cls-6" d="M3344.2,2324.63c-10.82,14.12-27.47,32.64-51.45,49.74-29.16,20.79-57.22,30.97-76.12,36.17-11.76-24.44-23.53-48.88-35.29-73.32,44.03-29.5,88.05-59,132.08-88.5,7.97,18.78,15.83,37.93,23.56,57.45,2.44,6.17,4.85,12.32,7.23,18.46Z"/>
      <rect class="cls-28" x="2437.09" y="4109.07" width="110.22" height="141.08"/>
      <rect class="cls-28" x="2881.2" y="4109.07" width="110.22" height="141.08"/>
      <g>
        <path class="cls-16" d="M3108.56,3058.56c-259.62-.61-519.23-1.22-778.85-1.83,4.47-132.5,8.94-265.01,13.41-397.51h753.97c3.82,133.11,7.64,266.23,11.46,399.34Z"/>
        <path class="cls-16" d="M2592.83,4160.16c-18.76,5.37-39.87,10.04-63.09,13.03-68.17,8.79-126.45-.45-167.48-11.15-10.85-368.44-21.7-736.87-32.55-1105.31,129.14-60.92,258.29-121.83,387.43-182.75-41.44,428.72-82.88,857.45-124.31,1286.17Z"/>
        <path class="cls-16" d="M2845.4,4164c26.28,6.1,57.97,11.28,94.04,12.84,52.31,2.26,97.06-3.83,131.11-11.18,12.67-369.03,25.35-738.06,38.02-1107.09-128.65-60.05-257.31-120.1-385.96-180.15,40.93,428.53,81.87,857.06,122.8,1285.59Z"/>
        <rect class="cls-16" x="2666.33" y="3017.5" width="84.22" height="112.53"/>
      </g>
      <path class="cls-24" d="M3104.91,2930.45c-82.52,34.18-229.7,82.48-417.49,76.71-154.37-4.75-276.68-44.21-353.48-75.9.71-24.68,1.42-49.35,2.13-74.03,255.46-5.74,510.91-11.48,766.37-17.22.82,30.15,1.65,60.29,2.47,90.44Z"/>
      <g>
        <path class="cls-13" d="M3103.67,2846.12c-70.07,32.99-211.05,88.55-398.44,89.5-174.98.88-308.87-46.28-379.23-76.49-14.25-205.22-20.89-425.07-16.2-657.86,2.25-111.55,6.96-219.78,13.71-324.47,33.58-6.25,79.1-13.76,133.37-19.79,0,0,63.1-6.55,133.15-9.94,198.87-9.62,374.43,5.21,518.53,27.6-1.63,323.82-3.26,647.64-4.89,971.46Z"/>
        <path class="cls-13" d="M2323.51,1876.79c-47.55,11.63-98.8,22.42-153.5,31.58-49.08,8.22-95.93,14.29-140.18,18.7-8.22,18.95-16.09,41.94-21.26,68.69-17.11,88.49,5.84,163.34,19.42,198.8,132.29,27.27,237.05,30.84,309.18,28.65,32.17-.97,54.95-9.18,68.83-21.38,44.02-38.68,6.17-171.35-82.49-325.05Z"/>
        <path class="cls-13" d="M2940.2,2127.97c28.76,23.57,59.21,51.2,89.9,83.41,55.95,58.73,97.78,117.03,128.83,167.76,27.65-7.17,81.14-25.06,131.61-71.37,40.56-37.21,62.21-77.23,73.22-101.95-21.39-46.94-51.4-102.4-93.61-160.34-55.33-75.96-113.8-131.73-161.59-170.82-56.12,84.44-112.24,168.87-168.37,253.31Z"/>
      </g>
      <path class="cls-28" d="M2849.89,1847.71c6.18,80.85-58.98,149.79-137.04,149.31-77.44-.48-141.48-69.13-135.32-149.32,40.56-3.71,84.75-6.07,132.12-6.2,50.49-.13,97.42,2.3,140.24,6.21Z"/>
      <path class="cls-28" d="M2832.74,1869.34h-233.33c5.67-52.09,9.36-110.35,9.13-173.81-.21-59.41-3.81-114.17-9.2-163.5,77.8-1.44,155.6-2.87,233.39-4.31-6.18,50.32-10.41,107.33-10.45,169.92-.04,63.3,4.21,120.92,10.45,171.69Z"/>
      <path class="cls-6" d="M2826.46,1806.56c-34.2,9.39-68.39,18.78-102.59,28.17-39.64-9.36-79.28-18.71-118.91-28.07,2.42-38.47,3.65-79.56,3.13-122.98-.7-59.01-4.53-113.83-10.14-163.85,77.8-1.44,155.6-2.87,233.39-4.31-5.21,51.83-8.56,108.39-8.76,169.08-.14,42.9,1.31,83.63,3.88,121.96Z"/>
      <path class="cls-28" d="M3377.83,945.82c-2.96,127.7-67.7,297.36-72.64,310.12-26.44,68.29-66.5,171.76-146.88,264.55-147.7,170.51-354.57,216.11-449.95,230.18-82.42-7.05-323.84-38.78-480.67-227.47-74.93-90.15-111.41-193.1-131.12-248.69-44.51-125.6-58.38-247.09-57.6-319.14,2.82-259.41,237.34-697.12,660.47-702.76,421.8-5.63,684.66,422.72,678.39,693.2Z"/>
      <path class="cls-13" d="M2309.27,2251.77s-6.46-24.47-21.14-27.77,35.21-12.6,35.21-12.6l-14.08,40.38Z"/>
      <g>
        <path class="cls-28" d="M1902.88,1550.12c-8.37,33.53-61.64,57.43-106.51,50.83-50.45-7.42-75.51-51.22-84.87-67.58-7.73-13.52-24.94-43.59-16.94-80.32,1.85-8.51,7.87-36.13,26.19-46.4,51.34-28.79,198.17,79.22,182.13,143.48Z"/>
        <path class="cls-28" d="M1902.88,1550.12s61.63-64.29,75.32-55.92c0,0,32.72-15.6-11.79-31.57-44.51-15.98-79.13,13.7-79.13,13.7l15.6,73.8Z"/>
        <path class="cls-28" d="M1720.74,1406.64c98.52-32.16,141.68-21.52,161.26-.62,36.31,38.76,20.87,144.09,20.87,144.1h0l-182.13-143.48Z"/>
        <path class="cls-28" d="M1832.71,1398.56s.14-123.55,7.04-138.29c4.58-9.79,16.5-17.79,27.03-14.6,7.83,2.37,12.07,10.92,13.75,14.6,14.78,32.3,11.24,140.03,10.57,158.63-19.46-6.78-38.93-13.56-58.39-20.34Z"/>
        <path class="cls-28" d="M1770.4,1397.14s.14-137.08,7.04-153.43c6.9-16.36,30.43-28.19,40.78,0,10.35,28.19,6.59,167.75,3.14,167.75s-50.96-14.32-50.96-14.32Z"/>
        <path class="cls-28" d="M1743.12,1406.04s.14-123.55,7.04-138.29,30.43-25.41,40.78,0,6.59,151.2,3.14,151.2-50.96-12.91-50.96-12.91Z"/>
        <path class="cls-28" d="M1695.19,1454.79s-36.6-98.79-34.51-112.98c2.09-14.19,20.97-30.92,38.22-14.22s51.12,118.55,47.89,119.75c-3.23,1.2-51.6,7.45-51.6,7.45Z"/>
      </g>
      <g>
        <path class="cls-23" d="M2585.63,4207.6c14.96,21.68-7.52,68.46-38.19,93.1-34.2,27.47-75.74,25.13-92.01,23.98-71.33-5.06-144.32-57.5-137.69-89.42,3.62-17.41,50.59-26.51,144.53-44.72,3.98-.77,49.38-9.09,100.24,4.52,11.8,3.16,18.67,6.1,23.12,12.55Z"/>
        <path class="cls-23" d="M2586.54,4397.21c-17.89,35.52-56.4,98.9-129.33,145.23-50.47,32.07-95.65,42.13-105.44,44.2-40.77,8.62-70.71,6.17-110.51,2.9-47.42-3.89-60.84-11.58-69.68-19.34-18.74-16.43-24.14-39.46-25.97-52.14-1.64-10.52-2.6-26.26,2.16-44.17,2.73-10.3,6.35-17.52,7.54-19.83,9.8-18.89,24.19-29.82,30.21-34.29,63.04-46.81,137.48-79.4,144.2-127.32,1-7.15,1.11-18.69-5.74-33.98,83.62,3.7,167.24,7.41,250.86,11.11-2.41,7.43-5.44,19.42-5.02,34.12.53,18.61,6.2,28.25,11.27,51.53,2.06,9.48,4.6,23.81,5.44,41.99Z"/>
        <path class="cls-24" d="M2437.79,4332.21c-35.77-.38-54.12,0-54.12,0-14.62.31-25.78.93-31.58-6.49-2.45-3.13-3.17-6.72-3.4-9.27,2.99-9.38,6.32-23.77,5.56-41.4-1.03-23.96-9.11-42.04-14.34-51.74-.61-.64-12.49-13.49-7.9-29.82,3.36-11.94,13.2-17.49,15.14-18.54,54.26-15.83,97.97-15.75,114-7.11,11.82,6.38,19.31,15.26,19.31,15.26,5.99,7.1,9.16,14.18,10.83,18.79,3.32,13.13,6.68,32.61,5.07,56.16-1.49,21.95-6.76,39.71-11.43,51.9-1.2,5.17-3.76,12.26-9.89,17.3-7.66,6.31-15.72,5.17-37.26,4.94Z"/>
        <path class="cls-24" d="M2410.61,4657.4c-49.34,4.33-106.95,5.19-170.63-1.8-25.99-2.86-50.5-6.75-73.41-11.28-2.58-.6-6.37-1.8-10.37-4.35-1.76-1.12-5.23-3.57-9.19-8.69-8.11-10.52-10.35-22.06-11.33-27.42-1.04-5.66-1.03-11.06-1.01-21.87.03-22.27,2.74-26.76,4.64-29.13,3.72-4.64,8.83-6.74,12.43-7.77,2.96,4.07,7.61,9.83,14.18,15.76,13.13,11.84,35.26,25.51,87.38,29.67,27.9,2.23,74.06,2.5,131.66-13.2,8.55,26.7,17.11,53.39,25.66,80.08Z"/>
        <path class="cls-24" d="M2384.94,4577.31c8.55,26.7,17.11,53.39,25.66,80.08,34-24.17,74.88-58.08,115.02-104.32,29.09-33.51,51.41-66.13,68.41-94.78,5.21-20.15,5.73-36.57,5.28-47.59-.31-7.69-1.34-32.81-9.74-34.89-.12-.03-2.62-.61-4.36.76-3.17,2.49-.86,9.05-.5,14.88.45,7.28-2.21,12.42-7.52,22.68-30.3,58.5-82.26,100.53-82.26,100.53-22.49,18.18-58.89,43.44-109.99,62.65Z"/>
      </g>
      <g>
        <path class="cls-23" d="M2837.48,4207.6c-14.96,21.68,7.52,68.46,38.19,93.1,34.2,27.47,75.74,25.13,92.01,23.98,71.33-5.06,144.32-57.5,137.69-89.42-3.62-17.41-50.59-26.51-144.53-44.72-3.98-.77-49.38-9.09-100.24,4.52-11.8,3.16-18.67,6.1-23.12,12.55Z"/>
        <path class="cls-23" d="M2836.58,4397.21c17.89,35.52,56.4,98.9,129.33,145.23,50.47,32.07,95.65,42.13,105.44,44.2,40.77,8.63,70.71,6.17,110.51,2.9,47.42-3.89,60.84-11.58,69.68-19.34,18.74-16.43,24.14-39.46,25.97-52.14,1.64-10.52,2.6-26.26-2.16-44.17-2.73-10.3-6.35-17.52-7.54-19.83-9.8-18.89-24.19-29.82-30.21-34.29-63.04-46.81-137.48-79.4-144.2-127.32-1-7.15-1.11-18.69,5.74-33.98-83.62,3.7-167.24,7.41-250.86,11.11,2.41,7.43,5.44,19.42,5.02,34.12-.53,18.61-6.2,28.25-11.27,51.53-2.06,9.48-4.6,23.81-5.44,41.99Z"/>
        <path class="cls-24" d="M2985.32,4332.21c35.77-.38,54.12,0,54.12,0,14.62.31,25.78.93,31.58-6.49,2.45-3.13,3.17-6.72,3.4-9.27-2.99-9.38-6.32-23.77-5.56-41.4,1.03-23.96,9.11-42.04,14.34-51.74.61-.64,12.49-13.49,7.9-29.82-3.36-11.94-13.2-17.49-15.14-18.54-54.26-15.83-97.97-15.75-114-7.11-11.82,6.38-19.31,15.26-19.31,15.26-5.99,7.1-9.16,14.18-10.83,18.79-3.32,13.13-6.68,32.61-5.07,56.16,1.49,21.95,6.76,39.71,11.43,51.9,1.2,5.17,3.76,12.26,9.89,17.3,7.66,6.31,15.72,5.17,37.26,4.94Z"/>
        <path class="cls-24" d="M3012.51,4657.4c49.34,4.33,106.95,5.19,170.63-1.8,25.99-2.86,50.5-6.75,73.41-11.28,2.58-.6,6.37-1.8,10.37-4.35,1.76-1.12,5.23-3.57,9.19-8.69,8.11-10.52,10.35-22.06,11.33-27.42,1.04-5.66,1.03-11.06,1.01-21.87-.03-22.27-2.74-26.76-4.64-29.13-3.72-4.64-8.83-6.74-12.43-7.77-2.96,4.07-7.61,9.83-14.18,15.76-13.13,11.84-35.26,25.51-87.38,29.67-27.9,2.23-74.06,2.5-131.66-13.2-8.55,26.7-17.11,53.39-25.66,80.08Z"/>
        <path class="cls-24" d="M3038.17,4577.31c-8.55,26.7-17.11,53.39-25.66,80.08-34-24.17-74.88-58.08-115.02-104.32-29.09-33.51-51.41-66.13-68.41-94.78-5.21-20.15-5.73-36.57-5.28-47.59.31-7.69,1.34-32.81,9.74-34.89.12-.03,2.62-.61,4.36.76,3.17,2.49.86,9.05.5,14.88-.45,7.28,2.21,12.42,7.52,22.68,30.3,58.5,82.26,100.53,82.26,100.53,22.49,18.18,58.89,43.44,109.99,62.65Z"/>
      </g>
      <g>
        <g>
          <ellipse class="cls-3" cx="2403.29" cy="1111.52" rx="179.8" ry="199.64"/>
          <ellipse class="cls-23" cx="2409.41" cy="1118" rx="185.93" ry="202.13"/>
        </g>
        <g>
          <ellipse class="cls-14" cx="2425.77" cy="1121.58" rx="162.75" ry="192.24"/>
          <path class="cls-25" d="M2588.39,1113.94c-22.01-16.77-76.41-53.57-156.05-61.85-79.76-8.28-140.64,16.64-165.62,28.54,1.87-15.07,10.4-68.88,57-109.87,11.11-9.77,48.26-42.46,103.54-41.44,54.3,1,89.83,33.84,102.18,45.24,56.29,52.02,58.78,123.78,58.96,139.37Z"/>
          <path class="cls-2" d="M2584.53,1164.03c-15.34,11.01-78.99,54-168.23,44.98-86.6-8.75-139.5-60.65-152.93-74.67.24,18.06,3.36,68.3,39.79,114.37,11.47,14.51,45.09,57.01,103.04,64.15,47.85,5.89,84.24-15.64,96.95-23.42,65.33-39.97,79.1-112.25,81.37-125.4Z"/>
          <ellipse class="cls-11" cx="2441.43" cy="1112.78" rx="114.57" ry="124.1"/>
          <ellipse class="cls-10" cx="2372.82" cy="1039" rx="60.35" ry="29.66"/>
          <ellipse class="cls-10" cx="2340.87" cy="1167.02" rx="23.31" ry="9.6"/>
        </g>
      </g>
      <g>
        <path class="cls-5" d="M2867.74,822.95c10.55-21.47,31.73-36.37,54.53-43.61,22.8-7.24,47.22-7.59,71.09-5.97,13.88.95,62.93,7.4,115.75,41.28,17.28,11.08,42.73,30.13,67.25,60.61-87.21-65.2-207.08-84.13-310.14-48.98"/>
        <path class="cls-21" d="M2869.9,824.21c10.51-21.25,31.27-35.64,53.49-42.61,13.75-4.31,28.11-6.1,42.48-6.46,10.67-.27,21.47,0,32.09,1.13,1.34.14,2.67.3,4.01.48.12.02.77.1.1.01.2.03.39.05.59.08.34.05.67.09,1.01.14.89.13,1.77.26,2.65.4,3.84.6,7.66,1.32,11.46,2.12,9.84,2.08,19.56,4.77,29.09,7.97,24.04,8.08,46.94,19.56,67.87,33.89,19.53,13.37,37.25,29.32,52.77,47.18,2.42,2.78,4.78,5.61,7.1,8.49,1.01-1.31,2.02-2.62,3.03-3.93-17.13-12.79-35.54-23.84-54.84-33.03-19.26-9.16-39.37-16.53-59.99-21.99-20.7-5.48-41.92-9.05-63.27-10.69-21.25-1.63-42.65-1.32-63.84,1.01s-42.19,6.61-62.55,12.99c-2.54.79-5.06,1.62-7.58,2.48-3.03,1.03-1.73,5.86,1.33,4.82,19.96-6.79,40.59-11.63,61.49-14.4,20.99-2.79,42.25-3.56,63.4-2.41,21.01,1.14,41.9,4.22,62.35,9.16,20.44,4.94,40.45,11.71,59.63,20.34,19.25,8.66,37.68,19.14,54.9,31.34,2.17,1.54,4.32,3.1,6.45,4.69.99.74,2.55.26,3.23-.64.8-1.07.61-2.28-.2-3.28-16.1-19.99-34.82-37.8-55.66-52.79-20.55-14.78-43.15-26.71-66.91-35.46-17.48-6.44-35.66-11.21-54.16-13.57-8.88-1.13-17.88-1.5-26.83-1.59-14.73-.16-29.58.92-43.94,4.34-23.93,5.7-47,18.76-60.71,39.68-1.6,2.44-3.04,4.97-4.33,7.58-1.42,2.87,2.89,5.41,4.32,2.52h0Z"/>
      </g>
      <g>
        <g>
          <ellipse class="cls-3" cx="3010.65" cy="1111.52" rx="179.8" ry="199.64"/>
          <ellipse class="cls-23" cx="3004.53" cy="1118" rx="185.93" ry="202.13"/>
        </g>
        <g>
          <ellipse class="cls-14" cx="2981.34" cy="1120.2" rx="162.75" ry="192.24"/>
          <path class="cls-25" d="M2818.72,1112.56c22.01-16.77,76.41-53.57,156.05-61.85,79.76-8.28,140.64,16.64,165.62,28.54-1.87-15.07-10.4-68.88-57-109.87-11.11-9.77-48.26-42.46-103.54-41.44-54.3,1-89.83,33.84-102.18,45.24-56.29,52.02-58.78,123.78-58.96,139.37Z"/>
          <path class="cls-2" d="M2822.58,1162.66c15.34,11.01,78.99,54,168.23,44.98,86.6-8.75,139.5-60.65,152.93-74.67-.24,18.06-3.36,68.3-39.79,114.37-11.47,14.51-45.09,57.01-103.04,64.15-47.85,5.89-84.24-15.64-96.95-23.42-65.33-39.97-79.1-112.25-81.37-125.4Z"/>
          <ellipse class="cls-11" cx="2965.68" cy="1111.4" rx="114.57" ry="124.1"/>
          <ellipse class="cls-10" cx="3034.29" cy="1037.62" rx="60.35" ry="29.66"/>
          <ellipse class="cls-10" cx="3066.24" cy="1165.64" rx="23.31" ry="9.6"/>
        </g>
      </g>
      <g>
        <path class="cls-5" d="M2594.98,829.12c-10.55-21.47-31.73-36.37-54.53-43.61-22.8-7.24-47.22-7.59-71.09-5.97-13.88.95-62.93,7.4-115.75,41.28-17.28,11.08-42.73,30.13-67.25,60.61,87.21-65.2,207.08-84.13,310.14-48.98"/>
        <path class="cls-21" d="M2597.14,827.86c-10.88-22-32.38-37.07-55.3-44.53-13.97-4.54-28.7-6.49-43.34-6.97-11.11-.36-22.36-.1-33.42,1.05-17.01,1.77-33.82,5.83-50.03,11.24-24.54,8.2-47.98,19.81-69.35,34.4-19.97,13.64-38.16,29.87-54.02,48.13-2.42,2.78-4.78,5.61-7.1,8.49-.78.97-1.03,2.24-.2,3.28.7.88,2.21,1.4,3.23.64,16.97-12.67,35.2-23.63,54.3-32.77,19.03-9.1,38.94-16.35,59.33-21.74,20.34-5.39,41.16-8.93,62.14-10.53,21.05-1.61,42.25-1.3,63.24.98,20.89,2.27,41.57,6.58,61.62,12.85,2.54.79,5.06,1.62,7.58,2.48,3.05,1.04,4.36-3.79,1.33-4.82-20.34-6.92-41.33-11.73-62.62-14.55-21.06-2.79-42.38-3.59-63.59-2.43-21.38,1.16-42.67,4.28-63.49,9.3-20.81,5.01-41.13,11.96-60.65,20.72-19.38,8.69-37.93,19.22-55.26,31.51-2.17,1.54-4.32,3.1-6.45,4.69l3.03,3.93c15.75-19.56,34.01-37.13,54.39-51.82,20.05-14.46,42.06-26.26,65.24-34.86,10.12-3.76,20.47-6.93,30.97-9.44,4.12-.98,8.27-1.86,12.44-2.63,1.78-.33,3.56-.63,5.35-.91.81-.13,1.63-.25,2.44-.37.37-.05.74-.11,1.11-.16.2-.03.39-.05.59-.08-.67.09.06,0,.2-.03,8.42-1.08,16.93-1.48,25.42-1.63,14.45-.26,29,.61,43.13,3.82,23.13,5.26,45.82,17.45,59.09,37.7,1.6,2.44,3.04,4.97,4.33,7.58,1.43,2.88,5.74.35,4.32-2.52h0Z"/>
      </g>
      <g class="cls-18">
        <path class="cls-6" d="M2583.59,1048.93c23.47-7,75.78-22.85,132.91-51.33,46.12-22.99,128.18-63.06,198.45-149.3,37.62-46.16,62.95-100.87,87.89-154.95-1.72,78.24,12.74,157.72,49.01,227.07,36.27,69.35,95.32,127.95,168.06,156.82-28.29-31.82-37.16-75.91-44.98-117.76-15.27-81.81-30.57-163.73-38.81-246.54-4.51-45.23-7.16-91.72-25.53-133.29-18.37-41.57-56.82-77.93-102.26-78.75-38.3-.69-72.8,23.43-98.94,51.43-70.63,75.67-98.83,181.27-157.36,266.65-35.72,52.11-78.61,88.94-161.61,164.56-41.21,37.54-77.26,67.42-103.76,88.61,25.7-4.68,58.91-11.87,96.93-23.22Z"/>
      </g>
      <g class="cls-18">
        <path class="cls-6" d="M2711.06,710.07c-97.67,33.8-180.75,99.99-255.26,171.61-19.21,18.46-38.01,37.38-55.15,57.78-35.42,42.16-63.47,90.5-82.5,142.17-2.87-9.33-3.52-19.19-3.74-28.95-2.34-102.66,41.54-203.77,111.31-279.11,69.77-75.34,163.86-125.86,263.09-152.27,18.56-4.94,41.97-7.56,53.61,7.72,4.57,6,6.23,13.69,7.35,21.15,2.27,15.08,2.42,31.93-7.05,43.89-9.15,11.55-24.71,15.42-39.11,18.59"/>
      </g>
      <g class="cls-18">
        <path class="cls-6" d="M3170.66,793.42c15.91,66.32,23.86,99.48,31.86,118.5,20.69,49.18,46.68,88.22,59.36,105.76,11.24,15.55,23.21,30.74,31.78,47.91,12.89,25.83,17.54,55,28.81,81.58,14.1.2,21.54-16.46,24.27-30.29,15.54-78.81-2.31-160.23-25.09-237.26-5.46-18.45-11.21-36.83-18.03-54.82-13.95-36.77-32.4-71.84-54.8-104.16-7-10.09-14.63-20.16-25.04-26.66-3.3-2.06-20.04-10.2-35-2.82-2.78,1.37-13.51,7.29-19.85,33.69-7.21,30.02-1.34,55.7,1.74,68.58Z"/>
      </g>
      <g class="cls-18">
        <path class="cls-6" d="M2327.17,769.51s-109.57,81.63-223.23,455.82c-.51,1.67-3.21,8.47-9.26,13.12-4.29,3.29-10.83,4.31-14.97.83-2.23-1.88-3.41-4.71-4.4-7.46-13.35-37.04-7.29-78.08,1.51-116.46,30.31-132.25,91.68-257.27,177.76-362.14,14.03-17.09,28.77-33.72,45.65-48,12.63-10.68,28.32-19.45,42.3-14.21,12.18,4.57,20.15,19.36,19.96,32.39-.35,23.6-27.48,40.7-35.33,46.11Z"/>
      </g>
      <path class="cls-26" d="M2324.92,721.38c-82.15,95.86-171.65,230.87-220.08,406.82-7.97,28.95-14.33,57.2-19.35,84.61l-2.01,22.14c-35.22-31.67-96.88-96.49-128.34-196.69-20.21-64.39-19.43-117.91-18.92-144.72,2-103.22,35.96-178.53,51.7-212.49,50.54-109.07,124.5-177.6,170.12-213.41-13.93-1.06-40.75-1.24-71.14,11.04-31.51,12.73-51.07,32.49-60.27,43.12,24.15-47.33,67-117.36,139.52-183.8,73-66.88,141.59-99.92,190.84-121.14,154.55-66.62,326.85-94.39,493.53-71.14,64.79,9.04,129.7,26.17,184.69,61.62,8.26,3.68,16.53,7.37,24.8,11.05,3.14-10.9,33.84-111.75,120.99-135.77,20.62-5.69,40.37-5.96,57.73-3.7,7.51,3.68,15.77,9.02,15.71,15.39-.13,14.36-42.49,21.81-73.9,34.49-31.83,12.85-72.16,39.05-110.37,97.44,11.97,2.59,29.44,6.95,49.81,14.31,110.89,40.06,171.67,119.72,249.68,224.81,0,0,82.36,108.08,121.52,211.62,11.91,31.5,16.68,55.32,18.7,66.9,6.89,39.42,5.75,73.04,3.39,96.33-18.74,55.52-37.21,100.38-51.49,132.73-13.28,30.09-20.56,46.44-33.38,68.9-31.52,55.21-63.55,89.48-78.4,104.43-4.75,4.77-8.76,8.6-11.44,11.11-1-16.75-3.68-41.61-11.61-70.57-16.18-59.13-46.52-96.8-53.82-112.78-33.02-72.36-56.89-148.89-70.84-227.19l-12.73-29.08c-8.45,116.51,6.96,234.7,44.98,345.16l2.25,24.02c-127.37-122.08-204.72-294.88-210.92-471.2l-5.13-66.27c-74.45,241.26-280.49,437.35-525.13,499.76,65.62-44.61,107.61-116.34,139.05-189.2,31.45-72.85,54.74-149.54,94.1-218.44l-17.27,3.36c-91.21,57.76-181.55,117.85-261.34,190.58-79.78,72.73-149.1,158.96-190.7,258.58-15.12-127.07,8.49-258.24,65.47-372.73Z"/>
      <path class="cls-28" d="M2103.62,1278.9c35.73,80.18,53.6,120.26,47.46,126.59-21,21.64-209.89-63.76-203.12-167.45,3.58-54.92,61.52-106.59,88.53-98.26,12.51,3.86,13.2,18.99,46.99,95.17,10.61,23.93,8.78,18.47,20.14,43.95Z"/>
      <path class="cls-28" d="M3274.69,1278.9c-35.73,80.18-53.6,120.26-47.46,126.59,21,21.64,209.89-63.76,203.12-167.45-3.58-54.92-61.52-106.59-88.53-98.26-12.51,3.86-13.2,18.99-46.99,95.17-10.61,23.93-8.78,18.47-20.14,43.95Z"/>
      <path class="cls-15" d="M2911.32,1515.64c0,60.95-88.48,110.37-197.62,110.37s-197.62-49.41-197.62-110.37,395.24-60.95,395.24,0Z"/>
      <path class="cls-23" d="M2560,1485.59s-9.13,10.82,1.63,23.16c43.98-6.3,95.22-10.77,152.33-10.52,53.44.23,101.63,4.54,143.4,10.52,0,0,12.46-7.28,7.55-23.83,0,0-140.81-35.37-304.91.67Z"/>
      <path class="cls-23" d="M2578.03,1595.88c.63-2.04,1.75-5.18,3.72-8.71,1.96-3.51,9.24-16.57,17.19-15.39,3.64.54,6.96,4,7.68,7.57,1.01,5-3.58,7.79-3.41,10.5.58,9.23,56.06,11.43,100.6,14.78,0,0,47.43,3.57,112.95-8.91,2.46-.47,5.97-1.48,7.55-4.32.75-1.35,3.45-3.38.84-5.62-1.75-1.5-1.75-14.5,11.25-12.75s7.16,25.82,7.16,25.82c-11.12,5.13-27.26,11.73-47.4,17.13-43.56,11.69-78.84,10.5-98.43,9.68-18.53-.77-43.26-1.96-74.29-11.31-19.06-5.74-34.41-12.74-45.42-18.45Z"/>
      <path class="cls-1" d="M2826.17,1588.29c.15,3.19-5.33,5.9-8.34,7.19-22.11,4.09-41.24,6.33-56.35,7.63-12.58,1.08-26.87,2.27-45.88,1.94-6.53-.11-4.87-.25-34.86-2.05-28.37-1.7-35.13-1.89-46.95-3.93-19.78-3.41-29.67-5.11-30.59-9.23-2.52-11.29,50.89-42.97,110.05-45.22,0,0,58.95-2.24,111.12,40.74.44.36,1.73,1.42,1.8,2.92Z"/>
      <path class="cls-12" d="M2664.32,1336.78c18.76-10.68,39.76-17.43,61.24-19.61,11.05-1.12,22.37-1.22,33.39.25,5.48.73,11.03,1.89,16.21,3.85,2.19.83,4.34,1.99,5.9,3.78s2.32,4.04,2.96,6.23c3.48,11.89,2.92,24.71-1.29,36.34-.46,1.27.52,2.74,1.75,3.08,1.39.38,2.61-.47,3.08-1.75,4-11.05,4.8-23.16,2.38-34.66-1.17-5.55-2.9-11.27-7.62-14.82-4.41-3.32-10.4-4.69-15.71-5.79-11.53-2.4-23.57-2.74-35.3-1.99-11.43.74-22.8,2.68-33.82,5.81-12.44,3.53-24.46,8.57-35.69,14.96-2.8,1.59-.28,5.91,2.52,4.32h0Z"/>
      <path class="cls-12" d="M2765.67,1194.71c-7.98,14.75-12.93,30.9-16.54,47.22-3.65,16.51-7.24,34.04-3.47,50.85,1.87,8.36,5.65,16.32,11.55,22.59,2.21,2.35,5.74-1.19,3.54-3.54-10.4-11.05-12.54-26.97-11.36-41.52.68-8.36,2.33-16.64,4.09-24.83,1.69-7.9,3.66-15.75,6.12-23.45,2.74-8.56,6.12-16.9,10.4-24.81,1.53-2.83-2.78-5.36-4.32-2.52h0Z"/>
      <path class="cls-6" d="M1723.56,1443.15c8.6-10.71,18.43-20.71,31.6-25.5,6.91-2.51,14.19-3.9,21.42-5.14,7.8-1.34,15.66-2.35,23.55-3.05,8.92-.79,17.88-1.17,26.83-1.17,3.22,0,3.22-5,0-5-16.35-.01-32.68,1.31-48.82,3.92-7.6,1.23-15.28,2.58-22.6,5.03-7.04,2.35-13.42,5.86-19.22,10.48-6.14,4.9-11.39,10.79-16.29,16.89-.84,1.05-1.03,2.51,0,3.54.87.87,2.69,1.06,3.54,0h0Z"/>
      <path class="cls-6" d="M1880.22,1466.99c-17.06,1.37-33.36,8.09-46.53,18.99-3.66,3.03-7.04,6.39-10.09,10.03-.87,1.03-1.01,2.52,0,3.54.89.89,2.66,1.04,3.54,0,10.29-12.25,24.27-21.12,39.72-25.25,4.38-1.17,8.84-1.96,13.36-2.32,1.35-.11,2.5-1.07,2.5-2.5,0-1.27-1.15-2.61-2.5-2.5h0Z"/>
      <path class="cls-6" d="M1780.36,1271.17c2.26,28.2,2.97,56.52,2.1,84.8-.24,7.94-.61,15.87-1.1,23.8-.2,3.21,4.8,3.2,5,0,1.73-28.24,1.92-56.57.53-84.82-.39-7.93-.9-15.86-1.54-23.77-.11-1.35-1.07-2.5-2.5-2.5-1.27,0-2.61,1.15-2.5,2.5h0Z"/>
      <path class="cls-6" d="M1946.37,1972.04c-7.42,11.2-15.55,21.95-24.8,31.72-9.08,9.59-19.21,18.22-30.62,24.91-6.39,3.75-13.13,6.84-20.18,9.15-3.05,1-1.74,5.83,1.33,4.82,13.09-4.28,25.07-11.13,35.88-19.62,10.8-8.48,20.31-18.53,28.84-29.28,4.91-6.18,9.51-12.6,13.87-19.18,1.78-2.69-2.55-5.2-4.32-2.52h0Z"/>
      <path class="cls-6" d="M2022.69,1223.27c10.62,7.66,20.03,17.1,27.61,27.78,2.72,3.84,7.97,10.77,2.24,14.37-2.49,1.57-5.31,2.61-7.9,4.02s-5.28,3.16-7.69,5.08c-4.78,3.81-8.57,8.89-10.09,14.87-1.6,6.31-.69,12.99,1.51,19.04,2.23,6.15,5.58,11.83,9.45,17.09,3.81,5.18,7.94,10.2,12.87,14.36,5.47,4.61,11.86,8.23,18.99,9.43,6.95,1.17,14.24.3,20.24-3.58,2.69-1.74.19-6.07-2.52-4.32-10.2,6.6-23.37,2.83-32.22-4.28-4.9-3.94-9.06-8.76-12.79-13.8s-7.07-10.38-9.19-16.23c-2.01-5.55-2.97-11.59-1.24-17.34,1.64-5.45,5.62-9.74,10.21-12.94,2.46-1.71,5.09-3.18,7.78-4.51,2.56-1.26,5.31-2.3,7.39-4.33,5.31-5.16,2-12.6-1.5-17.71-8.31-12.15-18.69-22.72-30.63-31.32-1.1-.79-2.78-.19-3.42.9-.74,1.26-.2,2.63.9,3.42h0Z"/>
      <path class="cls-6" d="M3367.72,1206.69c-15.27,9.51-29.92,20-43.85,31.38-5.87,4.8-14.06,11.06-12.76,19.68.6,4.01,3.49,7.01,6.41,9.58,3.1,2.73,6.48,5.18,10.07,7.24s7.28,3.7,11.13,4.99c3.37,1.13,6.86,1.76,10.25,2.81,2.59.8,5.32,1.85,7.05,3.83.57.65,1.04,1.77,1.06,2.7.06,1.97-1,3.76-1.93,5.42-7.08,12.59-17.65,22.78-29.38,31.04-12.2,8.59-25.56,15.37-38.99,21.8-1.68.81-3.37,1.61-5.05,2.4-1.22.58-1.54,2.33-.9,3.42.73,1.25,2.2,1.48,3.42.9,13.46-6.38,26.92-12.91,39.41-21.07,12.38-8.09,23.8-17.85,32.18-30.14,2.14-3.13,4.41-6.51,5.65-10.12,1.2-3.52.46-7.25-2.03-9.99-4.48-4.94-12.02-5.52-18.01-7.37-7.55-2.33-14.64-6.29-20.56-11.53-2.47-2.19-5.39-4.84-4.9-8.48.47-3.55,3.34-6.53,5.84-8.86,3.2-2.98,6.7-5.66,10.12-8.38,3.44-2.73,6.92-5.39,10.44-8.01,7.2-5.34,14.58-10.44,22.11-15.3,1.9-1.23,3.81-2.43,5.73-3.63,2.73-1.7.22-6.02-2.52-4.32h0Z"/>
      <path class="cls-6" d="M2152.78,1401.91c-12.55-23.6-22.32-48.63-29.09-74.5-1.9-7.26-3.55-14.57-4.98-21.93-.26-1.33-1.85-2.08-3.08-1.75-1.39.38-2,1.75-1.75,3.08,5.13,26.52,13.38,52.39,24.46,77.02,3.14,6.98,6.52,13.85,10.11,20.61,1.51,2.84,5.83.32,4.32-2.52h0Z"/>
      <path class="cls-6" d="M3241.71,1404.65c11.2-19.4,21.25-39.45,30.09-60.03,2.53-5.9,4.97-11.85,7.31-17.83.49-1.26-.54-2.74-1.75-3.08-1.42-.39-2.58.48-3.08,1.75-8.05,20.58-17.32,40.68-27.73,60.18-2.96,5.54-6.02,11.04-9.16,16.48-1.61,2.79,2.71,5.31,4.32,2.52h0Z"/>
      <path class="cls-6" d="M3356.49,3130.64c-1.58,18.37-5.23,36.47-8.42,54.6-1.61,9.15-3.09,18.31-4.2,27.54-1.08,9.02-1.87,18.08-2.95,27.1-1.2,10.03-2.83,20.03-5.59,29.76-.88,3.1,3.94,4.42,4.82,1.33,5.01-17.64,6.23-36.02,8.25-54.16,2.06-18.45,5.77-36.63,8.88-54.92,1.77-10.36,3.31-20.78,4.21-31.25.12-1.35-1.23-2.5-2.5-2.5-1.45,0-2.38,1.15-2.5,2.5h0Z"/>
      <path class="cls-6" d="M3361.91,3127.87c1.46-1.62,3.06-3.11,4.79-4.45l-.51.39c.64-.49,1.29-.97,1.96-1.42.54-.37.97-.85,1.15-1.49.16-.6.09-1.4-.25-1.93-.69-1.08-2.26-1.68-3.42-.9-2.65,1.79-5.11,3.88-7.26,6.26-.44.49-.73,1.09-.73,1.77,0,.61.27,1.35.73,1.77.96.88,2.6,1.04,3.54,0h0Z"/>
      <path class="cls-6" d="M3399.53,3124.49c1.05-2.25,2.1-4.49,3.15-6.74-1.52-.64-3.05-1.28-4.57-1.93-.26,1.3-.43,2.63-.46,3.96s.1,2.65.29,3.98c.38-.94.77-1.88,1.15-2.82-.33.2-.66.38-1.02.53l.6-.25c-.56.22-1.13.37-1.72.46l.66-.09c-.55.07-1.1.07-1.65,0-.59-.07-1.36.33-1.77.73-.43.43-.76,1.15-.73,1.77s.24,1.32.73,1.77c.52.48,1.07.65,1.77.73,1.93.22,4-.3,5.65-1.33.47-.29.81-.69,1.02-1.2.24-.56.21-1.03.13-1.63-.01-.1-.03-.19-.04-.29l.09.66c-.22-1.68-.22-3.36,0-5.04l-.09.66c.06-.43.13-.86.21-1.28.24-1.23-.25-2.44-1.45-2.95-1.06-.45-2.59-.11-3.12,1.02-1.05,2.25-2.1,4.49-3.15,6.74-.29.62-.44,1.24-.25,1.93.16.58.61,1.21,1.15,1.49,1.11.59,2.83.37,3.42-.9h0Z"/>
      <path class="cls-6" d="M3304.19,3125.11c.21-.77.44-1.54.69-2.3s.49-1.55.84-2.25c-.29.57,0,.02.04-.08.07-.17.15-.34.23-.51.18-.39.37-.78.56-1.17.36-.72.74-1.42,1.15-2.11l-4.66-1.26c.22,2.6.76,5.15,1.77,7.56.17.4.33.8.51,1.19.03.06.29.5.08.18-.08-.19-.08-.18-.02.02l-.05-.34c.67-1.15.82-1.54.46-1.18-.09.09-.06.07.09-.06.34-.27-.04,0-.12.05-.12.07-.25.12-.37.19-.27.15.57-.19.05-.03-.27.08-.53.17-.81.23-.1.02-.23.02-.33.06.36-.04.44-.06.25-.04-.08,0-.17.02-.25.02-.25.01-.5.01-.76,0-.57-.04.08.02.08.02,0,.01-.47-.1-.49-.1l1.75,3.08c-.06.26-.18.48-.36.66.14-.13.13-.12-.05.02-.32.28.06,0,.16-.05.17-.08.08-.04-.28.12.09-.03.17-.06.26-.09.14-.05.28-.09.42-.13,1.01-.34,1.85-.8,2.51-1.65,1.64-2.12.19-5.37-2.51-5.43-1.31-.03-2.56,1.17-2.5,2.5s1.1,2.47,2.5,2.5c-.55-.01-1.1-.28-1.44-.72-.11-.1-.18-.22-.22-.37-.08-.22-.1-.27-.07-.14.05.2.03.07-.06-.38l.06-.44c.07-.25.24-.5.42-.68-.33.32.36-.17.12-.07-.19.08-.43.13.14-.03-.21.06-.42.15-.63.21-.55.17-1.12.38-1.61.7-.84.56-1.3,1.23-1.68,2.15-.22.53-.05,1.46.25,1.93.35.54.86,1,1.49,1.15,1.57.37,3.27.37,4.81-.14.92-.3,1.82-.72,2.56-1.35.98-.85,1.32-2.15,1.05-3.4-.1-.46-.32-.89-.51-1.32,0-.02-.23-.51-.23-.51.12.29.14.34.07.17-.04-.09-.07-.17-.1-.26-.26-.66-.49-1.33-.69-2.01s-.36-1.37-.5-2.07c-.07-.36-.15-.73-.18-1.1.03.3.05.36,0,.02-.02-.21-.04-.43-.06-.65-.09-1.07-.71-2.15-1.84-2.41s-2.25.16-2.82,1.15c-1.75,3-3.11,6.26-4.01,9.62-.34,1.26.42,2.77,1.75,3.08s2.71-.39,3.08-1.75h0Z"/>
      <path class="cls-6" d="M3350.04,3101.35c-.41-16.51-1.6-33-3.57-49.4-.57-4.71-1.2-9.41-1.89-14.1-.2-1.34-1.89-2.07-3.08-1.75-1.43.39-1.94,1.73-1.75,3.08,3.02,20.59,4.76,41.37,5.28,62.17.08,3.21,5.08,3.22,5,0h0Z"/>
      <path class="cls-6" d="M3393.82,3085.3c-2.43-15.42-4.63-30.87-6.6-46.35-.17-1.34-1.03-2.5-2.5-2.5-1.22,0-2.67,1.15-2.5,2.5,2.02,15.93,4.27,31.82,6.77,47.68.21,1.33,1.88,2.08,3.08,1.75,1.42-.39,1.96-1.74,1.75-3.08h0Z"/>
      <path class="cls-6" d="M1822.58,1388.15c-.28,1.45-.52,2.9-.73,4.36-.12.86-.31,1.73-.34,2.59-.05,1.27.57,2.47,1.66,3.14.69.42,1.58.67,2.37.83.8.16,1.64.29,2.46.23.92-.07,1.87-.26,2.66-.78.92-.62,1.53-1.43,1.9-2.47.57-1.57.15-3.22-.07-4.8l.09.66c-.06-.47-.09-.94-.04-1.41l-.09.66c.03-.25.09-.48.18-.72l-.25.6c.07-.15.14-.3.23-.44.97-1.52-.28-3.92-2.16-3.76-.73.06-1.46.12-2.2.18-.37.03-.73.06-1.1.09-.32.03-.66.09-.97.06l.66.09-.08-.03,1.1.64-.06-.06.64,1.1-.02-.06.09.66v-.06c-.02.22-.05.44-.08.66l.02-.06-.25.6.04-.06-.39.51c.28-.36.57-.68.74-1.1.35-.82.27-1.59-.14-2.39-.5,1.22-1,2.45-1.49,3.67.2-.04.41-.07.61-.1l-.66.09c1.13-.14,2.26-.16,3.38-.04-.72-1.25-1.44-2.51-2.16-3.76-.84,1.97-1.47,3.97-1.76,6.1,1.22-.5,2.45-1,3.67-1.49-1.14-.53-2.3-.96-3.54-1.17-.68-.12-1.31-.11-1.93.25-.52.3-1.01.9-1.15,1.49-.28,1.21.37,2.84,1.75,3.08.88.15,1.72.4,2.54.74l-.6-.25c.14.06.27.12.4.18.75.35,1.45.45,2.22.13.64-.27,1.35-.88,1.45-1.62.25-1.84.73-3.64,1.45-5.36l-.25.6.06-.14c.23-.39.34-.81.34-1.26,0-.45-.12-.87-.34-1.26-.48-.82-1.26-1.15-2.16-1.24-1.56-.16-3.11-.04-4.66.23-.75.13-1.34.79-1.62,1.45-.32.76-.25,1.5.13,2.22l.03.06-.34-1.26v.06c.03-.22.06-.44.09-.66l-.02.06.25-.6s-.05.08-.08.12l.39-.51c-.36.43-.67.8-.83,1.35-.18.62-.13,1.23.11,1.81.32.75.96,1.33,1.76,1.54.47.12.86.1,1.32.06,1.2-.1,2.4-.2,3.61-.3-.72-1.25-1.44-2.51-2.16-3.76-.58.91-.82,2.04-.78,3.11.04.92.25,1.82.37,2.73l-.09-.66c.06.47.08.94.03,1.41l.09-.66c-.04.26-.1.51-.19.76l.25-.6c-.07.17-.16.33-.27.48l.39-.51c-.12.16-.26.29-.41.41l.51-.39c-.14.09-.27.17-.42.24l.6-.25c-.27.11-.54.18-.84.22l.66-.09c-.49.05-.97.03-1.46-.03l.66.09c-.69-.1-1.37-.27-2.02-.52l.6.25c-.12-.05-.22-.1-.32-.17l.51.39c-.07-.05-.13-.1-.18-.16l.39.51c-.05-.06-.09-.13-.12-.2l.25.6c-.03-.07-.05-.15-.06-.22l.09.66c-.05-.4.03-.8.08-1.19l-.09.66c.25-1.82.54-3.64.88-5.45.13-.67.1-1.32-.25-1.93-.3-.52-.9-1.01-1.49-1.15-1.23-.28-2.81.37-3.08,1.75h0Z"/>
      <path class="cls-6" d="M1733.07,1405.11l1.39,3.54.66,1.69c.16.42.3.87.52,1.26.4.73,1.17,1.23,1.98,1.34.75.1,1.35-.11,2.02-.43.25-.12.5-.25.75-.36.55-.26,1.1-.51,1.66-.75.43-.18-.35.14-.06.03.13-.05.26-.11.38-.16.31-.12.62-.25.93-.36.57-.22,1.14-.42,1.72-.61.96-.32,1.65-1.06,1.79-2.08.14-1.07-.37-1.86-1.19-2.49.19.09.34.23.45.4.14.2.16.22.07.06.05.11.21.6.1.21-.06-.2-.09-.4-.13-.61-.08-.51-.17-1.01-.31-1.5-.2-.67-.47-1.33-.77-1.96-.36-.76-.81-1.56-1.53-2.01-1.22-.77-2.62-.41-3.63.51-.4.37-.79.74-1.22,1.08-.29.24-.11.06.08-.06-.13.08-.25.19-.38.28-.21.15-.42.3-.64.44s-.44.28-.66.41c-.04.02-.34.23-.39.22l.33-.13c-.09.03-.18.06-.27.07l.66-.09c-.09.01-.18.01-.27,0l.66.09c.65.21,1.07.6,1.27,1.16.09.25.11.3.08.13l.09.66c0-.06,0-.11,0-.17l-.09.66c-.5.5-1,1-1.49,1.5,1.02-.26,1.88-1.34,1.84-2.41-.02-.44-.13-.87-.34-1.26-.32-.6-.89-.91-1.49-1.15-.23-.09-.47-.19-.7-.28.2,1.52.4,3.05.6,4.57.16-.08.59-.21.69-.34-.09.12-.52.21-.1.05.12-.04.24-.09.36-.13.49-.16.99-.27,1.5-.35l-.66.09c.25-.03.51-.06.77-.07,1.3-.08,2.56-1.09,2.5-2.5-.06-1.28-1.1-2.59-2.5-2.5-1.8.11-3.49.58-5.07,1.44-.88.48-1.32,1.54-1.19,2.49.14,1.06.84,1.69,1.79,2.08.23.09.47.19.7.28v-4.82c-1.87.47-2.56,2.65-1.71,4.26.37.69,1.09,1.25,1.85,1.43.93.22,1.83.02,2.67-.4.73-.37,1.42-.84,2.08-1.33.46-.34.92-.7,1.35-1.07.16-.13.31-.27.47-.41.08-.07.15-.14.23-.21.37-.35.23,0-.57.26h-1.33l-.36-.15-.9-.9c.16.22.3.46.43.7.06.11.12.23.18.34.08.16.21.62,0-.04.17.54.37,1.05.49,1.61.1.47.12.96.27,1.42.11.35.26.71.45,1.03.33.54.72.85,1.22,1.23.2-1.52.4-3.05.6-4.57-1.08.36-2.14.76-3.18,1.2-.66.28-1.32.55-1.97.85-.25.12-.5.23-.75.35-.16.08-1.09.51-.36.21l.66-.09h-.14c.42.12.84.23,1.26.34l-.09-.06.9.9c-.22-.31.17.49.05.16-.04-.11-.08-.21-.13-.32l-.28-.72-.6-1.53c-.39-.99-.78-1.98-1.17-2.98-.25-.63-.55-1.14-1.15-1.49-.54-.31-1.33-.45-1.93-.25-1.18.38-2.26,1.77-1.75,3.08h0Z"/>
      <path class="cls-6" d="M1857.01,1591.1c-4.45,1.93-9.04,3.55-13.7,4.86-2.4.68-4.83,1.27-7.27,1.78-1.93.4-3.9.72-5.78,1.33-4.36,1.39-7.42,4.2-8.57,8.72-1.22,4.81-1.84,9.85-2.62,14.74-.93,5.84-1.75,11.7-2.49,17.56-.17,1.34,1.27,2.5,2.5,2.5,1.49,0,2.33-1.15,2.5-2.5,1.21-9.62,2.68-19.2,4.46-28.73.34-1.79.62-3.83,1.83-5.28,1.02-1.22,2.58-1.86,4.07-2.3,4.08-1.22,8.36-1.79,12.48-2.93,5.17-1.44,10.2-3.29,15.12-5.43,1.24-.54,1.52-2.35.9-3.42-.75-1.28-2.18-1.44-3.42-.9h0Z"/>
      <path class="cls-24" d="M2687.24,3002.42c-2.32,32.53-1.66,65.26,2,97.66,1.03,9.13,2.3,18.24,3.79,27.31.22,1.33,1.87,2.08,3.08,1.75,1.42-.39,1.97-1.74,1.75-3.08-5.22-31.8-7.51-64.07-6.87-96.28.18-9.13.6-18.25,1.25-27.36.1-1.35-1.22-2.5-2.5-2.5-1.43,0-2.4,1.15-2.5,2.5h0Z"/>
      <path class="cls-24" d="M2738.65,3004.24c-2.55,32.37-2.99,64.9-1.31,97.33.48,9.22,1.13,18.42,1.95,27.62.12,1.34,1.06,2.5,2.5,2.5,1.26,0,2.62-1.15,2.5-2.5-2.88-32.34-3.67-64.86-2.32-97.31.38-9.22.94-18.44,1.67-27.64.11-1.35-1.22-2.5-2.5-2.5-1.44,0-2.39,1.15-2.5,2.5h0Z"/>
      <path class="cls-24" d="M2676.01,3127.71c-27.89-9.97-57.13-20.19-87.21-16.83-8.34.93-16.53,2.76-24.44,5.54-2.11.74-2.63,4.35,0,4.82,8.86,1.58,17.58,3.88,26.07,6.88,1.27.45,2.74-.51,3.08-1.75.38-1.38-.47-2.62-1.75-3.08-8.49-3-17.21-5.3-26.07-6.88v4.82c13.76-4.83,28.25-6.73,42.8-5.76,14.49.96,28.68,4.55,42.48,8.92,7.97,2.52,15.85,5.32,23.72,8.14,1.27.45,2.74-.51,3.08-1.75.38-1.39-.47-2.62-1.75-3.08h0Z"/>
      <path class="cls-24" d="M2762.78,3129.41c15.34-4.65,30.7-9.3,46.27-13.14,7.61-1.88,15.27-3.56,22.99-4.94,7.53-1.35,15.16-2.56,22.8-3.06,5.52-.36,13.01-.36,16.71,4.57.3-1.14.6-2.28.9-3.42-10.85,4.87-21.79,9.52-32.83,13.94-1.25.5-2.13,1.67-1.75,3.08.33,1.19,1.81,2.25,3.08,1.75,11.44-4.58,22.78-9.4,34.02-14.44,1.14-.51,1.65-2.42.9-3.42-3.96-5.28-10.22-6.99-16.57-7.15-3.39-.09-6.77.27-10.13.65-4.19.47-8.38,1.04-12.55,1.7-16.29,2.58-32.32,6.58-48.18,11.08-9.03,2.56-18,5.28-26.98,8-3.07.93-1.76,5.76,1.33,4.82h0Z"/>
      <path class="cls-24" d="M2677.34,3151.86c-7.46,18.91-14.91,37.81-22.37,56.72-7.49,18.98-14.97,37.97-22.46,56.95-7.17,18.17-14.25,36.38-21.52,54.51-5.93,14.79-12.26,29.49-20.34,43.26-7.86,13.38-17.48,25.81-29.72,35.48-1.45,1.15-2.95,2.23-4.46,3.28-1.11.77-1.62,2.19-.9,3.42.64,1.1,2.31,1.67,3.42.9,13.19-9.15,23.81-21.3,32.43-34.77,8.75-13.68,15.48-28.53,21.65-43.51,7.26-17.6,14.06-35.4,21.04-53.11,7.55-19.14,15.09-38.28,22.64-57.41,7.55-19.14,15.09-38.28,22.64-57.41.92-2.32,1.83-4.65,2.75-6.97.5-1.26-.54-2.74-1.75-3.08-1.42-.39-2.58.49-3.08,1.75h0Z"/>
      <path class="cls-24" d="M2765.75,3160.64c6.76,27.12,13.86,54.16,21.3,81.1,7.44,26.94,15.21,53.79,23.32,80.54,8.11,26.75,16.56,53.39,25.34,79.93,8.78,26.54,17.89,52.96,27.33,79.27,9.44,26.31,19.21,52.5,29.31,78.56,1.22,3.15,2.44,6.29,3.67,9.43.49,1.26,1.68,2.13,3.08,1.75,1.2-.33,2.24-1.81,1.75-3.08-10.18-26.03-20.03-52.19-29.55-78.47-9.52-26.28-18.71-52.68-27.57-79.19-8.86-26.51-17.39-53.13-25.58-79.85-8.19-26.72-16.05-53.55-23.57-80.47-7.52-26.92-14.7-53.94-21.54-81.04-.83-3.27-1.65-6.54-2.46-9.82-.78-3.12-5.6-1.8-4.82,1.33h0Z"/>
      <path class="cls-28" d="M2547.31,4186.54v23.08s-33.03,6.6-53.78,2.29c0,0-1.34-13.08-9.41-24-8.07-10.91,63.2-1.37,63.2-1.37Z"/>
      <path class="cls-28" d="M2881.2,4186.81v23.08c5.22,1.16,11.05,2.15,17.4,2.76,11.8,1.14,22.28.68,30.91-.33.2-1.54.55-3.56,1.16-5.89.58-2.22,1.17-3.81,1.76-5.39,1.08-2.91,2.39-6.37,4.81-10.41,1.11-1.85,2.15-3.31,2.89-4.31l-58.94.49Z"/>
      <path class="cls-8" d="M2303.19,2229.48c11.13,18.07,21.72,36.45,32.11,54.95,10.34,18.41,20.48,36.93,30.75,55.37,10.32,18.53,20.79,36.98,31.74,55.14,10.86,18.02,22.19,35.76,34.32,52.95s25.08,33.92,39.02,49.73c1.71,1.94,3.44,3.87,5.19,5.79,2.17,2.39,5.7-1.16,3.54-3.54-14.1-15.51-27.18-31.91-39.43-48.91-12.25-17.01-23.69-34.58-34.61-52.46-11.02-18.03-21.52-36.36-31.84-54.8-10.31-18.42-20.45-36.94-30.75-55.37-10.28-18.4-20.72-36.72-31.66-54.74-1.35-2.22-2.7-4.43-4.06-6.64-1.68-2.73-6.01-.23-4.32,2.52h0Z"/>
      <path class="cls-8" d="M2470.43,2500.58c-9.56-3.22-19.12-6.45-28.67-9.67-3.06-1.03-4.37,3.8-1.33,4.82,9.56,3.22,19.12,6.45,28.67,9.67,3.06,1.03,4.37-3.8,1.33-4.82h0Z"/>
      <path class="cls-8" d="M3109.95,1906.73c1.6,21.55,2.84,43.12,3.7,64.71.86,21.51,1.34,43.03,1.46,64.56.12,21.61-.14,43.22-.77,64.82-.63,21.52-1.62,43.02-2.99,64.5-1.37,21.56-3.11,43.1-5.23,64.61-.26,2.63-.52,5.25-.79,7.88-.14,1.35,1.25,2.5,2.5,2.5,1.47,0,2.36-1.15,2.5-2.5,2.2-21.5,4.04-43.03,5.5-64.59,1.46-21.48,2.54-42.98,3.26-64.49s1.07-43.2,1.04-64.81c-.03-21.53-.42-43.05-1.19-64.56-.77-21.59-1.91-43.17-3.42-64.73-.18-2.63-.38-5.26-.57-7.9-.1-1.35-1.08-2.5-2.5-2.5-1.28,0-2.6,1.15-2.5,2.5h0Z"/>
      <path class="cls-8" d="M2312.2,1889.83c-6.79,20.34-11.84,41.22-15.63,62.31-3.82,21.22-6.41,42.66-8.34,64.13-1.93,21.39-3.2,42.83-4.4,64.27-1.19,21.26-2.5,42.54-2.12,63.84.37,21.21,2.46,42.56,8.16,63.05.71,2.54,1.47,5.06,2.28,7.56.99,3.05,5.82,1.74,4.82-1.33-6.49-19.98-9.26-40.89-10.05-61.83-.8-21.19.32-42.39,1.49-63.55,1.18-21.35,2.37-42.71,4.14-64.03,1.76-21.21,4.08-42.39,7.57-63.39,3.49-20.98,8.13-41.79,14.46-62.11.79-2.54,1.61-5.08,2.46-7.61,1.02-3.06-3.81-4.37-4.82-1.33h0Z"/>
      <path class="cls-8" d="M3087.3,2317.39c-8.76,26.92-17.52,53.83-26.28,80.75-8.71,26.76-17.41,53.52-26.12,80.28-8.58,26.37-17.11,52.75-25.76,79.1-8.27,25.19-16.75,50.31-26.18,75.09-9.36,24.59-19.68,48.84-31.61,72.31-1.49,2.92-3,5.83-4.53,8.73s2.81,5.37,4.32,2.52c12.45-23.51,23.21-47.87,32.93-72.62,9.72-24.75,18.39-49.89,26.74-75.13,8.67-26.2,17.13-52.47,25.67-78.71,8.71-26.76,17.41-53.52,26.12-80.28,8.76-26.92,17.52-53.83,26.28-80.75,1.08-3.33,2.16-6.65,3.25-9.98,1-3.07-3.83-4.38-4.82-1.33h0Z"/>
      <path class="cls-8" d="M2961.13,2691.46c1.25-.62,2.5-1.25,3.75-1.87.54-.27.99-.93,1.15-1.49.1-.33.12-.66.04-1-.02-.33-.11-.64-.3-.93-.34-.53-.86-1-1.49-1.15l-.66-.09c-.45,0-.87.12-1.26.34-1.25.62-2.5,1.25-3.75,1.87-.54.27-.99.93-1.15,1.49-.1.33-.12.66-.04,1,.02.33.11.64.3.93.34.53.86,1,1.49,1.15l.66.09c.45,0,.87-.12,1.26-.34h0Z"/>
      <path class="cls-8" d="M2986.25,2695.13c14.66-12.12,28.32-25.42,40.83-39.75.89-1.02,1-2.54,0-3.54-.91-.91-2.64-1.02-3.54,0-12.51,14.33-26.17,27.63-40.83,39.75-1.04.86-.89,2.64,0,3.54,1.03,1.03,2.49.86,3.54,0h0Z"/>
      <path class="cls-9" d="M2160.4,483.12c17.96-9.79,35.91-19.58,53.87-29.37-1.14-1.14-2.28-2.28-3.42-3.42-8.04,18.98-22.11,34.3-35.49,49.63-13.12,15.03-25.83,30.4-38.13,46.11-12.36,15.8-24.3,31.92-35.77,48.38-11.42,16.4-22.38,33.12-32.83,50.16-10.4,16.96-20.29,34.22-29.63,51.78-9.39,17.65-18.22,35.59-26.43,53.81s-15.75,36.51-22.68,55.14-13.16,37.42-18.7,56.47c-5.54,19.03-10.36,38.27-14.42,57.67-4.07,19.45-7.35,39.05-9.85,58.76-.61,4.85-1.18,9.7-1.7,14.56h5c-1.77-27.83-1.46-55.78.92-83.57,2.37-27.72,6.83-55.25,13.3-82.31,3.63-15.17,7.89-30.18,12.77-45,1.01-3.06-3.82-4.38-4.82-1.33-8.77,26.64-15.55,53.92-20.25,81.57-4.68,27.55-7.36,55.45-7.94,83.4-.33,15.75.02,31.51,1.02,47.24.21,3.26,4.66,3.17,5,0,2.09-19.6,4.99-39.12,8.67-58.48,3.69-19.41,8.15-38.66,13.33-57.72,5.18-19.06,11.08-37.93,17.65-56.56,6.55-18.59,13.76-36.95,21.59-55.04s16.38-36.14,25.44-53.79c9.08-17.69,18.72-35.09,28.88-52.18s20.86-33.93,32.02-50.42c11.2-16.55,22.88-32.78,35-48.68,12.01-15.76,24.47-31.18,37.32-46.26,13.17-15.45,27.71-30.18,38.27-47.63,2.56-4.23,4.84-8.62,6.77-13.18.44-1.04.47-2.17-.39-3.03-.8-.8-2.05-.92-3.03-.39-17.96,9.79-35.91,19.58-53.87,29.37-2.83,1.54-.31,5.86,2.52,4.32h0Z"/>
      <path class="cls-9" d="M2274.6,975.76c5.61-27.43,12.25-54.64,19.9-81.57,7.61-26.79,16.22-53.29,25.81-79.43,9.61-26.22,20.2-52.09,31.74-77.52,11.51-25.36,23.96-50.28,37.33-74.72,13.43-24.56,27.79-48.62,43.03-72.1,1.86-2.86,3.72-5.71,5.6-8.55,1.78-2.69-2.55-5.2-4.32-2.52-15.46,23.34-30.03,47.26-43.69,71.7-13.66,24.44-26.4,49.39-38.19,74.78-11.82,25.45-22.7,51.34-32.61,77.6-9.88,26.19-18.79,52.75-26.68,79.61-7.9,26.86-14.79,54.01-20.65,81.39-.71,3.33-1.41,6.67-2.09,10-.27,1.32.38,2.7,1.75,3.08,1.24.34,2.8-.42,3.08-1.75h0Z"/>
      <path class="cls-9" d="M2462.99,542.44c-5.06,4.91-9.28,10.7-12.36,17.05-.59,1.21-.33,2.7.9,3.42,1.1.64,2.83.32,3.42-.9,2.97-6.11,6.75-11.34,11.58-16.04.97-.94.94-2.59,0-3.54-.97-.97-2.56-.94-3.54,0h0Z"/>
      <path class="cls-9" d="M2599.56,971.43c15.1-17,29.19-34.88,42.37-53.39,13.14-18.45,25.39-37.53,36.92-57.03,11.54-19.52,22.37-39.45,32.7-59.63,10.37-20.25,20.23-40.75,29.83-61.38s18.97-41.49,28.27-62.31c1.13-2.53,2.26-5.06,3.39-7.59.55-1.23.36-2.69-.9-3.42-1.07-.62-2.87-.34-3.42.9-9.27,20.75-18.54,41.5-28.06,62.13-9.53,20.66-19.31,41.21-29.55,61.53-10.18,20.19-20.83,40.15-32.16,59.72-11.32,19.55-23.32,38.71-36.2,57.27-12.83,18.5-26.54,36.39-41.25,53.43-1.81,2.09-3.63,4.18-5.47,6.25-2.13,2.4,1.39,5.95,3.54,3.54h0Z"/>
      <path class="cls-9" d="M3033.89,565.42c1.28,16.85,2.56,33.71,4.03,50.54,1.47,16.83,3.12,33.65,5.14,50.43,2.02,16.83,4.4,33.61,7.31,50.31,2.64,15.11,5.73,30.14,9.27,45.06,3.49,14.7,7.41,29.3,11.76,43.77,4.35,14.47,9.13,28.81,14.32,43,5.22,14.26,10.86,28.35,16.89,42.28,6,13.87,12.41,27.55,19.22,41.04,6.81,13.49,14.01,26.78,21.6,39.84,7.62,13.13,15.64,26.03,24.03,38.68,2.03,3.06,4.08,6.1,6.15,9.12.76,1.11,2.2,1.61,3.42.9,1.1-.65,1.66-2.3.9-3.42-8.49-12.41-16.62-25.07-24.36-37.96-7.78-12.95-15.18-26.13-22.19-39.52-6.97-13.32-13.55-26.85-19.74-40.55-6.18-13.71-11.96-27.6-17.32-41.66s-10.32-28.25-14.85-42.59c-4.53-14.34-8.65-28.8-12.34-43.38-3.7-14.65-6.98-29.41-9.81-44.25-3.08-16.16-5.63-32.43-7.77-48.74-2.19-16.67-3.98-33.39-5.54-50.13-1.57-16.83-2.91-33.68-4.2-50.53-.31-4.09-.62-8.18-.93-12.27-.1-1.35-1.08-2.5-2.5-2.5-1.27,0-2.6,1.15-2.5,2.5h0Z"/>
      <path class="cls-9" d="M3208.52,730.52c8.67,23.89,17.02,47.9,25.03,72.03,8.01,24.12,15.68,48.36,23.02,72.69,4.14,13.73,8.17,27.49,12.09,41.28.88,3.09,5.71,1.78,4.82-1.33-6.96-24.45-14.25-48.8-21.88-73.04-7.63-24.24-15.6-48.38-23.9-72.41-4.68-13.55-9.47-27.07-14.36-40.54-.46-1.27-1.7-2.12-3.08-1.75-1.22.34-2.21,1.8-1.75,3.08h0Z"/>
      <path class="cls-9" d="M3104.36,260.95c24.23,15.03,48.15,30.54,71.75,46.53,6.66,4.51,13.29,9.06,19.89,13.64,1.11.77,2.78.2,3.42-.9.73-1.24.22-2.65-.9-3.42-23.42-16.26-47.16-32.04-71.22-47.35-6.78-4.32-13.59-8.59-20.43-12.83-2.74-1.7-5.26,2.62-2.52,4.32h0Z"/>
      <path class="cls-9" d="M3237.29,337.16c10.15,10.68,19.97,21.66,29.46,32.93,9.44,11.21,18.55,22.69,27.3,34.45,8.8,11.81,17.25,23.88,25.34,36.19,8.09,12.31,15.83,24.85,23.19,37.61,7.37,12.76,14.36,25.73,20.98,38.89,6.62,13.16,12.85,26.52,18.69,40.04,5.81,13.45,11.22,27.08,16.23,40.85,5.04,13.84,9.68,27.83,13.9,41.94,4.22,14.11,8.03,28.34,11.42,42.68s6.34,28.77,8.87,43.28c.62,3.54,1.2,7.09,1.77,10.64.21,1.33,1.88,2.08,3.08,1.75,1.42-.39,1.96-1.74,1.75-3.08-2.32-14.62-5.08-29.16-8.28-43.61-3.19-14.45-6.82-28.8-10.87-43.04-4.03-14.17-8.47-28.22-13.32-42.12-4.87-13.97-10.16-27.81-15.84-41.47-5.71-13.74-11.8-27.32-18.3-40.71-6.46-13.32-13.31-26.45-20.53-39.37-7.19-12.86-14.75-25.51-22.67-37.93-7.96-12.48-16.28-24.72-24.96-36.71-8.72-12.05-17.79-23.84-27.2-35.36-9.37-11.46-19.07-22.64-29.11-33.51-2.44-2.64-4.9-5.27-7.38-7.88-2.22-2.34-5.75,1.2-3.54,3.54h0Z"/>
      <path class="cls-9" d="M3412.66,862.14c-4.45,16.71-8.9,33.41-13.36,50.12-1.26,4.72-2.51,9.43-3.77,14.15-.83,3.11,3.99,4.44,4.82,1.33,4.45-16.71,8.9-33.41,13.36-50.12,1.26-4.72,2.51-9.43,3.77-14.15.83-3.11-3.99-4.44-4.82-1.33h0Z"/>
      <path class="cls-9" d="M2165.96,383.84c11.99-11.89,24.47-23.28,37.4-34.12,12.83-10.75,26.11-20.96,39.8-30.6,13.74-9.68,27.88-18.8,42.38-27.31,14.49-8.52,29.34-16.43,44.49-23.72,15.08-7.25,30.47-13.88,46.11-19.84,1.99-.76,3.98-1.5,5.98-2.24,1.27-.47,2.13-1.69,1.75-3.08-.33-1.22-1.8-2.22-3.08-1.75-15.97,5.89-31.7,12.46-47.13,19.66-15.36,7.18-30.42,15-45.12,23.43-14.71,8.43-29.06,17.48-43.01,27.11-14.01,9.67-27.62,19.92-40.78,30.72-13.05,10.71-25.66,21.96-37.76,33.72-1.53,1.48-3.04,2.97-4.55,4.47-2.29,2.27,1.25,5.81,3.54,3.54h0Z"/>
      <path class="cls-9" d="M2076.93,1117.9c4.83-22.5,10.39-44.85,16.69-66.99,6.25-21.99,13.22-43.78,20.9-65.32,7.67-21.55,16.04-42.86,25.11-63.86,9.09-21.06,18.87-41.83,29.32-62.25s21.49-40.38,33.21-60.01c1.47-2.45,2.94-4.9,4.43-7.34,1.68-2.76-2.65-5.27-4.32-2.52-11.96,19.67-23.27,39.72-33.91,60.13-10.64,20.41-20.61,41.17-29.89,62.23-9.28,21.05-17.88,42.4-25.78,64.01-7.9,21.62-15.1,43.49-21.57,65.58-6.45,22.02-12.18,44.24-17.17,66.63-.62,2.79-1.23,5.58-1.83,8.38-.67,3.14,4.15,4.48,4.82,1.33h0Z"/>
      <path class="cls-9" d="M3188.12,96.49c10.18-4,21.87-8.46,32.65-4.06-.5-1.22-1-2.45-1.49-3.67-1.19,2.42-3.9,3.27-6.33,3.97-3.86,1.12-7.75,2.16-11.66,3.12-7.83,1.91-15.78,3.27-23.87,2.97.72,1.25,1.44,2.51,2.16,3.76,2.78-4.66,9.47-5.47,14.28-6.52,6.95-1.52,14.21-2.79,21.26-1.14-.2-1.52-.4-3.05-.6-4.57-9.3,4.64-19.7,6.69-30.07,6.1.72,1.25,1.44,2.51,2.16,3.76.75-1.33,2.13-1.97,3.53-2.42,2.1-.68,4.31-1.13,6.49-1.49,4.62-.78,9.35-.9,14.01-.53l-1.26-4.66c-3.04,1.84-6.37,3.09-9.89,3.61-1.82.27-6.25,1.02-7.25-.95-.5,1.22-1,2.45-1.49,3.67,4.62-1.84,9.45-2.69,14.43-2.5v-5c-2.72.28-5.44.57-8.16.85-1.34.14-2.5,1.05-2.5,2.5,0,1.24,1.15,2.64,2.5,2.5,2.72-.28,5.44-.57,8.16-.85,3.15-.33,3.28-4.87,0-5-5.37-.21-10.76.69-15.75,2.68-1.55.62-2.28,2.11-1.49,3.67,1.97,3.92,7.19,3.92,10.94,3.51,4.63-.51,9.05-1.96,13.04-4.38,2.22-1.35,1.15-4.47-1.26-4.66-5.44-.43-10.91-.12-16.28.88-4.35.8-9.71,1.84-12.07,6.05-.96,1.72.27,3.65,2.16,3.76,11.26.64,22.52-1.75,32.6-6.78,1.92-.96,1.44-4.09-.6-4.57-8.12-1.9-16.38-.53-24.39,1.24-6.19,1.37-13.29,2.83-16.8,8.72-1,1.68.3,3.69,2.16,3.76,8.83.33,17.6-1.25,26.14-3.38,3.98-.99,8-1.98,11.9-3.25,3.25-1.05,6.55-2.71,8.13-5.91.78-1.58.06-3.04-1.49-3.67-11.6-4.74-24.32-.26-35.31,4.06-1.26.49-2.13,1.68-1.75,3.08.33,1.2,1.81,2.24,3.08,1.75h0Z"/>
      <path class="cls-9" d="M2693.63,895.02c16.62-17.78,32.15-36.57,46.51-56.21,14.24-19.47,27.31-39.8,39.11-60.83,6.69-11.93,12.97-24.09,18.84-36.45.58-1.22.34-2.7-.9-3.42-1.09-.64-2.84-.33-3.42.9-10.34,21.79-21.99,42.96-34.87,63.36-12.84,20.34-26.9,39.91-42.1,58.56-8.55,10.49-17.46,20.68-26.7,30.57-2.2,2.35,1.33,5.89,3.54,3.54h0Z"/>
      <path class="cls-9" d="M2731.4,898.89c13.68-14.37,26.43-29.6,38.21-45.56,11.74-15.91,22.47-32.55,32.12-49.8,5.43-9.71,10.51-19.62,15.24-29.69.57-1.22.34-2.7-.9-3.42-1.08-.63-2.84-.33-3.42.9-8.34,17.76-17.78,35-28.27,51.58-10.49,16.59-22.01,32.52-34.51,47.66-7.04,8.52-14.38,16.79-22,24.8-2.22,2.33,1.31,5.87,3.54,3.54h0Z"/>
      <path class="cls-9" d="M2417.55,695.12c-12.69,15.02-24.13,31.09-34.13,48.02-10,16.93-18.56,34.71-25.6,53.07-3.96,10.32-7.42,20.83-10.37,31.48-.86,3.11,3.96,4.43,4.82,1.33,5.16-18.6,11.87-36.77,20.08-54.24,8.24-17.54,17.94-34.39,28.97-50.32,6.17-8.91,12.77-17.52,19.76-25.8.87-1.03,1.01-2.52,0-3.54-.89-.89-2.66-1.04-3.54,0h0Z"/>
      <path class="cls-9" d="M2432.16,736.06c-15.05,22.03-29.13,44.73-42.17,68.01-3.68,6.56-7.27,13.17-10.78,19.83-1.5,2.84,2.81,5.37,4.32,2.52,12.46-23.6,25.95-46.65,40.45-69.05,4.09-6.31,8.26-12.58,12.5-18.79.76-1.12.21-2.77-.9-3.42-1.24-.72-2.66-.22-3.42.9h0Z"/>
      <path class="cls-9" d="M2453.93,759.59c-7.62,9.96-14.81,20.24-21.54,30.82-1.73,2.72,2.59,5.23,4.32,2.52,6.73-10.58,13.92-20.86,21.54-30.82.82-1.07.17-2.8-.9-3.42-1.29-.75-2.6-.18-3.42.9h0Z"/>
      <path class="cls-9" d="M2074.82,702.23c-13.56,20.9-24.71,43.33-33.25,66.73-2.41,6.6-4.6,13.27-6.58,20.01-.91,3.09,3.91,4.41,4.82,1.33,6.93-23.57,16.5-46.31,28.54-67.72,3.4-6.06,7.01-12,10.79-17.83,1.76-2.71-2.57-5.22-4.32-2.52h0Z"/>
      <path class="cls-9" d="M2066.17,820.69c-3.39,7.91-6.78,15.81-10.16,23.72-.53,1.24-.37,2.68.9,3.42,1.05.62,2.89.35,3.42-.9,3.39-7.91,6.78-15.81,10.16-23.72.53-1.24.37-2.68-.9-3.42-1.05-.62-2.89-.35-3.42.9h0Z"/>
      <path class="cls-9" d="M3083.92,770.11c3.39,18.07,6.78,36.14,10.16,54.21.25,1.33,1.85,2.08,3.08,1.75,1.39-.38,2-1.74,1.75-3.08-3.39-18.07-6.78-36.14-10.16-54.21-.25-1.33-1.85-2.08-3.08-1.75-1.39.38-2,1.74-1.75,3.08h0Z"/>
      <path class="cls-9" d="M3106.04,766.71c3.71,21.46,8.58,42.72,14.6,63.65,1.71,5.95,3.52,11.87,5.41,17.76.98,3.05,5.81,1.75,4.82-1.33-6.66-20.73-12.2-41.83-16.57-63.16-1.24-6.06-2.38-12.14-3.44-18.24-.23-1.33-1.86-2.08-3.08-1.75-1.41.39-1.98,1.74-1.75,3.08h0Z"/>
      <path class="cls-9" d="M3137.6,773.62c4.59,20.31,9.18,40.62,13.77,60.93.71,3.14,5.53,1.81,4.82-1.33-4.59-20.31-9.18-40.62-13.77-60.93-.71-3.14-5.53-1.81-4.82,1.33h0Z"/>
      <path class="cls-9" d="M3255.17,771.76c8.69,22.53,16.4,45.43,23.09,68.63,1.87,6.5,3.67,13.01,5.38,19.55.82,3.11,5.64,1.79,4.82-1.33-6.13-23.35-13.27-46.44-21.41-69.17-2.28-6.36-4.64-12.7-7.07-19.01-.49-1.26-1.68-2.13-3.08-1.75-1.2.33-2.23,1.81-1.75,3.08h0Z"/>
      <path class="cls-9" d="M3295.64,766.73c4.28,16.26,8.55,32.52,12.83,48.78,1.23,4.67,2.46,9.34,3.68,14.01.82,3.11,5.64,1.79,4.82-1.33-4.28-16.26-8.55-32.52-12.83-48.78-1.23-4.67-2.46-9.34-3.68-14.01-.82-3.11-5.64-1.79-4.82,1.33h0Z"/>
      <path class="cls-9" d="M3331.22,780.28c2.26,8.47,4.52,16.94,6.78,25.41.83,3.11,5.65,1.79,4.82-1.33-2.26-8.47-4.52-16.94-6.78-25.41-.83-3.11-5.65-1.79-4.82,1.33h0Z"/>
      <path class="cls-9" d="M3358.32,792.15c1.1,2.83,2.21,5.67,3.31,8.5.24.63.55,1.14,1.15,1.49.54.31,1.33.45,1.93.25,1.18-.38,2.25-1.77,1.75-3.08-1.1-2.83-2.21-5.67-3.31-8.5-.24-.63-.55-1.14-1.15-1.49-.54-.31-1.33-.45-1.93-.25-1.18.38-2.25,1.77-1.75,3.08h0Z"/>
      <path class="cls-9" d="M3406.15,762.63c.53,6.21,1.07,12.43,1.6,18.64.12,1.35,1.07,2.5,2.5,2.5,1.26,0,2.62-1.15,2.5-2.5-.53-6.21-1.07-12.43-1.6-18.64-.12-1.35-1.07-2.5-2.5-2.5-1.26,0-2.62,1.15-2.5,2.5h0Z"/>
      <path class="cls-9" d="M3426.79,791.53c.56.56,1.13,1.13,1.69,1.69.23.24.49.42.8.52.3.16.62.23.96.22.34.01.67-.06.96-.22.31-.1.58-.27.8-.52l.39-.51c.23-.39.34-.81.34-1.26l-.09-.66c-.12-.42-.33-.79-.64-1.1-.56-.56-1.13-1.13-1.69-1.69-.23-.24-.49-.42-.8-.52-.3-.16-.62-.23-.96-.22-.34-.01-.67.06-.96.22-.31.1-.58.27-.8.52l-.39.51c-.23.39-.34.81-.34,1.26l.09.66c.12.42.33.79.64,1.1h0Z"/>
      <path class="cls-22" d="M2878.66,4205.14c-4.33-.64-8.66-1.28-12.99-1.93-4.36-.65-8.75-1.48-13.17-1.24.59,1.42,1.18,2.85,1.77,4.27,3.12-2.84,7.46-4.17,11.36-5.56,4.5-1.6,9.06-3.03,13.62-4.45l-3.08-3.08c-.99,4.67-1.4,9.44-1.13,14.2.07,1.24.9,2.3,2.17,2.46,1.13.13,2.52-.55,2.74-1.79.64-3.63,1.03-7.3,1.12-10.99.08-3.23-4.82-3.2-5,0-.2,3.56-.4,7.13-.59,10.69-.07,1.35,1.2,2.5,2.5,2.5,1.46,0,2.37-1.15,2.5-2.5.32-3.22.44-6.44.37-9.67s-4.89-3.22-5,0c-.13,3.61-.04,7.22.27,10.83.27,3.19,4.82,3.24,5,0,.2-3.47.09-6.93-.33-10.38-.16-1.34-1.03-2.5-2.5-2.5-1.39,0-2.46,1.15-2.5,2.5-.07,2.32-.44,4.54-1.1,6.77h4.82l-1.23-7.3c-.37-2.21-3.55-2.31-4.57-.6-1.09,1.84-1.65,3.79-1.83,5.91,1.64-.22,3.27-.44,4.91-.66-.46-1.46-.59-2.83-.46-4.36.11-1.35-1.23-2.5-2.5-2.5-1.49,0-2.33,1.15-2.5,2.5-.19,1.56-.79,3.02-1.6,4.35h4.32c-.54-1.17-.64-2.4-.55-3.67.09-1.22-1.02-2.32-2.17-2.46-1.3-.16-2.29.59-2.74,1.79-.39,1.02-.73,2.45-1.3,3.25l.9-.9v-.03h1.32c-.56-.09-.98-.45-1.48-.7-.67-.34-1.4-.64-2.13-.84-1.4-.4-2.89-.51-4.33-.33-3.18.39-3.24,4.67,0,5,3.46.35,6.95.06,10.32-.79l-3.08-3.08c.07-.25.94-.19.16-.24-1.35-.09-2.5,1.21-2.5,2.5,0,1.42,1.15,2.41,2.5,2.5,2.19.14,4.08-1.36,4.66-3.43.53-1.87-1.25-3.54-3.08-3.08-2.96.75-5.95.92-8.99.61v5c1.17-.14,2.28-.12,3.39.28s2.02,1.2,3.22,1.42c3.5.66,4.3-3.34,5.23-5.81-1.64-.22-3.27-.44-4.91-.66-.16,2.18.32,4.22,1.23,6.19.81,1.77,3.42,1.48,4.32,0,1.29-2.14,1.98-4.41,2.28-6.88h-5c-.16,1.92.07,3.85.64,5.69.87,2.78,4.67,2.11,4.91-.66.11-1.22.53-2.34,1.15-3.38-1.52-.2-3.05-.4-4.57-.6.41,2.43.82,4.87,1.23,7.3.43,2.55,4.17,2.2,4.82,0,.77-2.63,1.19-5.35,1.28-8.1h-5c.42,3.45.53,6.91.33,10.38h5c-.3-3.6-.39-7.21-.27-10.83h-5c.07,3.23-.05,6.45-.37,9.67h5c.2-3.56.4-7.13.59-10.69h-5c-.08,3.24-.38,6.46-.94,9.66,1.64.22,3.27.44,4.91.66-.24-4.33.05-8.63.95-12.87.38-1.78-1.16-3.67-3.08-3.08-4.86,1.52-9.73,3.04-14.52,4.78-4.48,1.63-9.08,3.27-12.67,6.52-1.57,1.42-.37,4.38,1.77,4.27,4.15-.22,8.25.53,12.34,1.14,4.17.62,8.33,1.24,12.5,1.85,1.33.2,2.69-.33,3.08-1.75.32-1.18-.4-2.88-1.75-3.08h0Z"/>
      <path class="cls-22" d="M2549.68,4209.32c3.82-.42,7.63-.84,11.45-1.26,3.86-.43,7.73-.96,11.63-.81,2.63.1,3.2-3.36,1.26-4.66-3.41-2.29-7.6-3.28-11.52-4.32-4.2-1.12-8.44-2.1-12.68-3.09-1.82-.42-3.61,1.18-3.08,3.08.79,2.78,1.06,5.55.85,8.43,1.64-.22,3.27-.44,4.91-.66-.49-2.08-.77-4.14-.84-6.27h-5l.54,7.18h5c-.28-2.16-.4-4.32-.34-6.49h-5c.11,2.43.03,4.85-.24,7.27h5c-.16-2.1-.13-4.22.21-6.31-1.64-.22-3.27-.44-4.91-.66.09,1.95.45,3.84,1.16,5.66.41,1.04,1.23,1.84,2.41,1.84,1.06,0,2.17-.77,2.41-1.84.37-1.64.74-3.27,1.11-4.91-1.39.37-2.79.74-4.18,1.1.28.36.56.89.62,1.35.36,2.84,3.81,3.34,4.91.66.52-1.28.73-2.66.59-4.04-1.64.22-3.27.44-4.91.66.32,1.86,1.23,3.42,2.4,4.87,1.04,1.3,3.17.74,3.93-.51.84-1.38,1.29-2.95,1.14-4.57-1.55.42-3.11.84-4.66,1.26.49.95.89,2.12,1.63,2.91.89.96,2.22,1.22,3.46.93.94-.21,1.78-.73,2.73-.95.95-.22,1.91-.21,2.88-.12v-5c-2.7.2-5.41.12-8.07-.38-1.66-.31-3.85,1.14-3.08,3.08s2.39,2.99,4.45,2.91c3.21-.12,3.22-5.12,0-5-.39-.02-.45,0-.19.06.32.06.51.29.56.71-1.03,1.03-2.05,2.05-3.08,3.08,3.11.58,6.25.8,9.4.56s3.2-4.71,0-5c-1.35-.12-2.7-.02-4.02.26-.89.19-2.12.99-2.86.91l1.26.34c.41.52.46.53.17.03-.09-.18-.19-.37-.28-.55-.22-.43-.44-.86-.65-1.28-1.09-2.14-4.88-1.21-4.66,1.26.07.82-.03,1.35-.46,2.05l3.93-.51c-.63-.79-.94-1.69-1.11-2.67-.47-2.75-5.2-2.14-4.91.66.11,1.03-.02,1.75-.41,2.71,1.64.22,3.27.44,4.91.66-.24-1.92-.89-3.37-2.08-4.89s-3.79-.6-4.18,1.1c-.37,1.64-.74,3.27-1.11,4.91h4.82c-.55-1.4-.92-2.82-.98-4.33-.06-1.24-.91-2.31-2.17-2.46-1.12-.13-2.54.55-2.74,1.79-.41,2.54-.58,5.07-.39,7.64.24,3.26,4.65,3.17,5,0,.27-2.42.35-4.84.24-7.27-.14-3.21-4.91-3.23-5,0-.06,2.18.05,4.34.34,6.49.18,1.34,1.02,2.5,2.5,2.5,1.27,0,2.6-1.15,2.5-2.5l-.54-7.18c-.1-1.35-1.08-2.5-2.5-2.5-1.32,0-2.55,1.14-2.5,2.5.09,2.56.43,5.11,1.02,7.6.28,1.2,1.57,1.97,2.74,1.79,1.28-.19,2.07-1.18,2.17-2.46.24-3.29-.13-6.59-1.03-9.76-1.03,1.03-2.05,2.05-3.08,3.08,4.09.95,8.18,1.9,12.24,2.97,3.65.97,7.59,1.8,10.77,3.94.42-1.55.84-3.11,1.26-4.66-3.89-.15-7.77.38-11.63.81-3.82.42-7.63.84-11.45,1.26-1.34.15-2.5,1.04-2.5,2.5,0,1.24,1.15,2.65,2.5,2.5h0Z"/>
      <g>
        <path class="cls-27" d="M2841.23,4372.1c-5.89,14.99-2.88,32.31,4.36,46.69,7.24,14.39,18.32,26.41,29.26,38.24,8.39,9.07,16.78,18.14,25.18,27.21,6.3,6.8,37.75,38.49,53.14,51.61,15.38,13.12,50.19,37.58,119.16,49.88,3.28-.66,6.72-1.49,9.16-3.78,2.44-2.29,3.39-6.51,1.13-8.98-1.16-1.26-2.87-1.81-4.5-2.33-88.01-27.89-165.79-86.98-216.27-164.29-7.65-11.72-14.75-23.95-19.13-37.24"/>
        <path class="cls-27" d="M2838.82,4371.43c-4.82,12.45-3.81,26.47.5,38.92,4.48,12.94,12.48,24.21,21.28,34.56,9.36,11.01,19.45,21.42,29.26,32.02,5.67,6.12,11.33,12.22,17.19,18.16,13.4,13.59,26.95,27.15,41.24,39.81,9.27,8.22,19.36,15.39,30.12,21.53,17.07,9.74,35.52,17.04,54.34,22.61,6.08,1.8,12.22,3.41,18.39,4.86,6.78,1.6,13.64,3.15,20.53,4.23,1.55.24,3.38-.4,4.88-.84,1.6-.47,3.21-1.09,4.63-1.98,2.55-1.61,4.54-4.1,5.06-7.12.54-3.19-.5-6.28-3.23-8.14-2.51-1.71-5.86-2.33-8.71-3.27-22.86-7.55-45-17.23-66.11-28.81-21.11-11.57-41.22-25-59.96-40.12s-36.27-31.99-52.1-50.24c-7.82-9.01-15.23-18.37-22.19-28.06-7.53-10.47-14.78-21.28-20.81-32.69-3.13-5.93-5.87-12.05-7.99-18.41-1.01-3.04-5.84-1.74-4.82,1.33,4.02,12.09,10.14,23.32,16.94,34.04,6.01,9.48,12.46,18.68,19.27,27.59,13.37,17.49,28.12,33.89,44.13,49,16.05,15.15,33.34,29.01,51.59,41.42,18.19,12.36,37.37,23.27,57.31,32.54,10.08,4.68,20.34,8.96,30.77,12.81,5.11,1.88,10.27,3.66,15.45,5.33,1.84.59,5.04,1.03,5.56,3.24.41,1.72-.62,3.68-2.02,4.79-2.13,1.7-5.05,2.24-7.64,2.76h1.33c-24.82-4.44-49.48-11.07-72.54-21.34-8.15-3.63-16.11-7.72-23.76-12.33-3.09-1.87-6.13-3.82-9.1-5.87-1.29-.89-2.57-1.8-3.84-2.72-.59-.43-1.18-.87-1.77-1.31-.26-.2-.52-.39-.78-.59-.16-.12-1.09-.84-.52-.4-5.51-4.26-10.67-8.93-15.77-13.67-7.8-7.25-15.43-14.68-23-22.18-6.05-5.99-12.08-12.01-17.97-18.16-9.16-9.55-18.01-19.41-26.99-29.12-9.78-10.57-19.7-21.24-26.9-33.81-6.71-11.73-10.95-25.63-9.01-39.24.48-3.36,1.37-6.65,2.59-9.81.49-1.26-.54-2.74-1.75-3.08-1.41-.39-2.59.48-3.08,1.75h0Z"/>
      </g>
      <g>
        <path class="cls-27" d="M2580.26,4372.1c5.89,14.99,2.88,32.31-4.36,46.69-7.24,14.39-18.32,26.41-29.26,38.24-8.39,9.07-16.78,18.14-25.18,27.21-6.3,6.8-37.75,38.49-53.14,51.61-15.38,13.12-50.19,37.58-119.16,49.88-3.28-.66-6.72-1.49-9.16-3.78-2.44-2.29-3.39-6.51-1.13-8.98,1.16-1.26,2.87-1.81,4.5-2.33,88.01-27.89,165.79-86.98,216.27-164.29,7.65-11.72,14.75-23.95,19.13-37.24"/>
        <path class="cls-27" d="M2577.85,4372.76c5.06,13.06,3.27,27.59-2.03,40.29s-14.64,24.25-24.03,34.68c-10.55,11.71-21.36,23.2-32.08,34.74-4.79,5.16-9.79,10.13-14.77,15.11-7.59,7.6-15.26,15.13-23.05,22.53-5.86,5.56-11.75,11.12-18.01,16.22-.49.4-.98.8-1.48,1.19-.26.2-.52.41-.77.61-.16.13-1.13.87-.56.44-1.14.88-2.3,1.74-3.46,2.59-2.71,1.97-5.48,3.86-8.3,5.68-6.97,4.49-14.24,8.5-21.71,12.1-21.55,10.4-44.69,17.4-68.09,22.26-3.65.76-7.31,1.46-10.98,2.12h1.33c-2.6-.53-5.51-1.06-7.64-2.76-1.42-1.13-2.51-3.2-1.98-4.95.64-2.13,3.87-2.56,5.71-3.15,2.62-.85,5.24-1.72,7.85-2.62,10.5-3.63,20.85-7.72,31.01-12.21,20.06-8.85,39.39-19.35,57.76-31.32,18.49-12.05,36.04-25.58,52.39-40.41s31.39-30.86,45.06-48.08c6.91-8.7,13.48-17.67,19.65-26.91,6.82-10.22,13.31-20.76,18.12-32.1,1.26-2.97,2.42-5.97,3.44-9.03s-3.81-4.37-4.82-1.33c-4.36,13.11-11.36,25.12-18.88,36.64-6.56,10.05-13.57,19.8-21.03,29.19-15.03,18.92-31.77,36.46-49.91,52.41s-37.59,30.17-58.2,42.63c-20.6,12.45-42.29,23.11-64.79,31.66-5.65,2.15-11.34,4.16-17.08,6.04-2.84.93-6.14,1.57-8.53,3.45-2.51,1.99-3.26,5.17-2.57,8.21s2.82,5.44,5.47,6.93c1.35.76,2.83,1.31,4.31,1.74,1.68.48,3.42.99,5.15.7,6.87-1.16,13.7-2.64,20.48-4.24,21.32-5.04,42.28-12.03,61.9-21.82,12.17-6.07,23.77-13.27,34.35-21.83,5.73-4.64,11.14-9.69,16.5-14.74,7.39-6.97,14.65-14.07,21.86-21.23,5.43-5.4,10.85-10.82,16.14-16.36,8.87-9.3,17.48-18.86,26.21-28.29,17.98-19.44,37.55-41.11,38.13-69.16.13-6.43-.87-12.92-3.2-18.92-.49-1.26-1.68-2.13-3.08-1.75-1.2.33-2.24,1.81-1.75,3.08h0Z"/>
      </g>
      <path class="cls-7" d="M2403.42,4168.94c-1.26,5.23,16.12,9.25,30.69,28.09.94,1.21,5.76,8.32,10.1,17.38,22.85,47.68-1.31,100.57-3.65,105.65-1.43,3.1-2.69,5.52-3.33,6.72,2.81.32,6.86.68,11.76.74,9.17.1,14.72.17,19.84-2.51,5.1-2.66,7.95-7.09,10.44-11.9,10.03-19.39,12.11-40.86,12.53-45.52,2.27-25.54-1.2-44.03-2.94-51.84-3.83-17.23-8.53-24.52-11.98-28.89-6.17-7.8-12.91-11.88-16.13-13.78-13.42-7.95-26-8.57-32.26-8.8-3.35-.12-23.73-.88-25.07,4.66Z"/>
      <path class="cls-7" d="M3020.05,4170.31c1.26,5.23-16.12,9.25-30.69,28.09-.94,1.21-5.76,8.32-10.1,17.38-22.85,47.68,1.31,100.57,3.65,105.65,1.43,3.1,2.69,5.52,3.33,6.72-2.81.32-6.86.68-11.76.74-9.17.1-14.72.17-19.84-2.51-5.1-2.66-7.95-7.09-10.44-11.9-10.03-19.39-12.11-40.86-12.53-45.52-2.27-25.54,1.2-44.03,2.94-51.84,3.83-17.23,8.53-24.52,11.98-28.89,6.17-7.8,12.91-11.88,16.13-13.78,13.42-7.95,26-8.57,32.26-8.8,3.35-.12,23.73-.88,25.07,4.66Z"/>
      <path class="cls-14" d="M2311.84,2577.09c.19,5.98.39,11.95.58,17.93-30.72-97.25-62.23-234.35-63.82-400.04-1.17-121.44,14.04-226.11,32.18-308.3,11.31-3.31,23.62-6.45,36.86-9.19,12.4-2.57,24.19-4.49,35.24-5.92-13.71,102.68-24.94,212.42-32.28,328.6-8.44,133.67-10.7,259.7-8.76,376.92Z"/>
      <path class="cls-14" d="M3104.65,2567.72c-.05,5.98-.11,11.96-.16,17.94,28.93-93.12,60.01-232.04,54.56-401.41-4.03-125.34-26.9-230.71-50.48-309.59-7.54-2.37-16.2-4.58-25.88-6.22-13.7-2.31-26.03-2.88-36.35-2.68,20.16,125.58,32.72,235.5,40.85,325.34,18,199.01,17.82,338.06,17.47,376.62Z"/>
    </g>
  </g>
</svg>