<?xml version="1.0" encoding="UTF-8"?>
<svg id="Layer_1" data-name="Layer 1" xmlns="http://www.w3.org/2000/svg" viewBox="0 0 5120 5120">
  <defs>
    <style>
      .cls-1 {
        fill: #f9ad8d;
      }

      .cls-2 {
        fill: #c98757;
      }

      .cls-3 {
        fill: #231f20;
      }

      .cls-4 {
        fill: #e09f6b;
      }

      .cls-5 {
        fill: #e68ea3;
      }

      .cls-6 {
        fill: #009444;
        opacity: .47;
      }

      .cls-7 {
        fill: #f498c0;
      }

      .cls-8 {
        fill: #808285;
      }

      .cls-9 {
        fill: #7cb037;
      }

      .cls-10 {
        fill: #a7a9ac;
      }

      .cls-11 {
        fill: #8dc63f;
      }

      .cls-12 {
        fill: #b0d235;
      }
    </style>
  </defs>
  <path class="cls-4" d="M2090.66,4285.02c-181.02,138.58-362.04,277.17-543.05,415.75-94.91-111.41-232.85-185.05-388.1-195.25-1.53-220.91-3.05-441.82-4.58-662.74,311.91,147.41,623.82,294.82,935.73,442.23Z"/>
  <path class="cls-1" d="M1289.88,4533.77c-43.42-9.55-86.85-19.09-130.27-28.64-1.56-219.79-3.13-439.59-4.69-659.38,46.41,102.33,92.82,204.65,139.23,306.98-1.42,127.01-2.85,254.03-4.27,381.04Z"/>
  <path class="cls-2" d="M1396.16,4638.97c50.48,20.6,100.97,41.2,151.45,61.81,181.02-138.58,362.04-277.17,543.05-415.75-137.04,15.23-274.07,30.46-411.11,45.69-94.46,102.75-188.93,205.5-283.39,308.25Z"/>
  <path class="cls-3" d="M1547.45,4700.9l-361.38,239.03-26.45-434.81c155.24,10.41,293.08,84.24,387.84,195.78Z"/>
  <path class="cls-12" d="M1294.15,4152.73c-46.41-103.31-92.82-206.62-139.23-309.93,459.08-940.3,918.15-1880.61,1377.23-2820.91,92.01,39.63,184.02,79.26,276.04,118.89-504.68,1003.99-1009.36,2007.97-1514.04,3011.96Z"/>
  <path class="cls-9" d="M2090.66,4285.02c-137.04,15.23-274.07,30.46-411.11,45.69l1503.38-2988.73,361.34,181.76c-484.54,920.43-969.07,1840.85-1453.61,2761.28Z"/>
  <path class="cls-11" d="M1679.55,4330.72c-128.47-59.33-256.93-118.66-385.4-177.99,495.43-994.91,990.87-1989.82,1486.3-2984.73l400.46,201.44c-500.46,987.09-1000.91,1974.19-1501.37,2961.28Z"/>
  <path class="cls-4" d="M1679.55,4330.72c-128.47-59.33-256.93-118.66-385.4-177.99,109.49-44.68,218.98-89.37,328.46-134.05,18.98,104.02,37.96,208.03,56.93,312.05Z"/>
  <rect class="cls-7" x="2751.17" y="349.49" width="1181.58" height="674.44" rx="165.26" ry="165.26" transform="translate(640.98 -1397.75) rotate(26.05)"/>
  <rect class="cls-5" x="2704.64" y="612.07" width="1182.81" height="330.51" transform="translate(700.84 -1398.23) rotate(26.7)"/>
  <rect class="cls-6" x="2501.88" y="1050.1" width="1128.1" height="330.51" transform="translate(873.13 -1248.11) rotate(26.7)"/>
  <g>
    <rect class="cls-10" x="2608.14" y="678.21" width="1192.5" height="562.65" transform="translate(772.94 -1337.61) rotate(26.7)"/>
    <rect class="cls-8" x="2680.2" y="702.67" width="1191.39" height="226.7" transform="translate(716.08 -1385.05) rotate(26.7)"/>
    <rect class="cls-8" x="2515.08" y="1096.2" width="1191.39" height="100.21" transform="translate(846.89 -1275.62) rotate(26.7)"/>
    <rect class="cls-10" x="2683.28" y="664.83" width="1220.72" height="226.7" rx="39.88" ry="39.88" transform="translate(700.97 -1397.06) rotate(26.7)"/>
    <rect class="cls-10" x="2463.64" y="1133.71" width="1220.72" height="171.41" rx="30.83" ry="30.83" transform="translate(875.82 -1251.3) rotate(26.7)"/>
  </g>
</svg>