<?xml version="1.0" encoding="UTF-8"?>
<svg id="Layer_1" data-name="Layer 1" xmlns="http://www.w3.org/2000/svg" xmlns:xlink="http://www.w3.org/1999/xlink" viewBox="0 0 5120 5120">
  <defs>
    <style>
      .cls-1 {
        fill: url(#linear-gradient-2);
      }

      .cls-2 {
        fill: #c49a6c;
      }

      .cls-3 {
        fill: url(#linear-gradient-4);
      }

      .cls-4 {
        fill: #8b5e3c;
      }

      .cls-5 {
        fill: url(#linear-gradient-3);
      }

      .cls-6 {
        fill: url(#linear-gradient-5);
      }

      .cls-7 {
        fill: #a97c50;
      }

      .cls-8 {
        fill: url(#linear-gradient);
      }
    </style>
    <linearGradient id="linear-gradient" x1="2572.67" y1="3227.61" x2="2557.81" y2="857.23" gradientUnits="userSpaceOnUse">
      <stop offset="0" stop-color="#9d9fa2"/>
      <stop offset="1" stop-color="#cfd1d2"/>
    </linearGradient>
    <linearGradient id="linear-gradient-2" x1="4582.21" y1="3790.08" x2="4580.11" y2="3455.79" gradientUnits="userSpaceOnUse">
      <stop offset="0" stop-color="#5fbb46"/>
      <stop offset="1" stop-color="#bdce53"/>
    </linearGradient>
    <linearGradient id="linear-gradient-3" x1="4472.54" y1="4171.44" x2="4469.69" y2="3717.48" xlink:href="#linear-gradient-2"/>
    <linearGradient id="linear-gradient-4" x1="2563.56" y1="1111.13" x2="2567.92" y2="622.85" gradientUnits="userSpaceOnUse">
      <stop offset="0" stop-color="#9d9fa2"/>
      <stop offset=".04" stop-color="#a1a3a6"/>
      <stop offset=".36" stop-color="#c2c4c5"/>
      <stop offset=".53" stop-color="#cfd1d2"/>
    </linearGradient>
    <linearGradient id="linear-gradient-5" x1="2065.41" y1="-227.39" x2="2074.5" y2="-1246.22" gradientTransform="translate(785.39 4386.8) rotate(-90.69)" xlink:href="#linear-gradient-4"/>
  </defs>
  <path class="cls-8" d="M5125.92,3211.6H6.11c-.58-779.45-1.15-1558.9-1.73-2338.35h5120c.51,779.45,1.03,1558.9,1.54,2338.35Z"/>
  <g>
    <g>
      <path class="cls-7" d="M694.66,3263.4v8.77c-81.53-.04-163.05-.07-244.58-.11h-1.68c-144.93-.07-289.86-.13-434.78-.2-7.42,0-14.83,0-22.24-.01v-8.77c7.42,0,14.83,0,22.24.01,227.01.1,454.03.2,681.04.31Z"/>
      <path class="cls-2" d="M732.49,3229.3c-.62.56-1.24,1.12-1.87,1.69-11.99,10.81-23.98,21.61-35.97,32.42-227.01-.1-454.03-.2-681.04-.31-7.42,0-14.83,0-22.24-.01v-34.14c7.42,0,14.83,0,22.24,0,239.63.12,479.25.23,718.88.35Z"/>
      <path class="cls-4" d="M694.66,3272.17c12.61-11.37,25.22-22.74,37.83-34.11v-8.77c-12.61,11.37-25.22,22.74-37.83,34.11v8.77Z"/>
    </g>
    <g>
      <path class="cls-7" d="M609.44,3347.7v8.77c-81.53-.04-163.05-.07-244.58-.11h-1.68c-116.53-.05-233.05-.1-349.57-.16-7.42,0-14.84,0-22.24,0v-8.78c7.41,0,14.83,0,22.24.01,198.6.09,397.21.18,595.83.27Z"/>
      <path class="cls-2" d="M647.27,3313.59c-12.6,11.37-25.22,22.74-37.83,34.1-198.61-.09-397.23-.18-595.83-.27-7.42,0-14.84,0-22.24-.01v-34.14c7.42,0,14.83,0,22.24.01,132.2.06,264.39.12,396.59.19h2.5c78.18.04,156.38.07,234.56.11Z"/>
      <path class="cls-4" d="M609.44,3356.47c12.61-11.37,25.22-22.74,37.83-34.11v-8.77c-12.61,11.37-25.22,22.74-37.83,34.11v8.77Z"/>
    </g>
    <g>
      <path class="cls-7" d="M781.26,3474.25v9.25c-255.88-.12-511.77-.23-767.64-.35-7.42,0-14.84,0-22.24-.01v-9.25c7.41,0,14.83,0,22.24.01,255.87.12,511.76.23,767.64.35Z"/>
      <path class="cls-2" d="M821.13,3438.3c-2.15,1.94-4.31,3.89-6.46,5.83-11.14,10.04-22.28,20.08-33.41,30.12-255.88-.12-511.77-.23-767.64-.35-7.42,0-14.84,0-22.24-.01v-35.98c7.42,0,14.83.01,22.24.01,269.17.13,538.34.25,807.51.39Z"/>
      <path class="cls-4" d="M781.26,3483.5c13.29-11.98,26.58-23.96,39.87-35.95v-9.25c-13.29,11.98-26.58,23.96-39.87,35.95v9.25Z"/>
    </g>
    <path class="cls-1" d="M5125.92,3397.67v447.56c-202.93-.12-405.85-.25-608.78-.37h-.41v-13.2c8.1-9.83,16.2-19.67,24.29-29.51.64-.77,1.27-1.55,1.91-2.32.27-.33.54-.65.8-.97,1.63-1.99,3.27-3.97,4.89-5.95.64-.78,1.28-1.55,1.92-2.33,1.84-2.23,3.67-4.45,5.5-6.68.83-1.01,1.66-2.02,2.49-3.02.16-.18.31-.37.46-.56,26.88.02,53.76.03,80.62.05v-10.21c3.02-3.67,6.05-7.34,9.07-11.01.16-.19.32-.39.48-.58.43-.53.87-1.06,1.3-1.59.64-.78,1.28-1.56,1.93-2.33,1.17-1.42,2.34-2.84,3.51-4.26.16-.2.32-.39.48-.59,7.07-8.58,14.14-17.18,21.22-25.77-213.86-.13-427.71-.26-641.56-.39h-.41v-13.2c.58-.71,1.16-1.41,1.75-2.12.02-.03.04-.05.06-.08,9.33-11.33,18.66-22.67,27.99-34.01.08-.09.15-.18.23-.28.44-.54.88-1.07,1.32-1.61.02-.03.05-.05.07-.08,1.87-2.27,3.73-4.53,5.6-6.8.07-.09.15-.18.23-.27.68-.84,1.36-1.67,2.06-2.5.82-1.01,1.65-2.02,2.49-3.02.15-.19.31-.37.46-.56,26.88.02,53.76.03,80.63.05v-10.2c4.45-5.42,8.92-10.83,13.38-16.25.36-.44.72-.9,1.09-1.34.07-.09.15-.18.23-.27,1.23-1.5,2.47-3,3.7-4.5,6.24-7.58,12.48-15.16,18.71-22.74.12-.14.24-.29.36-.43-23.21-.02-46.42-.03-69.63-.05h-.41v-13.19c4.04-4.92,8.09-9.84,12.13-14.75,9.06-11.01,18.11-22.01,27.17-33.01.83-1.01,1.65-2.01,2.49-3.02.15-.19.31-.37.46-.56,26.88.02,53.76.03,80.63.05v-10.2c12.3-14.95,24.61-29.9,36.91-44.84l-214.28-.1h-.39v-9.25c12.36-11.16,24.72-22.31,37.09-33.47.78-.7,1.56-1.42,2.36-2.12.14-.13.29-.26.43-.39,25.35.01,50.72.03,76.07.04v-7.16c11.38-10.28,22.78-20.55,34.16-30.83.88-.8,1.77-1.59,2.65-2.38.34-.31.68-.62,1.02-.93,300.37.14,600.72.29,901.08.43Z"/>
    <g>
      <path class="cls-7" d="M1373.19,3196.49v5.8c-74.46-.03-148.93-.05-223.39-.07h-1.54l-1134.64-.37c-7.42,0-14.83,0-22.24,0v-5.81c7.42,0,14.83,0,22.24,0,453.19.15,906.38.3,1359.57.45Z"/>
      <path class="cls-2" d="M1407.74,3173.92c-11.52,7.52-23.03,15.04-34.55,22.56-453.19-.15-906.38-.3-1359.57-.45-7.42,0-14.83,0-22.24,0v-22.6c7.42,0,14.83,0,22.24.01,464.71.16,929.42.32,1394.12.48Z"/>
      <path class="cls-4" d="M1373.19,3202.29c11.52-7.52,23.03-15.04,34.55-22.56v-5.8c-11.52,7.52-23.03,15.04-34.55,22.56v5.8Z"/>
    </g>
    <g>
      <path class="cls-7" d="M2798.62,3202.53c-475.14-.16-950.29-.31-1425.43-.47v-5.8c475.14.16,950.29.31,1425.43.47v5.8Z"/>
      <path class="cls-2" d="M2798.62,3196.73c-475.14-.16-950.29-.31-1425.43-.47,11.52-7.53,23.03-15.06,34.55-22.59,475.14.16,950.29.33,1425.43.49-11.52,7.52-23.03,15.04-34.55,22.56Z"/>
      <path class="cls-4" d="M2798.62,3202.53c11.52-7.52,23.03-15.04,34.55-22.56v-5.8c-11.52,7.52-23.03,15.04-34.55,22.56v5.8Z"/>
    </g>
    <g>
      <path class="cls-7" d="M4224.05,3203.02c-475.14-.16-950.29-.31-1425.43-.47v-5.8c475.14.16,950.29.31,1425.43.47v5.8Z"/>
      <path class="cls-2" d="M4224.05,3197.22c-475.14-.16-950.29-.31-1425.43-.47,11.52-7.53,23.03-15.06,34.55-22.59,475.14.16,950.29.33,1425.43.49-11.52,7.52-23.03,15.04-34.55,22.56Z"/>
      <path class="cls-4" d="M4224.05,3203.02c11.52-7.52,23.03-15.04,34.55-22.56v-5.8c-11.52,7.52-23.03,15.04-34.55,22.56v5.8Z"/>
    </g>
    <g>
      <path class="cls-7" d="M5125.92,3196.93v5.8c-300.33-.1-600.64-.2-900.96-.29h-.9v-5.81h9.8c297.36.1,594.71.2,892.06.3Z"/>
      <path class="cls-2" d="M5125.92,3174.34v22.59c-297.36-.1-594.71-.2-892.06-.3h-9.8c11.2-7.32,22.4-14.64,33.61-21.97.32-.2.63-.41.94-.61,289.1.1,578.21.2,867.31.3Z"/>
    </g>
    <g>
      <path class="cls-7" d="M1113.37,3224.99v6.11c-126.96-.04-253.92-.08-380.88-.12h-1.87c-239-.08-478.01-.16-717.01-.24-7.42,0-14.83,0-22.24,0v-6.12c7.42,0,14.83,0,22.24,0,366.59.12,733.17.24,1099.75.36Z"/>
      <path class="cls-2" d="M1149.8,3201.21c-.51.33-1.02.67-1.54,1.01-11.63,7.59-23.26,15.18-34.88,22.77-366.58-.12-733.17-.24-1099.75-.36-7.42,0-14.83,0-22.24,0v-23.81c7.42,0,14.83,0,22.24,0,378.72.13,757.46.26,1136.18.39Z"/>
      <path class="cls-4" d="M1113.38,3231.11c12.14-7.93,24.28-15.85,36.42-23.78v-6.12c-12.14,7.93-24.28,15.85-36.42,23.78v6.12Z"/>
    </g>
    <g>
      <path class="cls-7" d="M2615.77,3231.37c-500.8-.16-1001.59-.33-1502.39-.49v-6.12c500.8.16,1001.59.33,1502.39.49v6.12Z"/>
      <path class="cls-2" d="M2615.77,3225.25c-500.8-.16-1001.59-.33-1502.39-.49,12.14-7.93,24.28-15.87,36.42-23.81,500.8.17,1001.59.34,1502.39.52-12.14,7.93-24.28,15.85-36.42,23.78Z"/>
      <path class="cls-4" d="M2615.77,3231.37c12.14-7.93,24.28-15.85,36.42-23.78v-6.12c-12.14,7.93-24.28,15.85-36.42,23.78v6.12Z"/>
    </g>
    <g>
      <path class="cls-7" d="M4118.16,3231.49c-500.8-.16-1001.59-.33-1502.39-.49v-6.12c500.8.16,1001.59.33,1502.39.49v6.12Z"/>
      <path class="cls-2" d="M4118.16,3225.38c-500.8-.16-1001.59-.33-1502.39-.49,12.14-7.93,24.28-15.87,36.42-23.81,500.8.17,1001.59.34,1502.39.52-12.14,7.93-24.28,15.85-36.42,23.78Z"/>
      <path class="cls-4" d="M4118.16,3231.49c12.14-7.93,24.28-15.85,36.42-23.78v-6.12c-12.14,7.93-24.28,15.85-36.42,23.78v6.12Z"/>
    </g>
    <g>
      <path class="cls-7" d="M5125.92,3225.47v6.12c-335.8-.1-671.6-.22-1007.41-.33h-.36v-6.12h9.73c332.69.11,665.36.22,998.04.33Z"/>
      <path class="cls-2" d="M5125.92,3201.67v23.8c-332.68-.1-665.35-.22-998.04-.33h-9.73c11.3-7.38,22.59-14.76,33.88-22.15.72-.46,1.43-.93,2.15-1.4l.4-.26c23.16,0,46.32.01,69.48.03h2.55c299.77.1,599.54.2,899.31.31Z"/>
    </g>
    <g>
      <path class="cls-7" d="M2255.31,3272.54c-520.22-.23-1040.43-.47-1560.65-.7v-8.77c520.22.23,1040.43.47,1560.65.7v8.77Z"/>
      <path class="cls-2" d="M2255.31,3263.77c-520.22-.24-1040.43-.47-1560.65-.7,12.61-11.38,25.22-22.76,37.83-34.14,520.22.25,1040.43.49,1560.65.74-12.61,11.37-25.22,22.74-37.83,34.11Z"/>
      <path class="cls-4" d="M2255.31,3272.54c12.61-11.37,25.22-22.74,37.83-34.11v-8.77c-12.61,11.37-25.22,22.74-37.83,34.11v8.77Z"/>
    </g>
    <g>
      <path class="cls-7" d="M3815.96,3273.28c-520.22-.23-1040.43-.47-1560.65-.7v-8.77c520.22.23,1040.43.47,1560.65.7v8.77Z"/>
      <path class="cls-2" d="M3815.96,3264.51c-520.22-.24-1040.43-.47-1560.65-.7,12.61-11.38,25.22-22.76,37.83-34.14,520.22.25,1040.43.49,1560.65.74-12.61,11.37-25.22,22.74-37.83,34.11Z"/>
      <path class="cls-4" d="M3815.96,3273.28c12.61-11.37,25.22-22.74,37.83-34.11v-8.77c-12.61,11.37-25.22,22.74-37.83,34.11v8.77Z"/>
    </g>
    <g>
      <path class="cls-7" d="M5125.92,3264.21v8.77c-436.32-.2-872.64-.4-1308.97-.59h-.99v-8.77h.98c3.25,0,6.49,0,9.74,0,433.08.2,866.16.39,1299.24.59Z"/>
      <path class="cls-2" d="M5125.92,3230.08v34.13c-433.08-.2-866.16-.39-1299.24-.59-3.25,0-6.49,0-9.74,0h-.98c11.89-10.73,23.79-21.47,35.69-32.21.36-.33.73-.67,1.11-1.01.34-.31.68-.62,1.02-.93,88.12.04,176.24.08,264.36.12.96,0,1.93,0,2.89,0h.01c334.96.16,669.91.31,1004.87.48Z"/>
    </g>
    <g>
      <path class="cls-7" d="M2055.11,3316.13c-548.3-.25-1096.6-.49-1644.91-.74v-9.25c548.3.25,1096.6.49,1644.91.74v9.25Z"/>
      <path class="cls-2" d="M2055.11,3306.88c-548.3-.25-1096.6-.5-1644.91-.74,13.29-12,26.58-23.99,39.87-35.99,548.3.26,1096.6.52,1644.91.78-13.29,11.98-26.58,23.96-39.87,35.95Z"/>
      <path class="cls-4" d="M2055.11,3316.13c13.29-11.98,26.58-23.96,39.87-35.95v-9.25c-13.29,11.98-26.58,23.96-39.87,35.95v9.25Z"/>
    </g>
    <g>
      <path class="cls-7" d="M3700.02,3316.32c-548.3-.25-1096.6-.49-1644.91-.74v-9.25c548.3.25,1096.6.49,1644.91.74v9.25Z"/>
      <path class="cls-2" d="M3700.02,3307.08c-548.3-.25-1096.6-.5-1644.91-.74,13.29-12,26.58-23.99,39.87-35.99,548.3.26,1096.6.52,1644.91.78-13.29,11.98-26.58,23.96-39.87,35.95Z"/>
      <path class="cls-4" d="M3700.02,3316.32c13.29-11.98,26.58-23.96,39.87-35.95v-9.25c-13.29,11.98-26.58,23.96-39.87,35.95v9.25Z"/>
    </g>
    <g>
      <path class="cls-7" d="M5125.92,3307.37v9.24c-452.45-.21-904.9-.41-1357.35-.61h-1.44c-.34,0-.68,0-1.02,0-21.9-.01-43.81-.02-65.71-.03h-.38v-9.25h.39c3.42,0,6.83,0,10.25,0,471.75.21,943.51.42,1415.26.64Z"/>
      <path class="cls-2" d="M5125.92,3271.39v35.98c-471.75-.22-943.51-.43-1415.26-.64-3.42,0-6.83,0-10.25,0h-.39c12.36-11.16,24.73-22.31,37.09-33.47.78-.71,1.57-1.42,2.36-2.12.14-.13.29-.26.43-.39,25.35.01,50.72.03,76.07.04h2.79c435.73.21,871.44.41,1307.17.61Z"/>
    </g>
    <g>
      <path class="cls-7" d="M2170.09,3356.84c-520.22-.23-1040.43-.47-1560.65-.7v-8.77c520.22.23,1040.43.47,1560.65.7v8.77Z"/>
      <path class="cls-2" d="M2170.09,3348.07c-520.22-.24-1040.43-.47-1560.65-.7,12.61-11.38,25.22-22.76,37.83-34.14,520.22.25,1040.43.49,1560.65.74-12.61,11.37-25.22,22.74-37.83,34.11Z"/>
      <path class="cls-4" d="M2170.09,3356.84c12.61-11.37,25.22-22.74,37.83-34.11v-8.77c-12.61,11.37-25.22,22.74-37.83,34.11v8.77Z"/>
    </g>
    <g>
      <path class="cls-7" d="M3730.74,3357.58c-520.22-.23-1040.43-.47-1560.65-.7v-8.77c520.22.23,1040.43.47,1560.65.7v8.77Z"/>
      <path class="cls-2" d="M3730.74,3348.81c-520.22-.24-1040.43-.47-1560.65-.7,12.61-11.38,25.22-22.76,37.83-34.14,520.22.25,1040.43.49,1560.65.74-12.61,11.37-25.22,22.74-37.83,34.11Z"/>
      <path class="cls-4" d="M3730.74,3357.58c12.61-11.37,25.22-22.74,37.83-34.11v-8.77c-12.61,11.37-25.22,22.74-37.83,34.11v8.77Z"/>
    </g>
    <g>
      <path class="cls-7" d="M5125.92,3348.55v8.77c-464.73-.21-929.47-.42-1394.19-.63h-.98v-8.77h.98c3.24,0,6.49,0,9.73,0,461.48.2,922.97.41,1384.46.62Z"/>
      <path class="cls-2" d="M5125.92,3314.42v34.13c-461.49-.21-922.98-.42-1384.46-.62-3.24,0-6.49,0-9.73,0h-.98c11.78-10.64,23.58-21.28,35.36-31.91.48-.44.96-.87,1.44-1.31.34-.31.68-.61,1.02-.92,452.45.21,904.89.42,1357.35.64Z"/>
    </g>
    <g>
      <path class="cls-7" d="M1969.89,3400.82c-548.3-.25-1096.6-.49-1644.91-.74v-9.25c548.3.25,1096.6.49,1644.91.74v9.25Z"/>
      <path class="cls-2" d="M1969.89,3391.57c-548.3-.25-1096.6-.5-1644.91-.74,13.29-12,26.58-23.99,39.87-35.99,548.3.26,1096.6.52,1644.91.78-13.29,11.98-26.58,23.96-39.87,35.95Z"/>
      <path class="cls-4" d="M1969.89,3400.82c13.29-11.98,26.58-23.96,39.87-35.95v-9.25c-13.29,11.98-26.58,23.96-39.87,35.95v9.25Z"/>
    </g>
    <g>
      <path class="cls-7" d="M3614.8,3400.62c-548.3-.25-1096.6-.49-1644.91-.74v-9.25c548.3.25,1096.6.49,1644.91.74v9.25Z"/>
      <path class="cls-2" d="M3614.8,3391.38c-548.3-.25-1096.6-.5-1644.91-.74,13.29-12,26.58-23.99,39.87-35.99,548.3.26,1096.6.52,1644.91.78-13.29,11.98-26.58,23.96-39.87,35.95Z"/>
      <path class="cls-4" d="M3614.8,3400.62c13.29-11.98,26.58-23.96,39.87-35.95v-9.25c-13.29,11.98-26.58,23.96-39.87,35.95v9.25Z"/>
    </g>
    <g>
      <path class="cls-7" d="M5125.92,3391.71v9.24c-300.36-.13-600.72-.27-901.08-.41h-3.67c-201.99-.09-403.99-.18-605.98-.27h-.39v-9.25h.39c3.42,0,6.84,0,10.26,0,500.15.22,1000.32.45,1500.47.68Z"/>
      <path class="cls-2" d="M5125.92,3355.74v35.97c-500.15-.23-1000.32-.46-1500.47-.68-3.42,0-6.84,0-10.26,0h-.39c12.36-11.16,24.72-22.31,37.09-33.47.78-.7,1.56-1.42,2.36-2.12.14-.13.29-.26.43-.39,25.35.01,50.72.03,76.07.04h2.79c464.13.22,928.26.44,1392.39.66Z"/>
    </g>
    <g>
      <path class="cls-7" d="M1063.37,3431.08v8.77c-80.75-.04-161.5-.07-242.25-.11h-6.46c-267.01-.12-534.04-.24-801.05-.36-7.42,0-14.83,0-22.24,0v-8.78c7.42,0,14.83,0,22.24,0,349.92.16,699.84.32,1049.76.48Z"/>
      <path class="cls-2" d="M1101.2,3396.98c-12.62,11.37-25.22,22.74-37.83,34.1-349.91-.16-699.84-.31-1049.76-.48-7.42,0-14.83,0-22.24,0v-34.15c7.41,0,14.83,0,22.24.01,362.52.17,725.05.35,1087.58.52Z"/>
      <path class="cls-4" d="M1063.37,3439.86c12.61-11.37,25.22-22.74,37.83-34.11v-8.77c-12.61,11.37-25.22,22.74-37.83,34.11v8.77Z"/>
    </g>
    <g>
      <path class="cls-7" d="M2626.36,3440.3c-520.22-.23-1040.43-.47-1560.65-.7v-8.77c520.22.23,1040.43.47,1560.65.7v8.77Z"/>
      <path class="cls-2" d="M2626.36,3431.53c-520.22-.24-1040.43-.47-1560.65-.7,12.61-11.38,25.22-22.76,37.83-34.14,520.22.25,1040.43.49,1560.65.74-12.61,11.37-25.22,22.74-37.83,34.11Z"/>
      <path class="cls-4" d="M2626.36,3440.3c12.61-11.37,25.22-22.74,37.83-34.11v-8.77c-12.61,11.37-25.22,22.74-37.83,34.11v8.77Z"/>
    </g>
    <g>
      <path class="cls-7" d="M4187.01,3441.05c-520.22-.23-1040.43-.47-1560.65-.7v-8.77c520.22.23,1040.43.47,1560.65.7v8.77Z"/>
      <path class="cls-2" d="M4187.01,3432.27c-520.22-.24-1040.43-.47-1560.65-.7,12.61-11.38,25.22-22.76,37.83-34.14,520.22.25,1040.43.49,1560.65.74-12.61,11.37-25.22,22.74-37.83,34.11Z"/>
      <path class="cls-4" d="M4187.01,3441.05c12.61-11.37,25.22-22.74,37.83-34.11v-8.77c-12.61,11.37-25.22,22.74-37.83,34.11v8.77Z"/>
    </g>
    <g>
      <path class="cls-7" d="M5125.92,3431.8v8.77c-312.64-.14-625.27-.28-937.92-.42h-.99v-8.77h.99c3.24,0,6.49,0,9.73,0,309.4.14,618.8.28,928.19.42Z"/>
      <path class="cls-2" d="M5125.92,3397.67v34.14c-309.39-.14-618.79-.28-928.19-.42-3.24,0-6.49,0-9.73,0h-.99c11.38-10.28,22.78-20.55,34.16-30.83.88-.8,1.77-1.59,2.65-2.38.34-.31.68-.62,1.02-.93,300.37.14,600.72.29,901.08.43Z"/>
    </g>
    <g>
      <path class="cls-7" d="M2426.16,3483.89c-548.3-.25-1096.6-.49-1644.91-.74v-9.25c548.3.25,1096.6.49,1644.91.74v9.25Z"/>
      <path class="cls-2" d="M2426.16,3474.64c-548.3-.25-1096.6-.5-1644.91-.74,13.29-12,26.58-23.99,39.87-35.99,548.3.26,1096.6.52,1644.91.78-13.29,11.98-26.58,23.96-39.87,35.95Z"/>
      <path class="cls-4" d="M2426.16,3483.89c13.29-11.98,26.58-23.96,39.87-35.95v-9.25c-13.29,11.98-26.58,23.96-39.87,35.95v9.25Z"/>
    </g>
    <g>
      <path class="cls-7" d="M4071.07,3484.08c-548.3-.25-1096.6-.49-1644.91-.74v-9.25c548.3.25,1096.6.49,1644.91.74v9.25Z"/>
      <path class="cls-2" d="M4071.07,3474.84c-548.3-.25-1096.6-.5-1644.91-.74,13.29-12,26.58-23.99,39.87-35.99,548.3.26,1096.6.52,1644.91.78-13.29,11.98-26.58,23.96-39.87,35.95Z"/>
      <path class="cls-4" d="M4071.07,3484.08c13.29-11.98,26.58-23.96,39.87-35.95v-9.25c-13.29,11.98-26.58,23.96-39.87,35.95v9.25Z"/>
    </g>
    <g>
      <path class="cls-7" d="M5125.92,3474.95v9.25c-279-.12-558-.25-836.99-.37h-3.19l-214.28-.1h-.39v-9.25h.39c3.42,0,6.83,0,10.25,0h.01c266.09.12,532.16.24,798.24.36,81.99.03,163.97.07,245.96.1Z"/>
      <path class="cls-2" d="M5125.92,3438.98v35.98c-81.99-.03-163.97-.07-245.96-.11-266.09-.12-532.16-.24-798.24-.36h-.01c-3.42,0-6.83,0-10.25,0h-.39c12.36-11.16,24.72-22.31,37.09-33.47.78-.7,1.56-1.42,2.36-2.12.14-.13.29-.26.43-.39,25.35.01,50.72.03,76.07.04h2.78c312.05.15,624.09.29,936.13.44Z"/>
    </g>
    <g>
      <path class="cls-7" d="M940.61,3528.36v12.52l-259.24-.16h-1.79c-221.99-.14-443.98-.27-665.97-.41-7.42,0-14.83,0-22.24-.01v-12.52c7.42,0,14.83,0,22.24.01,309,.19,617.99.37,927,.56Z"/>
      <path class="cls-2" d="M980.7,3479.7c-13.37,16.22-26.73,32.44-40.09,48.66-309-.19-617.99-.37-927-.56-7.42,0-14.83-.01-22.24-.01v-48.72c7.42,0,14.83.01,22.24.01,255.88.16,511.76.33,767.64.49,1.45,0,2.9,0,4.35,0,65.03.04,130.06.08,195.09.12Z"/>
      <path class="cls-4" d="M940.61,3540.88c13.36-16.22,26.73-32.44,40.09-48.66v-12.52c-13.36,16.22-26.73,32.44-40.09,48.66v12.52Z"/>
    </g>
    <g>
      <path class="cls-7" d="M2594.72,3541.41c-551.37-.34-1102.74-.67-1654.11-1v-12.52c551.37.34,1102.74.67,1654.11,1v12.52Z"/>
      <path class="cls-2" d="M2594.72,3528.89c-551.37-.34-1102.74-.67-1654.11-1,13.36-16.24,26.73-32.48,40.09-48.71,551.37.35,1102.74.71,1654.11,1.06-13.36,16.22-26.73,32.44-40.09,48.66Z"/>
      <path class="cls-4" d="M2594.72,3541.41c13.36-16.22,26.73-32.44,40.09-48.66v-12.52c-13.36,16.22-26.73,32.44-40.09,48.66v12.52Z"/>
    </g>
    <g>
      <path class="cls-7" d="M4248.83,3542.46c-551.37-.34-1102.74-.67-1654.11-1v-12.52c551.37.34,1102.74.67,1654.11,1v12.52Z"/>
      <path class="cls-2" d="M4248.83,3529.94c-551.37-.34-1102.74-.67-1654.11-1,13.36-16.24,26.73-32.48,40.09-48.71,551.37.35,1102.74.71,1654.11,1.06-13.36,16.22-26.73,32.44-40.09,48.66Z"/>
      <path class="cls-4" d="M4248.83,3542.46c13.36-16.22,26.73-32.44,40.09-48.66v-12.52c-13.36,16.22-26.73,32.44-40.09,48.66v12.52Z"/>
    </g>
    <g>
      <path class="cls-7" d="M5125.92,3529.21v12.52c-292.01-.18-584.03-.36-876.05-.54h-1.04v-12.52h1.04c3.44,0,6.87,0,10.31,0,288.58.18,577.16.35,865.74.52Z"/>
      <path class="cls-2" d="M5125.92,3480.49v48.71c-288.58-.18-577.16-.35-865.74-.52-3.44,0-6.87,0-10.31,0h-1.04c12.3-14.95,24.61-29.9,36.91-44.84.7-.85,1.39-1.7,2.1-2.55.36-.44.72-.88,1.08-1.33,279,.18,558,.36,837,.54Z"/>
    </g>
    <g>
      <path class="cls-7" d="M639.12,3589.83v13.2c-208.5-.12-416.99-.25-625.5-.38-7.41,0-14.83-.01-22.24-.01v-13.2c7.42,0,14.84,0,22.24.01,208.51.12,417,.26,625.5.38Z"/>
      <path class="cls-2" d="M681.38,3538.55c-.6.73-1.19,1.44-1.79,2.17-13.48,16.37-26.98,32.75-40.47,49.12-208.5-.12-416.99-.25-625.5-.38-7.41,0-14.83-.01-22.24-.01v-51.33c7.42,0,14.83,0,22.24.01,222.59.14,445.17.29,667.76.42Z"/>
      <path class="cls-4" d="M639.12,3603.03c14.09-17.1,28.17-34.19,42.26-51.29v-13.19c-14.09,17.1-28.17,34.19-42.26,51.29v13.19Z"/>
    </g>
    <g>
      <path class="cls-7" d="M2382.53,3603.59c-581.14-.35-1162.27-.71-1743.41-1.06v-13.19c581.14.35,1162.27.71,1743.41,1.06v13.19Z"/>
      <path class="cls-2" d="M2382.53,3590.39c-581.14-.35-1162.27-.71-1743.41-1.06,14.09-17.11,28.17-34.23,42.26-51.34,581.14.37,1162.27.74,1743.41,1.12-14.09,17.09-28.17,34.19-42.26,51.29Z"/>
      <path class="cls-4" d="M2382.53,3603.59c14.09-17.1,28.17-34.19,42.26-51.29v-13.19c-14.09,17.1-28.17,34.19-42.26,51.29v13.19Z"/>
    </g>
    <g>
      <path class="cls-7" d="M4125.94,3603.87c-581.14-.35-1162.27-.71-1743.41-1.06v-13.19c581.14.35,1162.27.71,1743.41,1.06v13.19Z"/>
      <path class="cls-2" d="M4125.94,3590.67c-581.14-.35-1162.27-.71-1743.41-1.06,14.09-17.11,28.17-34.23,42.26-51.34,581.14.37,1162.27.74,1743.41,1.12-14.09,17.09-28.17,34.19-42.26,51.29Z"/>
      <path class="cls-4" d="M4125.94,3603.87c14.09-17.1,28.17-34.19,42.26-51.29v-13.19c-14.09,17.1-28.17,34.19-42.26,51.29v13.19Z"/>
    </g>
    <g>
      <path class="cls-7" d="M5125.92,3590.78v13.19c-309.1-.19-618.21-.37-927.32-.56h-2.62c-23.21-.02-46.42-.03-69.63-.05h-.41v-13.19h.41c3.62,0,7.24,0,10.86,0,329.56.2,659.13.4,988.7.6Z"/>
      <path class="cls-2" d="M5125.92,3539.44v51.34c-329.57-.2-659.14-.41-988.7-.6-3.62,0-7.24,0-10.86,0h-.41c4.04-4.92,8.09-9.84,12.13-14.75,9.06-11.01,18.11-22.01,27.17-33.01.83-1.01,1.65-2.01,2.49-3.02.15-.19.31-.37.46-.56,26.88.02,53.76.03,80.63.05h2.95c291.38.19,582.76.37,874.14.56Z"/>
    </g>
    <g>
      <path class="cls-7" d="M850.29,3648.63v12.52c-86.41-.05-172.81-.1-259.23-.16h-1.79c-191.88-.12-383.78-.23-575.66-.35-7.42,0-14.83-.01-22.24-.01v-12.52c7.42,0,14.83,0,22.24.01,278.9.16,557.78.33,836.67.5Z"/>
      <path class="cls-2" d="M890.38,3599.97c-13.36,16.22-26.73,32.44-40.09,48.66-278.9-.17-557.78-.34-836.67-.5-7.42,0-14.83-.01-22.24-.01v-48.72c7.42,0,14.83.01,22.24.01,208.5.14,417,.27,625.5.4.89,0,1.77,0,2.65,0,82.87.05,165.74.1,248.61.16Z"/>
      <path class="cls-4" d="M850.29,3661.15c13.36-16.22,26.73-32.44,40.09-48.66v-12.52c-13.36,16.22-26.73,32.44-40.09,48.66v12.52Z"/>
    </g>
    <g>
      <path class="cls-7" d="M2504.4,3661.68c-551.37-.34-1102.74-.67-1654.11-1v-12.52c551.37.34,1102.74.67,1654.11,1v12.52Z"/>
      <path class="cls-2" d="M2504.4,3649.16c-551.37-.34-1102.74-.67-1654.11-1,13.36-16.24,26.73-32.48,40.09-48.71,551.37.35,1102.74.71,1654.11,1.06-13.36,16.22-26.73,32.44-40.09,48.66Z"/>
      <path class="cls-4" d="M2504.4,3661.68c13.36-16.22,26.73-32.44,40.09-48.66v-12.52c-13.36,16.22-26.73,32.44-40.09,48.66v12.52Z"/>
    </g>
    <g>
      <path class="cls-7" d="M4158.51,3662.74c-551.37-.34-1102.74-.67-1654.11-1v-12.52c551.37.34,1102.74.67,1654.11,1v12.52Z"/>
      <path class="cls-2" d="M4158.51,3650.22c-551.37-.34-1102.74-.67-1654.11-1,13.36-16.24,26.73-32.48,40.09-48.71,551.37.35,1102.74.71,1654.11,1.06-13.36,16.22-26.73,32.44-40.09,48.66Z"/>
      <path class="cls-4" d="M4158.51,3662.74c13.36-16.22,26.73-32.44,40.09-48.66v-12.52c-13.36,16.22-26.73,32.44-40.09,48.66v12.52Z"/>
    </g>
    <g>
      <path class="cls-7" d="M5125.92,3649.53v12.52c-21.28-.01-42.55-.03-63.83-.04-3.07,0-6.13,0-9.2,0h-.55c-297.59-.18-595.19-.36-892.78-.54h-1.05v-12.52h1.05c3.44,0,6.87,0,10.31,0,298.52.18,597.05.36,895.57.54h.56c3.07,0,6.13,0,9.2,0,16.91,0,33.81.02,50.72.03Z"/>
      <path class="cls-2" d="M5125.92,3600.83v48.71c-16.91-.01-33.81-.03-50.72-.03-3.07,0-6.13,0-9.2,0h-.56c-298.52-.18-597.05-.36-895.57-.54-3.44,0-6.87,0-10.31,0h-1.05c4.45-5.42,8.92-10.83,13.38-16.25.36-.44.72-.9,1.09-1.34.07-.09.15-.18.23-.27,1.23-1.5,2.47-3,3.7-4.5,6.24-7.58,12.48-15.16,18.71-22.74.12-.14.24-.29.36-.43.17-.21.34-.42.52-.63.33-.41.66-.81.99-1.22.37-.44.73-.88,1.09-1.33,309.11.2,618.21.4,927.33.59Z"/>
    </g>
    <g>
      <path class="cls-7" d="M548.8,3710.11v13.19c-178.39-.11-356.79-.22-535.18-.33-7.42,0-14.83,0-22.24-.01v-13.19c7.42,0,14.83.01,22.24.01,178.39.11,356.79.22,535.18.33Z"/>
      <path class="cls-2" d="M591.06,3658.83c-.6.72-1.19,1.44-1.79,2.17-13.49,16.37-26.99,32.74-40.48,49.12-178.39-.11-356.79-.22-535.18-.33-7.42,0-14.83,0-22.24-.01v-51.33c7.41,0,14.83.01,22.24.01l577.45.37Z"/>
      <path class="cls-4" d="M548.8,3723.3c14.09-17.1,28.17-34.19,42.26-51.29v-13.19c-14.09,17.1-28.17,34.19-42.26,51.29v13.19Z"/>
    </g>
    <g>
      <path class="cls-7" d="M2292.21,3723.86c-581.14-.35-1162.27-.71-1743.41-1.06v-13.19c581.14.35,1162.27.71,1743.41,1.06v13.19Z"/>
      <path class="cls-2" d="M2292.21,3710.67c-581.14-.35-1162.27-.71-1743.41-1.06,14.09-17.11,28.17-34.23,42.26-51.34,581.14.37,1162.27.74,1743.41,1.12-14.09,17.09-28.17,34.19-42.26,51.29Z"/>
      <path class="cls-4" d="M2292.21,3723.86c14.09-17.1,28.17-34.19,42.26-51.29v-13.19c-14.09,17.1-28.17,34.19-42.26,51.29v13.19Z"/>
    </g>
    <g>
      <path class="cls-7" d="M4035.62,3724.14c-581.14-.35-1162.27-.71-1743.41-1.06v-13.19c581.14.35,1162.27.71,1743.41,1.06v13.19Z"/>
      <path class="cls-2" d="M4035.62,3710.95c-581.14-.35-1162.27-.71-1743.41-1.06,14.09-17.11,28.17-34.23,42.26-51.34,581.14.37,1162.27.74,1743.41,1.12-14.09,17.09-28.17,34.19-42.26,51.29Z"/>
      <path class="cls-4" d="M4035.62,3724.14c14.09-17.1,28.17-34.19,42.26-51.29v-13.19c-14.09,17.1-28.17,34.19-42.26,51.29v13.19Z"/>
    </g>
    <g>
      <path class="cls-7" d="M5125.92,3711.11v13.2c-40.55-.03-81.1-.05-121.65-.08h-8.8c-.19,0-.38,0-.57,0-105.06-.06-210.13-.12-315.19-.19h-2.12c-213.86-.13-427.71-.26-641.56-.39h-.41v-13.2h.41c3.62,0,7.25,0,10.87,0,324.06.2,648.13.39,972.2.59,2.45,0,4.89,0,7.34,0,33.16.02,66.31.04,99.47.07Z"/>
      <path class="cls-2" d="M5125.92,3659.77v51.34c-33.16-.03-66.31-.05-99.47-.07-2.45,0-4.89,0-7.34,0-324.07-.2-648.14-.4-972.2-.59-3.62,0-7.25,0-10.87,0h-.41c.58-.71,1.16-1.41,1.75-2.12.02-.03.04-.05.06-.08,9.33-11.33,18.66-22.67,27.99-34.01.08-.09.15-.18.23-.28.44-.54.88-1.07,1.32-1.61.02-.03.05-.05.07-.08,1.87-2.27,3.73-4.53,5.6-6.8.07-.09.15-.18.23-.27.68-.84,1.36-1.67,2.06-2.5.82-1.01,1.65-2.02,2.49-3.02.15-.19.31-.37.46-.56,26.88.02,53.76.03,80.63.05h2.96c297.75.19,595.51.39,893.26.57h.56c3.07,0,6.12,0,9.19,0h0c20.48.01,40.96.03,61.44.04Z"/>
    </g>
    <g>
      <path class="cls-7" d="M1331.4,3769.84v12.52c-86.41-.05-172.81-.1-259.23-.16h-1.79c-352.26-.22-704.52-.43-1056.76-.65-7.42,0-14.84,0-22.24-.01v-12.52c7.41,0,14.83,0,22.24.01,439.25.27,878.52.53,1317.78.8Z"/>
      <path class="cls-2" d="M1371.49,3721.19c-13.36,16.22-26.72,32.44-40.09,48.65-439.26-.27-878.53-.53-1317.78-.8-7.42,0-14.84,0-22.24-.01v-48.72c7.42,0,14.83,0,22.24.01,178.39.11,356.79.23,535.18.34.72,0,1.44,0,2.17,0h.01c273.51.17,547.01.35,820.51.52Z"/>
      <path class="cls-4" d="M1331.4,3782.37c13.36-16.22,26.73-32.44,40.09-48.66v-12.52c-13.36,16.22-26.73,32.44-40.09,48.66v12.52Z"/>
    </g>
    <g>
      <path class="cls-7" d="M2985.51,3782.89c-551.37-.34-1102.74-.67-1654.11-1v-12.52c551.37.34,1102.74.67,1654.11,1v12.52Z"/>
      <path class="cls-2" d="M2985.51,3770.38c-551.37-.34-1102.74-.67-1654.11-1,13.36-16.24,26.73-32.48,40.09-48.71,551.37.35,1102.74.71,1654.11,1.06-13.36,16.22-26.73,32.44-40.09,48.66Z"/>
      <path class="cls-4" d="M2985.51,3782.89c13.36-16.22,26.73-32.44,40.09-48.66v-12.52c-13.36,16.22-26.73,32.44-40.09,48.66v12.52Z"/>
    </g>
    <g>
      <path class="cls-7" d="M4639.62,3783.95c-551.37-.34-1102.74-.67-1654.11-1v-12.52c551.37.34,1102.74.67,1654.11,1v12.52Z"/>
      <path class="cls-2" d="M4639.62,3771.43c-551.37-.34-1102.74-.67-1654.11-1,13.36-16.24,26.73-32.48,40.09-48.71,551.37.35,1102.74.71,1654.11,1.06-13.36,16.22-26.73,32.44-40.09,48.66Z"/>
      <path class="cls-4" d="M4639.62,3783.95c13.36-16.22,26.73-32.44,40.09-48.66v-12.52c-13.36,16.22-26.73,32.44-40.09,48.66v12.52Z"/>
    </g>
    <g>
      <path class="cls-7" d="M5125.92,3770.46v12.52c-55.66-.03-111.31-.07-166.97-.1-3.23,0-6.46,0-9.69,0h-.58c-102.67-.07-205.34-.12-308.01-.19h-1.06v-12.52h1.06c3.44,0,6.87,0,10.31,0,103.6.07,207.2.12,310.8.19h.6c3.23,0,6.47,0,9.7,0,51.28.03,102.57.06,153.84.09Z"/>
      <path class="cls-2" d="M5125.92,3721.74v48.72c-51.28-.03-102.57-.07-153.84-.09-3.23,0-6.47,0-9.7,0h-.6c-103.6-.07-207.2-.12-310.8-.19-3.44,0-6.87,0-10.31,0h-1.06c3.02-3.67,6.05-7.34,9.07-11.01.16-.19.32-.39.48-.58.43-.53.87-1.06,1.3-1.59.64-.78,1.28-1.56,1.93-2.33,1.17-1.42,2.34-2.84,3.51-4.26.16-.2.32-.39.48-.59,7.07-8.58,14.14-17.18,21.22-25.77.33-.42.67-.84,1.02-1.25.36-.44.72-.88,1.09-1.33,105.97.07,211.93.14,317.89.2h.58c2.04,0,4.06,0,6.09,0,40.56.03,81.1.05,121.65.08Z"/>
    </g>
    <g>
      <path class="cls-7" d="M1029.91,3831.33v13.2c-338.77-.2-677.53-.41-1016.3-.61-7.42,0-14.84-.01-22.24-.02v-13.2c7.41,0,14.83.01,22.24.02,338.77.2,677.53.41,1016.3.61Z"/>
      <path class="cls-2" d="M1072.17,3780.04c-.6.72-1.19,1.44-1.79,2.17-13.48,16.37-26.99,32.74-40.47,49.12-338.77-.2-677.53-.41-1016.3-.61-7.42,0-14.84-.01-22.24-.02v-51.34c7.42,0,14.83,0,22.24.01,352.85.23,705.71.45,1058.55.68Z"/>
      <path class="cls-4" d="M1029.91,3844.52c14.09-17.1,28.17-34.19,42.26-51.29v-13.19c-14.09,17.1-28.17,34.19-42.26,51.29v13.19Z"/>
    </g>
    <g>
      <path class="cls-7" d="M2773.32,3845.08c-581.14-.35-1162.27-.71-1743.41-1.06v-13.19c581.14.35,1162.27.71,1743.41,1.06v13.19Z"/>
      <path class="cls-2" d="M2773.32,3831.88c-581.14-.35-1162.27-.71-1743.41-1.06,14.09-17.11,28.17-34.23,42.26-51.34,581.14.37,1162.27.74,1743.41,1.12-14.09,17.09-28.17,34.19-42.26,51.29Z"/>
      <path class="cls-4" d="M2773.32,3845.08c14.09-17.1,28.17-34.19,42.26-51.29v-13.19c-14.09,17.1-28.17,34.19-42.26,51.29v13.19Z"/>
    </g>
    <g>
      <path class="cls-7" d="M4516.73,3845.36c-581.14-.35-1162.27-.71-1743.41-1.06v-13.19c581.14.35,1162.27.71,1743.41,1.06v13.19Z"/>
      <path class="cls-2" d="M4516.73,3832.16c-581.14-.35-1162.27-.71-1743.41-1.06,14.09-17.11,28.17-34.23,42.26-51.34,581.14.37,1162.27.74,1743.41,1.12-14.09,17.09-28.17,34.19-42.26,51.29Z"/>
      <path class="cls-4" d="M4516.73,3845.36c14.09-17.1,28.17-34.19,42.26-51.29v-13.19c-14.09,17.1-28.17,34.19-42.26,51.29v13.19Z"/>
    </g>
    <g>
      <path class="cls-7" d="M5125.92,3832.03v13.2c-202.93-.12-405.85-.25-608.78-.37h-.41v-13.2h.41c3.62,0,7.25,0,10.87,0,199.29.12,398.6.24,597.9.37Z"/>
      <path class="cls-2" d="M5125.92,3780.68v51.35c-199.3-.12-398.61-.25-597.9-.37-3.62,0-7.25,0-10.87,0h-.41c8.1-9.83,16.2-19.67,24.29-29.51.64-.77,1.27-1.55,1.91-2.32.27-.33.54-.65.8-.97,1.63-1.99,3.27-3.97,4.89-5.95.64-.78,1.28-1.55,1.92-2.33,1.84-2.23,3.67-4.45,5.5-6.68.83-1.01,1.66-2.02,2.49-3.02.16-.18.31-.37.46-.56,26.88.02,53.76.03,80.62.05h2.96c102.84.07,205.67.13,308.51.2h.59c3.24,0,6.47,0,9.7,0,54.86.04,109.71.07,164.55.1Z"/>
    </g>
  </g>
  <g>
    <g>
      <path class="cls-7" d="M650.65,3664.72v8.77c-76.86-.04-153.71-.07-230.57-.11h-1.58c-136.63-.07-273.26-.13-409.88-.2-6.99,0-13.98,0-20.97-.01v-8.77c6.99,0,13.98,0,20.97.01,214.01.1,428.03.2,642.04.31Z"/>
      <path class="cls-2" d="M686.32,3630.62c-.59.56-1.17,1.12-1.76,1.69-11.31,10.81-22.6,21.61-33.91,32.42-214.01-.1-428.03-.2-642.04-.31-6.99,0-13.98,0-20.97-.01v-34.14c6.99,0,13.98,0,20.97,0,225.9.12,451.8.23,677.71.35Z"/>
      <path class="cls-4" d="M650.66,3673.5c11.89-11.37,23.78-22.74,35.66-34.11v-8.77c-11.89,11.37-23.78,22.74-35.66,34.11v8.77Z"/>
    </g>
    <g>
      <path class="cls-7" d="M570.32,3749.02v8.77c-76.86-.04-153.71-.07-230.57-.11h-1.58c-109.86-.05-219.7-.1-329.55-.16-6.99,0-13.99,0-20.97,0v-8.78c6.98,0,13.98,0,20.97.01,187.23.09,374.47.18,561.7.27Z"/>
      <path class="cls-2" d="M605.98,3714.92c-11.88,11.37-23.78,22.74-35.66,34.1-187.24-.09-374.48-.18-561.7-.27-6.99,0-13.99,0-20.97-.01v-34.14c6.99,0,13.98,0,20.97.01,124.63.06,249.25.12,373.88.19h2.36c73.71.04,147.42.07,221.13.11Z"/>
      <path class="cls-4" d="M570.32,3757.8c11.89-11.37,23.78-22.74,35.66-34.11v-8.77c-11.89,11.37-23.78,22.74-35.66,34.11v8.77Z"/>
    </g>
    <g>
      <path class="cls-7" d="M732.3,3875.57v9.25c-241.23-.12-482.46-.23-723.68-.35-6.99,0-13.99,0-20.97-.01v-9.25c6.98,0,13.98,0,20.97.01,241.22.12,482.45.23,723.68.35Z"/>
      <path class="cls-2" d="M769.88,3839.63c-2.03,1.94-4.06,3.89-6.09,5.83-10.5,10.04-21,20.08-31.49,30.12-241.23-.12-482.46-.23-723.68-.35-6.99,0-13.99,0-20.97-.01v-35.98c6.99,0,13.98.01,20.97.01,253.75.13,507.51.25,761.27.39Z"/>
      <path class="cls-4" d="M732.29,3884.82c12.53-11.98,25.06-23.96,37.59-35.95v-9.25c-12.53,11.98-25.06,23.96-37.59,35.95v9.25Z"/>
    </g>
    <path class="cls-5" d="M5141.11,3631.01v615.75c-295.63-.2-591.25-.39-886.88-.57h-.39v-13.2c12.36-15.92,24.71-31.84,37.06-47.76.78-1.01,1.57-2.02,2.35-3.03.14-.18.29-.37.43-.56,25.34.02,50.67.03,76.01.05v-10.21c11.93-15.37,23.87-30.76,35.8-46.13-201.6-.13-403.2-.26-604.81-.39h-.39v-13.2c12.34-15.92,24.7-31.84,37.06-47.76.78-1.01,1.56-2.02,2.34-3.02.15-.19.29-.37.44-.56,25.33.02,50.67.03,76.01.05v-10.2c11.77-15.18,23.55-30.36,35.33-45.54-21.88-.02-43.77-.03-65.65-.05h-.38v-13.19c12.34-15.92,24.7-31.85,37.06-47.76.78-1.01,1.57-2.02,2.35-3.02.14-.18.29-.37.43-.56,25.33.02,50.67.03,76,.05v-10.2c11.59-14.95,23.21-29.9,34.79-44.84l-202.01-.1h-.35v-9.25c10.74-10.28,21.48-20.57,32.23-30.86.9-.88,1.82-1.74,2.73-2.62.74-.71,1.47-1.41,2.21-2.12.14-.13.27-.26.41-.39,23.91.01,47.82.03,71.72.04v-7.16c.31-.3.63-.6.94-.9,10.42-9.98,20.85-19.95,31.26-29.93.81-.78,1.62-1.55,2.43-2.33.02-.02.04-.04.06-.06.32-.31.65-.62.97-.93,193.98.1,387.96.2,581.93.29h.45c3.62,0,7.22,0,10.83,0h.01c127.46.07,254.92.13,382.38.2v-6.51c.62-.59,1.24-1.18,1.86-1.78,2.75-2.63,5.5-5.27,8.25-7.9.8-.76,1.6-1.54,2.39-2.3,3.56-3.4,7.12-6.81,10.67-10.21,3.85-3.68,7.69-7.36,11.54-11.05.38-.37.77-.74,1.15-1.1h-5.99v-8.77c8.78-8.4,17.55-16.81,26.33-25.21.9-.86,1.79-1.71,2.69-2.57,1.26-1.21,2.52-2.41,3.78-3.62.03-.03.06-.05.09-.08.53-.51,1.06-1.03,1.6-1.54.2-.19.4-.39.6-.57.19-.18.39-.37.58-.56,4.93,0,9.87,0,14.8,0v-7.05c11.67-11.18,23.34-22.36,35.02-33.54.28-.27.56-.54.84-.8h-5.99v-8.77c1.09-1.04,2.18-2.08,3.26-3.12.8-.76,1.59-1.52,2.38-2.28,3.57-3.41,7.13-6.82,10.69-10.23,5.74-5.49,11.48-10.99,17.22-16.48.41-.4.83-.8,1.24-1.2.1-.09.19-.18.29-.27.19-.18.39-.37.58-.56,13.66,0,27.31.01,40.97.02Z"/>
    <g>
      <path class="cls-7" d="M1290.33,3597.81v5.8c-70.2-.03-140.4-.05-210.6-.07h-1.46l-1069.66-.37c-6.99,0-13.98,0-20.97,0v-5.81c6.99,0,13.98,0,20.97,0,427.23.15,854.48.3,1281.71.45Z"/>
      <path class="cls-2" d="M1322.9,3575.24c-10.86,7.52-21.71,15.04-32.57,22.56-427.23-.15-854.48-.3-1281.71-.45-6.99,0-13.98,0-20.97,0v-22.6c6.99,0,13.98,0,20.97.01,438.1.16,876.19.32,1314.28.48Z"/>
      <path class="cls-4" d="M1290.32,3603.61c10.86-7.52,21.72-15.04,32.57-22.56v-5.8c-10.86,7.52-21.72,15.04-32.57,22.56v5.8Z"/>
    </g>
    <g>
      <path class="cls-7" d="M2634.12,3603.86c-447.93-.16-895.87-.31-1343.8-.47v-5.8c447.93.16,895.87.31,1343.8.47v5.8Z"/>
      <path class="cls-2" d="M2634.12,3598.05c-447.93-.16-895.87-.31-1343.8-.47,10.86-7.53,21.72-15.06,32.57-22.59,447.93.16,895.87.33,1343.8.49-10.86,7.52-21.72,15.04-32.57,22.56Z"/>
      <path class="cls-4" d="M2634.12,3603.86c10.86-7.52,21.72-15.04,32.57-22.56v-5.8c-10.86,7.52-21.72,15.04-32.57,22.56v5.8Z"/>
    </g>
    <g>
      <path class="cls-7" d="M3977.93,3604.35c-447.93-.16-895.87-.31-1343.8-.47v-5.8c447.93.16,895.87.31,1343.8.47v5.8Z"/>
      <path class="cls-2" d="M3977.93,3598.54c-447.93-.16-895.87-.31-1343.8-.47,10.86-7.53,21.72-15.06,32.57-22.59,447.93.16,895.87.33,1343.8.49-10.86,7.52-21.72,15.04-32.57,22.56Z"/>
      <path class="cls-4" d="M3977.93,3604.35c10.86-7.52,21.72-15.04,32.57-22.56v-5.8c-10.86,7.52-21.72,15.04-32.57,22.56v5.8Z"/>
    </g>
    <g>
      <path class="cls-7" d="M5141.11,3598.35v5.81c-308.21-.1-616.43-.22-924.64-.31-.63,0-1.25,0-1.88,0-.36,0-.73,0-1.09,0-23.15,0-46.29-.01-69.44-.02h-.04c-55.08-.02-110.16-.04-165.24-.06h-.85v-5.81h9.23c52.29.02,104.57.04,156.86.06h4.81c330.76.12,661.52.24,992.28.34Z"/>
      <path class="cls-2" d="M5141.11,3575.78v22.57c-330.76-.1-661.52-.22-992.28-.34h-4.81c-52.29-.02-104.57-.04-156.86-.06h-9.23c3.54-2.46,7.09-4.91,10.63-7.37,7.02-4.87,14.03-9.73,21.05-14.6.3-.2.59-.41.89-.61,48.54.02,97.08.03,145.62.05h.43c3.61,0,7.22,0,10.83,0,324.58.12,649.16.24,973.73.35Z"/>
    </g>
    <g>
      <path class="cls-7" d="M1045.39,3626.31v6.11c-119.69-.04-239.38-.08-359.07-.12h-1.76c-225.32-.08-450.63-.16-675.95-.24-6.99,0-13.98,0-20.97,0v-6.12c6.99,0,13.98,0,20.97,0,345.59.12,691.18.24,1036.77.36Z"/>
      <path class="cls-2" d="M1079.73,3602.53c-.48.33-.96.67-1.46,1.01-10.96,7.59-21.92,15.18-32.89,22.77-345.59-.12-691.18-.24-1036.77-.36-6.99,0-13.98,0-20.97,0v-23.81c6.99,0,13.98,0,20.97,0,357.03.13,714.08.26,1071.11.39Z"/>
      <path class="cls-4" d="M1045.39,3632.43c11.44-7.93,22.89-15.85,34.33-23.78v-6.12c-11.44,7.93-22.89,15.85-34.33,23.78v6.12Z"/>
    </g>
    <g>
      <path class="cls-7" d="M2461.74,3632.69c-472.12-.16-944.23-.33-1416.35-.49v-6.12c472.12.16,944.23.33,1416.35.49v6.12Z"/>
      <path class="cls-2" d="M2461.74,3626.57c-472.12-.16-944.23-.33-1416.35-.49,11.44-7.93,22.89-15.87,34.33-23.81,472.12.17,944.23.34,1416.35.52-11.44,7.93-22.89,15.85-34.33,23.78Z"/>
      <path class="cls-4" d="M2461.74,3632.69c11.44-7.93,22.89-15.85,34.33-23.78v-6.12c-11.44,7.93-22.89,15.85-34.33,23.78v6.12Z"/>
    </g>
    <g>
      <path class="cls-7" d="M3878.09,3632.82c-472.12-.16-944.23-.33-1416.35-.49v-6.12c472.12.16,944.23.33,1416.35.49v6.12Z"/>
      <path class="cls-2" d="M3878.09,3626.7c-472.12-.16-944.23-.33-1416.35-.49,11.44-7.93,22.89-15.87,34.33-23.81,472.12.17,944.23.34,1416.35.52-11.44,7.93-22.89,15.85-34.33,23.78Z"/>
      <path class="cls-4" d="M3878.09,3632.82c11.44-7.93,22.89-15.85,34.33-23.78v-6.12c-11.44,7.93-22.89,15.85-34.33,23.78v6.12Z"/>
    </g>
    <g>
      <path class="cls-7" d="M5141.11,3626.91v6.12c-13.66,0-27.31-.01-40.97-.01h-2.11c-298.96-.1-597.91-.21-896.86-.31h-11.34c-103.8-.04-207.59-.07-311.39-.11h-.34v-6.12h9.17c102.53.04,205.04.07,307.57.11h11.36c311.64.11,623.27.22,934.91.33Z"/>
      <path class="cls-2" d="M5141.11,3603.11v23.79c-311.64-.11-623.27-.22-934.91-.33h-11.36c-102.53-.04-205.04-.07-307.57-.11h-9.17c10.64-7.38,21.29-14.77,31.93-22.15.29-.2.58-.4.87-.6.39-.27.78-.54,1.16-.8.12-.08.25-.17.37-.25,21.83,0,43.67.01,65.5.03h2.4c54.56.02,109.12.04,163.69.06h.92c23.14,0,46.29.01,69.44.03h2.09c308.21.11,616.42.22,924.64.34Z"/>
    </g>
    <g>
      <path class="cls-7" d="M2121.93,3673.87c-490.42-.23-980.85-.47-1471.27-.7v-8.77c490.42.23,980.85.47,1471.27.7v8.77Z"/>
      <path class="cls-2" d="M2121.93,3665.09c-490.42-.24-980.85-.47-1471.27-.7,11.89-11.38,23.78-22.76,35.66-34.14,490.42.25,980.85.49,1471.27.74-11.89,11.37-23.78,22.74-35.66,34.11Z"/>
      <path class="cls-4" d="M2121.93,3673.87c11.89-11.37,23.78-22.74,35.66-34.11v-8.77c-11.89,11.37-23.78,22.74-35.66,34.11v8.77Z"/>
    </g>
    <g>
      <path class="cls-7" d="M3593.2,3674.61c-490.42-.23-980.85-.47-1471.27-.7v-8.77c490.42.23,980.85.47,1471.27.7v8.77Z"/>
      <path class="cls-2" d="M3593.2,3665.83c-490.42-.24-980.85-.47-1471.27-.7,11.89-11.38,23.78-22.76,35.66-34.14,490.42.25,980.85.49,1471.27.74-11.89,11.37-23.78,22.74-35.66,34.11Z"/>
      <path class="cls-4" d="M3593.2,3674.61c11.89-11.37,23.78-22.74,35.66-34.11v-8.77c-11.89,11.37-23.78,22.74-35.66,34.11v8.77Z"/>
    </g>
    <g>
      <path class="cls-7" d="M5064.48,3674.42c-490.42-.23-980.85-.47-1471.27-.7v-8.77c490.42.23,980.85.47,1471.27.7v8.77Z"/>
      <path class="cls-2" d="M5064.48,3665.65c-490.42-.24-980.85-.47-1471.27-.7,11.89-11.38,23.78-22.76,35.66-34.14,490.42.25,980.85.49,1471.27.74-11.89,11.37-23.78,22.74-35.66,34.11Z"/>
      <path class="cls-4" d="M5064.48,3674.42c11.89-11.37,23.78-22.74,35.66-34.11v-8.77c-11.89,11.37-23.78,22.74-35.66,34.11v8.77Z"/>
    </g>
    <g>
      <path class="cls-7" d="M5141.11,3665.96v8.77c-22.97,0-45.94-.02-68.91-.03h-2.57c-324.89-.16-649.79-.31-974.68-.46-3.61,0-7.22,0-10.83,0h-.45c-98.72-.05-197.44-.1-296.16-.14v-8.77c101.12.05,202.24.1,303.36.14h.45c1.59,0,3.18,0,4.77,0,322.8.15,645.59.31,968.39.46h8.88c22.58.01,45.17.03,67.75.03Z"/>
      <path class="cls-2" d="M5141.11,3631.83v34.13c-22.58,0-45.17-.02-67.75-.03h-8.88c-322.8-.16-645.59-.31-968.39-.46-1.59,0-3.18,0-4.77,0h-.45c-101.12-.05-202.24-.1-303.36-.14.1-.09.2-.19.29-.28.89-.84,1.77-1.69,2.65-2.53,1.06-1.01,2.12-2.03,3.17-3.04,3.3-3.16,6.6-6.32,9.9-9.47,5.98-5.73,11.97-11.46,17.95-17.19.57-.54,1.13-1.08,1.7-1.63,18.31,0,36.62.02,54.93.03h2.34c103.49.05,206.99.1,310.48.16h1.07c3.43,0,6.85,0,10.28,0,299,.15,598,.3,897,.45h.87c13.66,0,27.31.01,40.97.02Z"/>
    </g>
    <g>
      <path class="cls-7" d="M1933.2,3717.45c-516.9-.25-1033.8-.49-1550.7-.74v-9.25c516.9.25,1033.8.49,1550.7.74v9.25Z"/>
      <path class="cls-2" d="M1933.2,3708.2c-516.9-.25-1033.8-.5-1550.7-.74,12.53-12,25.06-23.99,37.59-35.99,516.9.26,1033.8.52,1550.7.78-12.53,11.98-25.06,23.96-37.59,35.95Z"/>
      <path class="cls-4" d="M1933.2,3717.45c12.53-11.98,25.06-23.96,37.59-35.95v-9.25c-12.53,11.98-25.06,23.96-37.59,35.95v9.25Z"/>
    </g>
    <g>
      <path class="cls-7" d="M3483.9,3717.65c-516.9-.25-1033.8-.49-1550.7-.74v-9.25c516.9.25,1033.8.49,1550.7.74v9.25Z"/>
      <path class="cls-2" d="M3483.9,3708.4c-516.9-.25-1033.8-.5-1550.7-.74,12.53-12,25.06-23.99,37.59-35.99,516.9.26,1033.8.52,1550.7.78-12.53,11.98-25.06,23.96-37.59,35.95Z"/>
      <path class="cls-4" d="M3483.9,3717.65c12.53-11.98,25.06-23.96,37.59-35.95v-9.25c-12.53,11.98-25.06,23.96-37.59,35.95v9.25Z"/>
    </g>
    <g>
      <path class="cls-7" d="M5034.6,3718.04c-516.9-.25-1033.8-.49-1550.7-.74v-9.25c516.9.25,1033.8.49,1550.7.74v9.25Z"/>
      <path class="cls-2" d="M5034.6,3708.79c-516.9-.25-1033.8-.5-1550.7-.74,12.53-12,25.06-23.99,37.59-35.99,516.9.26,1033.8.52,1550.7.78-12.53,11.98-25.06,23.96-37.59,35.95Z"/>
      <path class="cls-4" d="M5034.6,3718.04c12.53-11.98,25.06-23.96,37.59-35.95v-9.25c-12.53,11.98-25.06,23.96-37.59,35.95v9.25Z"/>
    </g>
    <g>
      <path class="cls-7" d="M5141.11,3708.76v9.25c-35.47-.02-70.95-.03-106.42-.05h-.08c-4.93,0-9.87,0-14.8,0h-2.78c-319.2-.16-638.41-.31-957.61-.46h-5.46c-50.42-.03-100.84-.05-151.26-.07-84.68-.05-169.36-.08-254.04-.12v-9.24c135.7.07,271.4.13,407.1.2h11.26c322.53.16,645.06.31,967.59.46h.08c3.22,0,6.45,0,9.67,0,32.25.01,64.5.03,96.75.05Z"/>
      <path class="cls-2" d="M5141.11,3672.8v35.96c-32.25-.02-64.5-.03-96.75-.05-3.22,0-6.45,0-9.67,0h-.08c-322.53-.16-645.06-.31-967.59-.46h-11.26c-135.7-.07-271.4-.13-407.1-.2,11.93-11.43,23.86-22.86,35.8-34.29.56-.54,1.13-1.08,1.69-1.62.03-.03.06-.06.09-.08,33.76.02,67.51.03,101.27.05,99.26.05,198.52.1,297.78.15h.45c3.45,0,6.9,0,10.35,0,322.8.16,645.59.33,968.39.49h1.74c24.96.01,49.93.03,74.89.04Z"/>
    </g>
    <g>
      <path class="cls-7" d="M2041.59,3758.17c-490.42-.23-980.85-.47-1471.27-.7v-8.77c490.42.23,980.85.47,1471.27.7v8.77Z"/>
      <path class="cls-2" d="M2041.59,3749.39c-490.42-.24-980.85-.47-1471.27-.7,11.89-11.38,23.78-22.76,35.66-34.14,490.42.25,980.85.49,1471.27.74-11.89,11.37-23.78,22.74-35.66,34.11Z"/>
      <path class="cls-4" d="M2041.59,3758.17c11.89-11.37,23.78-22.74,35.66-34.11v-8.77c-11.89,11.37-23.78,22.74-35.66,34.11v8.77Z"/>
    </g>
    <g>
      <path class="cls-7" d="M3512.87,3758.91c-490.42-.23-980.85-.47-1471.27-.7v-8.77c490.42.23,980.85.47,1471.27.7v8.77Z"/>
      <path class="cls-2" d="M3512.87,3750.13c-490.42-.24-980.85-.47-1471.27-.7,11.89-11.38,23.78-22.76,35.66-34.14,490.42.25,980.85.49,1471.27.74-11.89,11.37-23.78,22.74-35.66,34.11Z"/>
      <path class="cls-4" d="M3512.87,3758.91c11.89-11.37,23.78-22.74,35.66-34.11v-8.77c-11.89,11.37-23.78,22.74-35.66,34.11v8.77Z"/>
    </g>
    <g>
      <path class="cls-7" d="M4984.14,3758.72c-490.42-.23-980.85-.47-1471.27-.7v-8.77c490.42.23,980.85.47,1471.27.7v8.77Z"/>
      <path class="cls-2" d="M4984.14,3749.95c-490.42-.24-980.85-.47-1471.27-.7,11.89-11.38,23.78-22.76,35.66-34.14,490.42.25,980.85.49,1471.27.74-11.89,11.37-23.78,22.74-35.66,34.11Z"/>
      <path class="cls-4" d="M4984.14,3758.72c11.89-11.37,23.78-22.74,35.66-34.11v-8.77c-11.89,11.37-23.78,22.74-35.66,34.11v8.77Z"/>
    </g>
    <g>
      <path class="cls-7" d="M5141.11,3750.61v8.77c-49.75-.02-99.5-.05-149.25-.07h-2.88c-104.13-.05-208.27-.1-312.4-.15h-10.28c-.35,0-.71,0-1.06,0-265.52-.12-531.05-.26-796.57-.38v-8.77c267.92.13,535.85.26,803.77.39h1.07c3.42,0,6.85,0,10.27,0h0c100.12.05,200.23.1,300.35.14,2.85,0,5.71,0,8.56,0,49.47.02,98.94.05,148.41.07Z"/>
      <path class="cls-2" d="M5141.11,3716.48v34.12c-49.47-.02-98.94-.05-148.41-.07-2.85,0-5.71,0-8.56,0-100.12-.05-200.23-.1-300.35-.14h0c-3.42,0-6.85,0-10.27,0h-1.07c-267.92-.13-535.85-.25-803.77-.39.2-.2.41-.39.61-.59,8.84-8.45,17.67-16.91,26.5-25.37.62-.59,1.24-1.18,1.86-1.78,1.66-1.59,3.32-3.18,4.98-4.77.02-.03.05-.05.08-.08.54-.52,1.09-1.04,1.63-1.56,49.88.03,99.75.05,149.63.08h6.74c319.31.16,638.62.33,957.93.48h1.18c4.94,0,9.87,0,14.8.01h1.68c34.94.01,69.88.03,104.82.05Z"/>
    </g>
    <g>
      <path class="cls-7" d="M1852.86,3801.75c-516.9-.25-1033.8-.49-1550.7-.74v-9.25c516.9.25,1033.8.49,1550.7.74v9.25Z"/>
      <path class="cls-2" d="M1852.86,3792.5c-516.9-.25-1033.8-.5-1550.7-.74,12.53-12,25.06-23.99,37.59-35.99,516.9.26,1033.8.52,1550.7.78-12.53,11.98-25.06,23.96-37.59,35.95Z"/>
      <path class="cls-4" d="M1852.86,3801.75c12.53-11.98,25.06-23.96,37.59-35.95v-9.25c-12.53,11.98-25.06,23.96-37.59,35.95v9.25Z"/>
    </g>
    <g>
      <path class="cls-7" d="M3403.56,3801.95c-516.9-.25-1033.8-.49-1550.7-.74v-9.25c516.9.25,1033.8.49,1550.7.74v9.25Z"/>
      <path class="cls-2" d="M3403.56,3792.7c-516.9-.25-1033.8-.5-1550.7-.74,12.53-12,25.06-23.99,37.59-35.99,516.9.26,1033.8.52,1550.7.78-12.53,11.98-25.06,23.96-37.59,35.95Z"/>
      <path class="cls-4" d="M3403.56,3801.95c12.53-11.98,25.06-23.96,37.59-35.95v-9.25c-12.53,11.98-25.06,23.96-37.59,35.95v9.25Z"/>
    </g>
    <g>
      <path class="cls-7" d="M4954.27,3802.34c-516.9-.25-1033.8-.49-1550.7-.74v-9.25c516.9.25,1033.8.49,1550.7.74v9.25Z"/>
      <path class="cls-2" d="M4954.27,3793.09c-516.9-.25-1033.8-.5-1550.7-.74,12.53-12,25.06-23.99,37.59-35.99,516.9.26,1033.8.52,1550.7.78-12.53,11.98-25.06,23.96-37.59,35.95Z"/>
      <path class="cls-4" d="M4954.27,3802.34c12.53-11.98,25.06-23.96,37.59-35.95v-9.25c-12.53,11.98-25.06,23.96-37.59,35.95v9.25Z"/>
    </g>
    <g>
      <path class="cls-7" d="M5141.11,3790.86v9.25c-61.47-.03-122.94-.07-184.41-.09h-2.43c-127.73-.07-255.46-.12-383.18-.18-3.62,0-7.23,0-10.84,0h-.45c-193.71-.09-387.42-.19-581.13-.28h-1.03c-76.94-.04-153.87-.07-230.81-.11v-9.25c273.52.13,547.04.26,820.56.39h.46c2.65,0,5.31,0,7.97,0,126.77.06,253.54.12,380.31.18h.57c3.22,0,6.43,0,9.66,0h.01c58.24.03,116.49.05,174.74.08Z"/>
      <path class="cls-2" d="M5141.11,3754.89v35.97c-58.25-.03-116.5-.06-174.74-.08h-.01c-3.23,0-6.44,0-9.66,0h-.57c-126.77-.06-253.54-.12-380.31-.18-2.66,0-5.32,0-7.97,0h-.46c-273.52-.13-547.04-.26-820.56-.39,2.36-2.26,4.72-4.52,7.09-6.78l3.18-3.06c3.3-3.15,6.59-6.3,9.88-9.45,4.44-4.25,8.88-8.5,13.32-12.75.56-.54,1.12-1.08,1.68-1.61.82-.78,1.63-1.55,2.44-2.33,28.08.01,56.17.03,84.25.05,266.76.13,533.51.27,800.27.4.35,0,.71,0,1.06,0h10.28c101.29.05,202.57.1,303.86.16h4.09c50.96.03,101.92.05,152.88.08Z"/>
    </g>
    <g>
      <path class="cls-7" d="M998.26,3836.79v8.77c-76.12-.04-152.25-.07-228.37-.11h-6.09c-251.72-.12-503.45-.24-755.17-.36-6.99,0-13.98,0-20.97,0v-8.78c6.99,0,13.98,0,20.97,0,329.88.16,659.76.32,989.64.48Z"/>
      <path class="cls-2" d="M1033.92,3802.69c-11.89,11.37-23.78,22.74-35.66,34.1-329.88-.16-659.76-.31-989.64-.48-6.99,0-13.98,0-20.97,0v-34.15c6.98,0,13.98,0,20.97.01,341.76.17,683.53.35,1025.3.52Z"/>
      <path class="cls-4" d="M998.25,3845.57c11.89-11.37,23.78-22.74,35.66-34.11v-8.77c-11.89,11.37-23.78,22.74-35.66,34.11v8.77Z"/>
    </g>
    <g>
      <path class="cls-7" d="M2471.73,3841.63c-490.42-.23-980.85-.47-1471.27-.7v-8.77c490.42.23,980.85.47,1471.27.7v8.77Z"/>
      <path class="cls-2" d="M2471.73,3832.85c-490.42-.24-980.85-.47-1471.27-.7,11.89-11.38,23.78-22.76,35.66-34.14,490.42.25,980.85.49,1471.27.74-11.89,11.37-23.78,22.74-35.66,34.11Z"/>
      <path class="cls-4" d="M2471.73,3841.63c11.89-11.37,23.78-22.74,35.66-34.11v-8.77c-11.89,11.37-23.78,22.74-35.66,34.11v8.77Z"/>
    </g>
    <g>
      <path class="cls-7" d="M3943,3842.37c-490.42-.23-980.85-.47-1471.27-.7v-8.77c490.42.23,980.85.47,1471.27.7v8.77Z"/>
      <path class="cls-2" d="M3943,3833.59c-490.42-.24-980.85-.47-1471.27-.7,11.89-11.38,23.78-22.76,35.66-34.14,490.42.25,980.85.49,1471.27.74-11.89,11.37-23.78,22.74-35.66,34.11Z"/>
      <path class="cls-4" d="M3943,3842.37c11.89-11.37,23.78-22.74,35.66-34.11v-8.77c-11.89,11.37-23.78,22.74-35.66,34.11v8.77Z"/>
    </g>
    <g>
      <path class="cls-7" d="M5141.11,3833.28v8.77c-201.49-.1-402.99-.2-604.48-.29-.98,0-1.97,0-2.95,0-196.58-.09-393.16-.18-589.74-.28h-.93v-8.77h.93c3.06,0,6.11,0,9.17,0,193.52.09,387.05.18,580.57.27,3.39,0,6.77,0,10.16,0,199.09.1,398.18.19,597.27.29Z"/>
      <path class="cls-2" d="M5141.11,3799.15v34.13c-199.09-.1-398.18-.19-597.27-.29-3.39,0-6.77,0-10.16,0-193.52-.09-387.05-.18-580.57-.27-3.06,0-6.11,0-9.17,0h-.93c.31-.3.63-.6.94-.9,10.42-9.98,20.85-19.95,31.26-29.93.81-.78,1.62-1.55,2.43-2.33.02-.02.04-.04.06-.06.32-.31.65-.62.97-.93,193.98.1,387.96.2,581.93.29h.45c3.62,0,7.22,0,10.83,0h.01c127.46.07,254.92.13,382.38.2h3.43c61.14.03,122.28.06,183.41.09Z"/>
    </g>
    <g>
      <path class="cls-7" d="M2283,3885.21c-516.9-.25-1033.8-.49-1550.7-.74v-9.25c516.9.25,1033.8.49,1550.7.74v9.25Z"/>
      <path class="cls-2" d="M2283,3875.96c-516.9-.25-1033.8-.5-1550.7-.74,12.53-12,25.06-23.99,37.59-35.99,516.9.26,1033.8.52,1550.7.78-12.53,11.98-25.06,23.96-37.59,35.95Z"/>
      <path class="cls-4" d="M2283,3885.21c12.53-11.98,25.06-23.96,37.59-35.95v-9.25c-12.53,11.98-25.06,23.96-37.59,35.95v9.25Z"/>
    </g>
    <g>
      <path class="cls-7" d="M3833.7,3885.41c-516.9-.25-1033.8-.49-1550.7-.74v-9.25c516.9.25,1033.8.49,1550.7.74v9.25Z"/>
      <path class="cls-2" d="M3833.7,3876.16c-516.9-.25-1033.8-.5-1550.7-.74,12.53-12,25.06-23.99,37.59-35.99,516.9.26,1033.8.52,1550.7.78-12.53,11.98-25.06,23.96-37.59,35.95Z"/>
      <path class="cls-4" d="M3833.7,3885.41c12.53-11.98,25.06-23.96,37.59-35.95v-9.25c-12.53,11.98-25.06,23.96-37.59,35.95v9.25Z"/>
    </g>
    <g>
      <path class="cls-7" d="M5141.11,3876.43v9.25c-367.34-.18-734.69-.35-1102.03-.52h-3.01l-202.01-.1h-.35v-9.25h.36c3.22,0,6.44,0,9.66,0,250.85.11,501.69.24,752.54.36,181.61.09,363.22.17,544.84.26Z"/>
      <path class="cls-2" d="M5141.11,3840.46v35.98c-181.62-.08-363.23-.17-544.84-.26-250.85-.12-501.69-.25-752.54-.36-3.22,0-6.44,0-9.66,0h-.36c10.74-10.28,21.48-20.57,32.23-30.86.9-.88,1.82-1.74,2.73-2.62.74-.71,1.47-1.41,2.21-2.12.14-.13.27-.26.41-.39,23.91.01,47.82.03,71.72.04h2.62c196.02.1,392.04.2,588.05.29,1.43,0,2.85,0,4.27,0,201.06.1,402.11.21,603.16.3Z"/>
    </g>
    <g>
      <path class="cls-7" d="M882.53,3929.68v12.52c-81.46-.05-162.93-.1-244.39-.16h-1.69c-209.28-.14-418.55-.27-627.83-.41-6.99,0-13.98,0-20.97-.01v-12.52c6.99,0,13.98,0,20.97.01,291.31.19,582.6.37,873.91.56Z"/>
      <path class="cls-2" d="M920.32,3881.02c-12.61,16.22-25.2,32.44-37.79,48.66-291.31-.19-582.6-.37-873.91-.56-6.99,0-13.98-.01-20.97-.01v-48.72c6.99,0,13.98.01,20.97.01,241.23.16,482.45.33,723.68.49,1.37,0,2.73,0,4.1,0,61.31.04,122.61.08,183.92.12Z"/>
      <path class="cls-4" d="M882.52,3942.2c12.6-16.22,25.2-32.44,37.8-48.66v-12.52c-12.6,16.22-25.2,32.44-37.8,48.66v12.52Z"/>
    </g>
    <g>
      <path class="cls-7" d="M2441.9,3942.73c-519.79-.34-1039.59-.67-1559.38-1v-12.52c519.79.34,1039.59.67,1559.38,1v12.52Z"/>
      <path class="cls-2" d="M2441.9,3930.21c-519.79-.34-1039.59-.67-1559.38-1,12.6-16.24,25.2-32.48,37.8-48.71,519.79.35,1039.59.71,1559.38,1.06-12.6,16.22-25.2,32.44-37.8,48.66Z"/>
      <path class="cls-4" d="M2441.9,3942.73c12.6-16.22,25.2-32.44,37.8-48.66v-12.52c-12.6,16.22-25.2,32.44-37.8,48.66v12.52Z"/>
    </g>
    <g>
      <path class="cls-7" d="M4001.28,3943.79c-519.79-.34-1039.59-.67-1559.38-1v-12.52c519.79.34,1039.59.67,1559.38,1v12.52Z"/>
      <path class="cls-2" d="M4001.28,3931.27c-519.79-.34-1039.59-.67-1559.38-1,12.6-16.24,25.2-32.48,37.8-48.71,519.79.35,1039.59.71,1559.38,1.06-12.6,16.22-25.2,32.44-37.8,48.66Z"/>
      <path class="cls-4" d="M4001.28,3943.79c12.6-16.22,25.2-32.44,37.8-48.66v-12.52c-12.6,16.22-25.2,32.44-37.8,48.66v12.52Z"/>
    </g>
    <g>
      <path class="cls-7" d="M5141.11,3930.73v12.52c-379.61-.25-759.23-.5-1138.85-.74h-.98v-12.52h.98c3.24,0,6.48,0,9.72,0,376.38.24,752.76.48,1129.13.73Z"/>
      <path class="cls-2" d="M5141.11,3882.03v48.71c-376.37-.24-752.75-.48-1129.13-.73-3.24,0-6.48,0-9.72,0h-.98c11.59-14.95,23.21-29.9,34.79-44.84.66-.85,1.32-1.7,1.97-2.55.35-.44.69-.88,1.04-1.33,367.35.25,734.69.5,1102.03.74Z"/>
    </g>
    <g>
      <path class="cls-7" d="M598.3,3991.16v13.2c-196.56-.12-393.11-.25-589.68-.38-6.98,0-13.98-.01-20.97-.01v-13.2c6.99,0,13.99,0,20.97.01,196.57.12,393.12.26,589.68.38Z"/>
      <path class="cls-2" d="M638.13,3939.87c-.57.73-1.12,1.44-1.69,2.17-12.71,16.37-25.43,32.75-38.15,49.12-196.56-.12-393.11-.25-589.68-.38-6.98,0-13.98-.01-20.97-.01v-51.33c6.99,0,13.98,0,20.97.01,209.84.14,419.67.29,629.52.42Z"/>
      <path class="cls-4" d="M598.3,4004.36c13.28-17.1,26.56-34.19,39.84-51.29v-13.19c-13.28,17.1-26.56,34.19-39.84,51.29v13.19Z"/>
    </g>
    <g>
      <path class="cls-7" d="M2241.87,4004.91c-547.86-.35-1095.71-.71-1643.57-1.06v-13.19c547.86.35,1095.71.71,1643.57,1.06v13.19Z"/>
      <path class="cls-2" d="M2241.87,3991.72c-547.86-.35-1095.71-.71-1643.57-1.06,13.28-17.11,26.56-34.23,39.84-51.34,547.86.37,1095.71.74,1643.57,1.12-13.28,17.09-26.56,34.19-39.84,51.29Z"/>
      <path class="cls-4" d="M2241.87,4004.91c13.28-17.1,26.56-34.19,39.84-51.29v-13.19c-13.28,17.1-26.56,34.19-39.84,51.29v13.19Z"/>
    </g>
    <g>
      <path class="cls-7" d="M3885.43,4005.19c-547.86-.35-1095.71-.71-1643.57-1.06v-13.19c547.86.35,1095.71.71,1643.57,1.06v13.19Z"/>
      <path class="cls-2" d="M3885.43,3992c-547.86-.35-1095.71-.71-1643.57-1.06,13.28-17.11,26.56-34.23,39.84-51.34,547.86.37,1095.71.74,1643.57,1.12-13.28,17.09-26.56,34.19-39.84,51.29Z"/>
      <path class="cls-4" d="M3885.43,4005.19c13.28-17.1,26.56-34.19,39.84-51.29v-13.19c-13.28,17.1-26.56,34.19-39.84,51.29v13.19Z"/>
    </g>
    <g>
      <path class="cls-7" d="M5141.11,3992.3v13.2c-395.73-.25-791.45-.51-1187.18-.76h-2.46c-21.88-.02-43.77-.03-65.65-.05h-.38v-13.19h.39c3.41,0,6.82,0,10.23,0,415.02.27,830.04.54,1245.05.8Z"/>
      <path class="cls-2" d="M5141.11,3940.98v51.32c-415.01-.26-830.03-.53-1245.05-.8-3.41,0-6.82,0-10.23,0h-.39c12.34-15.92,24.7-31.85,37.06-47.76.78-1.01,1.57-2.02,2.35-3.02.14-.18.29-.37.43-.56,25.33.02,50.67.03,76,.05h2.78c379.02.26,758.03.52,1137.05.77Z"/>
    </g>
    <g>
      <path class="cls-7" d="M797.38,4049.95v12.52c-81.46-.05-162.92-.1-244.38-.16h-1.69c-180.89-.12-361.8-.23-542.69-.35-6.99,0-13.98-.01-20.97-.01v-12.52c6.99,0,13.98,0,20.97.01,262.92.16,525.84.33,788.76.5Z"/>
      <path class="cls-2" d="M835.17,4001.29c-12.59,16.22-25.2,32.44-37.79,48.66-262.92-.17-525.84-.34-788.76-.5-6.99,0-13.98-.01-20.97-.01v-48.72c6.99,0,13.98.01,20.97.01,196.56.14,393.12.27,589.68.4.84,0,1.67,0,2.5,0,78.12.05,156.25.1,234.37.16Z"/>
      <path class="cls-4" d="M797.37,4062.47c12.6-16.22,25.2-32.44,37.8-48.66v-12.52c-12.6,16.22-25.2,32.44-37.8,48.66v12.52Z"/>
    </g>
    <g>
      <path class="cls-7" d="M2356.75,4063c-519.79-.34-1039.59-.67-1559.38-1v-12.52c519.79.34,1039.59.67,1559.38,1v12.52Z"/>
      <path class="cls-2" d="M2356.75,4050.48c-519.79-.34-1039.59-.67-1559.38-1,12.6-16.24,25.2-32.48,37.8-48.71,519.79.35,1039.59.71,1559.38,1.06-12.6,16.22-25.2,32.44-37.8,48.66Z"/>
      <path class="cls-4" d="M2356.75,4063c12.6-16.22,25.2-32.44,37.8-48.66v-12.52c-12.6,16.22-25.2,32.44-37.8,48.66v12.52Z"/>
    </g>
    <g>
      <path class="cls-7" d="M3916.13,4064.06c-519.79-.34-1039.59-.67-1559.38-1v-12.52c519.79.34,1039.59.67,1559.38,1v12.52Z"/>
      <path class="cls-2" d="M3916.13,4051.54c-519.79-.34-1039.59-.67-1559.38-1,12.6-16.24,25.2-32.48,37.8-48.71,519.79.35,1039.59.71,1559.38,1.06-12.6,16.22-25.2,32.44-37.8,48.66Z"/>
      <path class="cls-4" d="M3916.13,4064.06c12.6-16.22,25.2-32.44,37.8-48.66v-12.52c-12.6,16.22-25.2,32.44-37.8,48.66v12.52Z"/>
    </g>
    <g>
      <path class="cls-7" d="M5141.11,4051.06v12.52c-407.99-.26-815.98-.52-1223.98-.79h-.99v-12.52h.98c3.24,0,6.49,0,9.73,0,404.76.26,809.51.52,1214.26.78Z"/>
      <path class="cls-2" d="M5141.11,4002.36v48.7c-404.75-.27-809.5-.52-1214.26-.78-3.24,0-6.49,0-9.73,0h-.98c11.77-15.18,23.55-30.36,35.33-45.54.48-.62.96-1.23,1.44-1.86.34-.44.68-.88,1.02-1.32,395.74.27,791.46.54,1187.18.8Z"/>
    </g>
    <g>
      <path class="cls-7" d="M513.15,4111.43v13.19c-168.17-.11-336.36-.22-504.53-.33-6.99,0-13.98,0-20.97-.01v-13.19c6.99,0,13.98.01,20.97.01,168.17.11,336.36.22,504.53.33Z"/>
      <path class="cls-2" d="M552.99,4060.15c-.57.72-1.12,1.44-1.69,2.17-12.72,16.37-25.44,32.74-38.16,49.12-168.17-.11-336.36-.22-504.53-.33-6.99,0-13.98,0-20.97-.01v-51.33c6.98,0,13.98.01,20.97.01l544.38.37Z"/>
      <path class="cls-4" d="M513.15,4124.63c13.28-17.1,26.56-34.19,39.84-51.29v-13.19c-13.28,17.1-26.56,34.19-39.84,51.29v13.19Z"/>
    </g>
    <g>
      <path class="cls-7" d="M2156.72,4125.19c-547.86-.35-1095.71-.71-1643.57-1.06v-13.19c547.86.35,1095.71.71,1643.57,1.06v13.19Z"/>
      <path class="cls-2" d="M2156.72,4111.99c-547.86-.35-1095.71-.71-1643.57-1.06,13.28-17.11,26.56-34.23,39.84-51.34,547.86.37,1095.71.74,1643.57,1.12-13.28,17.09-26.56,34.19-39.84,51.29Z"/>
      <path class="cls-4" d="M2156.72,4125.19c13.28-17.1,26.56-34.19,39.84-51.29v-13.19c-13.28,17.1-26.56,34.19-39.84,51.29v13.19Z"/>
    </g>
    <g>
      <path class="cls-7" d="M3800.28,4125.46c-547.86-.35-1095.71-.71-1643.57-1.06v-13.19c547.86.35,1095.71.71,1643.57,1.06v13.19Z"/>
      <path class="cls-2" d="M3800.28,4112.27c-547.86-.35-1095.71-.71-1643.57-1.06,13.28-17.11,26.56-34.23,39.84-51.34,547.86.37,1095.71.74,1643.57,1.12-13.28,17.09-26.56,34.19-39.84,51.29Z"/>
      <path class="cls-4" d="M3800.28,4125.46c13.28-17.1,26.56-34.19,39.84-51.29v-13.19c-13.28,17.1-26.56,34.19-39.84,51.29v13.19Z"/>
    </g>
    <g>
      <path class="cls-7" d="M5141.11,4112.63v13.2c-244.54-.16-489.08-.32-733.62-.48h-2c-201.6-.13-403.2-.26-604.81-.39h-.39v-13.2h.39c3.42,0,6.83,0,10.25,0,443.39.29,886.78.57,1330.18.86Z"/>
      <path class="cls-2" d="M5141.11,4061.31v51.32c-443.4-.29-886.79-.57-1330.18-.86-3.42,0-6.83,0-10.25,0h-.39c12.34-15.92,24.7-31.84,37.06-47.76.78-1.01,1.56-2.02,2.34-3.02.15-.19.29-.37.44-.56,25.33.02,50.67.03,76.01.05h2.79c407.4.28,814.78.56,1222.18.83Z"/>
    </g>
    <g>
      <path class="cls-7" d="M1250.93,4171.17v12.52c-81.46-.05-162.92-.1-244.38-.16h-1.69c-332.09-.22-664.17-.43-996.24-.65-6.99,0-13.99,0-20.97-.01v-12.52c6.98,0,13.98,0,20.97.01,414.09.27,828.21.53,1242.31.8Z"/>
      <path class="cls-2" d="M1288.72,4122.51c-12.59,16.22-25.19,32.44-37.79,48.65-414.1-.27-828.22-.53-1242.31-.8-6.99,0-13.99,0-20.97-.01v-48.72c6.99,0,13.98,0,20.97.01,168.17.11,336.36.23,504.53.34.68,0,1.36,0,2.04,0h.01c257.84.17,515.68.35,773.52.52Z"/>
      <path class="cls-4" d="M1250.93,4183.69c12.6-16.22,25.2-32.44,37.8-48.66v-12.52c-12.6,16.22-25.2,32.44-37.8,48.66v12.52Z"/>
    </g>
    <g>
      <path class="cls-7" d="M2810.31,4184.22c-519.79-.34-1039.59-.67-1559.38-1v-12.52c519.79.34,1039.59.67,1559.38,1v12.52Z"/>
      <path class="cls-2" d="M2810.31,4171.7c-519.79-.34-1039.59-.67-1559.38-1,12.6-16.24,25.2-32.48,37.8-48.71,519.79.35,1039.59.71,1559.38,1.06-12.6,16.22-25.2,32.44-37.8,48.66Z"/>
      <path class="cls-4" d="M2810.31,4184.22c12.6-16.22,25.2-32.44,37.8-48.66v-12.52c-12.6,16.22-25.2,32.44-37.8,48.66v12.52Z"/>
    </g>
    <g>
      <path class="cls-7" d="M4369.69,4185.28c-519.79-.34-1039.59-.67-1559.38-1v-12.52c519.79.34,1039.59.67,1559.38,1v12.52Z"/>
      <path class="cls-2" d="M4369.69,4172.76c-519.79-.34-1039.59-.67-1559.38-1,12.6-16.24,25.2-32.48,37.8-48.71,519.79.35,1039.59.71,1559.38,1.06-12.6,16.22-25.2,32.44-37.8,48.66Z"/>
      <path class="cls-4" d="M4369.69,4185.28c12.6-16.22,25.2-32.44,37.8-48.66v-12.52c-12.6,16.22-25.2,32.44-37.8,48.66v12.52Z"/>
    </g>
    <g>
      <path class="cls-7" d="M5141.11,4171.98v12.52c-256.81-.16-513.61-.33-770.43-.5h-.99v-12.52h.98c3.24,0,6.49,0,9.73,0,253.58.16,507.14.33,760.71.49Z"/>
      <path class="cls-2" d="M5141.11,4123.27v48.71c-253.57-.16-507.13-.33-760.71-.49-3.24,0-6.49,0-9.73,0h-.98c11.93-15.37,23.87-30.76,35.8-46.13.32-.42.65-.84.98-1.26.33-.44.68-.88,1.02-1.32,244.55.16,489.08.33,733.62.5Z"/>
    </g>
    <g>
      <path class="cls-7" d="M966.71,4232.65v13.2c-319.36-.2-638.73-.41-958.09-.61-6.99,0-13.99-.01-20.97-.02v-13.2c6.98,0,13.98.01,20.97.02,319.36.2,638.73.41,958.09.61Z"/>
      <path class="cls-2" d="M1006.55,4181.37c-.57.72-1.12,1.44-1.69,2.17-12.71,16.37-25.44,32.74-38.15,49.12-319.36-.2-638.73-.41-958.09-.61-6.99,0-13.99-.01-20.97-.02v-51.34c6.99,0,13.98,0,20.97.01,332.64.23,665.29.45,997.93.68Z"/>
      <path class="cls-4" d="M966.71,4245.85c13.28-17.1,26.56-34.19,39.84-51.29v-13.19c-13.28,17.1-26.56,34.19-39.84,51.29v13.19Z"/>
    </g>
    <g>
      <path class="cls-7" d="M2610.27,4246.4c-547.86-.35-1095.71-.71-1643.57-1.06v-13.19c547.86.35,1095.71.71,1643.57,1.06v13.19Z"/>
      <path class="cls-2" d="M2610.27,4233.21c-547.86-.35-1095.71-.71-1643.57-1.06,13.28-17.11,26.56-34.23,39.84-51.34,547.86.37,1095.71.74,1643.57,1.12-13.28,17.09-26.56,34.19-39.84,51.29Z"/>
      <path class="cls-4" d="M2610.27,4246.4c13.28-17.1,26.56-34.19,39.84-51.29v-13.19c-13.28,17.1-26.56,34.19-39.84,51.29v13.19Z"/>
    </g>
    <g>
      <path class="cls-7" d="M4253.84,4246.68c-547.86-.35-1095.71-.71-1643.57-1.06v-13.19c547.86.35,1095.71.71,1643.57,1.06v13.19Z"/>
      <path class="cls-2" d="M4253.84,4233.49c-547.86-.35-1095.71-.71-1643.57-1.06,13.28-17.11,26.56-34.23,39.84-51.34,547.86.37,1095.71.74,1643.57,1.12-13.28,17.09-26.56,34.19-39.84,51.29Z"/>
      <path class="cls-4" d="M4253.84,4246.68c13.28-17.1,26.56-34.19,39.84-51.29v-13.19c-13.28,17.1-26.56,34.19-39.84,51.29v13.19Z"/>
    </g>
    <g>
      <path class="cls-7" d="M5141.11,4233.56v13.2c-295.63-.2-591.25-.39-886.88-.57h-.39v-13.2h.39c3.42,0,6.83,0,10.25,0,292.21.19,584.42.38,876.63.57Z"/>
      <path class="cls-2" d="M5141.11,4182.22v51.34c-292.21-.19-584.42-.38-876.63-.57-3.42,0-6.83,0-10.25,0h-.39c12.36-15.92,24.71-31.84,37.06-47.76.78-1.01,1.57-2.02,2.35-3.03.14-.18.29-.37.43-.56,25.34.02,50.67.03,76.01.05h2.78c256.22.18,512.43.35,768.64.52Z"/>
    </g>
  </g>
  <path class="cls-3" d="M5124.27,1177.39c-1705.21.88-3410.41,1.76-5115.62,2.64-1.42-102.26-2.85-204.52-4.27-306.79h5120c-.04,101.38-.07,202.76-.11,304.14Z"/>
  <path class="cls-6" d="M721.18,1179.73c1.32,661.99,2.63,1323.98,3.95,1985.97-243.82,204.66-487.64,409.32-731.46,613.99C-4.22,2810.46-2.11,1841.22,0,871.99c240.39,102.58,480.78,205.16,721.18,307.75Z"/>
</svg>