<?xml version="1.0" encoding="UTF-8"?>
<svg id="Layer_1" data-name="Layer 1" xmlns="http://www.w3.org/2000/svg" xmlns:xlink="http://www.w3.org/1999/xlink" viewBox="0 0 5120 5120">
  <defs>
    <style>
      .cls-1 {
        fill: url(#linear-gradient-2);
      }

      .cls-2 {
        fill: #c49a6c;
      }

      .cls-3 {
        fill: url(#linear-gradient-4);
      }

      .cls-4 {
        fill: #8b5e3c;
      }

      .cls-5 {
        fill: url(#linear-gradient-3);
      }

      .cls-6 {
        fill: url(#linear-gradient-5);
      }

      .cls-7 {
        fill: #a97c50;
      }

      .cls-8 {
        fill: url(#linear-gradient);
      }
    </style>
    <linearGradient id="linear-gradient" x1="2571.56" y1="3219.68" x2="2557.04" y2="904.04" gradientUnits="userSpaceOnUse">
      <stop offset="0" stop-color="#9d9fa2"/>
      <stop offset="1" stop-color="#cfd1d2"/>
    </linearGradient>
    <linearGradient id="linear-gradient-2" x1="4577.54" y1="3755.36" x2="4575.53" y2="3433.48" gradientUnits="userSpaceOnUse">
      <stop offset="0" stop-color="#5fbb46"/>
      <stop offset="1" stop-color="#bdce53"/>
    </linearGradient>
    <linearGradient id="linear-gradient-3" x1="4470.76" y1="4127.62" x2="4468.02" y2="3690.71" xlink:href="#linear-gradient-2"/>
    <linearGradient id="linear-gradient-4" x1="1098.2" y1="2267.92" x2="-246.94" y2="2242.92" xlink:href="#linear-gradient"/>
    <linearGradient id="linear-gradient-5" x1="2558.73" y1="1162.94" x2="2563.18" y2="665.23" gradientUnits="userSpaceOnUse">
      <stop offset="0" stop-color="#9d9fa2"/>
      <stop offset=".04" stop-color="#a1a3a6"/>
      <stop offset=".36" stop-color="#c2c4c5"/>
      <stop offset=".53" stop-color="#cfd1d2"/>
    </linearGradient>
  </defs>
  <rect class="cls-8" x="4.4" y="920.04" width="5119.81" height="2283.63"/>
  <g>
    <g>
      <path class="cls-7" d="M701.26,3248.36v8.44c-81.29-.04-162.58-.07-243.87-.11h-1.67c-144.51-.06-289.02-.13-433.53-.19-7.4,0-14.78,0-22.18-.01v-8.44c7.4,0,14.78,0,22.18.01,226.35.1,452.72.2,679.08.3Z"/>
      <path class="cls-2" d="M738.98,3215.54c-.62.54-1.24,1.08-1.86,1.62-11.96,10.4-23.91,20.8-35.87,31.2-226.35-.1-452.72-.2-679.08-.3-7.4,0-14.78,0-22.18-.01v-32.85c7.4,0,14.78,0,22.18,0,238.93.11,477.87.22,716.8.33Z"/>
      <path class="cls-4" d="M701.26,3256.81c12.57-10.94,25.15-21.88,37.72-32.82v-8.45c-12.57,10.94-25.15,21.88-37.72,32.82v8.45Z"/>
    </g>
    <g>
      <path class="cls-7" d="M616.29,3329.5v8.44c-81.29-.04-162.58-.07-243.87-.11h-1.67c-116.19-.05-232.38-.1-348.56-.15-7.4,0-14.79,0-22.18,0v-8.45c7.39,0,14.78,0,22.18.01,198.03.09,396.07.17,594.11.26Z"/>
      <path class="cls-2" d="M654,3296.67c-12.57,10.94-25.15,21.88-37.72,32.82-198.04-.09-396.08-.17-594.11-.26-7.4,0-14.79,0-22.18-.01v-32.85c7.4,0,14.78,0,22.18.01,131.82.06,263.63.12,395.45.18h2.49c77.96.04,155.93.07,233.88.11Z"/>
      <path class="cls-4" d="M616.29,3337.94c12.57-10.94,25.15-21.88,37.72-32.82v-8.45c-12.57,10.94-25.15,21.88-37.72,32.82v8.45Z"/>
    </g>
    <g>
      <path class="cls-7" d="M787.61,3451.3v8.9c-255.15-.11-510.29-.22-765.43-.33-7.4,0-14.79,0-22.18-.01v-8.9c7.39,0,14.78,0,22.18.01,255.14.11,510.28.22,765.43.33Z"/>
      <path class="cls-2" d="M827.36,3416.7c-2.15,1.87-4.3,3.74-6.44,5.61-11.11,9.66-22.21,19.32-33.31,28.99-255.15-.11-510.29-.22-765.43-.33-7.4,0-14.79,0-22.18-.01v-34.63c7.4,0,14.78.01,22.18.01,268.39.13,536.79.25,805.18.37Z"/>
      <path class="cls-4" d="M787.6,3460.2c13.25-11.53,26.5-23.06,39.76-34.6v-8.9c-13.25,11.53-26.5,23.06-39.76,34.6v8.9Z"/>
    </g>
    <path class="cls-1" d="M5119.73,3377.59v430.76c-202.34-.12-404.68-.24-607.02-.36h-.41v-12.7c8.08-9.46,16.15-18.93,24.22-28.4.64-.74,1.27-1.49,1.9-2.23.27-.31.54-.62.8-.94,1.63-1.91,3.26-3.82,4.88-5.73.64-.75,1.28-1.49,1.91-2.24,1.83-2.14,3.66-4.28,5.48-6.43.83-.97,1.66-1.94,2.48-2.91.16-.18.31-.36.46-.53,26.8.02,53.6.03,80.39.05v-9.83c3.01-3.53,6.03-7.06,9.04-10.59.16-.18.32-.37.48-.56.43-.51.87-1.02,1.3-1.53.64-.75,1.28-1.5,1.92-2.24,1.17-1.36,2.33-2.73,3.5-4.1.16-.19.32-.38.48-.57,7.05-8.26,14.1-16.54,21.16-24.8-213.24-.13-426.48-.25-639.71-.38h-.41v-12.7c.58-.68,1.16-1.36,1.74-2.04.02-.03.04-.05.06-.08,9.3-10.91,18.61-21.82,27.91-32.73.08-.09.15-.18.23-.27.44-.52.88-1.03,1.32-1.55.02-.03.05-.05.07-.08,1.86-2.18,3.72-4.36,5.58-6.55.07-.09.15-.18.23-.26.68-.81,1.36-1.6,2.05-2.41.82-.97,1.65-1.94,2.48-2.91.15-.18.31-.36.46-.54,26.8.02,53.6.03,80.4.05v-9.82c4.44-5.21,8.89-10.43,13.34-15.64.36-.43.72-.86,1.09-1.29.07-.09.15-.18.23-.26,1.23-1.45,2.46-2.89,3.69-4.33,6.22-7.29,12.44-14.59,18.66-21.89.12-.14.24-.28.36-.42-23.14-.02-46.29-.03-69.43-.04h-.41v-12.69c4.03-4.73,8.07-9.47,12.1-14.2,9.03-10.59,18.06-21.18,27.09-31.77.83-.97,1.65-1.94,2.48-2.91.15-.18.31-.36.46-.54,26.8.02,53.6.03,80.4.05v-9.82c12.26-14.39,24.54-28.77,36.8-43.16l-213.66-.09h-.39v-8.9c12.32-10.74,24.65-21.47,36.98-32.21.78-.68,1.56-1.36,2.35-2.04.14-.13.29-.25.43-.38,25.28.01,50.57.03,75.85.04v-6.89c11.35-9.89,22.71-19.78,34.06-29.67.88-.77,1.76-1.53,2.64-2.3.34-.3.68-.6,1.02-.89,299.5.14,598.99.28,898.48.42Z"/>
    <g>
      <path class="cls-7" d="M1377.83,3183.96v5.58c-74.25-.03-148.5-.04-222.74-.07h-1.54l-1131.36-.36c-7.4,0-14.78,0-22.18,0v-5.59c7.4,0,14.78,0,22.18,0,451.88.14,903.77.29,1355.65.43Z"/>
      <path class="cls-2" d="M1412.28,3162.25c-11.48,7.24-22.97,14.47-34.45,21.72-451.88-.14-903.77-.29-1355.65-.43-7.4,0-14.78,0-22.18,0v-21.75c7.4,0,14.78,0,22.18.01,463.37.15,926.74.31,1390.1.46Z"/>
      <path class="cls-4" d="M1377.83,3189.55c11.48-7.24,22.97-14.48,34.45-21.71v-5.59c-11.48,7.24-22.97,14.48-34.45,21.71v5.59Z"/>
    </g>
    <g>
      <path class="cls-7" d="M2799.15,3189.78c-473.77-.15-947.55-.3-1421.32-.45v-5.59c473.77.15,947.55.3,1421.32.45v5.59Z"/>
      <path class="cls-2" d="M2799.15,3184.2c-473.77-.15-947.55-.3-1421.32-.45,11.48-7.25,22.97-14.49,34.45-21.74,473.77.16,947.55.32,1421.32.47-11.48,7.24-22.97,14.48-34.45,21.71Z"/>
      <path class="cls-4" d="M2799.15,3189.78c11.48-7.24,22.97-14.48,34.45-21.71v-5.59c-11.48,7.24-22.97,14.48-34.45,21.71v5.59Z"/>
    </g>
    <g>
      <path class="cls-7" d="M4220.47,3190.26c-473.77-.15-947.55-.3-1421.32-.45v-5.59c473.77.15,947.55.3,1421.32.45v5.59Z"/>
      <path class="cls-2" d="M4220.47,3184.67c-473.77-.15-947.55-.3-1421.32-.45,11.48-7.25,22.97-14.49,34.45-21.74,473.77.16,947.55.32,1421.32.47-11.48,7.24-22.97,14.48-34.45,21.71Z"/>
      <path class="cls-4" d="M4220.47,3190.26c11.48-7.24,22.97-14.48,34.45-21.71v-5.59c-11.48,7.24-22.97,14.48-34.45,21.71v5.59Z"/>
    </g>
    <g>
      <path class="cls-7" d="M5119.73,3184.39v5.58c-299.46-.09-598.91-.19-898.36-.28h-.9v-5.59h9.77c296.5.1,592.99.19,889.49.29Z"/>
      <path class="cls-2" d="M5119.73,3162.65v21.74c-296.5-.09-592.99-.19-889.49-.29h-9.77c11.17-7.05,22.34-14.09,33.51-21.15.32-.2.63-.4.94-.59,288.27.09,576.54.19,864.81.29Z"/>
    </g>
    <g>
      <path class="cls-7" d="M1118.76,3211.4v5.89c-126.59-.04-253.19-.08-379.78-.12h-1.86c-238.31-.08-476.63-.15-714.94-.23-7.4,0-14.78,0-22.18,0v-5.89c7.4,0,14.78,0,22.18,0,365.53.11,731.05.23,1096.58.35Z"/>
      <path class="cls-2" d="M1155.08,3188.51c-.51.32-1.02.65-1.54.97-11.59,7.31-23.19,14.61-34.78,21.92-365.53-.11-731.05-.23-1096.58-.35-7.4,0-14.78,0-22.18,0v-22.92c7.4,0,14.78,0,22.18,0,377.63.13,755.27.25,1132.9.38Z"/>
      <path class="cls-4" d="M1118.77,3217.28c12.1-7.63,24.21-15.26,36.31-22.89v-5.89c-12.1,7.63-24.21,15.26-36.31,22.89v5.89Z"/>
    </g>
    <g>
      <path class="cls-7" d="M2616.82,3217.53c-499.35-.16-998.7-.31-1498.06-.47v-5.89c499.35.16,998.7.31,1498.06.47v5.89Z"/>
      <path class="cls-2" d="M2616.82,3211.65c-499.35-.16-998.7-.32-1498.06-.47,12.1-7.64,24.21-15.27,36.31-22.91,499.35.17,998.7.33,1498.06.5-12.1,7.63-24.21,15.26-36.31,22.89Z"/>
      <path class="cls-4" d="M2616.82,3217.53c12.1-7.63,24.21-15.26,36.31-22.89v-5.89c-12.1,7.63-24.21,15.26-36.31,22.89v5.89Z"/>
    </g>
    <g>
      <path class="cls-7" d="M4114.88,3217.66c-499.35-.16-998.7-.31-1498.06-.47v-5.89c499.35.16,998.7.31,1498.06.47v5.89Z"/>
      <path class="cls-2" d="M4114.88,3211.77c-499.35-.16-998.7-.32-1498.06-.47,12.1-7.64,24.21-15.27,36.31-22.91,499.35.17,998.7.33,1498.06.5-12.1,7.63-24.21,15.26-36.31,22.89Z"/>
      <path class="cls-4" d="M4114.88,3217.66c12.1-7.63,24.21-15.26,36.31-22.89v-5.89c-12.1,7.63-24.21,15.26-36.31,22.89v5.89Z"/>
    </g>
    <g>
      <path class="cls-7" d="M5119.73,3211.86v5.89c-334.83-.1-669.66-.21-1004.5-.31h-.36v-5.89h9.7c331.73.11,663.44.21,995.16.31Z"/>
      <path class="cls-2" d="M5119.73,3188.95v22.91c-331.72-.1-663.43-.21-995.16-.31h-9.7c11.27-7.11,22.52-14.21,33.78-21.32.72-.45,1.43-.9,2.14-1.35l.4-.25c23.09,0,46.19.01,69.28.03h2.54c298.91.09,597.81.19,896.72.3Z"/>
    </g>
    <g>
      <path class="cls-7" d="M2257.41,3257.16c-518.72-.23-1037.43-.45-1556.15-.68v-8.45c518.72.23,1037.43.45,1556.15.68v8.45Z"/>
      <path class="cls-2" d="M2257.41,3248.72c-518.72-.23-1037.43-.45-1556.15-.68,12.57-10.95,25.15-21.91,37.72-32.86,518.72.24,1037.43.48,1556.15.71-12.57,10.94-25.15,21.88-37.72,32.82Z"/>
      <path class="cls-4" d="M2257.41,3257.16c12.57-10.94,25.15-21.88,37.72-32.82v-8.45c-12.57,10.94-25.15,21.88-37.72,32.82v8.45Z"/>
    </g>
    <g>
      <path class="cls-7" d="M3813.55,3257.88c-518.72-.23-1037.43-.45-1556.15-.68v-8.45c518.72.23,1037.43.45,1556.15.68v8.45Z"/>
      <path class="cls-2" d="M3813.55,3249.43c-518.72-.23-1037.43-.45-1556.15-.68,12.57-10.95,25.15-21.91,37.72-32.86,518.72.24,1037.43.48,1556.15.71-12.57,10.94-25.15,21.88-37.72,32.82Z"/>
      <path class="cls-4" d="M3813.55,3257.88c12.57-10.94,25.15-21.88,37.72-32.82v-8.45c-12.57,10.94-25.15,21.88-37.72,32.82v8.45Z"/>
    </g>
    <g>
      <path class="cls-7" d="M5119.73,3249.15v8.44c-435.06-.2-870.12-.38-1305.19-.57h-.99v-8.44h.98c3.24,0,6.47,0,9.71,0,431.83.19,863.66.38,1295.49.57Z"/>
      <path class="cls-2" d="M5119.73,3216.3v32.85c-431.83-.19-863.66-.38-1295.49-.57-3.24,0-6.47,0-9.71,0h-.98c11.86-10.33,23.72-20.67,35.59-31,.36-.32.73-.65,1.11-.97.34-.3.68-.6,1.02-.89,87.87.04,175.73.08,263.6.12.96,0,1.92,0,2.88,0h.01c333.99.15,667.98.3,1001.97.46Z"/>
    </g>
    <g>
      <path class="cls-7" d="M2057.78,3299.11c-546.72-.24-1093.44-.48-1640.16-.71v-8.9c546.72.24,1093.44.48,1640.16.71v8.9Z"/>
      <path class="cls-2" d="M2057.78,3290.21c-546.72-.24-1093.44-.48-1640.16-.71,13.25-11.54,26.5-23.09,39.76-34.63,546.72.25,1093.44.5,1640.16.75-13.25,11.53-26.5,23.06-39.76,34.6Z"/>
      <path class="cls-4" d="M2057.78,3299.11c13.25-11.53,26.5-23.06,39.76-34.6v-8.9c-13.25,11.53-26.5,23.06-39.76,34.6v8.9Z"/>
    </g>
    <g>
      <path class="cls-7" d="M3697.95,3299.3c-546.72-.24-1093.44-.48-1640.16-.71v-8.9c546.72.24,1093.44.48,1640.16.71v8.9Z"/>
      <path class="cls-2" d="M3697.95,3290.4c-546.72-.24-1093.44-.48-1640.16-.71,13.25-11.54,26.5-23.09,39.76-34.63,546.72.25,1093.44.5,1640.16.75-13.25,11.53-26.5,23.06-39.76,34.6Z"/>
      <path class="cls-4" d="M3697.95,3299.3c13.25-11.53,26.5-23.06,39.76-34.6v-8.9c-13.25,11.53-26.5,23.06-39.76,34.6v8.9Z"/>
    </g>
    <g>
      <path class="cls-7" d="M5119.73,3290.69v8.9c-451.14-.2-902.29-.4-1353.43-.59h-1.44c-.34,0-.68,0-1.02,0-21.84-.01-43.68-.02-65.52-.03h-.38v-8.9h.39c3.41,0,6.81,0,10.22,0,470.39.2,940.79.41,1411.18.62Z"/>
      <path class="cls-2" d="M5119.73,3256.06v34.63c-470.39-.21-940.79-.42-1411.18-.62-3.41,0-6.81,0-10.22,0h-.39c12.32-10.74,24.66-21.47,36.98-32.21.78-.68,1.57-1.36,2.35-2.04.14-.13.29-.25.43-.38,25.28.01,50.57.03,75.85.04h2.78c434.47.2,868.93.4,1303.4.59Z"/>
    </g>
    <g>
      <path class="cls-7" d="M2172.43,3338.3c-518.72-.23-1037.43-.45-1556.15-.68v-8.45c518.72.23,1037.43.45,1556.15.68v8.45Z"/>
      <path class="cls-2" d="M2172.43,3329.85c-518.72-.23-1037.43-.45-1556.15-.68,12.57-10.95,25.15-21.91,37.72-32.86,518.72.24,1037.43.48,1556.15.71-12.57,10.94-25.15,21.88-37.72,32.82Z"/>
      <path class="cls-4" d="M2172.43,3338.3c12.57-10.94,25.15-21.88,37.72-32.82v-8.45c-12.57,10.94-25.15,21.88-37.72,32.82v8.45Z"/>
    </g>
    <g>
      <path class="cls-7" d="M3728.58,3339.01c-518.72-.23-1037.43-.45-1556.15-.68v-8.45c518.72.23,1037.43.45,1556.15.68v8.45Z"/>
      <path class="cls-2" d="M3728.58,3330.57c-518.72-.23-1037.43-.45-1556.15-.68,12.57-10.95,25.15-21.91,37.72-32.86,518.72.24,1037.43.48,1556.15.71-12.57,10.94-25.15,21.88-37.72,32.82Z"/>
      <path class="cls-4" d="M3728.58,3339.01c12.57-10.94,25.15-21.88,37.72-32.82v-8.45c-12.57,10.94-25.15,21.88-37.72,32.82v8.45Z"/>
    </g>
    <g>
      <path class="cls-7" d="M5119.73,3330.32v8.44c-463.39-.2-926.79-.4-1390.17-.6h-.98v-8.44h.98c3.23,0,6.47,0,9.7,0,460.15.19,920.31.4,1380.47.6Z"/>
      <path class="cls-2" d="M5119.73,3297.47v32.85c-460.16-.2-920.32-.4-1380.47-.6-3.23,0-6.47,0-9.7,0h-.98c11.75-10.24,23.51-20.48,35.26-30.72.48-.42.96-.84,1.44-1.26.34-.3.68-.59,1.02-.89,451.14.2,902.28.41,1353.43.62Z"/>
    </g>
    <g>
      <path class="cls-7" d="M1972.81,3380.62c-546.72-.24-1093.44-.48-1640.16-.71v-8.9c546.72.24,1093.44.48,1640.16.71v8.9Z"/>
      <path class="cls-2" d="M1972.81,3371.72c-546.72-.24-1093.44-.48-1640.16-.71,13.25-11.54,26.5-23.09,39.76-34.63,546.72.25,1093.44.5,1640.16.75-13.25,11.53-26.5,23.06-39.76,34.6Z"/>
      <path class="cls-4" d="M1972.81,3380.62c13.25-11.53,26.5-23.06,39.76-34.6v-8.9c-13.25,11.53-26.5,23.06-39.76,34.6v8.9Z"/>
    </g>
    <g>
      <path class="cls-7" d="M3612.97,3380.44c-546.72-.24-1093.44-.48-1640.16-.71v-8.9c546.72.24,1093.44.48,1640.16.71v8.9Z"/>
      <path class="cls-2" d="M3612.97,3371.53c-546.72-.24-1093.44-.48-1640.16-.71,13.25-11.54,26.5-23.09,39.76-34.63,546.72.25,1093.44.5,1640.16.75-13.25,11.53-26.5,23.06-39.76,34.6Z"/>
      <path class="cls-4" d="M3612.97,3380.44c13.25-11.53,26.5-23.06,39.76-34.6v-8.9c-13.25,11.53-26.5,23.06-39.76,34.6v8.9Z"/>
    </g>
    <g>
      <path class="cls-7" d="M5119.73,3371.85v8.9c-299.49-.13-598.99-.26-898.48-.39h-3.66c-201.41-.09-402.82-.18-604.23-.26h-.39v-8.9h.39c3.41,0,6.82,0,10.23,0,498.71.21,997.43.43,1496.14.65Z"/>
      <path class="cls-2" d="M5119.73,3337.23v34.62c-498.71-.22-997.43-.44-1496.14-.65-3.41,0-6.82,0-10.23,0h-.39c12.32-10.74,24.65-21.47,36.98-32.21.78-.68,1.56-1.36,2.35-2.04.14-.13.29-.25.43-.38,25.28.01,50.57.03,75.85.04h2.78c462.79.21,925.58.42,1388.37.63Z"/>
    </g>
    <g>
      <path class="cls-7" d="M1068.91,3409.75v8.44c-80.52-.04-161.03-.07-241.55-.11h-6.44c-266.24-.12-532.49-.23-798.74-.35-7.4,0-14.78,0-22.18,0v-8.45c7.4,0,14.78,0,22.18,0,348.91.16,697.82.31,1046.73.46Z"/>
      <path class="cls-2" d="M1106.63,3376.93c-12.58,10.94-25.15,21.88-37.72,32.82-348.91-.15-697.82-.3-1046.73-.46-7.4,0-14.78,0-22.18,0v-32.87c7.39,0,14.78,0,22.18.01,361.47.16,722.96.33,1084.45.5Z"/>
      <path class="cls-4" d="M1068.9,3418.2c12.57-10.94,25.15-21.88,37.72-32.82v-8.45c-12.57,10.94-25.15,21.88-37.72,32.82v8.45Z"/>
    </g>
    <g>
      <path class="cls-7" d="M2627.39,3418.63c-518.72-.23-1037.43-.45-1556.15-.68v-8.45c518.72.23,1037.43.45,1556.15.68v8.45Z"/>
      <path class="cls-2" d="M2627.39,3410.18c-518.72-.23-1037.43-.45-1556.15-.68,12.57-10.95,25.15-21.91,37.72-32.86,518.72.24,1037.43.48,1556.15.71-12.57,10.94-25.15,21.88-37.72,32.82Z"/>
      <path class="cls-4" d="M2627.39,3418.63c12.57-10.94,25.15-21.88,37.72-32.82v-8.45c-12.57,10.94-25.15,21.88-37.72,32.82v8.45Z"/>
    </g>
    <g>
      <path class="cls-7" d="M4183.53,3419.34c-518.72-.23-1037.43-.45-1556.15-.68v-8.45c518.72.23,1037.43.45,1556.15.68v8.45Z"/>
      <path class="cls-2" d="M4183.53,3410.89c-518.72-.23-1037.43-.45-1556.15-.68,12.57-10.95,25.15-21.91,37.72-32.86,518.72.24,1037.43.48,1556.15.71-12.57,10.94-25.15,21.88-37.72,32.82Z"/>
      <path class="cls-4" d="M4183.53,3419.34c12.57-10.94,25.15-21.88,37.72-32.82v-8.45c-12.57,10.94-25.15,21.88-37.72,32.82v8.45Z"/>
    </g>
    <g>
      <path class="cls-7" d="M5119.73,3410.44v8.44c-311.74-.14-623.47-.27-935.21-.41h-.99v-8.44h.99c3.23,0,6.47,0,9.7,0,308.51.13,617.01.27,925.51.4Z"/>
      <path class="cls-2" d="M5119.73,3377.59v32.85c-308.5-.13-617-.27-925.51-.4-3.23,0-6.47,0-9.7,0h-.99c11.35-9.89,22.71-19.78,34.06-29.67.88-.77,1.76-1.53,2.64-2.3.34-.3.68-.6,1.02-.89,299.5.14,598.99.28,898.48.42Z"/>
    </g>
    <g>
      <path class="cls-7" d="M2427.76,3460.57c-546.72-.24-1093.44-.48-1640.16-.71v-8.9c546.72.24,1093.44.48,1640.16.71v8.9Z"/>
      <path class="cls-2" d="M2427.76,3451.67c-546.72-.24-1093.44-.48-1640.16-.71,13.25-11.54,26.5-23.09,39.76-34.63,546.72.25,1093.44.5,1640.16.75-13.25,11.53-26.5,23.06-39.76,34.6Z"/>
      <path class="cls-4" d="M2427.76,3460.57c13.25-11.53,26.5-23.06,39.76-34.6v-8.9c-13.25,11.53-26.5,23.06-39.76,34.6v8.9Z"/>
    </g>
    <g>
      <path class="cls-7" d="M4067.93,3460.76c-546.72-.24-1093.44-.48-1640.16-.71v-8.9c546.72.24,1093.44.48,1640.16.71v8.9Z"/>
      <path class="cls-2" d="M4067.93,3451.86c-546.72-.24-1093.44-.48-1640.16-.71,13.25-11.54,26.5-23.09,39.76-34.63,546.72.25,1093.44.5,1640.16.75-13.25,11.53-26.5,23.06-39.76,34.6Z"/>
      <path class="cls-4" d="M4067.93,3460.76c13.25-11.53,26.5-23.06,39.76-34.6v-8.9c-13.25,11.53-26.5,23.06-39.76,34.6v8.9Z"/>
    </g>
    <g>
      <path class="cls-7" d="M5119.73,3451.97v8.9c-278.2-.12-556.39-.24-834.58-.36h-3.18l-213.66-.09h-.39v-8.9h.39c3.41,0,6.81,0,10.22,0h.01c265.32.11,530.62.23,795.94.35,81.75.03,163.5.07,245.25.1Z"/>
      <path class="cls-2" d="M5119.73,3417.35v34.63c-81.75-.03-163.5-.07-245.25-.11-265.32-.12-530.62-.23-795.94-.35h-.01c-3.41,0-6.81,0-10.22,0h-.39c12.32-10.74,24.65-21.47,36.98-32.21.78-.68,1.56-1.36,2.35-2.04.14-.13.29-.25.43-.38,25.28.01,50.57.03,75.85.04h2.77c311.15.14,622.29.28,933.43.43Z"/>
    </g>
    <g>
      <path class="cls-7" d="M946.5,3503.37v12.05l-258.49-.15h-1.78c-221.35-.13-442.7-.26-664.05-.39-7.4,0-14.78,0-22.18-.01v-12.05c7.4,0,14.78,0,22.18.01,308.11.18,616.21.36,924.32.54Z"/>
      <path class="cls-2" d="M986.48,3456.54c-13.33,15.61-26.65,31.22-39.98,46.83-308.11-.18-616.21-.36-924.32-.54-7.4,0-14.78-.01-22.18-.01v-46.89c7.4,0,14.78.01,22.18.01,255.15.16,510.28.31,765.43.47,1.45,0,2.89,0,4.34,0,64.85.04,129.68.08,194.53.12Z"/>
      <path class="cls-4" d="M946.5,3515.42c13.33-15.61,26.65-31.22,39.98-46.83v-12.05c-13.33,15.61-26.65,31.22-39.98,46.83v12.05Z"/>
    </g>
    <g>
      <path class="cls-7" d="M2595.83,3515.93c-549.78-.32-1099.56-.64-1649.34-.97v-12.05c549.78.32,1099.56.64,1649.34.97v12.05Z"/>
      <path class="cls-2" d="M2595.83,3503.88c-549.78-.32-1099.56-.64-1649.34-.97,13.33-15.63,26.65-31.26,39.98-46.88,549.78.34,1099.56.68,1649.34,1.02-13.33,15.61-26.65,31.22-39.98,46.83Z"/>
      <path class="cls-4" d="M2595.83,3515.93c13.33-15.61,26.65-31.22,39.98-46.83v-12.05c-13.33,15.61-26.65,31.22-39.98,46.83v12.05Z"/>
    </g>
    <g>
      <path class="cls-7" d="M4245.17,3516.95c-549.78-.32-1099.56-.64-1649.34-.97v-12.05c549.78.32,1099.56.64,1649.34.97v12.05Z"/>
      <path class="cls-2" d="M4245.17,3504.9c-549.78-.32-1099.56-.64-1649.34-.97,13.33-15.63,26.65-31.26,39.98-46.88,549.78.34,1099.56.68,1649.34,1.02-13.33,15.61-26.65,31.22-39.98,46.83Z"/>
      <path class="cls-4" d="M4245.17,3516.95c13.33-15.61,26.65-31.22,39.98-46.83v-12.05c-13.33,15.61-26.65,31.22-39.98,46.83v12.05Z"/>
    </g>
    <g>
      <path class="cls-7" d="M5119.73,3504.19v12.05c-291.17-.18-582.35-.35-873.52-.52h-1.04v-12.05h1.04c3.43,0,6.85,0,10.28,0,287.75.17,575.49.33,863.24.5Z"/>
      <path class="cls-2" d="M5119.73,3457.31v46.88c-287.75-.17-575.49-.33-863.24-.5-3.43,0-6.85,0-10.28,0h-1.04c12.26-14.39,24.54-28.77,36.8-43.16.7-.82,1.39-1.63,2.09-2.45.36-.43.72-.85,1.08-1.28,278.2.18,556.39.35,834.59.52Z"/>
    </g>
    <g>
      <path class="cls-7" d="M645.88,3562.54v12.7c-207.89-.12-415.79-.25-623.7-.36-7.39,0-14.78-.01-22.18-.01v-12.7c7.4,0,14.79,0,22.18.01,207.91.12,415.8.25,623.7.36Z"/>
      <path class="cls-2" d="M688.01,3513.18c-.6.7-1.18,1.39-1.78,2.09-13.44,15.76-26.9,31.52-40.35,47.27-207.89-.12-415.79-.25-623.7-.36-7.39,0-14.78-.01-22.18-.01v-49.4c7.4,0,14.78,0,22.18.01,221.95.14,443.88.28,665.83.41Z"/>
      <path class="cls-4" d="M645.88,3575.24c14.05-16.45,28.09-32.91,42.14-49.36v-12.7c-14.05,16.45-28.09,32.91-42.14,49.36v12.7Z"/>
    </g>
    <g>
      <path class="cls-7" d="M2384.26,3575.78c-579.46-.34-1158.92-.68-1738.38-1.02v-12.7c579.46.34,1158.92.68,1738.38,1.02v12.7Z"/>
      <path class="cls-2" d="M2384.26,3563.08c-579.46-.34-1158.92-.68-1738.38-1.02,14.05-16.47,28.09-32.94,42.14-49.41,579.46.36,1158.92.72,1738.38,1.07-14.05,16.45-28.09,32.91-42.14,49.36Z"/>
      <path class="cls-4" d="M2384.26,3575.78c14.05-16.45,28.09-32.91,42.14-49.36v-12.7c-14.05,16.45-28.09,32.91-42.14,49.36v12.7Z"/>
    </g>
    <g>
      <path class="cls-7" d="M4122.64,3576.05c-579.46-.34-1158.92-.68-1738.38-1.02v-12.7c579.46.34,1158.92.68,1738.38,1.02v12.7Z"/>
      <path class="cls-2" d="M4122.64,3563.35c-579.46-.34-1158.92-.68-1738.38-1.02,14.05-16.47,28.09-32.94,42.14-49.41,579.46.36,1158.92.72,1738.38,1.07-14.05,16.45-28.09,32.91-42.14,49.36Z"/>
      <path class="cls-4" d="M4122.64,3576.05c14.05-16.45,28.09-32.91,42.14-49.36v-12.7c-14.05,16.45-28.09,32.91-42.14,49.36v12.7Z"/>
    </g>
    <g>
      <path class="cls-7" d="M5119.73,3563.45v12.7c-308.21-.18-616.43-.36-924.64-.54h-2.61c-23.14-.02-46.29-.03-69.43-.04h-.41v-12.69h.41c3.61,0,7.22,0,10.83,0,328.61.19,657.23.38,985.85.58Z"/>
      <path class="cls-2" d="M5119.73,3514.04v49.42c-328.62-.19-657.24-.39-985.85-.58-3.61,0-7.22,0-10.83,0h-.41c4.03-4.73,8.07-9.47,12.1-14.2,9.03-10.59,18.06-21.18,27.09-31.77.83-.97,1.65-1.94,2.48-2.91.15-.18.31-.36.46-.54,26.8.02,53.6.03,80.4.05h2.94c290.54.18,581.08.36,871.62.53Z"/>
    </g>
    <g>
      <path class="cls-7" d="M856.44,3619.13v12.05c-86.16-.05-172.32-.1-258.48-.15h-1.78c-191.33-.12-382.67-.23-574-.34-7.4,0-14.78-.01-22.18-.01v-12.05c7.4,0,14.78,0,22.18.01,278.09.16,556.17.32,834.26.48Z"/>
      <path class="cls-2" d="M896.42,3572.29c-13.32,15.61-26.65,31.22-39.98,46.83-278.09-.16-556.17-.33-834.26-.48-7.4,0-14.78-.01-22.18-.01v-46.89c7.4,0,14.78.01,22.18.01,207.9.13,415.8.26,623.7.38.89,0,1.76,0,2.65,0,82.63.05,165.26.1,247.89.15Z"/>
      <path class="cls-4" d="M856.44,3631.18c13.33-15.61,26.65-31.22,39.98-46.83v-12.05c-13.33,15.61-26.65,31.22-39.98,46.83v12.05Z"/>
    </g>
    <g>
      <path class="cls-7" d="M2505.77,3631.69c-549.78-.32-1099.56-.64-1649.34-.97v-12.05c549.78.32,1099.56.64,1649.34.97v12.05Z"/>
      <path class="cls-2" d="M2505.77,3619.64c-549.78-.32-1099.56-.64-1649.34-.97,13.33-15.63,26.65-31.26,39.98-46.88,549.78.34,1099.56.68,1649.34,1.02-13.33,15.61-26.65,31.22-39.98,46.83Z"/>
      <path class="cls-4" d="M2505.77,3631.69c13.33-15.61,26.65-31.22,39.98-46.83v-12.05c-13.33,15.61-26.65,31.22-39.98,46.83v12.05Z"/>
    </g>
    <g>
      <path class="cls-7" d="M4155.11,3632.7c-549.78-.32-1099.56-.64-1649.34-.97v-12.05c549.78.32,1099.56.64,1649.34.97v12.05Z"/>
      <path class="cls-2" d="M4155.11,3620.66c-549.78-.32-1099.56-.64-1649.34-.97,13.33-15.63,26.65-31.26,39.98-46.88,549.78.34,1099.56.68,1649.34,1.02-13.33,15.61-26.65,31.22-39.98,46.83Z"/>
      <path class="cls-4" d="M4155.11,3632.7c13.33-15.61,26.65-31.22,39.98-46.83v-12.05c-13.33,15.61-26.65,31.22-39.98,46.83v12.05Z"/>
    </g>
    <g>
      <path class="cls-7" d="M5119.73,3620v12.05c-21.22-.01-42.43-.03-63.65-.04-3.06,0-6.11,0-9.17,0h-.55c-296.73-.17-593.47-.35-890.2-.52h-1.05v-12.05h1.05c3.43,0,6.85,0,10.28,0,297.66.18,595.33.35,892.99.52h.56c3.06,0,6.11,0,9.17,0,16.86,0,33.71.02,50.57.03Z"/>
      <path class="cls-2" d="M5119.73,3573.12v46.88c-16.86-.01-33.71-.03-50.57-.03-3.06,0-6.11,0-9.17,0h-.56c-297.66-.18-595.33-.35-892.99-.52-3.43,0-6.85,0-10.28,0h-1.05c4.44-5.21,8.89-10.43,13.34-15.64.36-.43.72-.86,1.09-1.29.07-.09.15-.18.23-.26,1.23-1.45,2.46-2.89,3.69-4.33,6.22-7.29,12.44-14.59,18.66-21.89.12-.14.24-.28.36-.42.17-.2.34-.41.52-.61.33-.39.66-.78.99-1.17.37-.43.73-.85,1.09-1.28,308.22.19,616.43.38,924.65.57Z"/>
    </g>
    <g>
      <path class="cls-7" d="M555.82,3678.3v12.69c-177.88-.11-355.76-.21-533.64-.31-7.4,0-14.78,0-22.18-.01v-12.7c7.4,0,14.78.01,22.18.01,177.88.11,355.76.21,533.64.31Z"/>
      <path class="cls-2" d="M597.96,3628.94c-.6.7-1.19,1.39-1.78,2.09-13.45,15.75-26.91,31.51-40.36,47.27-177.88-.11-355.76-.21-533.64-.31-7.4,0-14.78,0-22.18-.01v-49.4c7.39,0,14.78.01,22.18.01l575.78.36Z"/>
      <path class="cls-4" d="M555.82,3691c14.05-16.45,28.09-32.91,42.14-49.36v-12.7c-14.05,16.45-28.09,32.91-42.14,49.36v12.7Z"/>
    </g>
    <g>
      <path class="cls-7" d="M2294.2,3691.54c-579.46-.34-1158.92-.68-1738.38-1.02v-12.7c579.46.34,1158.92.68,1738.38,1.02v12.7Z"/>
      <path class="cls-2" d="M2294.2,3678.84c-579.46-.34-1158.92-.68-1738.38-1.02,14.05-16.47,28.09-32.94,42.14-49.41,579.46.36,1158.92.72,1738.38,1.07-14.05,16.45-28.09,32.91-42.14,49.36Z"/>
      <path class="cls-4" d="M2294.2,3691.54c14.05-16.45,28.09-32.91,42.14-49.36v-12.7c-14.05,16.45-28.09,32.91-42.14,49.36v12.7Z"/>
    </g>
    <g>
      <path class="cls-7" d="M4032.58,3691.8c-579.46-.34-1158.92-.68-1738.38-1.02v-12.7c579.46.34,1158.92.68,1738.38,1.02v12.7Z"/>
      <path class="cls-2" d="M4032.58,3679.1c-579.46-.34-1158.92-.68-1738.38-1.02,14.05-16.47,28.09-32.94,42.14-49.41,579.46.36,1158.92.72,1738.38,1.07-14.05,16.45-28.09,32.91-42.14,49.36Z"/>
      <path class="cls-4" d="M4032.58,3691.8c14.05-16.45,28.09-32.91,42.14-49.36v-12.7c-14.05,16.45-28.09,32.91-42.14,49.36v12.7Z"/>
    </g>
    <g>
      <path class="cls-7" d="M5119.73,3679.26v12.7c-40.43-.03-80.87-.05-121.3-.08h-8.77c-.19,0-.38,0-.57,0-104.76-.06-209.52-.12-314.28-.18h-2.11c-213.24-.13-426.48-.25-639.71-.38h-.41v-12.7h.41c3.61,0,7.23,0,10.84,0,323.13.19,646.26.38,969.4.57,2.44,0,4.88,0,7.32,0,33.06.02,66.12.04,99.18.06Z"/>
      <path class="cls-2" d="M5119.73,3629.85v49.41c-33.06-.03-66.12-.04-99.18-.06-2.44,0-4.88,0-7.32,0-323.14-.19-646.27-.38-969.4-.57-3.61,0-7.23,0-10.84,0h-.41c.58-.68,1.16-1.36,1.74-2.04.02-.03.04-.05.06-.08,9.3-10.91,18.61-21.82,27.91-32.73.08-.09.15-.18.23-.27.44-.52.88-1.03,1.32-1.55.02-.03.05-.05.07-.08,1.86-2.18,3.72-4.36,5.58-6.55.07-.09.15-.18.23-.26.68-.81,1.36-1.6,2.05-2.41.82-.97,1.65-1.94,2.48-2.91.15-.18.31-.36.46-.54,26.8.02,53.6.03,80.4.05h2.95c296.89.18,593.79.37,890.68.55h.56c3.06,0,6.1,0,9.16,0h0c20.42.01,40.84.03,61.26.04Z"/>
    </g>
    <g>
      <path class="cls-7" d="M1336.16,3735.79v12.05c-86.16-.05-172.32-.1-258.48-.15h-1.78c-351.24-.21-702.48-.41-1053.72-.62-7.4,0-14.79,0-22.18-.01v-12.05c7.39,0,14.78,0,22.18.01,437.98.26,875.99.51,1313.98.77Z"/>
      <path class="cls-2" d="M1376.13,3688.97c-13.32,15.61-26.64,31.22-39.98,46.83-437.99-.26-876-.51-1313.98-.77-7.4,0-14.79,0-22.18-.01v-46.89c7.4,0,14.78,0,22.18.01,177.88.11,355.76.22,533.64.33.72,0,1.44,0,2.16,0h.01c272.72.16,545.43.33,818.15.5Z"/>
      <path class="cls-4" d="M1336.16,3747.84c13.33-15.61,26.65-31.22,39.98-46.83v-12.05c-13.33,15.61-26.65,31.22-39.98,46.83v12.05Z"/>
    </g>
    <g>
      <path class="cls-7" d="M2985.5,3748.35c-549.78-.32-1099.56-.64-1649.34-.97v-12.05c549.78.32,1099.56.64,1649.34.97v12.05Z"/>
      <path class="cls-2" d="M2985.5,3736.3c-549.78-.32-1099.56-.64-1649.34-.97,13.33-15.63,26.65-31.26,39.98-46.88,549.78.34,1099.56.68,1649.34,1.02-13.33,15.61-26.65,31.22-39.98,46.83Z"/>
      <path class="cls-4" d="M2985.5,3748.35c13.33-15.61,26.65-31.22,39.98-46.83v-12.05c-13.33,15.61-26.65,31.22-39.98,46.83v12.05Z"/>
    </g>
    <g>
      <path class="cls-7" d="M4634.83,3749.37c-549.78-.32-1099.56-.64-1649.34-.97v-12.05c549.78.32,1099.56.64,1649.34.97v12.05Z"/>
      <path class="cls-2" d="M4634.83,3737.32c-549.78-.32-1099.56-.64-1649.34-.97,13.33-15.63,26.65-31.26,39.98-46.88,549.78.34,1099.56.68,1649.34,1.02-13.33,15.61-26.65,31.22-39.98,46.83Z"/>
      <path class="cls-4" d="M4634.83,3749.37c13.33-15.61,26.65-31.22,39.98-46.83v-12.05c-13.33,15.61-26.65,31.22-39.98,46.83v12.05Z"/>
    </g>
    <g>
      <path class="cls-7" d="M5119.73,3736.38v12.05c-55.5-.03-110.99-.06-166.49-.09-3.22,0-6.44,0-9.66,0h-.58c-102.37-.06-204.75-.12-307.12-.18h-1.06v-12.05h1.06c3.43,0,6.85,0,10.28,0,103.3.06,206.6.12,309.9.18h.6c3.22,0,6.45,0,9.67,0,51.13.03,102.27.06,153.4.09Z"/>
      <path class="cls-2" d="M5119.73,3689.49v46.89c-51.13-.03-102.27-.06-153.4-.09-3.22,0-6.45,0-9.67,0h-.6c-103.3-.06-206.6-.12-309.9-.18-3.43,0-6.85,0-10.28,0h-1.06c3.01-3.53,6.03-7.06,9.04-10.59.16-.18.32-.37.48-.56.43-.51.87-1.02,1.3-1.53.64-.75,1.28-1.5,1.92-2.24,1.17-1.36,2.33-2.73,3.5-4.1.16-.19.32-.38.48-.57,7.05-8.26,14.1-16.54,21.16-24.8.33-.4.67-.8,1.02-1.21.36-.42.72-.85,1.09-1.28,105.66.06,211.32.13,316.97.2h.58c2.03,0,4.05,0,6.07,0,40.44.03,80.87.05,121.3.08Z"/>
    </g>
    <g>
      <path class="cls-7" d="M1035.54,3794.97v12.7c-337.79-.2-675.58-.4-1013.36-.59-7.4,0-14.79-.01-22.18-.02v-12.7c7.39,0,14.78.01,22.18.02,337.79.2,675.58.4,1013.36.59Z"/>
      <path class="cls-2" d="M1077.68,3745.61c-.6.7-1.19,1.39-1.78,2.09-13.44,15.76-26.91,31.51-40.35,47.27-337.79-.2-675.58-.4-1013.36-.59-7.4,0-14.79-.01-22.18-.02v-49.42c7.4,0,14.78,0,22.18.01,351.83.22,703.67.43,1055.5.65Z"/>
      <path class="cls-4" d="M1035.54,3807.66c14.05-16.45,28.09-32.91,42.14-49.36v-12.7c-14.05,16.45-28.09,32.91-42.14,49.36v12.7Z"/>
    </g>
    <g>
      <path class="cls-7" d="M2773.92,3808.2c-579.46-.34-1158.92-.68-1738.38-1.02v-12.7c579.46.34,1158.92.68,1738.38,1.02v12.7Z"/>
      <path class="cls-2" d="M2773.92,3795.5c-579.46-.34-1158.92-.68-1738.38-1.02,14.05-16.47,28.09-32.94,42.14-49.41,579.46.36,1158.92.72,1738.38,1.07-14.05,16.45-28.09,32.91-42.14,49.36Z"/>
      <path class="cls-4" d="M2773.92,3808.2c14.05-16.45,28.09-32.91,42.14-49.36v-12.7c-14.05,16.45-28.09,32.91-42.14,49.36v12.7Z"/>
    </g>
    <g>
      <path class="cls-7" d="M4512.3,3808.47c-579.46-.34-1158.92-.68-1738.38-1.02v-12.7c579.46.34,1158.92.68,1738.38,1.02v12.7Z"/>
      <path class="cls-2" d="M4512.3,3795.77c-579.46-.34-1158.92-.68-1738.38-1.02,14.05-16.47,28.09-32.94,42.14-49.41,579.46.36,1158.92.72,1738.38,1.07-14.05,16.45-28.09,32.91-42.14,49.36Z"/>
      <path class="cls-4" d="M4512.3,3808.47c14.05-16.45,28.09-32.91,42.14-49.36v-12.7c-14.05,16.45-28.09,32.91-42.14,49.36v12.7Z"/>
    </g>
    <g>
      <path class="cls-7" d="M5119.73,3795.64v12.7c-202.34-.12-404.68-.24-607.02-.36h-.41v-12.7h.41c3.61,0,7.23,0,10.84,0,198.72.11,397.45.23,596.18.35Z"/>
      <path class="cls-2" d="M5119.73,3746.22v49.42c-198.73-.12-397.46-.24-596.18-.35-3.61,0-7.23,0-10.84,0h-.41c8.08-9.46,16.15-18.93,24.22-28.4.64-.74,1.27-1.49,1.9-2.23.27-.31.54-.62.8-.94,1.63-1.91,3.26-3.82,4.88-5.73.64-.75,1.28-1.49,1.91-2.24,1.83-2.14,3.66-4.28,5.48-6.43.83-.97,1.66-1.94,2.48-2.91.16-.18.31-.36.46-.53,26.8.02,53.6.03,80.39.05h2.95c102.54.06,205.08.13,307.62.19h.59c3.23,0,6.45,0,9.67,0,54.7.04,109.39.07,164.08.1Z"/>
    </g>
  </g>
  <g>
    <g>
      <path class="cls-7" d="M648.94,3639.78v8.44c-76.86-.04-153.71-.07-230.57-.11h-1.58c-136.63-.06-273.26-.13-409.88-.19-6.99,0-13.98,0-20.97-.01v-8.44c6.99,0,13.98,0,20.97.01,214.01.1,428.03.2,642.04.3Z"/>
      <path class="cls-2" d="M684.61,3606.96c-.59.54-1.17,1.08-1.76,1.62-11.31,10.4-22.6,20.8-33.91,31.2-214.01-.1-428.03-.2-642.04-.3-6.99,0-13.98,0-20.97-.01v-32.85c6.99,0,13.98,0,20.97,0,225.9.11,451.8.22,677.71.33Z"/>
      <path class="cls-4" d="M648.95,3648.23c11.89-10.94,23.78-21.88,35.66-32.82v-8.45c-11.89,10.94-23.78,21.88-35.66,32.82v8.45Z"/>
    </g>
    <g>
      <path class="cls-7" d="M568.61,3720.91v8.44c-76.86-.04-153.71-.07-230.57-.11h-1.58c-109.86-.05-219.7-.1-329.55-.15-6.99,0-13.99,0-20.97,0v-8.45c6.98,0,13.98,0,20.97.01,187.23.09,374.47.17,561.7.26Z"/>
      <path class="cls-2" d="M604.27,3688.09c-11.88,10.94-23.78,21.88-35.66,32.82-187.24-.09-374.48-.17-561.7-.26-6.99,0-13.99,0-20.97-.01v-32.85c6.99,0,13.98,0,20.97.01,124.63.06,249.25.12,373.88.18h2.36c73.71.04,147.42.07,221.13.11Z"/>
      <path class="cls-4" d="M568.61,3729.36c11.89-10.94,23.78-21.88,35.66-32.82v-8.45c-11.89,10.94-23.78,21.88-35.66,32.82v8.45Z"/>
    </g>
    <g>
      <path class="cls-7" d="M730.59,3842.72v8.9c-241.23-.11-482.46-.22-723.68-.33-6.99,0-13.99,0-20.97-.01v-8.9c6.98,0,13.98,0,20.97.01,241.22.11,482.45.22,723.68.33Z"/>
      <path class="cls-2" d="M768.17,3808.12c-2.03,1.87-4.06,3.74-6.09,5.61-10.5,9.66-21,19.32-31.49,28.99-241.23-.11-482.46-.22-723.68-.33-6.99,0-13.99,0-20.97-.01v-34.63c6.99,0,13.98.01,20.97.01,253.75.13,507.51.25,761.27.37Z"/>
      <path class="cls-4" d="M730.58,3851.62c12.53-11.53,25.06-23.06,37.59-34.6v-8.9c-12.53,11.53-25.06,23.06-37.59,34.6v8.9Z"/>
    </g>
    <path class="cls-5" d="M5139.4,3607.33v592.63c-295.63-.19-591.25-.37-886.88-.55h-.39v-12.7c12.36-15.32,24.71-30.65,37.06-45.96.78-.97,1.57-1.94,2.35-2.91.14-.18.29-.36.43-.53,25.34.02,50.67.03,76.01.05v-9.83c11.93-14.8,23.87-29.6,35.8-44.4-201.6-.13-403.2-.25-604.81-.38h-.39v-12.7c12.34-15.32,24.7-30.64,37.06-45.96.78-.97,1.56-1.94,2.34-2.91.15-.18.29-.36.44-.54,25.33.02,50.67.03,76.01.05v-9.82c11.77-14.61,23.55-29.22,35.33-43.83-21.88-.02-43.77-.03-65.65-.04h-.38v-12.69c12.34-15.32,24.7-30.65,37.06-45.97.78-.97,1.57-1.94,2.35-2.91.14-.18.29-.36.43-.53,25.33.02,50.67.03,76,.05v-9.82c11.59-14.39,23.21-28.77,34.79-43.16l-202.01-.09h-.35v-8.9c10.74-9.9,21.48-19.8,32.23-29.7.9-.84,1.82-1.68,2.73-2.52.74-.68,1.47-1.36,2.21-2.04.14-.13.27-.25.41-.38,23.91.01,47.82.03,71.72.04v-6.89c.31-.29.63-.58.94-.87,10.42-9.6,20.85-19.2,31.26-28.8.81-.75,1.62-1.49,2.43-2.24.02-.02.04-.04.06-.06.32-.3.65-.6.97-.89,193.98.09,387.96.19,581.93.28h.45c3.62,0,7.22,0,10.83,0h.01c127.46.06,254.92.13,382.38.19v-6.27c.62-.57,1.24-1.14,1.86-1.71,2.75-2.53,5.5-5.07,8.25-7.6.8-.74,1.6-1.48,2.39-2.21,3.56-3.28,7.12-6.55,10.67-9.83,3.85-3.55,7.69-7.09,11.54-10.63.38-.35.77-.71,1.15-1.06h-5.99v-8.44c8.78-8.09,17.55-16.18,26.33-24.26.9-.82,1.79-1.65,2.69-2.47,1.26-1.16,2.52-2.32,3.78-3.48.03-.03.06-.05.09-.08.53-.49,1.06-.99,1.6-1.48.2-.18.4-.37.6-.55.19-.18.39-.36.58-.53,4.93,0,9.87,0,14.8,0v-6.78c11.67-10.76,23.34-21.52,35.02-32.28.28-.26.56-.52.84-.77h-5.99v-8.44c1.09-1,2.18-2.01,3.26-3.01.8-.73,1.59-1.47,2.38-2.19,3.57-3.28,7.13-6.56,10.69-9.85,5.74-5.29,11.48-10.58,17.22-15.86.41-.38.83-.77,1.24-1.15.1-.09.19-.18.29-.26.19-.18.39-.36.58-.53,13.66,0,27.31.01,40.97.02Z"/>
    <g>
      <path class="cls-7" d="M1288.62,3575.38v5.58c-70.2-.03-140.4-.04-210.6-.07h-1.46l-1069.66-.36c-6.99,0-13.98,0-20.97,0v-5.59c6.99,0,13.98,0,20.97,0,427.23.14,854.48.29,1281.71.43Z"/>
      <path class="cls-2" d="M1321.19,3553.66c-10.86,7.24-21.71,14.47-32.57,21.72-427.23-.14-854.48-.29-1281.71-.43-6.99,0-13.98,0-20.97,0v-21.75c6.99,0,13.98,0,20.97.01,438.1.15,876.19.31,1314.28.46Z"/>
      <path class="cls-4" d="M1288.61,3580.97c10.86-7.24,21.72-14.48,32.57-21.71v-5.59c-10.86,7.24-21.72,14.48-32.57,21.71v5.59Z"/>
    </g>
    <g>
      <path class="cls-7" d="M2632.41,3581.2c-447.93-.15-895.87-.3-1343.8-.45v-5.59c447.93.15,895.87.3,1343.8.45v5.59Z"/>
      <path class="cls-2" d="M2632.41,3575.62c-447.93-.15-895.87-.3-1343.8-.45,10.86-7.25,21.72-14.49,32.57-21.74,447.93.16,895.87.32,1343.8.47-10.86,7.24-21.72,14.48-32.57,21.71Z"/>
      <path class="cls-4" d="M2632.41,3581.2c10.86-7.24,21.72-14.48,32.57-21.71v-5.59c-10.86,7.24-21.72,14.48-32.57,21.71v5.59Z"/>
    </g>
    <g>
      <path class="cls-7" d="M3976.22,3581.67c-447.93-.15-895.87-.3-1343.8-.45v-5.59c447.93.15,895.87.3,1343.8.45v5.59Z"/>
      <path class="cls-2" d="M3976.22,3576.09c-447.93-.15-895.87-.3-1343.8-.45,10.86-7.25,21.72-14.49,32.57-21.74,447.93.16,895.87.32,1343.8.47-10.86,7.24-21.72,14.48-32.57,21.71Z"/>
      <path class="cls-4" d="M3976.22,3581.67c10.86-7.24,21.72-14.48,32.57-21.71v-5.59c-10.86,7.24-21.72,14.48-32.57,21.71v5.59Z"/>
    </g>
    <g>
      <path class="cls-7" d="M5139.4,3575.9v5.59c-308.21-.1-616.43-.21-924.64-.3-.63,0-1.25,0-1.88,0-.36,0-.73,0-1.09,0-23.15,0-46.29-.01-69.44-.02h-.04c-55.08-.02-110.16-.04-165.24-.06h-.85v-5.59h9.23c52.29.02,104.57.04,156.86.06h4.81c330.76.11,661.52.23,992.28.33Z"/>
      <path class="cls-2" d="M5139.4,3554.18v21.72c-330.76-.1-661.52-.21-992.28-.33h-4.81c-52.29-.02-104.57-.04-156.86-.06h-9.23c3.54-2.36,7.09-4.73,10.63-7.09,7.02-4.68,14.03-9.37,21.05-14.05.3-.2.59-.4.89-.59,48.54.02,97.08.03,145.62.05h.43c3.61,0,7.22,0,10.83,0,324.58.11,649.16.23,973.73.34Z"/>
    </g>
    <g>
      <path class="cls-7" d="M1043.68,3602.82v5.89c-119.69-.04-239.38-.08-359.07-.12h-1.76c-225.32-.08-450.63-.15-675.95-.23-6.99,0-13.98,0-20.97,0v-5.89c6.99,0,13.98,0,20.97,0,345.59.11,691.18.23,1036.77.35Z"/>
      <path class="cls-2" d="M1078.02,3579.93c-.48.32-.96.65-1.46.97-10.96,7.31-21.92,14.61-32.89,21.92-345.59-.11-691.18-.23-1036.77-.35-6.99,0-13.98,0-20.97,0v-22.92c6.99,0,13.98,0,20.97,0,357.03.13,714.08.25,1071.11.38Z"/>
      <path class="cls-4" d="M1043.68,3608.7c11.44-7.63,22.89-15.26,34.33-22.89v-5.89c-11.44,7.63-22.89,15.26-34.33,22.89v5.89Z"/>
    </g>
    <g>
      <path class="cls-7" d="M2460.03,3608.95c-472.12-.16-944.23-.31-1416.35-.47v-5.89c472.12.16,944.23.31,1416.35.47v5.89Z"/>
      <path class="cls-2" d="M2460.03,3603.06c-472.12-.16-944.23-.32-1416.35-.47,11.44-7.64,22.89-15.27,34.33-22.91,472.12.17,944.23.33,1416.35.5-11.44,7.63-22.89,15.26-34.33,22.89Z"/>
      <path class="cls-4" d="M2460.03,3608.95c11.44-7.63,22.89-15.26,34.33-22.89v-5.89c-11.44,7.63-22.89,15.26-34.33,22.89v5.89Z"/>
    </g>
    <g>
      <path class="cls-7" d="M3876.38,3609.08c-472.12-.16-944.23-.31-1416.35-.47v-5.89c472.12.16,944.23.31,1416.35.47v5.89Z"/>
      <path class="cls-2" d="M3876.38,3603.19c-472.12-.16-944.23-.32-1416.35-.47,11.44-7.64,22.89-15.27,34.33-22.91,472.12.17,944.23.33,1416.35.5-11.44,7.63-22.89,15.26-34.33,22.89Z"/>
      <path class="cls-4" d="M3876.38,3609.08c11.44-7.63,22.89-15.26,34.33-22.89v-5.89c-11.44,7.63-22.89,15.26-34.33,22.89v5.89Z"/>
    </g>
    <g>
      <path class="cls-7" d="M5139.4,3603.39v5.89c-13.66,0-27.31-.01-40.97-.01h-2.11c-298.96-.1-597.91-.2-896.86-.3h-11.34c-103.8-.04-207.59-.07-311.39-.11h-.34v-5.89h9.17c102.53.04,205.04.07,307.57.11h11.36c311.64.11,623.27.21,934.91.31Z"/>
      <path class="cls-2" d="M5139.4,3580.49v22.9c-311.64-.11-623.27-.21-934.91-.31h-11.36c-102.53-.04-205.04-.07-307.57-.11h-9.17c10.64-7.11,21.29-14.22,31.93-21.32.29-.2.58-.38.87-.58.39-.26.78-.52,1.16-.77.12-.08.25-.16.37-.25,21.83,0,43.67.01,65.5.03h2.4c54.56.02,109.12.04,163.69.06h.92c23.14,0,46.29.01,69.44.03h2.09c308.21.11,616.42.21,924.64.33Z"/>
    </g>
    <g>
      <path class="cls-7" d="M2120.22,3648.58c-490.42-.23-980.85-.45-1471.27-.68v-8.45c490.42.23,980.85.45,1471.27.68v8.45Z"/>
      <path class="cls-2" d="M2120.22,3640.14c-490.42-.23-980.85-.45-1471.27-.68,11.89-10.95,23.78-21.91,35.66-32.86,490.42.24,980.85.48,1471.27.71-11.89,10.94-23.78,21.88-35.66,32.82Z"/>
      <path class="cls-4" d="M2120.22,3648.58c11.89-10.94,23.78-21.88,35.66-32.82v-8.45c-11.89,10.94-23.78,21.88-35.66,32.82v8.45Z"/>
    </g>
    <g>
      <path class="cls-7" d="M3591.49,3649.3c-490.42-.23-980.85-.45-1471.27-.68v-8.45c490.42.23,980.85.45,1471.27.68v8.45Z"/>
      <path class="cls-2" d="M3591.49,3640.85c-490.42-.23-980.85-.45-1471.27-.68,11.89-10.95,23.78-21.91,35.66-32.86,490.42.24,980.85.48,1471.27.71-11.89,10.94-23.78,21.88-35.66,32.82Z"/>
      <path class="cls-4" d="M3591.49,3649.3c11.89-10.94,23.78-21.88,35.66-32.82v-8.45c-11.89,10.94-23.78,21.88-35.66,32.82v8.45Z"/>
    </g>
    <g>
      <path class="cls-7" d="M5062.77,3649.12c-490.42-.23-980.85-.45-1471.27-.68v-8.45c490.42.23,980.85.45,1471.27.68v8.45Z"/>
      <path class="cls-2" d="M5062.77,3640.67c-490.42-.23-980.85-.45-1471.27-.68,11.89-10.95,23.78-21.91,35.66-32.86,490.42.24,980.85.48,1471.27.71-11.89,10.94-23.78,21.88-35.66,32.82Z"/>
      <path class="cls-4" d="M5062.77,3649.12c11.89-10.94,23.78-21.88,35.66-32.82v-8.45c-11.89,10.94-23.78,21.88-35.66,32.82v8.45Z"/>
    </g>
    <g>
      <path class="cls-7" d="M5139.4,3640.98v8.44c-22.97,0-45.94-.02-68.91-.03h-2.57c-324.89-.15-649.79-.3-974.68-.45-3.61,0-7.22,0-10.83,0h-.45c-98.72-.05-197.44-.09-296.16-.14v-8.44c101.12.04,202.24.09,303.36.14h.45c1.59,0,3.18,0,4.77,0,322.8.14,645.59.3,968.39.45h8.88c22.58.01,45.17.03,67.75.03Z"/>
      <path class="cls-2" d="M5139.4,3608.13v32.85c-22.58,0-45.17-.02-67.75-.03h-8.88c-322.8-.15-645.59-.3-968.39-.45-1.59,0-3.18,0-4.77,0h-.45c-101.12-.04-202.24-.09-303.36-.14.1-.09.2-.18.29-.27.89-.81,1.77-1.63,2.65-2.44,1.06-.97,2.12-1.95,3.17-2.92,3.3-3.04,6.6-6.08,9.9-9.12,5.98-5.51,11.97-11.03,17.95-16.54.57-.52,1.13-1.04,1.7-1.57,18.31,0,36.62.02,54.93.03h2.34c103.49.05,206.99.1,310.48.15h1.07c3.43,0,6.85,0,10.28,0,299,.14,598,.29,897,.43h.87c13.66,0,27.31.01,40.97.02Z"/>
    </g>
    <g>
      <path class="cls-7" d="M1931.49,3690.53c-516.9-.24-1033.8-.48-1550.7-.71v-8.9c516.9.24,1033.8.48,1550.7.71v8.9Z"/>
      <path class="cls-2" d="M1931.49,3681.63c-516.9-.24-1033.8-.48-1550.7-.71,12.53-11.54,25.06-23.09,37.59-34.63,516.9.25,1033.8.5,1550.7.75-12.53,11.53-25.06,23.06-37.59,34.6Z"/>
      <path class="cls-4" d="M1931.49,3690.53c12.53-11.53,25.06-23.06,37.59-34.6v-8.9c-12.53,11.53-25.06,23.06-37.59,34.6v8.9Z"/>
    </g>
    <g>
      <path class="cls-7" d="M3482.19,3690.72c-516.9-.24-1033.8-.48-1550.7-.71v-8.9c516.9.24,1033.8.48,1550.7.71v8.9Z"/>
      <path class="cls-2" d="M3482.19,3681.82c-516.9-.24-1033.8-.48-1550.7-.71,12.53-11.54,25.06-23.09,37.59-34.63,516.9.25,1033.8.5,1550.7.75-12.53,11.53-25.06,23.06-37.59,34.6Z"/>
      <path class="cls-4" d="M3482.19,3690.72c12.53-11.53,25.06-23.06,37.59-34.6v-8.9c-12.53,11.53-25.06,23.06-37.59,34.6v8.9Z"/>
    </g>
    <g>
      <path class="cls-7" d="M5032.89,3691.1c-516.9-.24-1033.8-.48-1550.7-.71v-8.9c516.9.24,1033.8.48,1550.7.71v8.9Z"/>
      <path class="cls-2" d="M5032.89,3682.2c-516.9-.24-1033.8-.48-1550.7-.71,12.53-11.54,25.06-23.09,37.59-34.63,516.9.25,1033.8.5,1550.7.75-12.53,11.53-25.06,23.06-37.59,34.6Z"/>
      <path class="cls-4" d="M5032.89,3691.1c12.53-11.53,25.06-23.06,37.59-34.6v-8.9c-12.53,11.53-25.06,23.06-37.59,34.6v8.9Z"/>
    </g>
    <g>
      <path class="cls-7" d="M5139.4,3682.17v8.9c-35.47-.02-70.95-.03-106.42-.05h-.08c-4.93,0-9.87,0-14.8,0h-2.78c-319.2-.15-638.41-.3-957.61-.45h-5.46c-50.42-.03-100.84-.05-151.26-.07-84.68-.04-169.36-.08-254.04-.12v-8.9c135.7.06,271.4.13,407.1.19h11.26c322.53.15,645.06.3,967.59.45h.08c3.22,0,6.45,0,9.67,0,32.25.01,64.5.03,96.75.04Z"/>
      <path class="cls-2" d="M5139.4,3647.55v34.61c-32.25-.02-64.5-.03-96.75-.04-3.22,0-6.45,0-9.67,0h-.08c-322.53-.15-645.06-.3-967.59-.45h-11.26c-135.7-.06-271.4-.13-407.1-.19,11.93-11,23.86-22,35.8-33,.56-.52,1.13-1.04,1.69-1.56.03-.03.06-.06.09-.08,33.76.02,67.51.03,101.27.05,99.26.05,198.52.09,297.78.14h.45c3.45,0,6.9,0,10.35,0,322.8.16,645.59.31,968.39.47h1.74c24.96.01,49.93.03,74.89.04Z"/>
    </g>
    <g>
      <path class="cls-7" d="M2039.88,3729.72c-490.42-.23-980.85-.45-1471.27-.68v-8.45c490.42.23,980.85.45,1471.27.68v8.45Z"/>
      <path class="cls-2" d="M2039.88,3721.27c-490.42-.23-980.85-.45-1471.27-.68,11.89-10.95,23.78-21.91,35.66-32.86,490.42.24,980.85.48,1471.27.71-11.89,10.94-23.78,21.88-35.66,32.82Z"/>
      <path class="cls-4" d="M2039.88,3729.72c11.89-10.94,23.78-21.88,35.66-32.82v-8.45c-11.89,10.94-23.78,21.88-35.66,32.82v8.45Z"/>
    </g>
    <g>
      <path class="cls-7" d="M3511.16,3730.43c-490.42-.23-980.85-.45-1471.27-.68v-8.45c490.42.23,980.85.45,1471.27.68v8.45Z"/>
      <path class="cls-2" d="M3511.16,3721.99c-490.42-.23-980.85-.45-1471.27-.68,11.89-10.95,23.78-21.91,35.66-32.86,490.42.24,980.85.48,1471.27.71-11.89,10.94-23.78,21.88-35.66,32.82Z"/>
      <path class="cls-4" d="M3511.16,3730.43c11.89-10.94,23.78-21.88,35.66-32.82v-8.45c-11.89,10.94-23.78,21.88-35.66,32.82v8.45Z"/>
    </g>
    <g>
      <path class="cls-7" d="M4982.43,3730.25c-490.42-.23-980.85-.45-1471.27-.68v-8.45c490.42.23,980.85.45,1471.27.68v8.45Z"/>
      <path class="cls-2" d="M4982.43,3721.81c-490.42-.23-980.85-.45-1471.27-.68,11.89-10.95,23.78-21.91,35.66-32.86,490.42.24,980.85.48,1471.27.71-11.89,10.94-23.78,21.88-35.66,32.82Z"/>
      <path class="cls-4" d="M4982.43,3730.25c11.89-10.94,23.78-21.88,35.66-32.82v-8.45c-11.89,10.94-23.78,21.88-35.66,32.82v8.45Z"/>
    </g>
    <g>
      <path class="cls-7" d="M5139.4,3722.44v8.44c-49.75-.02-99.5-.04-149.25-.07h-2.88c-104.13-.04-208.27-.09-312.4-.14h-10.28c-.35,0-.71,0-1.06,0-265.52-.12-531.05-.25-796.57-.36v-8.44c267.92.13,535.85.25,803.77.37h1.07c3.42,0,6.85,0,10.27,0h0c100.12.04,200.23.09,300.35.14,2.85,0,5.71,0,8.56,0,49.47.02,98.94.04,148.41.06Z"/>
      <path class="cls-2" d="M5139.4,3689.6v32.84c-49.47-.02-98.94-.04-148.41-.06-2.85,0-5.71,0-8.56,0-100.12-.04-200.23-.09-300.35-.14h0c-3.42,0-6.85,0-10.27,0h-1.07c-267.92-.13-535.85-.25-803.77-.37.2-.19.41-.38.61-.57,8.84-8.14,17.67-16.28,26.5-24.42.62-.57,1.24-1.14,1.86-1.71,1.66-1.53,3.32-3.06,4.98-4.59.02-.03.05-.05.08-.08.54-.5,1.09-1,1.63-1.5,49.88.03,99.75.05,149.63.08h6.74c319.31.16,638.62.31,957.93.47h1.18c4.94,0,9.87,0,14.8.01h1.68c34.94.01,69.88.03,104.82.05Z"/>
    </g>
    <g>
      <path class="cls-7" d="M1851.15,3771.67c-516.9-.24-1033.8-.48-1550.7-.71v-8.9c516.9.24,1033.8.48,1550.7.71v8.9Z"/>
      <path class="cls-2" d="M1851.15,3762.76c-516.9-.24-1033.8-.48-1550.7-.71,12.53-11.54,25.06-23.09,37.59-34.63,516.9.25,1033.8.5,1550.7.75-12.53,11.53-25.06,23.06-37.59,34.6Z"/>
      <path class="cls-4" d="M1851.15,3771.67c12.53-11.53,25.06-23.06,37.59-34.6v-8.9c-12.53,11.53-25.06,23.06-37.59,34.6v8.9Z"/>
    </g>
    <g>
      <path class="cls-7" d="M3401.85,3771.85c-516.9-.24-1033.8-.48-1550.7-.71v-8.9c516.9.24,1033.8.48,1550.7.71v8.9Z"/>
      <path class="cls-2" d="M3401.85,3762.95c-516.9-.24-1033.8-.48-1550.7-.71,12.53-11.54,25.06-23.09,37.59-34.63,516.9.25,1033.8.5,1550.7.75-12.53,11.53-25.06,23.06-37.59,34.6Z"/>
      <path class="cls-4" d="M3401.85,3771.85c12.53-11.53,25.06-23.06,37.59-34.6v-8.9c-12.53,11.53-25.06,23.06-37.59,34.6v8.9Z"/>
    </g>
    <g>
      <path class="cls-7" d="M4952.56,3772.23c-516.9-.24-1033.8-.48-1550.7-.71v-8.9c516.9.24,1033.8.48,1550.7.71v8.9Z"/>
      <path class="cls-2" d="M4952.56,3763.33c-516.9-.24-1033.8-.48-1550.7-.71,12.53-11.54,25.06-23.09,37.59-34.63,516.9.25,1033.8.5,1550.7.75-12.53,11.53-25.06,23.06-37.59,34.6Z"/>
      <path class="cls-4" d="M4952.56,3772.23c12.53-11.53,25.06-23.06,37.59-34.6v-8.9c-12.53,11.53-25.06,23.06-37.59,34.6v8.9Z"/>
    </g>
    <g>
      <path class="cls-7" d="M5139.4,3761.18v8.9c-61.47-.03-122.94-.06-184.41-.09h-2.43c-127.73-.06-255.46-.12-383.18-.18-3.62,0-7.23,0-10.84,0h-.45c-193.71-.09-387.42-.18-581.13-.27h-1.03c-76.94-.04-153.87-.07-230.81-.11v-8.9c273.52.13,547.04.25,820.56.38h.46c2.65,0,5.31,0,7.97,0,126.77.06,253.54.12,380.31.18h.57c3.22,0,6.43,0,9.66,0h.01c58.24.03,116.49.05,174.74.08Z"/>
      <path class="cls-2" d="M5139.4,3726.56v34.62c-58.25-.03-116.5-.06-174.74-.08h-.01c-3.23,0-6.44,0-9.66,0h-.57c-126.77-.06-253.54-.12-380.31-.18-2.66,0-5.32,0-7.97,0h-.46c-273.52-.13-547.04-.25-820.56-.38,2.36-2.18,4.72-4.35,7.09-6.53l3.18-2.94c3.3-3.03,6.59-6.07,9.88-9.1,4.44-4.09,8.88-8.18,13.32-12.27.56-.52,1.12-1.04,1.68-1.55.82-.75,1.63-1.5,2.44-2.24,28.08.01,56.17.03,84.25.04,266.76.13,533.51.26,800.27.38.35,0,.71,0,1.06,0h10.28c101.29.05,202.57.1,303.86.15h4.09c50.96.03,101.92.05,152.88.08Z"/>
    </g>
    <g>
      <path class="cls-7" d="M996.55,3805.39v8.44c-76.12-.04-152.25-.07-228.37-.11h-6.09c-251.72-.12-503.45-.23-755.17-.35-6.99,0-13.98,0-20.97,0v-8.45c6.99,0,13.98,0,20.97,0,329.88.16,659.76.31,989.64.46Z"/>
      <path class="cls-2" d="M1032.2,3772.57c-11.89,10.94-23.78,21.88-35.66,32.82-329.88-.15-659.76-.3-989.64-.46-6.99,0-13.98,0-20.97,0v-32.87c6.98,0,13.98,0,20.97.01,341.76.16,683.53.33,1025.3.5Z"/>
      <path class="cls-4" d="M996.54,3813.84c11.89-10.94,23.78-21.88,35.66-32.82v-8.45c-11.89,10.94-23.78,21.88-35.66,32.82v8.45Z"/>
    </g>
    <g>
      <path class="cls-7" d="M2470.02,3810.04c-490.42-.23-980.85-.45-1471.27-.68v-8.45c490.42.23,980.85.45,1471.27.68v8.45Z"/>
      <path class="cls-2" d="M2470.02,3801.6c-490.42-.23-980.85-.45-1471.27-.68,11.89-10.95,23.78-21.91,35.66-32.86,490.42.24,980.85.48,1471.27.71-11.89,10.94-23.78,21.88-35.66,32.82Z"/>
      <path class="cls-4" d="M2470.02,3810.04c11.89-10.94,23.78-21.88,35.66-32.82v-8.45c-11.89,10.94-23.78,21.88-35.66,32.82v8.45Z"/>
    </g>
    <g>
      <path class="cls-7" d="M3941.29,3810.76c-490.42-.23-980.85-.45-1471.27-.68v-8.45c490.42.23,980.85.45,1471.27.68v8.45Z"/>
      <path class="cls-2" d="M3941.29,3802.31c-490.42-.23-980.85-.45-1471.27-.68,11.89-10.95,23.78-21.91,35.66-32.86,490.42.24,980.85.48,1471.27.71-11.89,10.94-23.78,21.88-35.66,32.82Z"/>
      <path class="cls-4" d="M3941.29,3810.76c11.89-10.94,23.78-21.88,35.66-32.82v-8.45c-11.89,10.94-23.78,21.88-35.66,32.82v8.45Z"/>
    </g>
    <g>
      <path class="cls-7" d="M5139.4,3802.01v8.44c-201.49-.09-402.99-.19-604.48-.28-.98,0-1.97,0-2.95,0-196.58-.09-393.16-.18-589.74-.27h-.93v-8.44h.93c3.06,0,6.11,0,9.17,0,193.52.09,387.05.18,580.57.26,3.39,0,6.77,0,10.16,0,199.09.09,398.18.18,597.27.28Z"/>
      <path class="cls-2" d="M5139.4,3769.16v32.85c-199.09-.09-398.18-.18-597.27-.28-3.39,0-6.77,0-10.16,0-193.52-.09-387.05-.18-580.57-.26-3.06,0-6.11,0-9.17,0h-.93c.31-.29.63-.58.94-.87,10.42-9.6,20.85-19.2,31.26-28.8.81-.75,1.62-1.49,2.43-2.24.02-.02.04-.04.06-.06.32-.3.65-.6.97-.89,193.98.09,387.96.19,581.93.28h.45c3.62,0,7.22,0,10.83,0h.01c127.46.06,254.92.13,382.38.19h3.43c61.14.03,122.28.06,183.41.09Z"/>
    </g>
    <g>
      <path class="cls-7" d="M2281.29,3851.99c-516.9-.24-1033.8-.48-1550.7-.71v-8.9c516.9.24,1033.8.48,1550.7.71v8.9Z"/>
      <path class="cls-2" d="M2281.29,3843.09c-516.9-.24-1033.8-.48-1550.7-.71,12.53-11.54,25.06-23.09,37.59-34.63,516.9.25,1033.8.5,1550.7.75-12.53,11.53-25.06,23.06-37.59,34.6Z"/>
      <path class="cls-4" d="M2281.29,3851.99c12.53-11.53,25.06-23.06,37.59-34.6v-8.9c-12.53,11.53-25.06,23.06-37.59,34.6v8.9Z"/>
    </g>
    <g>
      <path class="cls-7" d="M3831.99,3852.18c-516.9-.24-1033.8-.48-1550.7-.71v-8.9c516.9.24,1033.8.48,1550.7.71v8.9Z"/>
      <path class="cls-2" d="M3831.99,3843.28c-516.9-.24-1033.8-.48-1550.7-.71,12.53-11.54,25.06-23.09,37.59-34.63,516.9.25,1033.8.5,1550.7.75-12.53,11.53-25.06,23.06-37.59,34.6Z"/>
      <path class="cls-4" d="M3831.99,3852.18c12.53-11.53,25.06-23.06,37.59-34.6v-8.9c-12.53,11.53-25.06,23.06-37.59,34.6v8.9Z"/>
    </g>
    <g>
      <path class="cls-7" d="M5139.4,3843.54v8.9c-367.34-.17-734.69-.34-1102.03-.5h-3.01l-202.01-.09h-.35v-8.9h.36c3.22,0,6.44,0,9.66,0,250.85.11,501.69.23,752.54.35,181.61.08,363.22.16,544.84.25Z"/>
      <path class="cls-2" d="M5139.4,3808.92v34.63c-181.62-.08-363.23-.16-544.84-.25-250.85-.12-501.69-.24-752.54-.35-3.22,0-6.44,0-9.66,0h-.36c10.74-9.9,21.48-19.8,32.23-29.7.9-.84,1.82-1.68,2.73-2.52.74-.68,1.47-1.36,2.21-2.04.14-.13.27-.25.41-.38,23.91.01,47.82.03,71.72.04h2.62c196.02.09,392.04.19,588.05.28,1.43,0,2.85,0,4.27,0,201.06.1,402.11.2,603.16.29Z"/>
    </g>
    <g>
      <path class="cls-7" d="M880.81,3894.79v12.05l-244.39-.15h-1.69c-209.28-.13-418.55-.26-627.83-.39-6.99,0-13.98,0-20.97-.01v-12.05c6.99,0,13.98,0,20.97.01,291.31.18,582.6.36,873.91.54Z"/>
      <path class="cls-2" d="M918.61,3847.96c-12.61,15.61-25.2,31.22-37.79,46.83-291.31-.18-582.6-.36-873.91-.54-6.99,0-13.98-.01-20.97-.01v-46.89c6.99,0,13.98.01,20.97.01,241.23.16,482.45.31,723.68.47,1.37,0,2.73,0,4.1,0,61.31.04,122.61.08,183.92.12Z"/>
      <path class="cls-4" d="M880.81,3906.84c12.6-15.61,25.2-31.22,37.8-46.83v-12.05c-12.6,15.61-25.2,31.22-37.8,46.83v12.05Z"/>
    </g>
    <g>
      <path class="cls-7" d="M2440.19,3907.35c-519.79-.32-1039.59-.64-1559.38-.97v-12.05c519.79.32,1039.59.64,1559.38.97v12.05Z"/>
      <path class="cls-2" d="M2440.19,3895.3c-519.79-.32-1039.59-.64-1559.38-.97,12.6-15.63,25.2-31.26,37.8-46.88,519.79.34,1039.59.68,1559.38,1.02-12.6,15.61-25.2,31.22-37.8,46.83Z"/>
      <path class="cls-4" d="M2440.19,3907.35c12.6-15.61,25.2-31.22,37.8-46.83v-12.05c-12.6,15.61-25.2,31.22-37.8,46.83v12.05Z"/>
    </g>
    <g>
      <path class="cls-7" d="M3999.57,3908.37c-519.79-.32-1039.59-.64-1559.38-.97v-12.05c519.79.32,1039.59.64,1559.38.97v12.05Z"/>
      <path class="cls-2" d="M3999.57,3896.32c-519.79-.32-1039.59-.64-1559.38-.97,12.6-15.63,25.2-31.26,37.8-46.88,519.79.34,1039.59.68,1559.38,1.02-12.6,15.61-25.2,31.22-37.8,46.83Z"/>
      <path class="cls-4" d="M3999.57,3908.37c12.6-15.61,25.2-31.22,37.8-46.83v-12.05c-12.6,15.61-25.2,31.22-37.8,46.83v12.05Z"/>
    </g>
    <g>
      <path class="cls-7" d="M5139.4,3895.8v12.05c-379.61-.24-759.23-.48-1138.85-.71h-.98v-12.05h.98c3.24,0,6.48,0,9.72,0,376.38.23,752.76.47,1129.13.7Z"/>
      <path class="cls-2" d="M5139.4,3848.93v46.88c-376.37-.23-752.75-.47-1129.13-.7-3.24,0-6.48,0-9.72,0h-.98c11.59-14.39,23.21-28.77,34.79-43.16.66-.82,1.32-1.63,1.97-2.45.35-.42.69-.85,1.04-1.28,367.35.24,734.69.48,1102.03.72Z"/>
    </g>
    <g>
      <path class="cls-7" d="M596.59,3953.96v12.7c-196.56-.12-393.11-.25-589.68-.36-6.98,0-13.98-.01-20.97-.01v-12.7c6.99,0,13.99,0,20.97.01,196.57.12,393.12.25,589.68.36Z"/>
      <path class="cls-2" d="M636.42,3904.6c-.57.7-1.12,1.39-1.69,2.09-12.71,15.76-25.43,31.52-38.15,47.27-196.56-.12-393.11-.25-589.68-.36-6.98,0-13.98-.01-20.97-.01v-49.4c6.99,0,13.98,0,20.97.01,209.84.14,419.67.28,629.52.41Z"/>
      <path class="cls-4" d="M596.59,3966.66c13.28-16.45,26.56-32.91,39.84-49.36v-12.7c-13.28,16.45-26.56,32.91-39.84,49.36v12.7Z"/>
    </g>
    <g>
      <path class="cls-7" d="M2240.15,3967.2c-547.86-.34-1095.71-.68-1643.57-1.02v-12.7c547.86.34,1095.71.68,1643.57,1.02v12.7Z"/>
      <path class="cls-2" d="M2240.15,3954.5c-547.86-.34-1095.71-.68-1643.57-1.02,13.28-16.47,26.56-32.94,39.84-49.41,547.86.36,1095.71.72,1643.57,1.07-13.28,16.45-26.56,32.91-39.84,49.36Z"/>
      <path class="cls-4" d="M2240.15,3967.2c13.28-16.45,26.56-32.91,39.84-49.36v-12.7c-13.28,16.45-26.56,32.91-39.84,49.36v12.7Z"/>
    </g>
    <g>
      <path class="cls-7" d="M3883.72,3967.47c-547.86-.34-1095.71-.68-1643.57-1.02v-12.7c547.86.34,1095.71.68,1643.57,1.02v12.7Z"/>
      <path class="cls-2" d="M3883.72,3954.77c-547.86-.34-1095.71-.68-1643.57-1.02,13.28-16.47,26.56-32.94,39.84-49.41,547.86.36,1095.71.72,1643.57,1.07-13.28,16.45-26.56,32.91-39.84,49.36Z"/>
      <path class="cls-4" d="M3883.72,3967.47c13.28-16.45,26.56-32.91,39.84-49.36v-12.7c-13.28,16.45-26.56,32.91-39.84,49.36v12.7Z"/>
    </g>
    <g>
      <path class="cls-7" d="M5139.4,3955.06v12.7c-395.73-.25-791.45-.49-1187.18-.74h-2.46c-21.88-.02-43.77-.03-65.65-.04h-.38v-12.69h.39c3.41,0,6.82,0,10.23,0,415.02.26,830.04.52,1245.05.77Z"/>
      <path class="cls-2" d="M5139.4,3905.66v49.4c-415.01-.25-830.03-.51-1245.05-.77-3.41,0-6.82,0-10.23,0h-.39c12.34-15.32,24.7-30.65,37.06-45.97.78-.97,1.57-1.94,2.35-2.91.14-.18.29-.36.43-.53,25.33.02,50.67.03,76,.05h2.78c379.02.25,758.03.5,1137.05.74Z"/>
    </g>
    <g>
      <path class="cls-7" d="M795.67,4010.54v12.05c-81.46-.05-162.92-.1-244.38-.15h-1.69c-180.89-.12-361.8-.23-542.69-.34-6.99,0-13.98-.01-20.97-.01v-12.05c6.99,0,13.98,0,20.97.01,262.92.16,525.84.32,788.76.48Z"/>
      <path class="cls-2" d="M833.46,3963.71c-12.59,15.61-25.2,31.22-37.79,46.83-262.92-.16-525.84-.33-788.76-.48-6.99,0-13.98-.01-20.97-.01v-46.89c6.99,0,13.98.01,20.97.01,196.56.13,393.12.26,589.68.38.84,0,1.67,0,2.5,0,78.12.05,156.25.1,234.37.15Z"/>
      <path class="cls-4" d="M795.66,4022.6c12.6-15.61,25.2-31.22,37.8-46.83v-12.05c-12.6,15.61-25.2,31.22-37.8,46.83v12.05Z"/>
    </g>
    <g>
      <path class="cls-7" d="M2355.04,4023.1c-519.79-.32-1039.59-.64-1559.38-.97v-12.05c519.79.32,1039.59.64,1559.38.97v12.05Z"/>
      <path class="cls-2" d="M2355.04,4011.06c-519.79-.32-1039.59-.64-1559.38-.97,12.6-15.63,25.2-31.26,37.8-46.88,519.79.34,1039.59.68,1559.38,1.02-12.6,15.61-25.2,31.22-37.8,46.83Z"/>
      <path class="cls-4" d="M2355.04,4023.1c12.6-15.61,25.2-31.22,37.8-46.83v-12.05c-12.6,15.61-25.2,31.22-37.8,46.83v12.05Z"/>
    </g>
    <g>
      <path class="cls-7" d="M3914.42,4024.12c-519.79-.32-1039.59-.64-1559.38-.97v-12.05c519.79.32,1039.59.64,1559.38.97v12.05Z"/>
      <path class="cls-2" d="M3914.42,4012.07c-519.79-.32-1039.59-.64-1559.38-.97,12.6-15.63,25.2-31.26,37.8-46.88,519.79.34,1039.59.68,1559.38,1.02-12.6,15.61-25.2,31.22-37.8,46.83Z"/>
      <path class="cls-4" d="M3914.42,4024.12c12.6-15.61,25.2-31.22,37.8-46.83v-12.05c-12.6,15.61-25.2,31.22-37.8,46.83v12.05Z"/>
    </g>
    <g>
      <path class="cls-7" d="M5139.4,4011.61v12.05c-407.99-.25-815.98-.5-1223.98-.76h-.99v-12.05h.98c3.24,0,6.49,0,9.73,0,404.76.25,809.51.5,1214.26.75Z"/>
      <path class="cls-2" d="M5139.4,3964.74v46.87c-404.75-.26-809.5-.5-1214.26-.75-3.24,0-6.49,0-9.73,0h-.98c11.77-14.61,23.55-29.22,35.33-43.83.48-.6.96-1.19,1.44-1.79.34-.42.68-.85,1.02-1.27,395.74.26,791.46.52,1187.18.77Z"/>
    </g>
    <g>
      <path class="cls-7" d="M511.44,4069.72v12.69c-168.17-.11-336.36-.21-504.53-.31-6.99,0-13.98,0-20.97-.01v-12.7c6.99,0,13.98.01,20.97.01,168.17.11,336.36.21,504.53.31Z"/>
      <path class="cls-2" d="M551.28,4020.36c-.57.7-1.12,1.39-1.69,2.09-12.72,15.75-25.44,31.51-38.16,47.27-168.17-.11-336.36-.21-504.53-.31-6.99,0-13.98,0-20.97-.01v-49.4c6.98,0,13.98.01,20.97.01l544.38.36Z"/>
      <path class="cls-4" d="M511.44,4082.42c13.28-16.45,26.56-32.91,39.84-49.36v-12.7c-13.28,16.45-26.56,32.91-39.84,49.36v12.7Z"/>
    </g>
    <g>
      <path class="cls-7" d="M2155.01,4082.95c-547.86-.34-1095.71-.68-1643.57-1.02v-12.7c547.86.34,1095.71.68,1643.57,1.02v12.7Z"/>
      <path class="cls-2" d="M2155.01,4070.25c-547.86-.34-1095.71-.68-1643.57-1.02,13.28-16.47,26.56-32.94,39.84-49.41,547.86.36,1095.71.72,1643.57,1.07-13.28,16.45-26.56,32.91-39.84,49.36Z"/>
      <path class="cls-4" d="M2155.01,4082.95c13.28-16.45,26.56-32.91,39.84-49.36v-12.7c-13.28,16.45-26.56,32.91-39.84,49.36v12.7Z"/>
    </g>
    <g>
      <path class="cls-7" d="M3798.57,4083.22c-547.86-.34-1095.71-.68-1643.57-1.02v-12.7c547.86.34,1095.71.68,1643.57,1.02v12.7Z"/>
      <path class="cls-2" d="M3798.57,4070.52c-547.86-.34-1095.71-.68-1643.57-1.02,13.28-16.47,26.56-32.94,39.84-49.41,547.86.36,1095.71.72,1643.57,1.07-13.28,16.45-26.56,32.91-39.84,49.36Z"/>
      <path class="cls-4" d="M3798.57,4083.22c13.28-16.45,26.56-32.91,39.84-49.36v-12.7c-13.28,16.45-26.56,32.91-39.84,49.36v12.7Z"/>
    </g>
    <g>
      <path class="cls-7" d="M5139.4,4070.87v12.71c-244.54-.16-489.08-.31-733.62-.46h-2c-201.6-.13-403.2-.25-604.81-.38h-.39v-12.7h.39c3.42,0,6.83,0,10.25,0,443.39.28,886.78.55,1330.18.82Z"/>
      <path class="cls-2" d="M5139.4,4021.47v49.4c-443.4-.28-886.79-.55-1330.18-.82-3.42,0-6.83,0-10.25,0h-.39c12.34-15.32,24.7-30.64,37.06-45.96.78-.97,1.56-1.94,2.34-2.91.15-.18.29-.36.44-.54,25.33.02,50.67.03,76.01.05h2.79c407.4.27,814.78.53,1222.18.8Z"/>
    </g>
    <g>
      <path class="cls-7" d="M1249.22,4127.21v12.05c-81.46-.05-162.92-.1-244.38-.15h-1.69c-332.09-.21-664.17-.41-996.24-.62-6.99,0-13.99,0-20.97-.01v-12.05c6.98,0,13.98,0,20.97.01,414.09.26,828.21.51,1242.31.77Z"/>
      <path class="cls-2" d="M1287.01,4080.38c-12.59,15.61-25.19,31.22-37.79,46.83-414.1-.26-828.22-.51-1242.31-.77-6.99,0-13.99,0-20.97-.01v-46.89c6.99,0,13.98,0,20.97.01,168.17.11,336.36.22,504.53.33.68,0,1.36,0,2.04,0h.01c257.84.16,515.68.33,773.52.5Z"/>
      <path class="cls-4" d="M1249.22,4139.26c12.6-15.61,25.2-31.22,37.8-46.83v-12.05c-12.6,15.61-25.2,31.22-37.8,46.83v12.05Z"/>
    </g>
    <g>
      <path class="cls-7" d="M2808.6,4139.77c-519.79-.32-1039.59-.64-1559.38-.97v-12.05c519.79.32,1039.59.64,1559.38.97v12.05Z"/>
      <path class="cls-2" d="M2808.6,4127.72c-519.79-.32-1039.59-.64-1559.38-.97,12.6-15.63,25.2-31.26,37.8-46.88,519.79.34,1039.59.68,1559.38,1.02-12.6,15.61-25.2,31.22-37.8,46.83Z"/>
      <path class="cls-4" d="M2808.6,4139.77c12.6-15.61,25.2-31.22,37.8-46.83v-12.05c-12.6,15.61-25.2,31.22-37.8,46.83v12.05Z"/>
    </g>
    <g>
      <path class="cls-7" d="M4367.98,4140.79c-519.79-.32-1039.59-.64-1559.38-.97v-12.05c519.79.32,1039.59.64,1559.38.97v12.05Z"/>
      <path class="cls-2" d="M4367.98,4128.74c-519.79-.32-1039.59-.64-1559.38-.97,12.6-15.63,25.2-31.26,37.8-46.88,519.79.34,1039.59.68,1559.38,1.02-12.6,15.61-25.2,31.22-37.8,46.83Z"/>
      <path class="cls-4" d="M4367.98,4140.79c12.6-15.61,25.2-31.22,37.8-46.83v-12.05c-12.6,15.61-25.2,31.22-37.8,46.83v12.05Z"/>
    </g>
    <g>
      <path class="cls-7" d="M5139.4,4127.99v12.05c-256.81-.15-513.61-.31-770.43-.48h-.99v-12.05h.98c3.24,0,6.49,0,9.73,0,253.58.16,507.14.31,760.71.47Z"/>
      <path class="cls-2" d="M5139.4,4081.11v46.88c-253.57-.16-507.13-.31-760.71-.47-3.24,0-6.49,0-9.73,0h-.98c11.93-14.8,23.87-29.6,35.8-44.4.32-.4.65-.81.98-1.21.33-.42.68-.84,1.02-1.27,244.55.16,489.08.32,733.62.48Z"/>
    </g>
    <g>
      <path class="cls-7" d="M965,4186.38v12.7c-319.36-.2-638.73-.4-958.09-.59-6.99,0-13.99-.01-20.97-.02v-12.7c6.98,0,13.98.01,20.97.02,319.36.2,638.73.4,958.09.59Z"/>
      <path class="cls-2" d="M1004.84,4137.02c-.57.7-1.12,1.39-1.69,2.09-12.71,15.76-25.44,31.51-38.15,47.27-319.36-.2-638.73-.4-958.09-.59-6.99,0-13.99-.01-20.97-.02v-49.42c6.99,0,13.98,0,20.97.01,332.64.22,665.29.43,997.93.65Z"/>
      <path class="cls-4" d="M965,4199.08c13.28-16.45,26.56-32.91,39.84-49.36v-12.7c-13.28,16.45-26.56,32.91-39.84,49.36v12.7Z"/>
    </g>
    <g>
      <path class="cls-7" d="M2608.56,4199.62c-547.86-.34-1095.71-.68-1643.57-1.02v-12.7c547.86.34,1095.71.68,1643.57,1.02v12.7Z"/>
      <path class="cls-2" d="M2608.56,4186.92c-547.86-.34-1095.71-.68-1643.57-1.02,13.28-16.47,26.56-32.94,39.84-49.41,547.86.36,1095.71.72,1643.57,1.07-13.28,16.45-26.56,32.91-39.84,49.36Z"/>
      <path class="cls-4" d="M2608.56,4199.62c13.28-16.45,26.56-32.91,39.84-49.36v-12.7c-13.28,16.45-26.56,32.91-39.84,49.36v12.7Z"/>
    </g>
    <g>
      <path class="cls-7" d="M4252.13,4199.89c-547.86-.34-1095.71-.68-1643.57-1.02v-12.7c547.86.34,1095.71.68,1643.57,1.02v12.7Z"/>
      <path class="cls-2" d="M4252.13,4187.19c-547.86-.34-1095.71-.68-1643.57-1.02,13.28-16.47,26.56-32.94,39.84-49.41,547.86.36,1095.71.72,1643.57,1.07-13.28,16.45-26.56,32.91-39.84,49.36Z"/>
      <path class="cls-4" d="M4252.13,4199.89c13.28-16.45,26.56-32.91,39.84-49.36v-12.7c-13.28,16.45-26.56,32.91-39.84,49.36v12.7Z"/>
    </g>
    <g>
      <path class="cls-7" d="M5139.4,4187.26v12.7c-295.63-.19-591.25-.37-886.88-.55h-.39v-12.7h.39c3.42,0,6.83,0,10.25,0,292.21.18,584.42.36,876.63.55Z"/>
      <path class="cls-2" d="M5139.4,4137.85v49.41c-292.21-.18-584.42-.36-876.63-.55-3.42,0-6.83,0-10.25,0h-.39c12.36-15.32,24.71-30.65,37.06-45.96.78-.97,1.57-1.94,2.35-2.91.14-.18.29-.36.43-.53,25.34.02,50.67.03,76.01.05h2.78c256.22.17,512.43.33,768.64.5Z"/>
    </g>
  </g>
  <path class="cls-3" d="M1198.87,1244.28c1.41,640.26,2.82,1280.52,4.23,1920.78C801.86,3301.69,400.63,3438.32-.6,3574.95V920.04c399.82,108.08,799.65,216.16,1199.47,324.24Z"/>
  <path class="cls-6" d="M5119.46,1249.58c-1306.87-1.77-2613.73-3.53-3920.6-5.3C799.04,1136.2,399.22,1028.12-.6,920.04h5122.41c-.78,109.85-1.56,219.7-2.34,329.54Z"/>
</svg>