<?xml version="1.0" encoding="UTF-8"?>
<svg id="Layer_1" data-name="Layer 1" xmlns="http://www.w3.org/2000/svg" xmlns:xlink="http://www.w3.org/1999/xlink" viewBox="0 0 5120 5120">
  <defs>
    <style>
      .cls-1 {
        fill: url(#linear-gradient-2);
      }

      .cls-2 {
        fill: #c49a6c;
      }

      .cls-3 {
        fill: url(#linear-gradient-4);
      }

      .cls-4 {
        fill: #8b5e3c;
      }

      .cls-5 {
        fill: url(#linear-gradient-3);
      }

      .cls-6 {
        fill: url(#linear-gradient-5);
      }

      .cls-7 {
        fill: #a97c50;
      }

      .cls-8 {
        fill: #939598;
      }

      .cls-9 {
        fill: #754c29;
      }

      .cls-10 {
        fill: #d1d3d4;
      }

      .cls-11 {
        fill: url(#linear-gradient-7);
      }

      .cls-12 {
        fill: #603913;
      }

      .cls-13 {
        fill: url(#linear-gradient-6);
      }

      .cls-14 {
        fill: url(#linear-gradient);
      }

      .cls-15 {
        fill: #bcbec0;
      }
    </style>
    <linearGradient id="linear-gradient" x1="2576.39" y1="3647.8" x2="2553.42" y2="-15.98" gradientUnits="userSpaceOnUse">
      <stop offset="0" stop-color="#9d9fa2"/>
      <stop offset="1" stop-color="#cfd1d2"/>
    </linearGradient>
    <linearGradient id="linear-gradient-2" x1="4598.62" y1="4515.85" x2="4595.42" y2="4006.38" gradientUnits="userSpaceOnUse">
      <stop offset="0" stop-color="#5fbb46"/>
      <stop offset="1" stop-color="#bdce53"/>
    </linearGradient>
    <linearGradient id="linear-gradient-3" x1="4472.39" y1="5098.79" x2="4468.04" y2="4404.04" xlink:href="#linear-gradient-2"/>
    <linearGradient id="linear-gradient-4" x1="1106.47" y1="2131.71" x2="-265.28" y2="2106.21" xlink:href="#linear-gradient"/>
    <linearGradient id="linear-gradient-5" x1="2558.94" y1="384.51" x2="2565.75" y2="-378.38" gradientUnits="userSpaceOnUse">
      <stop offset="0" stop-color="#9d9fa2"/>
      <stop offset=".04" stop-color="#a1a3a6"/>
      <stop offset=".36" stop-color="#c2c4c5"/>
      <stop offset=".53" stop-color="#cfd1d2"/>
    </linearGradient>
    <linearGradient id="linear-gradient-6" x1="611.19" y1="3608.35" x2="598.64" y2="1653.76" gradientUnits="userSpaceOnUse">
      <stop offset=".21" stop-color="#886247"/>
      <stop offset=".52" stop-color="#8b6649"/>
      <stop offset=".85" stop-color="#947250"/>
      <stop offset="1" stop-color="#9b7b55"/>
    </linearGradient>
    <linearGradient id="linear-gradient-7" x1="607.12" y1="2824.72" x2="619.99" y2="1994.95" gradientUnits="userSpaceOnUse">
      <stop offset="0" stop-color="#b78461"/>
      <stop offset=".45" stop-color="#bd8f67"/>
      <stop offset="1" stop-color="#c3996c"/>
    </linearGradient>
  </defs>
  <rect class="cls-14" x="5" width="5119.81" height="3631.82"/>
  <g>
    <path class="cls-7" d="M5116.81,4223.41v8.88c-10.07,0-20.14,0-30.21-.02h-5.23v-8.88c11.81.01,23.63.01,35.44.02Z"/>
    <path class="cls-2" d="M5116.81,4188.82v34.59c-11.81,0-23.63,0-35.44-.02,10.37-11.52,20.74-23.05,31.11-34.57h4.33Z"/>
  </g>
  <g>
    <path class="cls-7" d="M5116.81,4267.07v9.37c-20.5-.01-41-.02-61.5-.03v-9.37l61.5.03Z"/>
    <path class="cls-2" d="M5116.81,4230.63v36.44l-61.5-.03c10.43-11.59,20.86-23.18,31.29-34.77.5-.55,1-1.11,1.5-1.66,9.57,0,19.14,0,28.71.02Z"/>
  </g>
  <g>
    <path class="cls-7" d="M5116.81,4326.24v13.43c-91.81-.07-183.62-.15-275.43-.22h-5.72v-13.43c93.72.07,187.43.14,281.15.22Z"/>
    <path class="cls-2" d="M5116.81,4273.96v52.28c-93.72-.08-187.43-.15-281.15-.22,11.35-17.42,22.71-34.84,34.06-52.26,61.86.05,123.73.1,185.59.15,20.5.02,41,.03,61.5.05Z"/>
  </g>
  <g>
    <path class="cls-7" d="M363.68,4391.36v14.15c-119.04-.09-238.07-.18-357.11-.27-6.68-.01-13.36-.01-20.03-.02v-14.15c6.67,0,13.35,0,20.03.02,119.04.09,238.07.18,357.11.27Z"/>
    <path class="cls-2" d="M399.58,4336.34c-.5.77-1.01,1.55-1.51,2.32-11.47,17.57-22.93,35.13-34.39,52.7-119.04-.09-238.07-.18-357.11-.27-6.68,0-13.36-.02-20.03-.02v-55.06c6.68,0,13.35,0,20.03,0,131,.11,262.01.21,393.01.32Z"/>
    <path class="cls-4" d="M363.68,4405.51c11.97-18.34,23.93-36.68,35.9-55.02v-14.16c-11.97,18.34-23.93,36.68-35.9,55.02v14.16Z"/>
  </g>
  <g>
    <path class="cls-7" d="M5116.81,4392.26v14.15c-103.23-.08-206.45-.16-309.68-.24v-14.15c103.23.08,206.45.16,309.68.24Z"/>
    <path class="cls-2" d="M5116.81,4337.15v55.11c-103.23-.08-206.45-.16-309.68-.24,11.41-17.52,22.83-35.05,34.25-52.57.55-.84,1.1-1.68,1.65-2.52,91.26.07,182.52.15,273.78.22Z"/>
  </g>
  <g>
    <path class="cls-7" d="M5116.81,4455.33v13.44c-117.39-.1-234.78-.19-352.17-.28h-5.72v-13.43c119.3.09,238.59.18,357.89.27Z"/>
    <path class="cls-2" d="M5116.81,4403.06v52.27c-119.3-.09-238.59-.18-357.89-.27,11.36-17.42,22.71-34.84,34.07-52.26,4.71,0,9.43,0,14.14,0,103.23.08,206.45.16,309.68.25Z"/>
  </g>
  <g>
    <path class="cls-7" d="M286.94,4520.39v14.16c-93.46-.07-186.91-.14-280.37-.22-6.67,0-13.35,0-20.03,0v-14.16c6.68,0,13.36,0,20.03,0,93.46.08,186.91.15,280.37.22Z"/>
    <path class="cls-2" d="M322.85,4465.37c-.5.77-1.01,1.55-1.51,2.32-11.47,17.57-22.93,35.13-34.4,52.7-93.46-.07-186.91-.14-280.37-.22-6.67,0-13.35,0-20.03,0v-55.06c6.67,0,13.35.01,20.03.01,105.43.09,210.85.17,316.28.26Z"/>
    <path class="cls-4" d="M286.94,4534.55c11.97-18.34,23.93-36.68,35.9-55.02v-14.16c-11.97,18.34-23.93,36.68-35.9,55.02v14.16Z"/>
  </g>
  <g>
    <g>
      <path class="cls-7" d="M721.52,3711.11v13.43c-81.29-.06-162.58-.11-243.87-.17h-1.67c-144.51-.1-289.02-.2-433.53-.3-7.4-.01-14.78-.01-22.18-.02v-13.43c7.4,0,14.78,0,22.18.02,226.35.16,452.72.31,679.08.47Z"/>
      <path class="cls-2" d="M759.25,3658.91c-.62.86-1.24,1.72-1.86,2.58-11.96,16.54-23.91,33.08-35.87,49.62-226.35-.16-452.72-.31-679.08-.47-7.4,0-14.78,0-22.18-.02v-52.25c7.4,0,14.78,0,22.18,0,238.93.18,477.87.35,716.8.53Z"/>
      <path class="cls-4" d="M721.52,3724.54c12.57-17.4,25.15-34.8,37.72-52.2v-13.43c-12.57,17.4-25.15,34.8-37.72,52.2v13.43Z"/>
    </g>
    <g>
      <path class="cls-7" d="M636.55,3840.14v13.43c-81.29-.06-162.58-.11-243.87-.17h-1.67c-116.19-.08-232.38-.16-348.56-.24-7.4,0-14.79,0-22.18,0v-13.44c7.39,0,14.78,0,22.18.02,198.03.14,396.07.27,594.11.41Z"/>
      <path class="cls-2" d="M674.27,3787.94c-12.57,17.4-25.15,34.8-37.72,52.2-198.04-.14-396.08-.27-594.11-.41-7.4,0-14.79,0-22.18-.02v-52.25c7.4,0,14.78,0,22.18.02,131.82.09,263.63.19,395.45.29h2.49c77.96.06,155.93.11,233.88.17Z"/>
      <path class="cls-4" d="M636.55,3853.57c12.57-17.4,25.15-34.8,37.72-52.2v-13.43c-12.57,17.4-25.15,34.8-37.72,52.2v13.43Z"/>
    </g>
    <g>
      <path class="cls-7" d="M807.87,4033.85v14.16c-255.15-.18-510.29-.35-765.43-.53-7.4,0-14.79,0-22.18-.02v-14.16c7.39,0,14.78,0,22.18.02,255.14.18,510.28.35,765.43.53Z"/>
      <path class="cls-2" d="M847.63,3978.83c-2.15,2.97-4.3,5.95-6.44,8.92-11.11,15.37-22.21,30.73-33.31,46.1-255.15-.18-510.29-.35-765.43-.53-7.4-.01-14.79-.01-22.18-.02v-55.08c7.4,0,14.78.02,22.18.02,268.39.2,536.79.39,805.18.59Z"/>
      <path class="cls-4" d="M807.87,4048.01c13.25-18.34,26.5-36.68,39.76-55.02v-14.16c-13.25,18.34-26.5,36.68-39.76,55.02v14.16Z"/>
    </g>
    <path class="cls-1" d="M5140,3916.63v685.06c-202.34-.19-404.68-.38-607.02-.57h-.41v-20.2c8.08-15.05,16.15-30.11,24.22-45.17.64-1.18,1.27-2.37,1.9-3.55.27-.5.54-.99.8-1.49,1.63-3.04,3.26-6.07,4.88-9.11.64-1.19,1.28-2.37,1.91-3.56,1.83-3.41,3.66-6.81,5.48-10.22.83-1.54,1.66-3.09,2.48-4.63.16-.28.31-.57.46-.85,26.8.03,53.6.05,80.39.08v-15.63c3.01-5.61,6.03-11.23,9.04-16.85.16-.29.32-.59.48-.89.43-.81.87-1.62,1.3-2.44.64-1.19,1.28-2.38,1.92-3.57,1.17-2.17,2.33-4.34,3.5-6.52.16-.3.32-.6.48-.9,7.05-13.14,14.1-26.3,21.16-39.44-213.24-.2-426.48-.4-639.71-.6h-.41v-20.2c.58-1.08,1.16-2.16,1.74-3.24.02-.04.04-.08.06-.12,9.3-17.35,18.61-34.7,27.91-52.06.08-.14.15-.28.23-.43.44-.82.88-1.64,1.32-2.46.02-.04.05-.08.07-.13,1.86-3.47,3.72-6.94,5.58-10.41.07-.14.15-.28.23-.42.68-1.28,1.36-2.55,2.05-3.83.82-1.54,1.65-3.09,2.48-4.63.15-.29.31-.57.46-.86,26.8.03,53.6.05,80.4.08v-15.62c4.44-8.29,8.89-16.58,13.34-24.87.36-.68.72-1.37,1.09-2.05.07-.14.15-.28.23-.42,1.23-2.3,2.46-4.59,3.69-6.89,6.22-11.6,12.44-23.21,18.66-34.81.12-.22.24-.44.36-.66-23.14-.03-46.29-.05-69.43-.07h-.41v-20.19c4.03-7.53,8.07-15.06,12.1-22.58,9.03-16.85,18.06-33.69,27.09-50.53.83-1.54,1.65-3.08,2.48-4.62.15-.29.31-.57.46-.86,26.8.03,53.6.05,80.4.08v-15.62c12.26-22.88,24.54-45.76,36.8-68.64l-213.66-.15h-.39v-14.16c12.32-17.08,24.65-34.15,36.98-51.23.78-1.08,1.56-2.17,2.35-3.25.14-.2.29-.4.43-.6,25.28.02,50.57.04,75.85.06v-10.96c11.35-15.73,22.71-31.46,34.06-47.19.88-1.22,1.76-2.43,2.64-3.65.34-.47.68-.95,1.02-1.42,299.5.22,598.99.44,898.48.66Z"/>
    <g>
      <path class="cls-7" d="M1398.09,3608.69v8.88c-74.25-.04-148.5-.07-222.74-.11h-1.54l-1131.36-.57c-7.4,0-14.78,0-22.18,0v-8.89c7.4,0,14.78,0,22.18,0,451.88.23,903.77.46,1355.65.69Z"/>
      <path class="cls-2" d="M1432.54,3574.15c-11.48,11.51-22.97,23.02-34.45,34.54-451.88-.23-903.77-.46-1355.65-.69-7.4,0-14.78,0-22.18,0v-34.59c7.4,0,14.78,0,22.18.02,463.37.24,926.74.49,1390.1.73Z"/>
      <path class="cls-4" d="M1398.09,3617.57c11.48-11.51,22.97-23.02,34.45-34.53v-8.88c-11.48,11.51-22.97,23.02-34.45,34.53v8.88Z"/>
    </g>
    <g>
      <path class="cls-7" d="M2819.41,3617.95c-473.77-.24-947.55-.48-1421.32-.71v-8.88c473.77.24,947.55.48,1421.32.71v8.88Z"/>
      <path class="cls-2" d="M2819.41,3609.06c-473.77-.24-947.55-.48-1421.32-.71,11.48-11.52,22.97-23.05,34.45-34.57,473.77.25,947.55.5,1421.32.75-11.48,11.51-22.97,23.02-34.45,34.53Z"/>
      <path class="cls-4" d="M2819.41,3617.95c11.48-11.51,22.97-23.02,34.45-34.53v-8.88c-11.48,11.51-22.97,23.02-34.45,34.53v8.88Z"/>
    </g>
    <g>
      <path class="cls-7" d="M4240.74,3618.7c-473.77-.24-947.55-.48-1421.32-.71v-8.88c473.77.24,947.55.48,1421.32.71v8.88Z"/>
      <path class="cls-2" d="M4240.74,3609.81c-473.77-.24-947.55-.48-1421.32-.71,11.48-11.52,22.97-23.05,34.45-34.57,473.77.25,947.55.5,1421.32.75-11.48,11.51-22.97,23.02-34.45,34.53Z"/>
      <path class="cls-4" d="M4240.74,3618.7c11.48-11.51,22.97-23.02,34.45-34.53v-8.88c-11.48,11.51-22.97,23.02-34.45,34.53v8.88Z"/>
    </g>
    <g>
      <path class="cls-7" d="M5140,3609.37v8.88c-299.46-.15-598.91-.3-898.36-.45h-.9v-8.89h9.77c296.5.16,592.99.31,889.49.46Z"/>
      <path class="cls-2" d="M5140,3574.8v34.57c-296.5-.15-592.99-.3-889.49-.46h-9.77c11.17-11.21,22.34-22.41,33.51-33.63.32-.31.63-.63.94-.94,288.27.15,576.54.3,864.81.46Z"/>
    </g>
    <g>
      <path class="cls-7" d="M1139.03,3652.32v9.36c-126.59-.06-253.19-.13-379.78-.19h-1.86c-238.31-.12-476.63-.24-714.94-.36-7.4,0-14.78,0-22.18,0v-9.36c7.4,0,14.78,0,22.18,0,365.53.18,731.05.37,1096.58.55Z"/>
      <path class="cls-2" d="M1175.35,3615.92c-.51.51-1.02,1.03-1.54,1.54-11.59,11.62-23.19,23.24-34.78,34.86-365.53-.18-731.05-.37-1096.58-.55-7.4,0-14.78,0-22.18,0v-36.45c7.4,0,14.78.01,22.18.01,377.63.2,755.27.4,1132.9.6Z"/>
      <path class="cls-4" d="M1139.03,3661.68c12.1-12.13,24.21-24.26,36.31-36.4v-9.36c-12.1,12.13-24.21,24.26-36.31,36.4v9.36Z"/>
    </g>
    <g>
      <path class="cls-7" d="M2637.09,3662.08c-499.35-.25-998.7-.5-1498.06-.75v-9.36c499.35.25,998.7.5,1498.06.75v9.36Z"/>
      <path class="cls-2" d="M2637.09,3652.72c-499.35-.25-998.7-.5-1498.06-.75,12.1-12.15,24.21-24.29,36.31-36.44,499.35.26,998.7.53,1498.06.79-12.1,12.13-24.21,24.26-36.31,36.4Z"/>
      <path class="cls-4" d="M2637.09,3662.08c12.1-12.13,24.21-24.26,36.31-36.4v-9.36c-12.1,12.13-24.21,24.26-36.31,36.4v9.36Z"/>
    </g>
    <g>
      <path class="cls-7" d="M4135.14,3662.28c-499.35-.25-998.7-.5-1498.06-.75v-9.36c499.35.25,998.7.5,1498.06.75v9.36Z"/>
      <path class="cls-2" d="M4135.14,3652.91c-499.35-.25-998.7-.5-1498.06-.75,12.1-12.15,24.21-24.29,36.31-36.44,499.35.26,998.7.53,1498.06.79-12.1,12.13-24.21,24.26-36.31,36.4Z"/>
      <path class="cls-4" d="M4135.14,3662.28c12.1-12.13,24.21-24.26,36.31-36.4v-9.36c-12.1,12.13-24.21,24.26-36.31,36.4v9.36Z"/>
    </g>
    <g>
      <path class="cls-7" d="M5140,3653.06v9.36c-334.83-.16-669.66-.33-1004.5-.5h-.36v-9.36h9.7c331.73.17,663.44.34,995.16.5Z"/>
      <path class="cls-2" d="M5140,3616.63v36.43c-331.72-.16-663.43-.33-995.16-.5h-9.7c11.27-11.3,22.52-22.6,33.78-33.9.72-.71,1.43-1.43,2.14-2.14l.4-.4c23.09,0,46.19.02,69.28.04h2.54c298.91.15,597.81.31,896.72.47Z"/>
    </g>
    <g>
      <path class="cls-7" d="M2277.67,3725.11c-518.72-.36-1037.43-.72-1556.15-1.08v-13.43c518.72.36,1037.43.72,1556.15,1.08v13.43Z"/>
      <path class="cls-2" d="M2277.67,3711.68c-518.72-.36-1037.43-.72-1556.15-1.08,12.57-17.42,25.15-34.84,37.72-52.26,518.72.38,1037.43.76,1556.15,1.14-12.57,17.4-25.15,34.8-37.72,52.2Z"/>
      <path class="cls-4" d="M2277.67,3725.11c12.57-17.4,25.15-34.8,37.72-52.2v-13.43c-12.57,17.4-25.15,34.8-37.72,52.2v13.43Z"/>
    </g>
    <g>
      <path class="cls-7" d="M3833.82,3726.24c-518.72-.36-1037.43-.72-1556.15-1.08v-13.43c518.72.36,1037.43.72,1556.15,1.08v13.43Z"/>
      <path class="cls-2" d="M3833.82,3712.81c-518.72-.36-1037.43-.72-1556.15-1.08,12.57-17.42,25.15-34.84,37.72-52.26,518.72.38,1037.43.76,1556.15,1.14-12.57,17.4-25.15,34.8-37.72,52.2Z"/>
      <path class="cls-4" d="M3833.82,3726.24c12.57-17.4,25.15-34.8,37.72-52.2v-13.43c-12.57,17.4-25.15,34.8-37.72,52.2v13.43Z"/>
    </g>
    <g>
      <path class="cls-7" d="M5140,3712.36v13.43c-435.06-.31-870.12-.61-1305.19-.91h-.99v-13.43h.98c3.24,0,6.47,0,9.71,0,431.83.3,863.66.6,1295.49.9Z"/>
      <path class="cls-2" d="M5140,3660.12v52.24c-431.83-.3-863.66-.6-1295.49-.9-3.24,0-6.47,0-9.71,0h-.98c11.86-16.43,23.72-32.87,35.59-49.3.36-.51.73-1.03,1.11-1.54.34-.47.68-.95,1.02-1.42,87.87.06,175.73.13,263.6.19.96,0,1.92,0,2.88,0h.01c333.99.24,667.98.48,1001.97.73Z"/>
    </g>
    <g>
      <path class="cls-7" d="M2078.05,3791.82c-546.72-.38-1093.44-.76-1640.16-1.14v-14.16c546.72.38,1093.44.76,1640.16,1.14v14.16Z"/>
      <path class="cls-2" d="M2078.05,3777.67c-546.72-.38-1093.44-.76-1640.16-1.14,13.25-18.36,26.5-36.72,39.76-55.08,546.72.4,1093.44.8,1640.16,1.2-13.25,18.34-26.5,36.68-39.76,55.02Z"/>
      <path class="cls-4" d="M2078.05,3791.82c13.25-18.34,26.5-36.68,39.76-55.02v-14.16c-13.25,18.34-26.5,36.68-39.76,55.02v14.16Z"/>
    </g>
    <g>
      <path class="cls-7" d="M3718.21,3792.12c-546.72-.38-1093.44-.76-1640.16-1.14v-14.16c546.72.38,1093.44.76,1640.16,1.14v14.16Z"/>
      <path class="cls-2" d="M3718.21,3777.97c-546.72-.38-1093.44-.76-1640.16-1.14,13.25-18.36,26.5-36.72,39.76-55.08,546.72.4,1093.44.8,1640.16,1.2-13.25,18.34-26.5,36.68-39.76,55.02Z"/>
      <path class="cls-4" d="M3718.21,3792.12c13.25-18.34,26.5-36.68,39.76-55.02v-14.16c-13.25,18.34-26.5,36.68-39.76,55.02v14.16Z"/>
    </g>
    <g>
      <path class="cls-7" d="M5140,3778.42v14.15c-451.14-.32-902.29-.63-1353.43-.93h-1.44c-.34,0-.68,0-1.02,0-21.84-.02-43.68-.03-65.52-.05h-.38v-14.16h.39c3.41,0,6.81.01,10.22.01,470.39.32,940.79.65,1411.18.98Z"/>
      <path class="cls-2" d="M5140,3723.35v55.07c-470.39-.33-940.79-.66-1411.18-.98-3.41,0-6.81-.01-10.22-.01h-.39c12.32-17.08,24.66-34.15,36.98-51.23.78-1.08,1.57-2.17,2.35-3.25.14-.2.29-.4.43-.6,25.28.02,50.57.04,75.85.06h2.78c434.47.32,868.93.63,1303.4.94Z"/>
    </g>
    <g>
      <path class="cls-7" d="M2192.7,3854.14c-518.72-.36-1037.43-.72-1556.15-1.08v-13.43c518.72.36,1037.43.72,1556.15,1.08v13.43Z"/>
      <path class="cls-2" d="M2192.7,3840.71c-518.72-.36-1037.43-.72-1556.15-1.08,12.57-17.42,25.15-34.84,37.72-52.26,518.72.38,1037.43.76,1556.15,1.14-12.57,17.4-25.15,34.8-37.72,52.2Z"/>
      <path class="cls-4" d="M2192.7,3854.14c12.57-17.4,25.15-34.8,37.72-52.2v-13.43c-12.57,17.4-25.15,34.8-37.72,52.2v13.43Z"/>
    </g>
    <g>
      <path class="cls-7" d="M3748.85,3855.28c-518.72-.36-1037.43-.72-1556.15-1.08v-13.43c518.72.36,1037.43.72,1556.15,1.08v13.43Z"/>
      <path class="cls-2" d="M3748.85,3841.85c-518.72-.36-1037.43-.72-1556.15-1.08,12.57-17.42,25.15-34.84,37.72-52.26,518.72.38,1037.43.76,1556.15,1.14-12.57,17.4-25.15,34.8-37.72,52.2Z"/>
      <path class="cls-4" d="M3748.85,3855.28c12.57-17.4,25.15-34.8,37.72-52.2v-13.43c-12.57,17.4-25.15,34.8-37.72,52.2v13.43Z"/>
    </g>
    <g>
      <path class="cls-7" d="M5140,3841.45v13.43c-463.39-.32-926.79-.64-1390.17-.96h-.98v-13.43h.98c3.23,0,6.47,0,9.7,0,460.15.31,920.31.63,1380.47.95Z"/>
      <path class="cls-2" d="M5140,3789.21v52.24c-460.16-.32-920.32-.64-1380.47-.95-3.23,0-6.47,0-9.7,0h-.98c11.75-16.28,23.51-32.57,35.26-48.85.48-.67.96-1.33,1.44-2,.34-.47.68-.94,1.02-1.41,451.14.32,902.28.65,1353.43.98Z"/>
    </g>
    <g>
      <path class="cls-7" d="M1993.08,3921.45c-546.72-.38-1093.44-.76-1640.16-1.14v-14.16c546.72.38,1093.44.76,1640.16,1.14v14.16Z"/>
      <path class="cls-2" d="M1993.08,3907.3c-546.72-.38-1093.44-.76-1640.16-1.14,13.25-18.36,26.5-36.72,39.76-55.08,546.72.4,1093.44.8,1640.16,1.2-13.25,18.34-26.5,36.68-39.76,55.02Z"/>
      <path class="cls-4" d="M1993.08,3921.45c13.25-18.34,26.5-36.68,39.76-55.02v-14.16c-13.25,18.34-26.5,36.68-39.76,55.02v14.16Z"/>
    </g>
    <g>
      <path class="cls-7" d="M3633.24,3921.16c-546.72-.38-1093.44-.76-1640.16-1.14v-14.16c546.72.38,1093.44.76,1640.16,1.14v14.16Z"/>
      <path class="cls-2" d="M3633.24,3907c-546.72-.38-1093.44-.76-1640.16-1.14,13.25-18.36,26.5-36.72,39.76-55.08,546.72.4,1093.44.8,1640.16,1.2-13.25,18.34-26.5,36.68-39.76,55.02Z"/>
      <path class="cls-4" d="M3633.24,3921.16c13.25-18.34,26.5-36.68,39.76-55.02v-14.16c-13.25,18.34-26.5,36.68-39.76,55.02v14.16Z"/>
    </g>
    <g>
      <path class="cls-7" d="M5140,3907.51v14.15c-299.49-.2-598.99-.41-898.48-.62h-3.66c-201.41-.14-402.82-.28-604.23-.42h-.39v-14.16h.39c3.41,0,6.82,0,10.23,0,498.71.34,997.43.69,1496.14,1.04Z"/>
      <path class="cls-2" d="M5140,3852.45v55.06c-498.71-.35-997.43-.7-1496.14-1.04-3.41,0-6.82,0-10.23,0h-.39c12.32-17.08,24.65-34.15,36.98-51.23.78-1.08,1.56-2.17,2.35-3.25.14-.2.29-.4.43-.6,25.28.02,50.57.04,75.85.06h2.78c462.79.34,925.58.67,1388.37,1.01Z"/>
    </g>
    <g>
      <path class="cls-7" d="M1089.17,3967.78v13.43c-80.52-.06-161.03-.11-241.55-.17h-6.44c-266.24-.19-532.49-.37-798.74-.55-7.4-.01-14.78-.01-22.18-.01v-13.44c7.4,0,14.78,0,22.18,0,348.91.25,697.82.49,1046.73.73Z"/>
      <path class="cls-2" d="M1126.89,3915.58c-12.58,17.4-25.15,34.8-37.72,52.2-348.91-.24-697.82-.48-1046.73-.73-7.4,0-14.78,0-22.18,0v-52.27c7.39,0,14.78.01,22.18.02,361.47.26,722.96.53,1084.45.79Z"/>
      <path class="cls-4" d="M1089.17,3981.21c12.57-17.4,25.15-34.8,37.72-52.2v-13.43c-12.57,17.4-25.15,34.8-37.72,52.2v13.43Z"/>
    </g>
    <g>
      <path class="cls-7" d="M2647.65,3981.89c-518.72-.36-1037.43-.72-1556.15-1.08v-13.43c518.72.36,1037.43.72,1556.15,1.08v13.43Z"/>
      <path class="cls-2" d="M2647.65,3968.46c-518.72-.36-1037.43-.72-1556.15-1.08,12.57-17.42,25.15-34.84,37.72-52.26,518.72.38,1037.43.76,1556.15,1.14-12.57,17.4-25.15,34.8-37.72,52.2Z"/>
      <path class="cls-4" d="M2647.65,3981.89c12.57-17.4,25.15-34.8,37.72-52.2v-13.43c-12.57,17.4-25.15,34.8-37.72,52.2v13.43Z"/>
    </g>
    <g>
      <path class="cls-7" d="M4203.8,3983.03c-518.72-.36-1037.43-.72-1556.15-1.08v-13.43c518.72.36,1037.43.72,1556.15,1.08v13.43Z"/>
      <path class="cls-2" d="M4203.8,3969.6c-518.72-.36-1037.43-.72-1556.15-1.08,12.57-17.42,25.15-34.84,37.72-52.26,518.72.38,1037.43.76,1556.15,1.14-12.57,17.4-25.15,34.8-37.72,52.2Z"/>
      <path class="cls-4" d="M4203.8,3983.03c12.57-17.4,25.15-34.8,37.72-52.2v-13.43c-12.57,17.4-25.15,34.8-37.72,52.2v13.43Z"/>
    </g>
    <g>
      <path class="cls-7" d="M5140,3968.88v13.43c-311.74-.22-623.47-.43-935.21-.65h-.99v-13.43h.99c3.23,0,6.47.01,9.7.01,308.51.21,617.01.43,925.51.64Z"/>
      <path class="cls-2" d="M5140,3916.63v52.25c-308.5-.21-617-.43-925.51-.64-3.23,0-6.47-.01-9.7-.01h-.99c11.35-15.73,22.71-31.46,34.06-47.19.88-1.22,1.76-2.43,2.64-3.65.34-.47.68-.95,1.02-1.42,299.5.22,598.99.44,898.48.66Z"/>
    </g>
    <g>
      <path class="cls-7" d="M2448.03,4048.61c-546.72-.38-1093.44-.76-1640.16-1.14v-14.16c546.72.38,1093.44.76,1640.16,1.14v14.16Z"/>
      <path class="cls-2" d="M2448.03,4034.45c-546.72-.38-1093.44-.76-1640.16-1.14,13.25-18.36,26.5-36.72,39.76-55.08,546.72.4,1093.44.8,1640.16,1.2-13.25,18.34-26.5,36.68-39.76,55.02Z"/>
      <path class="cls-4" d="M2448.03,4048.61c13.25-18.34,26.5-36.68,39.76-55.02v-14.16c-13.25,18.34-26.5,36.68-39.76,55.02v14.16Z"/>
    </g>
    <g>
      <path class="cls-7" d="M4088.19,4048.9c-546.72-.38-1093.44-.76-1640.16-1.14v-14.16c546.72.38,1093.44.76,1640.16,1.14v14.16Z"/>
      <path class="cls-2" d="M4088.19,4034.75c-546.72-.38-1093.44-.76-1640.16-1.14,13.25-18.36,26.5-36.72,39.76-55.08,546.72.4,1093.44.8,1640.16,1.2-13.25,18.34-26.5,36.68-39.76,55.02Z"/>
      <path class="cls-4" d="M4088.19,4048.9c13.25-18.34,26.5-36.68,39.76-55.02v-14.16c-13.25,18.34-26.5,36.68-39.76,55.02v14.16Z"/>
    </g>
    <g>
      <path class="cls-7" d="M5140,4034.93v14.16c-278.2-.19-556.39-.38-834.58-.57h-3.18l-213.66-.15h-.39v-14.16h.39c3.41,0,6.81,0,10.22,0h.01c265.32.18,530.62.36,795.94.55,81.75.05,163.5.11,245.25.16Z"/>
      <path class="cls-2" d="M5140,3979.87v55.07c-81.75-.05-163.5-.11-245.25-.17-265.32-.19-530.62-.37-795.94-.55h-.01c-3.41,0-6.81,0-10.22,0h-.39c12.32-17.08,24.65-34.15,36.98-51.23.78-1.08,1.56-2.17,2.35-3.25.14-.2.29-.4.43-.6,25.28.02,50.57.04,75.85.06h2.77c311.15.23,622.29.45,933.43.68Z"/>
    </g>
    <g>
      <path class="cls-7" d="M966.77,4116.67v19.16l-258.49-.24h-1.78c-221.35-.21-442.7-.41-664.05-.62-7.4,0-14.78,0-22.18-.02v-19.16c7.4,0,14.78,0,22.18.02,308.11.29,616.21.57,924.32.86Z"/>
      <path class="cls-2" d="M1006.74,4042.19c-13.33,24.83-26.65,49.65-39.98,74.48-308.11-.29-616.21-.57-924.32-.86-7.4,0-14.78-.02-22.18-.02v-74.57c7.4,0,14.78.02,22.18.02,255.15.25,510.28.5,765.43.75,1.45,0,2.89,0,4.34,0,64.85.06,129.68.13,194.53.19Z"/>
      <path class="cls-4" d="M966.76,4135.83c13.33-24.83,26.65-49.65,39.98-74.48v-19.16c-13.33,24.83-26.65,49.65-39.98,74.48v19.16Z"/>
    </g>
    <g>
      <path class="cls-7" d="M2616.1,4136.64c-549.78-.51-1099.56-1.02-1649.34-1.54v-19.16c549.78.51,1099.56,1.02,1649.34,1.54v19.16Z"/>
      <path class="cls-2" d="M2616.1,4117.48c-549.78-.51-1099.56-1.03-1649.34-1.54,13.33-24.85,26.65-49.71,39.98-74.56,549.78.54,1099.56,1.08,1649.34,1.62-13.33,24.83-26.65,49.65-39.98,74.48Z"/>
      <path class="cls-4" d="M2616.1,4136.64c13.33-24.83,26.65-49.65,39.98-74.48v-19.16c-13.33,24.83-26.65,49.65-39.98,74.48v19.16Z"/>
    </g>
    <g>
      <path class="cls-7" d="M4265.44,4138.26c-549.78-.51-1099.56-1.02-1649.34-1.54v-19.16c549.78.51,1099.56,1.02,1649.34,1.54v19.16Z"/>
      <path class="cls-2" d="M4265.44,4119.1c-549.78-.51-1099.56-1.03-1649.34-1.54,13.33-24.85,26.65-49.71,39.98-74.56,549.78.54,1099.56,1.08,1649.34,1.62-13.33,24.83-26.65,49.65-39.98,74.48Z"/>
      <path class="cls-4" d="M4265.44,4138.26c13.33-24.83,26.65-49.65,39.98-74.48v-19.16c-13.33,24.83-26.65,49.65-39.98,74.48v19.16Z"/>
    </g>
    <g>
      <path class="cls-7" d="M5140,4117.97v19.17c-291.17-.28-582.35-.55-873.52-.82h-1.04v-19.16h1.04c3.43,0,6.85,0,10.28,0,287.75.27,575.49.53,863.24.8Z"/>
      <path class="cls-2" d="M5140,4043.41v74.56c-287.75-.27-575.49-.53-863.24-.8-3.43,0-6.85,0-10.28,0h-1.04c12.26-22.88,24.54-45.76,36.8-68.64.7-1.3,1.39-2.6,2.09-3.9.36-.68.72-1.35,1.08-2.03,278.2.28,556.39.55,834.59.82Z"/>
    </g>
    <g>
      <path class="cls-7" d="M666.14,4210.77v20.2c-207.89-.19-415.79-.39-623.7-.58-7.39,0-14.78-.02-22.18-.02v-20.2c7.4,0,14.79,0,22.18.02,207.91.19,415.8.39,623.7.58Z"/>
      <path class="cls-2" d="M708.28,4132.27c-.6,1.11-1.18,2.21-1.78,3.32-13.44,25.06-26.9,50.13-40.35,75.18-207.89-.19-415.79-.39-623.7-.58-7.39,0-14.78-.02-22.18-.02v-78.57c7.4.01,14.78.01,22.18.02,221.95.22,443.88.44,665.83.65Z"/>
      <path class="cls-4" d="M666.14,4230.97c14.05-26.17,28.09-52.33,42.14-78.5v-20.2c-14.05,26.17-28.09,52.33-42.14,78.5v20.2Z"/>
    </g>
    <g>
      <path class="cls-7" d="M2404.53,4231.83c-579.46-.54-1158.92-1.08-1738.38-1.62v-20.2c579.46.54,1158.92,1.08,1738.38,1.62v20.2Z"/>
      <path class="cls-2" d="M2404.53,4211.63c-579.46-.54-1158.92-1.08-1738.38-1.62,14.05-26.19,28.09-52.39,42.14-78.59,579.46.57,1158.92,1.14,1738.38,1.71-14.05,26.17-28.09,52.33-42.14,78.5Z"/>
      <path class="cls-4" d="M2404.53,4231.83c14.05-26.17,28.09-52.33,42.14-78.5v-20.2c-14.05,26.17-28.09,52.33-42.14,78.5v20.2Z"/>
    </g>
    <g>
      <path class="cls-7" d="M4142.91,4232.25c-579.46-.54-1158.92-1.08-1738.38-1.62v-20.2c579.46.54,1158.92,1.08,1738.38,1.62v20.2Z"/>
      <path class="cls-2" d="M4142.91,4212.06c-579.46-.54-1158.92-1.08-1738.38-1.62,14.05-26.19,28.09-52.39,42.14-78.59,579.46.57,1158.92,1.14,1738.38,1.71-14.05,26.17-28.09,52.33-42.14,78.5Z"/>
      <path class="cls-4" d="M4142.91,4232.25c14.05-26.17,28.09-52.33,42.14-78.5v-20.2c-14.05,26.17-28.09,52.33-42.14,78.5v20.2Z"/>
    </g>
    <g>
      <path class="cls-7" d="M5140,4212.22v20.19c-308.21-.29-616.43-.57-924.64-.86h-2.61c-23.14-.03-46.29-.05-69.43-.07h-.41v-20.19h.41c3.61,0,7.22,0,10.83,0,328.61.3,657.23.61,985.85.92Z"/>
      <path class="cls-2" d="M5140,4133.63v78.59c-328.62-.31-657.24-.62-985.85-.92-3.61,0-7.22,0-10.83,0h-.41c4.03-7.53,8.07-15.06,12.1-22.58,9.03-16.85,18.06-33.69,27.09-50.53.83-1.54,1.65-3.08,2.48-4.62.15-.29.31-.57.46-.86,26.8.03,53.6.05,80.4.08h2.94c290.54.29,581.08.57,871.62.85Z"/>
    </g>
    <g>
      <path class="cls-7" d="M876.71,4300.76v19.17c-86.16-.08-172.32-.16-258.48-.24h-1.78c-191.33-.19-382.67-.36-574-.54-7.4-.01-14.78-.02-22.18-.02v-19.16c7.4,0,14.78,0,22.18.02,278.09.25,556.17.51,834.26.77Z"/>
      <path class="cls-2" d="M916.68,4226.28c-13.32,24.83-26.65,49.66-39.98,74.48-278.09-.26-556.17-.52-834.26-.77-7.4-.01-14.78-.02-22.18-.02v-74.57c7.4,0,14.78.02,22.18.02,207.9.21,415.8.41,623.7.61.89,0,1.76,0,2.65,0,82.63.08,165.26.16,247.89.24Z"/>
      <path class="cls-4" d="M876.7,4319.93c13.33-24.83,26.65-49.65,39.98-74.48v-19.16c-13.33,24.83-26.65,49.65-39.98,74.48v19.16Z"/>
    </g>
    <g>
      <path class="cls-7" d="M2526.04,4320.74c-549.78-.51-1099.56-1.02-1649.34-1.54v-19.16c549.78.51,1099.56,1.02,1649.34,1.54v19.16Z"/>
      <path class="cls-2" d="M2526.04,4301.58c-549.78-.51-1099.56-1.03-1649.34-1.54,13.33-24.85,26.65-49.71,39.98-74.56,549.78.54,1099.56,1.08,1649.34,1.62-13.33,24.83-26.65,49.65-39.98,74.48Z"/>
      <path class="cls-4" d="M2526.04,4320.74c13.33-24.83,26.65-49.65,39.98-74.48v-19.16c-13.33,24.83-26.65,49.65-39.98,74.48v19.16Z"/>
    </g>
    <g>
      <path class="cls-7" d="M4175.38,4322.36c-549.78-.51-1099.56-1.02-1649.34-1.54v-19.16c549.78.51,1099.56,1.02,1649.34,1.54v19.16Z"/>
      <path class="cls-2" d="M4175.38,4303.19c-549.78-.51-1099.56-1.03-1649.34-1.54,13.33-24.85,26.65-49.71,39.98-74.56,549.78.54,1099.56,1.08,1649.34,1.62-13.33,24.83-26.65,49.65-39.98,74.48Z"/>
      <path class="cls-4" d="M4175.38,4322.36c13.33-24.83,26.65-49.65,39.98-74.48v-19.16c-13.33,24.83-26.65,49.65-39.98,74.48v19.16Z"/>
    </g>
    <g>
      <path class="cls-7" d="M5140,4302.15v19.16c-21.22-.02-42.43-.04-63.65-.06-3.06,0-6.11,0-9.17,0h-.55c-296.73-.27-593.47-.55-890.2-.83h-1.05v-19.16h1.05c3.43,0,6.85,0,10.28,0,297.66.28,595.33.55,892.99.83h.56c3.06,0,6.11,0,9.17,0,16.86.01,33.71.03,50.57.05Z"/>
      <path class="cls-2" d="M5140,4227.6v74.55c-16.86-.02-33.71-.04-50.57-.05-3.06,0-6.11,0-9.17,0h-.56c-297.66-.28-595.33-.55-892.99-.83-3.43,0-6.85,0-10.28,0h-1.05c4.44-8.29,8.89-16.58,13.34-24.87.36-.68.72-1.37,1.09-2.05.07-.14.15-.28.23-.42,1.23-2.3,2.46-4.59,3.69-6.89,6.22-11.6,12.44-23.21,18.66-34.81.12-.22.24-.44.36-.66.17-.32.34-.65.52-.97.33-.62.66-1.24.99-1.86.37-.68.73-1.35,1.09-2.03,308.22.3,616.43.61,924.65.91Z"/>
    </g>
    <g>
      <path class="cls-7" d="M576.08,4394.87v20.19c-177.88-.17-355.76-.33-533.64-.5-7.4,0-14.78,0-22.18-.02v-20.19c7.4.01,14.78.02,22.18.02,177.88.17,355.76.33,533.64.5Z"/>
      <path class="cls-2" d="M618.23,4316.37c-.6,1.11-1.19,2.21-1.78,3.32-13.45,25.05-26.91,50.12-40.36,75.18-177.88-.17-355.76-.33-533.64-.5-7.4,0-14.78,0-22.18-.02v-78.57c7.39,0,14.78.02,22.18.02l575.78.57Z"/>
      <path class="cls-4" d="M576.09,4415.07c14.05-26.17,28.09-52.33,42.14-78.5v-20.2c-14.05,26.17-28.09,52.33-42.14,78.5v20.2Z"/>
    </g>
    <g>
      <path class="cls-7" d="M2314.47,4415.92c-579.46-.54-1158.92-1.08-1738.38-1.62v-20.2c579.46.54,1158.92,1.08,1738.38,1.62v20.2Z"/>
      <path class="cls-2" d="M2314.47,4395.72c-579.46-.54-1158.92-1.08-1738.38-1.62,14.05-26.19,28.09-52.39,42.14-78.59,579.46.57,1158.92,1.14,1738.38,1.71-14.05,26.17-28.09,52.33-42.14,78.5Z"/>
      <path class="cls-4" d="M2314.47,4415.92c14.05-26.17,28.09-52.33,42.14-78.5v-20.2c-14.05,26.17-28.09,52.33-42.14,78.5v20.2Z"/>
    </g>
    <g>
      <path class="cls-7" d="M4052.85,4416.35c-579.46-.54-1158.92-1.08-1738.38-1.62v-20.2c579.46.54,1158.92,1.08,1738.38,1.62v20.2Z"/>
      <path class="cls-2" d="M4052.85,4396.15c-579.46-.54-1158.92-1.08-1738.38-1.62,14.05-26.19,28.09-52.39,42.14-78.59,579.46.57,1158.92,1.14,1738.38,1.71-14.05,26.17-28.09,52.33-42.14,78.5Z"/>
      <path class="cls-4" d="M4052.85,4416.35c14.05-26.17,28.09-52.33,42.14-78.5v-20.2c-14.05,26.17-28.09,52.33-42.14,78.5v20.2Z"/>
    </g>
    <g>
      <path class="cls-7" d="M5140,4396.4v20.2c-40.43-.04-80.87-.08-121.3-.12h-8.77c-.19,0-.38,0-.57,0-104.76-.09-209.52-.19-314.28-.29h-2.11c-213.24-.2-426.48-.4-639.71-.6h-.41v-20.2h.41c3.61,0,7.23,0,10.84,0,323.13.3,646.26.6,969.4.91,2.44,0,4.88,0,7.32,0,33.06.03,66.12.06,99.18.1Z"/>
      <path class="cls-2" d="M5140,4317.82v78.58c-33.06-.04-66.12-.07-99.18-.1-2.44,0-4.88,0-7.32,0-323.14-.31-646.27-.61-969.4-.91-3.61,0-7.23,0-10.84,0h-.41c.58-1.08,1.16-2.16,1.74-3.24.02-.04.04-.08.06-.12,9.3-17.35,18.61-34.7,27.91-52.06.08-.14.15-.28.23-.43.44-.82.88-1.64,1.32-2.46.02-.04.05-.08.07-.13,1.86-3.47,3.72-6.94,5.58-10.41.07-.14.15-.28.23-.42.68-1.28,1.36-2.55,2.05-3.83.82-1.54,1.65-3.09,2.48-4.63.15-.29.31-.57.46-.86,26.8.03,53.6.05,80.4.08h2.95c296.89.29,593.79.59,890.68.88h.56c3.06,0,6.1,0,9.16,0h0c20.42.02,40.84.04,61.26.06Z"/>
    </g>
    <g>
      <path class="cls-7" d="M1356.42,4486.3v19.17c-86.16-.08-172.32-.16-258.48-.24h-1.78c-351.24-.34-702.48-.66-1053.72-.99-7.4-.01-14.79-.01-22.18-.02v-19.16c7.39.01,14.78.01,22.18.02,437.98.41,875.99.81,1313.98,1.22Z"/>
      <path class="cls-2" d="M1396.4,4411.83c-13.32,24.82-26.64,49.65-39.98,74.47-437.99-.41-876-.81-1313.98-1.22-7.4,0-14.79,0-22.18-.02v-74.58c7.4,0,14.78.01,22.18.02,177.88.17,355.76.35,533.64.52.72,0,1.44,0,2.16.01h.01c272.72.26,545.43.53,818.15.8Z"/>
      <path class="cls-4" d="M1356.43,4505.47c13.33-24.83,26.65-49.65,39.98-74.48v-19.16c-13.33,24.83-26.65,49.65-39.98,74.48v19.16Z"/>
    </g>
    <g>
      <path class="cls-7" d="M3005.76,4506.28c-549.78-.51-1099.56-1.02-1649.34-1.54v-19.16c549.78.51,1099.56,1.02,1649.34,1.54v19.16Z"/>
      <path class="cls-2" d="M3005.76,4487.12c-549.78-.51-1099.56-1.03-1649.34-1.54,13.33-24.85,26.65-49.71,39.98-74.56,549.78.54,1099.56,1.08,1649.34,1.62-13.33,24.83-26.65,49.65-39.98,74.48Z"/>
      <path class="cls-4" d="M3005.76,4506.28c13.33-24.83,26.65-49.65,39.98-74.48v-19.16c-13.33,24.83-26.65,49.65-39.98,74.48v19.16Z"/>
    </g>
    <g>
      <path class="cls-7" d="M4655.1,4507.9c-549.78-.51-1099.56-1.02-1649.34-1.54v-19.16c549.78.51,1099.56,1.02,1649.34,1.54v19.16Z"/>
      <path class="cls-2" d="M4655.1,4488.74c-549.78-.51-1099.56-1.03-1649.34-1.54,13.33-24.85,26.65-49.71,39.98-74.56,549.78.54,1099.56,1.08,1649.34,1.62-13.33,24.83-26.65,49.65-39.98,74.48Z"/>
      <path class="cls-4" d="M4655.1,4507.9c13.33-24.83,26.65-49.65,39.98-74.48v-19.16c-13.33,24.83-26.65,49.65-39.98,74.48v19.16Z"/>
    </g>
    <g>
      <path class="cls-7" d="M5140,4487.24v19.16c-55.5-.04-110.99-.1-166.49-.15-3.22,0-6.44,0-9.66,0h-.58c-102.37-.1-204.75-.19-307.12-.29h-1.06v-19.16h1.06c3.43,0,6.85,0,10.28,0,103.3.1,206.6.19,309.9.29h.6c3.22,0,6.45,0,9.67,0,51.13.04,102.27.09,153.4.14Z"/>
      <path class="cls-2" d="M5140,4412.67v74.57c-51.13-.05-102.27-.1-153.4-.14-3.22,0-6.45,0-9.67,0h-.6c-103.3-.1-206.6-.19-309.9-.29-3.43,0-6.85,0-10.28,0h-1.06c3.01-5.61,6.03-11.23,9.04-16.85.16-.29.32-.59.48-.89.43-.81.87-1.62,1.3-2.44.64-1.19,1.28-2.38,1.92-3.57,1.17-2.17,2.33-4.34,3.5-6.52.16-.3.32-.6.48-.9,7.05-13.14,14.1-26.3,21.16-39.44.33-.64.67-1.28,1.02-1.92.36-.67.72-1.35,1.09-2.03,105.66.1,211.32.21,316.97.31h.58c2.03,0,4.05,0,6.07,0,40.44.04,80.87.08,121.3.12Z"/>
    </g>
    <g>
      <path class="cls-7" d="M1055.81,4580.41v20.2c-337.79-.31-675.58-.63-1013.36-.94-7.4,0-14.79-.02-22.18-.03v-20.2c7.39.01,14.78.02,22.18.03,337.79.31,675.58.63,1013.36.94Z"/>
      <path class="cls-2" d="M1097.95,4501.91c-.6,1.11-1.19,2.21-1.78,3.32-13.44,25.06-26.91,50.12-40.35,75.18-337.79-.31-675.58-.63-1013.36-.94-7.4,0-14.79-.02-22.18-.03v-78.59c7.4.01,14.78.01,22.18.02,351.83.35,703.67.69,1055.5,1.04Z"/>
      <path class="cls-4" d="M1055.81,4600.61c14.05-26.17,28.09-52.33,42.14-78.5v-20.2c-14.05,26.17-28.09,52.33-42.14,78.5v20.2Z"/>
    </g>
    <g>
      <path class="cls-7" d="M2794.19,4601.46c-579.46-.54-1158.92-1.08-1738.38-1.62v-20.2c579.46.54,1158.92,1.08,1738.38,1.62v20.2Z"/>
      <path class="cls-2" d="M2794.19,4581.26c-579.46-.54-1158.92-1.08-1738.38-1.62,14.05-26.19,28.09-52.39,42.14-78.59,579.46.57,1158.92,1.14,1738.38,1.71-14.05,26.17-28.09,52.33-42.14,78.5Z"/>
      <path class="cls-4" d="M2794.19,4601.46c14.05-26.17,28.09-52.33,42.14-78.5v-20.2c-14.05,26.17-28.09,52.33-42.14,78.5v20.2Z"/>
    </g>
    <g>
      <path class="cls-7" d="M4532.57,4601.89c-579.46-.54-1158.92-1.08-1738.38-1.62v-20.2c579.46.54,1158.92,1.08,1738.38,1.62v20.2Z"/>
      <path class="cls-2" d="M4532.57,4581.69c-579.46-.54-1158.92-1.08-1738.38-1.62,14.05-26.19,28.09-52.39,42.14-78.59,579.46.57,1158.92,1.14,1738.38,1.71-14.05,26.17-28.09,52.33-42.14,78.5Z"/>
      <path class="cls-4" d="M4532.57,4601.89c14.05-26.17,28.09-52.33,42.14-78.5v-20.2c-14.05,26.17-28.09,52.33-42.14,78.5v20.2Z"/>
    </g>
    <g>
      <path class="cls-7" d="M5140,4581.49v20.2c-202.34-.19-404.68-.38-607.02-.57h-.41v-20.2h.41c3.61,0,7.23,0,10.84,0,198.72.18,397.45.37,596.18.56Z"/>
      <path class="cls-2" d="M5140,4502.89v78.6c-198.73-.19-397.46-.38-596.18-.56-3.61,0-7.23,0-10.84,0h-.41c8.08-15.05,16.15-30.11,24.22-45.17.64-1.18,1.27-2.37,1.9-3.55.27-.5.54-.99.8-1.49,1.63-3.04,3.26-6.07,4.88-9.11.64-1.19,1.28-2.37,1.91-3.56,1.83-3.41,3.66-6.81,5.48-10.22.83-1.54,1.66-3.09,2.48-4.63.16-.28.31-.57.46-.85,26.8.03,53.6.05,80.39.08h2.95c102.54.1,205.08.2,307.62.3h.59c3.23,0,6.45,0,9.67,0,54.7.06,109.39.11,164.08.16Z"/>
    </g>
  </g>
  <g>
    <path class="cls-7" d="M5116.81,4521.34v14.16c-128.8-.1-257.61-.19-386.42-.29v-14.16c128.81.1,257.62.2,386.42.29Z"/>
    <path class="cls-2" d="M5116.81,4466.25v55.1c-128.8-.1-257.61-.2-386.42-.3,11.42-17.52,22.84-35.04,34.25-52.56.56-.84,1.1-1.68,1.65-2.52,116.84.09,233.68.19,350.52.28Z"/>
  </g>
  <g>
    <g>
      <path class="cls-7" d="M649.55,4325.4v13.43c-76.86-.06-153.71-.11-230.57-.17h-1.58c-136.63-.1-273.26-.2-409.88-.3-6.99-.01-13.98-.01-20.97-.02v-13.43c6.99,0,13.98,0,20.97.02,214.01.16,428.03.31,642.04.47Z"/>
      <path class="cls-2" d="M685.22,4273.2c-.59.86-1.17,1.72-1.76,2.58-11.31,16.54-22.6,33.08-33.91,49.62-214.01-.16-428.03-.31-642.04-.47-6.99,0-13.98,0-20.97-.02v-52.25c6.99,0,13.98,0,20.97,0,225.9.18,451.8.35,677.71.53Z"/>
      <path class="cls-4" d="M649.55,4338.83c11.89-17.4,23.78-34.8,35.66-52.2v-13.43c-11.89,17.4-23.78,34.8-35.66,52.2v13.43Z"/>
    </g>
    <g>
      <path class="cls-7" d="M569.21,4454.43v13.43c-76.86-.06-153.71-.11-230.57-.17h-1.58c-109.86-.08-219.7-.16-329.55-.24-6.99,0-13.99,0-20.97,0v-13.44c6.98,0,13.98,0,20.97.02,187.23.14,374.47.27,561.7.41Z"/>
      <path class="cls-2" d="M604.87,4402.23c-11.88,17.4-23.78,34.8-35.66,52.2-187.24-.14-374.48-.27-561.7-.41-6.99,0-13.99,0-20.97-.02v-52.25c6.99,0,13.98,0,20.97.02,124.63.09,249.25.19,373.88.29h2.36c73.71.06,147.42.11,221.13.17Z"/>
      <path class="cls-4" d="M569.21,4467.86c11.89-17.4,23.78-34.8,35.66-52.2v-13.43c-11.89,17.4-23.78,34.8-35.66,52.2v13.43Z"/>
    </g>
    <g>
      <path class="cls-7" d="M731.19,4648.14v14.16c-241.23-.18-482.46-.35-723.68-.53-6.99,0-13.99,0-20.97-.02v-14.16c6.98,0,13.98,0,20.97.02,241.22.18,482.45.35,723.68.53Z"/>
      <path class="cls-2" d="M768.78,4593.12c-2.03,2.97-4.06,5.95-6.09,8.92-10.5,15.37-21,30.73-31.49,46.1-241.23-.18-482.46-.35-723.68-.53-6.99-.01-13.99-.01-20.97-.02v-55.08c6.99,0,13.98.02,20.97.02,253.75.2,507.51.39,761.27.59Z"/>
      <path class="cls-4" d="M731.19,4662.29c12.53-18.34,25.06-36.68,37.59-55.02v-14.16c-12.53,18.34-25.06,36.68-37.59,55.02v14.16Z"/>
    </g>
    <path class="cls-5" d="M5140,4273.79v942.5c-295.63-.3-591.25-.59-886.88-.88h-.39v-20.2c12.36-24.36,24.71-48.74,37.06-73.1.78-1.54,1.57-3.09,2.35-4.63.14-.28.29-.57.43-.85,25.34.03,50.67.05,76.01.08v-15.63c11.93-23.53,23.87-47.08,35.8-70.61-201.6-.2-403.2-.4-604.81-.6h-.39v-20.2c12.34-24.36,24.7-48.73,37.06-73.1.78-1.54,1.56-3.09,2.34-4.63.15-.29.29-.57.44-.86,25.33.03,50.67.05,76.01.08v-15.62c11.77-23.23,23.55-46.47,35.33-69.7-21.88-.03-43.77-.05-65.65-.07h-.38v-20.19c12.34-24.37,24.7-48.75,37.06-73.11.78-1.54,1.57-3.09,2.35-4.63.14-.28.29-.57.43-.85,25.33.03,50.67.05,76,.08v-15.62c11.59-22.88,23.21-45.76,34.79-68.64l-202.01-.15h-.35v-14.16c10.74-15.74,21.48-31.49,32.23-47.23.9-1.34,1.82-2.67,2.73-4.01.74-1.08,1.47-2.16,2.21-3.24.14-.2.27-.4.41-.6,23.91.02,47.82.04,71.72.06v-10.96c.31-.46.63-.92.94-1.38,10.42-15.27,20.85-30.54,31.26-45.81.81-1.19,1.62-2.37,2.43-3.56.02-.03.04-.06.06-.09.32-.47.65-.95.97-1.42,193.98.15,387.96.3,581.93.45h.45c3.62,0,7.22,0,10.83,0h.01c127.46.1,254.92.2,382.38.3v-9.97c.62-.91,1.24-1.81,1.86-2.72,2.75-4.03,5.5-8.06,8.25-12.09.8-1.17,1.6-2.35,2.39-3.52,3.56-5.21,7.12-10.42,10.67-15.63,3.85-5.64,7.69-11.27,11.54-16.91.38-.56.77-1.13,1.15-1.69h-5.99v-13.43c8.78-12.86,17.55-25.73,26.33-38.59.9-1.31,1.79-2.62,2.69-3.93,1.26-1.85,2.52-3.69,3.78-5.54.03-.04.06-.08.09-.12.53-.78,1.06-1.57,1.6-2.35.2-.29.4-.59.6-.88.19-.28.39-.57.58-.85,4.93,0,9.87,0,14.8,0v-10.79c11.67-17.11,23.34-34.23,35.02-51.34.28-.41.56-.82.84-1.23h-5.99v-13.43c1.09-1.59,2.18-3.19,3.26-4.78.8-1.16,1.59-2.33,2.38-3.49,3.57-5.22,7.13-10.44,10.69-15.66,5.74-8.41,11.48-16.82,17.22-25.23.41-.61.83-1.22,1.24-1.83.1-.14.19-.28.29-.42.19-.28.39-.57.58-.85,13.66,0,27.31.02,40.97.03Z"/>
    <g>
      <path class="cls-7" d="M1289.22,4222.98v8.88c-70.2-.04-140.4-.07-210.6-.11h-1.46l-1069.66-.57c-6.99,0-13.98,0-20.97,0v-8.89c6.99,0,13.98,0,20.97,0,427.23.23,854.48.46,1281.71.69Z"/>
      <path class="cls-2" d="M1321.79,4188.44c-10.86,11.51-21.71,23.02-32.57,34.54-427.23-.23-854.48-.46-1281.71-.69-6.99,0-13.98,0-20.97,0v-34.59c6.99,0,13.98,0,20.97.02,438.1.24,876.19.49,1314.28.73Z"/>
      <path class="cls-4" d="M1289.22,4231.86c10.86-11.51,21.72-23.02,32.57-34.53v-8.88c-10.86,11.51-21.72,23.02-32.57,34.53v8.88Z"/>
    </g>
    <g>
      <path class="cls-7" d="M2633.02,4232.23c-447.93-.24-895.87-.48-1343.8-.71v-8.88c447.93.24,895.87.48,1343.8.71v8.88Z"/>
      <path class="cls-2" d="M2633.02,4223.35c-447.93-.24-895.87-.48-1343.8-.71,10.86-11.52,21.72-23.05,32.57-34.57,447.93.25,895.87.5,1343.8.75-10.86,11.51-21.72,23.02-32.57,34.53Z"/>
      <path class="cls-4" d="M2633.02,4232.23c10.86-11.51,21.72-23.02,32.57-34.53v-8.88c-10.86,11.51-21.72,23.02-32.57,34.53v8.88Z"/>
    </g>
    <g>
      <path class="cls-7" d="M3976.82,4232.99c-447.93-.24-895.87-.48-1343.8-.71v-8.88c447.93.24,895.87.48,1343.8.71v8.88Z"/>
      <path class="cls-2" d="M3976.82,4224.1c-447.93-.24-895.87-.48-1343.8-.71,10.86-11.52,21.72-23.05,32.57-34.57,447.93.25,895.87.5,1343.8.75-10.86,11.51-21.72,23.02-32.57,34.53Z"/>
      <path class="cls-4" d="M3976.82,4232.99c10.86-11.51,21.72-23.02,32.57-34.53v-8.88c-10.86,11.51-21.72,23.02-32.57,34.53v8.88Z"/>
    </g>
    <g>
      <path class="cls-7" d="M5140,4223.81v8.89c-308.21-.16-616.43-.33-924.64-.48-.63,0-1.25,0-1.88,0-.36,0-.73,0-1.09,0-23.15,0-46.29-.02-69.44-.03h-.04c-55.08-.03-110.16-.06-165.24-.09h-.85v-8.89h9.23c52.29.03,104.57.06,156.86.09h4.81c330.76.18,661.52.36,992.28.52Z"/>
      <path class="cls-2" d="M5140,4189.26v34.55c-330.76-.16-661.52-.34-992.28-.52h-4.81c-52.29-.03-104.57-.06-156.86-.09h-9.23c3.54-3.76,7.09-7.52,10.63-11.28,7.02-7.45,14.03-14.9,21.05-22.35.3-.31.59-.63.89-.94,48.54.03,97.08.05,145.62.08h.43c3.61,0,7.22,0,10.83,0,324.58.18,649.16.36,973.73.54Z"/>
    </g>
    <g>
      <path class="cls-7" d="M1044.28,4266.61v9.36c-119.69-.06-239.38-.13-359.07-.19h-1.76c-225.32-.12-450.63-.24-675.95-.36-6.99,0-13.98,0-20.97,0v-9.36c6.99,0,13.98,0,20.97,0,345.59.18,691.18.37,1036.77.55Z"/>
      <path class="cls-2" d="M1078.62,4230.21c-.48.51-.96,1.03-1.46,1.54-10.96,11.62-21.92,23.24-32.89,34.86-345.59-.18-691.18-.37-1036.77-.55-6.99,0-13.98,0-20.97,0v-36.45c6.99,0,13.98.01,20.97.01,357.03.2,714.08.4,1071.11.6Z"/>
      <path class="cls-4" d="M1044.29,4275.97c11.44-12.13,22.89-24.26,34.33-36.4v-9.36c-11.44,12.13-22.89,24.26-34.33,36.4v9.36Z"/>
    </g>
    <g>
      <path class="cls-7" d="M2460.64,4276.37c-472.12-.25-944.23-.5-1416.35-.75v-9.36c472.12.25,944.23.5,1416.35.75v9.36Z"/>
      <path class="cls-2" d="M2460.64,4267c-472.12-.25-944.23-.5-1416.35-.75,11.44-12.15,22.89-24.29,34.33-36.44,472.12.26,944.23.53,1416.35.79-11.44,12.13-22.89,24.26-34.33,36.4Z"/>
      <path class="cls-4" d="M2460.64,4276.37c11.44-12.13,22.89-24.26,34.33-36.4v-9.36c-11.44,12.13-22.89,24.26-34.33,36.4v9.36Z"/>
    </g>
    <g>
      <path class="cls-7" d="M3876.99,4276.56c-472.12-.25-944.23-.5-1416.35-.75v-9.36c472.12.25,944.23.5,1416.35.75v9.36Z"/>
      <path class="cls-2" d="M3876.99,4267.2c-472.12-.25-944.23-.5-1416.35-.75,11.44-12.15,22.89-24.29,34.33-36.44,472.12.26,944.23.53,1416.35.79-11.44,12.13-22.89,24.26-34.33,36.4Z"/>
      <path class="cls-4" d="M3876.99,4276.56c11.44-12.13,22.89-24.26,34.33-36.4v-9.36c-11.44,12.13-22.89,24.26-34.33,36.4v9.36Z"/>
    </g>
    <g>
      <path class="cls-7" d="M5140,4267.52v9.36c-13.66,0-27.31-.02-40.97-.02h-2.11c-298.96-.16-597.91-.32-896.86-.48h-11.34c-103.8-.06-207.59-.11-311.39-.17h-.34v-9.36h9.17c102.53.06,205.04.11,307.57.17h11.36c311.64.17,623.27.33,934.91.5Z"/>
      <path class="cls-2" d="M5140,4231.1v36.42c-311.64-.17-623.27-.33-934.91-.5h-11.36c-102.53-.06-205.04-.11-307.57-.17h-9.17c10.64-11.3,21.29-22.61,31.93-33.9.29-.31.58-.61.87-.92.39-.41.78-.82,1.16-1.23.12-.13.25-.26.37-.39,21.83,0,43.67.02,65.5.04h2.4c54.56.03,109.12.06,163.69.09h.92c23.14,0,46.29.02,69.44.04h2.09c308.21.17,616.42.34,924.64.52Z"/>
    </g>
    <g>
      <path class="cls-7" d="M2120.82,4339.4c-490.42-.36-980.85-.72-1471.27-1.08v-13.43c490.42.36,980.85.72,1471.27,1.08v13.43Z"/>
      <path class="cls-2" d="M2120.82,4325.97c-490.42-.36-980.85-.72-1471.27-1.08,11.89-17.42,23.78-34.84,35.66-52.26,490.42.38,980.85.76,1471.27,1.14-11.89,17.4-23.78,34.8-35.66,52.2Z"/>
      <path class="cls-4" d="M2120.82,4339.4c11.89-17.4,23.78-34.8,35.66-52.2v-13.43c-11.89,17.4-23.78,34.8-35.66,52.2v13.43Z"/>
    </g>
    <g>
      <path class="cls-7" d="M3592.1,4340.53c-490.42-.36-980.85-.72-1471.27-1.08v-13.43c490.42.36,980.85.72,1471.27,1.08v13.43Z"/>
      <path class="cls-2" d="M3592.1,4327.1c-490.42-.36-980.85-.72-1471.27-1.08,11.89-17.42,23.78-34.84,35.66-52.26,490.42.38,980.85.76,1471.27,1.14-11.89,17.4-23.78,34.8-35.66,52.2Z"/>
      <path class="cls-4" d="M3592.1,4340.53c11.89-17.4,23.78-34.8,35.66-52.2v-13.43c-11.89,17.4-23.78,34.8-35.66,52.2v13.43Z"/>
    </g>
    <g>
      <path class="cls-7" d="M5063.37,4340.25c-490.42-.36-980.85-.72-1471.27-1.08v-13.43c490.42.36,980.85.72,1471.27,1.08v13.43Z"/>
      <path class="cls-2" d="M5063.37,4326.82c-490.42-.36-980.85-.72-1471.27-1.08,11.89-17.42,23.78-34.84,35.66-52.26,490.42.38,980.85.76,1471.27,1.14-11.89,17.4-23.78,34.8-35.66,52.2Z"/>
      <path class="cls-4" d="M5063.37,4340.25c11.89-17.4,23.78-34.8,35.66-52.2v-13.43c-11.89,17.4-23.78,34.8-35.66,52.2v13.43Z"/>
    </g>
    <g>
      <path class="cls-7" d="M5140,4327.3v13.43c-22.97,0-45.94-.03-68.91-.05h-2.57c-324.89-.24-649.79-.48-974.68-.71-3.61,0-7.22,0-10.83,0h-.45c-98.72-.08-197.44-.15-296.16-.22v-13.43c101.12.07,202.24.15,303.36.22h.45c1.59,0,3.18,0,4.77,0,322.8.23,645.59.47,968.39.71h8.88c22.58.02,45.17.04,67.75.05Z"/>
      <path class="cls-2" d="M5140,4275.06v52.24c-22.58,0-45.17-.03-67.75-.05h-8.88c-322.8-.24-645.59-.48-968.39-.71-1.59,0-3.18,0-4.77,0h-.45c-101.12-.07-202.24-.15-303.36-.22.1-.14.2-.29.29-.43.89-1.29,1.77-2.59,2.65-3.88,1.06-1.55,2.12-3.1,3.17-4.65,3.3-4.83,6.6-9.67,9.9-14.5,5.98-8.77,11.97-17.54,17.95-26.31.57-.83,1.13-1.66,1.7-2.49,18.31,0,36.62.03,54.93.04h2.34c103.49.08,206.99.16,310.48.24h1.07c3.43,0,6.85,0,10.28,0,299,.23,598,.46,897,.69h.87c13.66,0,27.31.02,40.97.03Z"/>
    </g>
    <g>
      <path class="cls-7" d="M1932.09,4406.11c-516.9-.38-1033.8-.76-1550.7-1.14v-14.16c516.9.38,1033.8.76,1550.7,1.14v14.16Z"/>
      <path class="cls-2" d="M1932.09,4391.95c-516.9-.38-1033.8-.76-1550.7-1.14,12.53-18.36,25.06-36.72,37.59-55.08,516.9.4,1033.8.8,1550.7,1.2-12.53,18.34-25.06,36.68-37.59,55.02Z"/>
      <path class="cls-4" d="M1932.09,4406.11c12.53-18.34,25.06-36.68,37.59-55.02v-14.16c-12.53,18.34-25.06,36.68-37.59,55.02v14.16Z"/>
    </g>
    <g>
      <path class="cls-7" d="M3482.79,4406.41c-516.9-.38-1033.8-.76-1550.7-1.14v-14.16c516.9.38,1033.8.76,1550.7,1.14v14.16Z"/>
      <path class="cls-2" d="M3482.79,4392.25c-516.9-.38-1033.8-.76-1550.7-1.14,12.53-18.36,25.06-36.72,37.59-55.08,516.9.4,1033.8.8,1550.7,1.2-12.53,18.34-25.06,36.68-37.59,55.02Z"/>
      <path class="cls-4" d="M3482.79,4406.41c12.53-18.34,25.06-36.68,37.59-55.02v-14.16c-12.53,18.34-25.06,36.68-37.59,55.02v14.16Z"/>
    </g>
    <g>
      <path class="cls-7" d="M5033.5,4407.01c-516.9-.38-1033.8-.76-1550.7-1.14v-14.16c516.9.38,1033.8.76,1550.7,1.14v14.16Z"/>
      <path class="cls-2" d="M5033.5,4392.85c-516.9-.38-1033.8-.76-1550.7-1.14,12.53-18.36,25.06-36.72,37.59-55.08,516.9.4,1033.8.8,1550.7,1.2-12.53,18.34-25.06,36.68-37.59,55.02Z"/>
      <path class="cls-4" d="M5033.5,4407.01c12.53-18.34,25.06-36.68,37.59-55.02v-14.16c-12.53,18.34-25.06,36.68-37.59,55.02v14.16Z"/>
    </g>
    <g>
      <path class="cls-7" d="M5140,4392.81v14.16c-35.47-.03-70.95-.05-106.42-.08h-.08c-4.93,0-9.87,0-14.8,0h-2.78c-319.2-.24-638.41-.47-957.61-.71h-5.46c-50.42-.04-100.84-.08-151.26-.11-84.68-.07-169.36-.13-254.04-.19v-14.15c135.7.1,271.4.2,407.1.3h11.26c322.53.24,645.06.47,967.59.71h.08c3.22,0,6.45,0,9.67.01,32.25.02,64.5.04,96.75.07Z"/>
      <path class="cls-2" d="M5140,4337.76v55.05c-32.25-.03-64.5-.05-96.75-.07-3.22-.01-6.45-.01-9.67-.01h-.08c-322.53-.24-645.06-.47-967.59-.71h-11.26c-135.7-.1-271.4-.2-407.1-.3,11.93-17.49,23.86-34.99,35.8-52.48.56-.83,1.13-1.65,1.69-2.48.03-.04.06-.09.09-.13,33.76.03,67.51.05,101.27.08,99.26.08,198.52.15,297.78.23h.45c3.45,0,6.9,0,10.35,0,322.8.25,645.59.5,968.39.75h1.74c24.96.02,49.93.04,74.89.06Z"/>
    </g>
    <g>
      <path class="cls-7" d="M2040.49,4468.43c-490.42-.36-980.85-.72-1471.27-1.08v-13.43c490.42.36,980.85.72,1471.27,1.08v13.43Z"/>
      <path class="cls-2" d="M2040.49,4455c-490.42-.36-980.85-.72-1471.27-1.08,11.89-17.42,23.78-34.84,35.66-52.26,490.42.38,980.85.76,1471.27,1.14-11.89,17.4-23.78,34.8-35.66,52.2Z"/>
      <path class="cls-4" d="M2040.49,4468.43c11.89-17.4,23.78-34.8,35.66-52.2v-13.43c-11.89,17.4-23.78,34.8-35.66,52.2v13.43Z"/>
    </g>
    <g>
      <path class="cls-7" d="M3511.76,4469.56c-490.42-.36-980.85-.72-1471.27-1.08v-13.43c490.42.36,980.85.72,1471.27,1.08v13.43Z"/>
      <path class="cls-2" d="M3511.76,4456.13c-490.42-.36-980.85-.72-1471.27-1.08,11.89-17.42,23.78-34.84,35.66-52.26,490.42.38,980.85.76,1471.27,1.14-11.89,17.4-23.78,34.8-35.66,52.2Z"/>
      <path class="cls-4" d="M3511.76,4469.56c11.89-17.4,23.78-34.8,35.66-52.2v-13.43c-11.89,17.4-23.78,34.8-35.66,52.2v13.43Z"/>
    </g>
    <g>
      <path class="cls-7" d="M4983.03,4469.28c-490.42-.36-980.85-.72-1471.27-1.08v-13.43c490.42.36,980.85.72,1471.27,1.08v13.43Z"/>
      <path class="cls-2" d="M4983.03,4455.85c-490.42-.36-980.85-.72-1471.27-1.08,11.89-17.42,23.78-34.84,35.66-52.26,490.42.38,980.85.76,1471.27,1.14-11.89,17.4-23.78,34.8-35.66,52.2Z"/>
      <path class="cls-4" d="M4983.03,4469.28c11.89-17.4,23.78-34.8,35.66-52.2v-13.43c-11.89,17.4-23.78,34.8-35.66,52.2v13.43Z"/>
    </g>
    <g>
      <path class="cls-7" d="M5140,4456.86v13.43c-49.75-.03-99.5-.07-149.25-.11h-2.88c-104.13-.07-208.27-.15-312.4-.23h-10.28c-.35,0-.71,0-1.06,0-265.52-.19-531.05-.39-796.57-.58v-13.43c267.92.2,535.85.39,803.77.59h1.07c3.42,0,6.85.01,10.27.01h0c100.12.07,200.23.15,300.35.22,2.85,0,5.71,0,8.56,0,49.47.03,98.94.07,148.41.1Z"/>
      <path class="cls-2" d="M5140,4404.63v52.23c-49.47-.03-98.94-.07-148.41-.1-2.85,0-5.71,0-8.56,0-100.12-.07-200.23-.15-300.35-.22h0c-3.42,0-6.85-.01-10.27-.01h-1.07c-267.92-.2-535.85-.39-803.77-.59.2-.3.41-.6.61-.9,8.84-12.94,17.67-25.89,26.5-38.83.62-.91,1.24-1.81,1.86-2.72,1.66-2.43,3.32-4.87,4.98-7.3.02-.04.05-.08.08-.12.54-.8,1.09-1.59,1.63-2.39,49.88.04,99.75.08,149.63.12h6.74c319.31.25,638.62.5,957.93.74h1.18c4.94,0,9.87,0,14.8.02h1.68c34.94.02,69.88.05,104.82.08Z"/>
    </g>
    <g>
      <path class="cls-7" d="M1851.75,4535.14c-516.9-.38-1033.8-.76-1550.7-1.14v-14.16c516.9.38,1033.8.76,1550.7,1.14v14.16Z"/>
      <path class="cls-2" d="M1851.75,4520.99c-516.9-.38-1033.8-.76-1550.7-1.14,12.53-18.36,25.06-36.72,37.59-55.08,516.9.4,1033.8.8,1550.7,1.2-12.53,18.34-25.06,36.68-37.59,55.02Z"/>
      <path class="cls-4" d="M1851.75,4535.14c12.53-18.34,25.06-36.68,37.59-55.02v-14.16c-12.53,18.34-25.06,36.68-37.59,55.02v14.16Z"/>
    </g>
    <g>
      <path class="cls-7" d="M3402.46,4535.44c-516.9-.38-1033.8-.76-1550.7-1.14v-14.16c516.9.38,1033.8.76,1550.7,1.14v14.16Z"/>
      <path class="cls-2" d="M3402.46,4521.29c-516.9-.38-1033.8-.76-1550.7-1.14,12.53-18.36,25.06-36.72,37.59-55.08,516.9.4,1033.8.8,1550.7,1.2-12.53,18.34-25.06,36.68-37.59,55.02Z"/>
      <path class="cls-4" d="M3402.46,4535.44c12.53-18.34,25.06-36.68,37.59-55.02v-14.16c-12.53,18.34-25.06,36.68-37.59,55.02v14.16Z"/>
    </g>
    <g>
      <path class="cls-7" d="M4953.16,4536.04c-516.9-.38-1033.8-.76-1550.7-1.14v-14.16c516.9.38,1033.8.76,1550.7,1.14v14.16Z"/>
      <path class="cls-2" d="M4953.16,4521.88c-516.9-.38-1033.8-.76-1550.7-1.14,12.53-18.36,25.06-36.72,37.59-55.08,516.9.4,1033.8.8,1550.7,1.2-12.53,18.34-25.06,36.68-37.59,55.02Z"/>
      <path class="cls-4" d="M4953.16,4536.04c12.53-18.34,25.06-36.68,37.59-55.02v-14.16c-12.53,18.34-25.06,36.68-37.59,55.02v14.16Z"/>
    </g>
    <g>
      <path class="cls-7" d="M5140,4518.47v14.16c-61.47-.05-122.94-.1-184.41-.14h-2.43c-127.73-.1-255.46-.19-383.18-.28-3.62,0-7.23,0-10.84,0h-.45c-193.71-.14-387.42-.29-581.13-.43h-1.03c-76.94-.06-153.87-.11-230.81-.17v-14.16c273.52.2,547.04.4,820.56.6h.46c2.65,0,5.31,0,7.97,0,126.77.09,253.54.19,380.31.28h.57c3.22,0,6.43,0,9.66,0h.01c58.24.04,116.49.08,174.74.13Z"/>
      <path class="cls-2" d="M5140,4463.41v55.06c-58.25-.05-116.5-.09-174.74-.13h-.01c-3.23,0-6.44,0-9.66,0h-.57c-126.77-.09-253.54-.19-380.31-.28-2.66,0-5.32,0-7.97,0h-.46c-273.52-.2-547.04-.4-820.56-.6,2.36-3.46,4.72-6.92,7.09-10.38l3.18-4.68c3.3-4.82,6.59-9.65,9.88-14.47,4.44-6.5,8.88-13.01,13.32-19.51.56-.82,1.12-1.65,1.68-2.47.82-1.19,1.63-2.38,2.44-3.57,28.08.02,56.17.04,84.25.07,266.76.2,533.51.41,800.27.61.35,0,.71,0,1.06,0h10.28c101.29.08,202.57.16,303.86.24h4.09c50.96.04,101.92.08,152.88.12Z"/>
    </g>
    <g>
      <path class="cls-7" d="M997.15,4588.78v13.43c-76.12-.06-152.25-.11-228.37-.17h-6.09c-251.72-.19-503.45-.37-755.17-.55-6.99-.01-13.98-.01-20.97-.01v-13.44c6.99,0,13.98,0,20.97,0,329.88.25,659.76.49,989.64.73Z"/>
      <path class="cls-2" d="M1032.81,4536.58c-11.89,17.4-23.78,34.8-35.66,52.2-329.88-.24-659.76-.48-989.64-.73-6.99,0-13.98,0-20.97,0v-52.27c6.98,0,13.98.01,20.97.02,341.76.26,683.53.53,1025.3.79Z"/>
      <path class="cls-4" d="M997.14,4602.21c11.89-17.4,23.78-34.8,35.66-52.2v-13.43c-11.89,17.4-23.78,34.8-35.66,52.2v13.43Z"/>
    </g>
    <g>
      <path class="cls-7" d="M2470.62,4596.18c-490.42-.36-980.85-.72-1471.27-1.08v-13.43c490.42.36,980.85.72,1471.27,1.08v13.43Z"/>
      <path class="cls-2" d="M2470.62,4582.75c-490.42-.36-980.85-.72-1471.27-1.08,11.89-17.42,23.78-34.84,35.66-52.26,490.42.38,980.85.76,1471.27,1.14-11.89,17.4-23.78,34.8-35.66,52.2Z"/>
      <path class="cls-4" d="M2470.62,4596.18c11.89-17.4,23.78-34.8,35.66-52.2v-13.43c-11.89,17.4-23.78,34.8-35.66,52.2v13.43Z"/>
    </g>
    <g>
      <path class="cls-7" d="M3941.9,4597.31c-490.42-.36-980.85-.72-1471.27-1.08v-13.43c490.42.36,980.85.72,1471.27,1.08v13.43Z"/>
      <path class="cls-2" d="M3941.9,4583.88c-490.42-.36-980.85-.72-1471.27-1.08,11.89-17.42,23.78-34.84,35.66-52.26,490.42.38,980.85.76,1471.27,1.14-11.89,17.4-23.78,34.8-35.66,52.2Z"/>
      <path class="cls-4" d="M3941.9,4597.31c11.89-17.4,23.78-34.8,35.66-52.2v-13.43c-11.89,17.4-23.78,34.8-35.66,52.2v13.43Z"/>
    </g>
    <g>
      <path class="cls-7" d="M5140,4583.4v13.43c-201.49-.15-402.99-.3-604.48-.44-.98,0-1.97,0-2.95,0-196.58-.14-393.16-.28-589.74-.43h-.93v-13.43h.93c3.06,0,6.11.01,9.17.01,193.52.14,387.05.28,580.57.42,3.39,0,6.77,0,10.16,0,199.09.15,398.18.29,597.27.44Z"/>
      <path class="cls-2" d="M5140,4531.16v52.24c-199.09-.15-398.18-.29-597.27-.44-3.39,0-6.77,0-10.16,0-193.52-.14-387.05-.28-580.57-.42-3.06,0-6.11-.01-9.17-.01h-.93c.31-.46.63-.92.94-1.38,10.42-15.27,20.85-30.54,31.26-45.81.81-1.19,1.62-2.37,2.43-3.56.02-.03.04-.06.06-.09.32-.47.65-.95.97-1.42,193.98.15,387.96.3,581.93.45h.45c3.62,0,7.22,0,10.83,0h.01c127.46.1,254.92.2,382.38.3h3.43c61.14.05,122.28.09,183.41.14Z"/>
    </g>
    <g>
      <path class="cls-7" d="M2281.89,4662.89c-516.9-.38-1033.8-.76-1550.7-1.14v-14.16c516.9.38,1033.8.76,1550.7,1.14v14.16Z"/>
      <path class="cls-2" d="M2281.89,4648.74c-516.9-.38-1033.8-.76-1550.7-1.14,12.53-18.36,25.06-36.72,37.59-55.08,516.9.4,1033.8.8,1550.7,1.2-12.53,18.34-25.06,36.68-37.59,55.02Z"/>
      <path class="cls-4" d="M2281.89,4662.89c12.53-18.34,25.06-36.68,37.59-55.02v-14.16c-12.53,18.34-25.06,36.68-37.59,55.02v14.16Z"/>
    </g>
    <g>
      <path class="cls-7" d="M3832.59,4663.19c-516.9-.38-1033.8-.76-1550.7-1.14v-14.16c516.9.38,1033.8.76,1550.7,1.14v14.16Z"/>
      <path class="cls-2" d="M3832.59,4649.04c-516.9-.38-1033.8-.76-1550.7-1.14,12.53-18.36,25.06-36.72,37.59-55.08,516.9.4,1033.8.8,1550.7,1.2-12.53,18.34-25.06,36.68-37.59,55.02Z"/>
      <path class="cls-4" d="M3832.59,4663.19c12.53-18.34,25.06-36.68,37.59-55.02v-14.16c-12.53,18.34-25.06,36.68-37.59,55.02v14.16Z"/>
    </g>
    <g>
      <path class="cls-7" d="M5140,4649.45v14.16c-367.34-.27-734.69-.54-1102.03-.8h-3.01l-202.01-.15h-.35v-14.16h.36c3.22,0,6.44,0,9.66,0,250.85.17,501.69.36,752.54.55,181.61.13,363.22.26,544.84.39Z"/>
      <path class="cls-2" d="M5140,4594.39v55.07c-181.62-.13-363.23-.26-544.84-.4-250.85-.19-501.69-.38-752.54-.55-3.22,0-6.44,0-9.66,0h-.36c10.74-15.74,21.48-31.49,32.23-47.23.9-1.34,1.82-2.67,2.73-4.01.74-1.08,1.47-2.16,2.21-3.24.14-.2.27-.4.41-.6,23.91.02,47.82.04,71.72.06h2.62c196.02.15,392.04.3,588.05.45,1.43,0,2.85.01,4.27,0,201.06.16,402.11.32,603.16.46Z"/>
    </g>
    <g>
      <path class="cls-7" d="M881.42,4730.96v19.16l-244.39-.24h-1.69c-209.28-.21-418.55-.41-627.83-.62-6.99,0-13.98,0-20.97-.02v-19.16c6.99,0,13.98,0,20.97.02,291.31.29,582.6.57,873.91.86Z"/>
      <path class="cls-2" d="M919.21,4656.48c-12.61,24.83-25.2,49.65-37.79,74.48-291.31-.29-582.6-.57-873.91-.86-6.99,0-13.98-.02-20.97-.02v-74.57c6.99,0,13.98.02,20.97.02,241.23.25,482.45.5,723.68.75,1.37,0,2.73,0,4.1,0,61.31.06,122.61.13,183.92.19Z"/>
      <path class="cls-4" d="M881.41,4750.12c12.6-24.83,25.2-49.65,37.8-74.48v-19.16c-12.6,24.83-25.2,49.65-37.8,74.48v19.16Z"/>
    </g>
    <g>
      <path class="cls-7" d="M2440.79,4750.93c-519.79-.51-1039.59-1.02-1559.38-1.54v-19.16c519.79.51,1039.59,1.02,1559.38,1.54v19.16Z"/>
      <path class="cls-2" d="M2440.79,4731.77c-519.79-.51-1039.59-1.03-1559.38-1.54,12.6-24.85,25.2-49.71,37.8-74.56,519.79.54,1039.59,1.08,1559.38,1.62-12.6,24.83-25.2,49.65-37.8,74.48Z"/>
      <path class="cls-4" d="M2440.79,4750.93c12.6-24.83,25.2-49.65,37.8-74.48v-19.16c-12.6,24.83-25.2,49.65-37.8,74.48v19.16Z"/>
    </g>
    <g>
      <path class="cls-7" d="M4000.17,4752.55c-519.79-.51-1039.59-1.02-1559.38-1.54v-19.16c519.79.51,1039.59,1.02,1559.38,1.54v19.16Z"/>
      <path class="cls-2" d="M4000.17,4733.39c-519.79-.51-1039.59-1.03-1559.38-1.54,12.6-24.85,25.2-49.71,37.8-74.56,519.79.54,1039.59,1.08,1559.38,1.62-12.6,24.83-25.2,49.65-37.8,74.48Z"/>
      <path class="cls-4" d="M4000.17,4752.55c12.6-24.83,25.2-49.65,37.8-74.48v-19.16c-12.6,24.83-25.2,49.65-37.8,74.48v19.16Z"/>
    </g>
    <g>
      <path class="cls-7" d="M5140,4732.57v19.17c-379.61-.38-759.23-.76-1138.85-1.13h-.98v-19.16h.98c3.24,0,6.48,0,9.72,0,376.38.37,752.76.74,1129.13,1.11Z"/>
      <path class="cls-2" d="M5140,4658.02v74.55c-376.37-.37-752.75-.74-1129.13-1.11-3.24,0-6.48,0-9.72,0h-.98c11.59-22.88,23.21-45.76,34.79-68.64.66-1.3,1.32-2.6,1.97-3.9.35-.67.69-1.35,1.04-2.03,367.35.38,734.69.77,1102.03,1.14Z"/>
    </g>
    <g>
      <path class="cls-7" d="M597.19,4825.06v20.2c-196.56-.19-393.11-.39-589.68-.58-6.98,0-13.98-.02-20.97-.02v-20.2c6.99,0,13.99,0,20.97.02,196.57.19,393.12.39,589.68.58Z"/>
      <path class="cls-2" d="M637.03,4746.56c-.57,1.11-1.12,2.21-1.69,3.32-12.71,25.06-25.43,50.13-38.15,75.18-196.56-.19-393.11-.39-589.68-.58-6.98,0-13.98-.02-20.97-.02v-78.57c6.99.01,13.98.01,20.97.02,209.84.22,419.67.44,629.52.65Z"/>
      <path class="cls-4" d="M597.19,4845.26c13.28-26.17,26.56-52.33,39.84-78.5v-20.2c-13.28,26.17-26.56,52.33-39.84,78.5v20.2Z"/>
    </g>
    <g>
      <path class="cls-7" d="M2240.76,4846.11c-547.86-.54-1095.71-1.08-1643.57-1.62v-20.2c547.86.54,1095.71,1.08,1643.57,1.62v20.2Z"/>
      <path class="cls-2" d="M2240.76,4825.92c-547.86-.54-1095.71-1.08-1643.57-1.62,13.28-26.19,26.56-52.39,39.84-78.59,547.86.57,1095.71,1.14,1643.57,1.71-13.28,26.17-26.56,52.33-39.84,78.5Z"/>
      <path class="cls-4" d="M2240.76,4846.11c13.28-26.17,26.56-52.33,39.84-78.5v-20.2c-13.28,26.17-26.56,52.33-39.84,78.5v20.2Z"/>
    </g>
    <g>
      <path class="cls-7" d="M3884.32,4846.54c-547.86-.54-1095.71-1.08-1643.57-1.62v-20.2c547.86.54,1095.71,1.08,1643.57,1.62v20.2Z"/>
      <path class="cls-2" d="M3884.33,4826.34c-547.86-.54-1095.71-1.08-1643.57-1.62,13.28-26.19,26.56-52.39,39.84-78.59,547.86.57,1095.71,1.14,1643.57,1.71-13.28,26.17-26.56,52.33-39.84,78.5Z"/>
      <path class="cls-4" d="M3884.32,4846.54c13.28-26.17,26.56-52.33,39.84-78.5v-20.2c-13.28,26.17-26.56,52.33-39.84,78.5v20.2Z"/>
    </g>
    <g>
      <path class="cls-7" d="M5140,4826.81v20.2c-395.73-.39-791.45-.78-1187.18-1.17h-2.46c-21.88-.03-43.77-.05-65.65-.07h-.38v-20.19h.39c3.41,0,6.82,0,10.23,0,415.02.41,830.04.82,1245.05,1.22Z"/>
      <path class="cls-2" d="M5140,4748.25v78.56c-415.01-.4-830.03-.81-1245.05-1.22-3.41,0-6.82,0-10.23,0h-.39c12.34-24.37,24.7-48.75,37.06-73.11.78-1.54,1.57-3.09,2.35-4.63.14-.28.29-.57.43-.85,25.33.03,50.67.05,76,.08h2.78c379.02.4,758.03.79,1137.05,1.18Z"/>
    </g>
    <g>
      <path class="cls-7" d="M796.27,4915.05v19.17c-81.46-.08-162.92-.16-244.38-.24h-1.69c-180.89-.19-361.8-.36-542.69-.54-6.99-.01-13.98-.02-20.97-.02v-19.16c6.99,0,13.98,0,20.97.02,262.92.25,525.84.51,788.76.77Z"/>
      <path class="cls-2" d="M834.06,4840.57c-12.59,24.83-25.2,49.66-37.79,74.48-262.92-.26-525.84-.52-788.76-.77-6.99-.01-13.98-.02-20.97-.02v-74.57c6.99,0,13.98.02,20.97.02,196.56.21,393.12.41,589.68.61.84,0,1.67,0,2.5,0,78.12.08,156.25.16,234.37.24Z"/>
      <path class="cls-4" d="M796.27,4934.21c12.6-24.83,25.2-49.65,37.8-74.48v-19.16c-12.6,24.83-25.2,49.65-37.8,74.48v19.16Z"/>
    </g>
    <g>
      <path class="cls-7" d="M2355.65,4935.02c-519.79-.51-1039.59-1.02-1559.38-1.54v-19.16c519.79.51,1039.59,1.02,1559.38,1.54v19.16Z"/>
      <path class="cls-2" d="M2355.65,4915.86c-519.79-.51-1039.59-1.03-1559.38-1.54,12.6-24.85,25.2-49.71,37.8-74.56,519.79.54,1039.59,1.08,1559.38,1.62-12.6,24.83-25.2,49.65-37.8,74.48Z"/>
      <path class="cls-4" d="M2355.65,4935.02c12.6-24.83,25.2-49.65,37.8-74.48v-19.16c-12.6,24.83-25.2,49.65-37.8,74.48v19.16Z"/>
    </g>
    <g>
      <path class="cls-7" d="M3915.03,4936.64c-519.79-.51-1039.59-1.02-1559.38-1.54v-19.16c519.79.51,1039.59,1.02,1559.38,1.54v19.16Z"/>
      <path class="cls-2" d="M3915.03,4917.48c-519.79-.51-1039.59-1.03-1559.38-1.54,12.6-24.85,25.2-49.71,37.8-74.56,519.79.54,1039.59,1.08,1559.38,1.62-12.6,24.83-25.2,49.65-37.8,74.48Z"/>
      <path class="cls-4" d="M3915.03,4936.64c12.6-24.83,25.2-49.65,37.8-74.48v-19.16c-12.6,24.83-25.2,49.65-37.8,74.48v19.16Z"/>
    </g>
    <g>
      <path class="cls-7" d="M5140,4916.75v19.16c-407.99-.4-815.98-.8-1223.98-1.21h-.99v-19.16h.98c3.24,0,6.49,0,9.73,0,404.76.4,809.51.79,1214.26,1.2Z"/>
      <path class="cls-2" d="M5140,4842.21v74.54c-404.75-.41-809.5-.8-1214.26-1.2-3.24,0-6.49,0-9.73,0h-.98c11.77-23.23,23.55-46.47,35.33-69.7.48-.95.96-1.89,1.44-2.84.34-.67.68-1.35,1.02-2.02,395.74.41,791.46.82,1187.18,1.23Z"/>
    </g>
    <g>
      <path class="cls-7" d="M512.04,5009.16v20.19c-168.17-.17-336.36-.33-504.53-.5-6.99,0-13.98,0-20.97-.02v-20.19c6.99.01,13.98.02,20.97.02,168.17.17,336.36.33,504.53.5Z"/>
      <path class="cls-2" d="M551.89,4930.66c-.57,1.11-1.12,2.21-1.69,3.32-12.72,25.05-25.44,50.12-38.16,75.18-168.17-.17-336.36-.33-504.53-.5-6.99,0-13.98,0-20.97-.02v-78.57c6.98,0,13.98.02,20.97.02l544.38.57Z"/>
      <path class="cls-4" d="M512.04,5029.35c13.28-26.17,26.56-52.33,39.84-78.5v-20.2c-13.28,26.17-26.56,52.33-39.84,78.5v20.2Z"/>
    </g>
    <g>
      <path class="cls-7" d="M2155.61,5030.21c-547.86-.54-1095.71-1.08-1643.57-1.62v-20.2c547.86.54,1095.71,1.08,1643.57,1.62v20.2Z"/>
      <path class="cls-2" d="M2155.61,5010.01c-547.86-.54-1095.71-1.08-1643.57-1.62,13.28-26.19,26.56-52.39,39.84-78.59,547.86.57,1095.71,1.14,1643.57,1.71-13.28,26.17-26.56,52.33-39.84,78.5Z"/>
      <path class="cls-4" d="M2155.61,5030.21c13.28-26.17,26.56-52.33,39.84-78.5v-20.2c-13.28,26.17-26.56,52.33-39.84,78.5v20.2Z"/>
    </g>
    <g>
      <path class="cls-7" d="M3799.18,5030.63c-547.86-.54-1095.71-1.08-1643.57-1.62v-20.2c547.86.54,1095.71,1.08,1643.57,1.62v20.2Z"/>
      <path class="cls-2" d="M3799.18,5010.44c-547.86-.54-1095.71-1.08-1643.57-1.62,13.28-26.19,26.56-52.39,39.84-78.59,547.86.57,1095.71,1.14,1643.57,1.71-13.28,26.17-26.56,52.33-39.84,78.5Z"/>
      <path class="cls-4" d="M3799.18,5030.63c13.28-26.17,26.56-52.33,39.84-78.5v-20.2c-13.28,26.17-26.56,52.33-39.84,78.5v20.2Z"/>
    </g>
    <g>
      <path class="cls-7" d="M5140,5010.99v20.21c-244.54-.25-489.08-.49-733.62-.73h-2c-201.6-.2-403.2-.4-604.81-.6h-.39v-20.2h.39c3.42,0,6.83,0,10.25,0,443.39.44,886.78.87,1330.18,1.31Z"/>
      <path class="cls-2" d="M5140,4932.43v78.56c-443.4-.44-886.79-.87-1330.18-1.31-3.42,0-6.83,0-10.25,0h-.39c12.34-24.36,24.7-48.73,37.06-73.1.78-1.54,1.56-3.09,2.34-4.63.15-.29.29-.57.44-.86,25.33.03,50.67.05,76.01.08h2.79c407.4.43,814.78.85,1222.18,1.27Z"/>
    </g>
    <g>
      <path class="cls-7" d="M1249.82,5100.59v19.17c-81.46-.08-162.92-.16-244.38-.24h-1.69c-332.09-.34-664.17-.66-996.24-.99-6.99-.01-13.99-.01-20.97-.02v-19.16c6.98.01,13.98.01,20.97.02,414.09.41,828.21.81,1242.31,1.22Z"/>
      <path class="cls-2" d="M1287.62,5026.12c-12.59,24.82-25.19,49.65-37.79,74.47-414.1-.41-828.22-.81-1242.31-1.22-6.99,0-13.99,0-20.97-.02v-74.58c6.99,0,13.98.01,20.97.02,168.17.17,336.36.35,504.53.52.68,0,1.36,0,2.04.01h.01c257.84.26,515.68.53,773.52.8Z"/>
      <path class="cls-4" d="M1249.82,5119.76c12.6-24.83,25.2-49.65,37.8-74.48v-19.16c-12.6,24.83-25.2,49.65-37.8,74.48v19.16Z"/>
    </g>
    <g>
      <path class="cls-7" d="M2809.2,5120.57c-519.79-.51-1039.59-1.02-1559.38-1.54v-19.16c519.79.51,1039.59,1.02,1559.38,1.54v19.16Z"/>
      <path class="cls-2" d="M2809.2,5101.4c-519.79-.51-1039.59-1.03-1559.38-1.54,12.6-24.85,25.2-49.71,37.8-74.56,519.79.54,1039.59,1.08,1559.38,1.62-12.6,24.83-25.2,49.65-37.8,74.48Z"/>
      <path class="cls-4" d="M2809.2,5120.57c12.6-24.83,25.2-49.65,37.8-74.48v-19.16c-12.6,24.83-25.2,49.65-37.8,74.48v19.16Z"/>
    </g>
    <g>
      <path class="cls-7" d="M4368.58,5122.18c-519.79-.51-1039.59-1.02-1559.38-1.54v-19.16c519.79.51,1039.59,1.02,1559.38,1.54v19.16Z"/>
      <path class="cls-2" d="M4368.58,5103.02c-519.79-.51-1039.59-1.03-1559.38-1.54,12.6-24.85,25.2-49.71,37.8-74.56,519.79.54,1039.59,1.08,1559.38,1.62-12.6,24.83-25.2,49.65-37.8,74.48Z"/>
      <path class="cls-4" d="M4368.58,5122.18c12.6-24.83,25.2-49.65,37.8-74.48v-19.16c-12.6,24.83-25.2,49.65-37.8,74.48v19.16Z"/>
    </g>
    <g>
      <path class="cls-7" d="M5140,5101.84v19.16c-256.81-.24-513.61-.5-770.43-.76h-.99v-19.16h.98c3.24,0,6.49,0,9.73,0,253.58.25,507.14.5,760.71.75Z"/>
      <path class="cls-2" d="M5140,5027.28v74.56c-253.57-.25-507.13-.5-760.71-.75-3.24,0-6.49,0-9.73,0h-.98c11.93-23.53,23.87-47.08,35.8-70.61.32-.64.65-1.29.98-1.93.33-.67.68-1.34,1.02-2.02,244.55.25,489.08.51,733.62.76Z"/>
    </g>
    <g>
      <path class="cls-2" d="M1005.44,5116.2c-.57,1.11-1.12,2.21-1.69,3.32-12.71,25.06-25.44,50.12-38.15,75.18-319.36-.31-638.73-.63-958.09-.94-6.99,0-13.99-.02-20.97-.03v-78.59c6.99.01,13.98.01,20.97.02,332.64.35,665.29.69,997.93,1.04Z"/>
      <path class="cls-4" d="M965.6,5214.89c13.28-26.17,26.56-52.33,39.84-78.5v-20.2c-13.28,26.17-26.56,52.33-39.84,78.5v20.2Z"/>
    </g>
    <g>
      <path class="cls-2" d="M2609.17,5195.55c-547.86-.54-1095.71-1.08-1643.57-1.62,13.28-26.19,26.56-52.39,39.84-78.59,547.86.57,1095.71,1.14,1643.57,1.71-13.28,26.17-26.56,52.33-39.84,78.5Z"/>
      <path class="cls-4" d="M2609.17,5215.75c13.28-26.17,26.56-52.33,39.84-78.5v-20.2c-13.28,26.17-26.56,52.33-39.84,78.5v20.2Z"/>
    </g>
    <g>
      <path class="cls-2" d="M4252.73,5195.98c-547.86-.54-1095.71-1.08-1643.57-1.62,13.28-26.19,26.56-52.39,39.84-78.59,547.86.57,1095.71,1.14,1643.57,1.71-13.28,26.17-26.56,52.33-39.84,78.5Z"/>
      <path class="cls-4" d="M4252.73,5216.17c13.28-26.17,26.56-52.33,39.84-78.5v-20.2c-13.28,26.17-26.56,52.33-39.84,78.5v20.2Z"/>
    </g>
    <path class="cls-2" d="M5140,5117.51v78.58c-292.21-.29-584.42-.58-876.63-.87-3.42,0-6.83,0-10.25,0h-.39c12.36-24.36,24.71-48.74,37.06-73.1.78-1.54,1.57-3.09,2.35-4.63.14-.28.29-.57.43-.85,25.34.03,50.67.05,76.01.08h2.78c256.22.27,512.43.53,768.64.8Z"/>
  </g>
  <path class="cls-3" d="M1199.47,515.66l4.23,3054.75C802.47,3787.71,401.23,4005,0,4222.29V0c399.82,171.89,799.65,343.78,1199.47,515.66Z"/>
  <path class="cls-6" d="M5120.07,524.1c-1306.87-2.81-2613.73-5.62-3920.6-8.43C799.65,343.78,399.82,171.89,0,0h5122.41c-.78,174.7-1.56,349.4-2.34,524.1Z"/>
  <g>
    <path class="cls-13" d="M994.64,3683.63c-264.91,143.25-529.83,286.49-794.74,429.74-8.2-1139.4-16.4-2278.8-24.6-3418.21,278.64,81.81,557.29,163.61,835.93,245.42-5.53,914.35-11.06,1828.7-16.59,2743.04Z"/>
    <path class="cls-11" d="M978.77,3655.29c-237.47,121.26-474.94,242.52-712.41,363.78-4.04-1078.56-8.08-2157.11-12.12-3235.67,241.42,62.02,482.84,124.03,724.26,186.05.09,895.28.18,1790.56.27,2685.84Z"/>
    <rect class="cls-9" x="942" y="969.5" width="36.73" height="2685.97"/>
    <path class="cls-12" d="M254.25,783.4c.02,5.03.04,10.05.06,15.08,229.23,57.01,458.47,114.01,687.7,171.02l36.51-.05c-241.42-62.02-482.84-124.03-724.26-186.05Z"/>
    <path class="cls-12" d="M266.26,3989.51c.04,9.85.07,19.71.11,29.56,237.45-121.2,474.91-242.4,712.36-363.6h-36.73c-225.25,111.35-450.5,222.69-675.74,334.04Z"/>
    <g>
      <ellipse class="cls-8" cx="239.51" cy="2296.31" rx="24.7" ry="41.97"/>
      <ellipse class="cls-10" cx="242.41" cy="2296.31" rx="21.8" ry="41.97"/>
      <rect class="cls-15" x="238.42" y="2287.96" width="23.78" height="18.75" rx="4.82" ry="4.82"/>
      <path class="cls-8" d="M323.29,2302.72c-13.59.81-42.1,5.26-69.63,5.26-4.64,0-8.41-4.55-8.41-10.17v-.31c0-5.62,3.76-10.17,8.41-10.17,23.47,1.5,46.94,3,70.4,4.5,2.24-.15,4.22,1.33,4.88,3.53.51,1.69.19,3.6-.62,4.9-1.45,2.31-4.27,2.41-5.04,2.45Z"/>
      <path class="cls-15" d="M327.31,2302.78c-13.59.8-42.1,5.2-69.63,5.2-4.64,0-8.41-4.5-8.41-10.04v-.3c0-5.55,3.76-10.04,8.41-10.04,23.47,1.48,46.94,2.96,70.4,4.44,2.24-.14,4.22,1.31,4.88,3.49.51,1.67.19,3.55-.62,4.84-1.45,2.28-4.27,2.38-5.04,2.42Z"/>
    </g>
  </g>
</svg>