<?xml version="1.0" encoding="UTF-8"?>
<svg xmlns="http://www.w3.org/2000/svg" xmlns:xlink="http://www.w3.org/1999/xlink" viewBox="0 0 5120 5120">
  <defs>
    <style>
      .cls-1 {
        fill: #b3e2ef;
      }

      .cls-1, .cls-2 {
        stroke: #fff;
        stroke-miterlimit: 10;
        stroke-width: 23px;
      }

      .cls-3 {
        fill: #009b48;
      }

      .cls-4 {
        fill: url(#linear-gradient-2);
        mix-blend-mode: screen;
      }

      .cls-5 {
        fill: url(#linear-gradient-4);
      }

      .cls-6 {
        fill: url(#linear-gradient-3);
      }

      .cls-7 {
        fill: #bc9b90;
      }

      .cls-8 {
        fill: url(#linear-gradient-5);
      }

      .cls-9 {
        fill: #897580;
      }

      .cls-10 {
        isolation: isolate;
      }

      .cls-11 {
        fill: #939598;
      }

      .cls-12, .cls-2 {
        fill: #d1d3d4;
      }

      .cls-13 {
        fill: #a58e9b;
      }

      .cls-14 {
        fill: #ceaaa0;
      }

      .cls-15 {
        fill: #ffdcb6;
      }

      .cls-16 {
        fill: #6d6e71;
      }

      .cls-17 {
        fill: #39b54a;
      }

      .cls-18 {
        fill: #927e8a;
      }

      .cls-19 {
        fill: #fff;
        font-family: GoudyOldStyleBT-Bold, 'GoudyOlSt BT';
        font-size: 150px;
        font-weight: 700;
        letter-spacing: .04em;
      }

      .cls-20 {
        fill: url(#linear-gradient);
      }
    </style>
    <linearGradient id="linear-gradient" x1="2573.62" y1="4002.67" x2="2550.44" y2="1547.64" gradientUnits="userSpaceOnUse">
      <stop offset="0" stop-color="#0072aa"/>
      <stop offset=".28" stop-color="#009ed5"/>
      <stop offset=".54" stop-color="#3faad8"/>
      <stop offset=".82" stop-color="#80b8dc"/>
    </linearGradient>
    <linearGradient id="linear-gradient-2" x1="2560" y1="1915.91" x2="2560" y2="-20" gradientUnits="userSpaceOnUse">
      <stop offset="0" stop-color="#fff" stop-opacity="0"/>
      <stop offset=".09" stop-color="#fefefe" stop-opacity=".05"/>
      <stop offset=".25" stop-color="#fefefe" stop-opacity=".19"/>
      <stop offset=".45" stop-color="#fefefe" stop-opacity=".4"/>
      <stop offset=".55" stop-color="#fafafa" stop-opacity=".35"/>
      <stop offset=".75" stop-color="#f1f2f2" stop-opacity=".21"/>
      <stop offset="1" stop-color="#e4e5e6" stop-opacity="0"/>
      <stop offset="1" stop-color="#e4e5e6" stop-opacity=".14"/>
      <stop offset="1" stop-color="#e4e5e6" stop-opacity=".32"/>
      <stop offset="1" stop-color="#e4e5e6" stop-opacity=".48"/>
      <stop offset="1" stop-color="#e4e5e6" stop-opacity=".62"/>
      <stop offset="1" stop-color="#e4e5e6" stop-opacity=".74"/>
      <stop offset="1" stop-color="#e4e5e6" stop-opacity=".84"/>
      <stop offset="1" stop-color="#e4e5e6" stop-opacity=".91"/>
      <stop offset="1" stop-color="#e4e5e6" stop-opacity=".96"/>
      <stop offset="1" stop-color="#e4e5e6" stop-opacity=".99"/>
      <stop offset="1" stop-color="#e4e5e6"/>
    </linearGradient>
    <linearGradient id="linear-gradient-3" x1="4060.04" y1="843.16" x2="4060.04" y2="533.08" gradientUnits="userSpaceOnUse">
      <stop offset="0" stop-color="#029ed5" stop-opacity=".4"/>
      <stop offset=".06" stop-color="#26abdb" stop-opacity=".49"/>
      <stop offset=".16" stop-color="#58bfe3" stop-opacity=".61"/>
      <stop offset=".26" stop-color="#85d0ea" stop-opacity=".71"/>
      <stop offset=".37" stop-color="#aadef1" stop-opacity=".8"/>
      <stop offset=".47" stop-color="#c9eaf6" stop-opacity=".87"/>
      <stop offset=".59" stop-color="#e1f3fa" stop-opacity=".93"/>
      <stop offset=".71" stop-color="#f1f9fc" stop-opacity=".97"/>
      <stop offset=".84" stop-color="#fbfdfe" stop-opacity=".99"/>
      <stop offset="1" stop-color="#fff"/>
    </linearGradient>
    <linearGradient id="linear-gradient-4" x1="4347.78" y1="1667.11" x2="4347.78" y2="954.04" gradientTransform="translate(7916.19 124.2) rotate(-178.37) scale(1 -1)" gradientUnits="userSpaceOnUse">
      <stop offset="0" stop-color="#0072aa"/>
      <stop offset="0" stop-color="#0074ac"/>
      <stop offset="0" stop-color="#007db5"/>
      <stop offset="0" stop-color="#009ed5"/>
      <stop offset=".03" stop-color="#1ea7d7"/>
      <stop offset=".07" stop-color="#47b4da"/>
      <stop offset=".12" stop-color="#6cbfdd"/>
      <stop offset=".18" stop-color="#8dcadf"/>
      <stop offset=".24" stop-color="#a8d2e1"/>
      <stop offset=".3" stop-color="#bed9e3"/>
      <stop offset=".38" stop-color="#cfdee4"/>
      <stop offset=".48" stop-color="#dbe2e5"/>
      <stop offset=".62" stop-color="#e2e4e5"/>
      <stop offset="1" stop-color="#e4e5e6"/>
    </linearGradient>
    <linearGradient id="linear-gradient-5" x1="1180.63" y1="986.77" x2="1180.63" y2="389.46" xlink:href="#linear-gradient-3"/>
  </defs>
  <g class="cls-10">
    <g id="Layer_1" data-name="Layer 1">
      <rect class="cls-20" y="-.81" width="5120" height="5121.6"/>
      <rect class="cls-4" x="-5.12" y="-20" width="5130.24" height="1935.91"/>
      <rect class="cls-16" x="-7.26" y="3887.66" width="5126.63" height="1261.31"/>
      <path class="cls-6" d="M4465.82,769.91s2.74-44.91-32.05-89.91c-30.75-39.78-149.88-78.7-300.56-58.06-77.03-51.93-175.72-83.4-276.73-88.26-76.27-3.67-157.38,9.07-214.39,49.32-9.22,6.51-18.14,13.87-29.83,17.07-8.05,2.2-16.75,2.21-25.21,2.98-54.91,4.98-97.75,42.07-118.38,82.63-7.84,15.41-13.3,32.25-9.51,48.59,3.79,16.34,18.75,31.9,39.36,35.08-18.23,10.75-36.46,21.51-54.69,32.26,19.94-.39,39.97,2.51,58.44,8.46-13.39,5.09-27.92,8.28-42.7,9.39,371.3-10.23,742.96,38.27,1113.71,19.22-26.12-6.48-52.23-12.97-78.35-19.45,12.16-.89,24.33-1.77,36.49-2.66,48.28-4.65,96.56-9.31,144.84-13.96-73.9-5.28-147.8-10.55-221.7-15.83,1.32-.29,3.87-1.01,6.24-2.81,3.04-2.31,3.95-4.99,4.23-6.05.26-1.89.59-4.66.79-8.01Z"/>
      <rect class="cls-3" y="2883.5" width="5120" height="800.57"/>
      <rect class="cls-7" x="602.64" y="1628.96" width="3946.23" height="1703.77"/>
      <path class="cls-5" d="M2563.52,1471.27s-3.57-103.43,82.03-204.52c75.66-89.36,361.22-170.79,717.86-113.15,186.41-114.17,422.92-179.85,663.24-184.2,181.44-3.28,373.31,31.49,506.14,127.85,21.49,15.59,42.2,33.12,69.75,41.25,18.98,5.6,39.64,6.22,59.69,8.56,130.12,15.16,229.48,103.31,275.85,197.95,17.62,35.96,29.49,75.03,19.42,112.34-10.07,37.31-46.62,72.07-95.8,77.97,42.61,25.95,85.22,51.9,127.82,77.85-47.35-2.25-95.13,3.06-139.41,15.5,31.47,12.6,65.79,20.93,100.84,24.48-881.48-48.61-1767.63,37.78-2647.21-31.07,62.47-13.14,124.95-26.28,187.42-39.41-28.84-2.86-57.69-5.71-86.53-8.57-114.4-13.96-228.8-27.92-343.21-41.88,175.92-7.13,351.83-14.27,527.75-21.4-3.13-.76-9.13-2.59-14.63-6.87-7.07-5.5-9.05-11.74-9.65-14.2-.49-4.35-1.09-10.75-1.36-18.47Z"/>
      <path class="cls-13" d="M3063.31,3630.44h-965.03c36.91-57.06,73.83-114.12,110.74-171.19h741.96c37.44,57.06,74.89,114.12,112.33,171.19Z"/>
      <rect class="cls-13" y="3630.44" width="5120" height="274.43"/>
      <rect class="cls-9" y="3870.45" width="5120" height="34.42"/>
      <path class="cls-8" d="M1962.3,845.69s5.27-86.52-61.74-173.2c-59.24-76.62-288.72-151.61-578.98-111.84-148.39-100.03-338.49-160.67-533.09-170.03-146.92-7.07-303.17,17.48-413,95-17.77,12.54-34.95,26.73-57.46,32.88-15.51,4.24-32.26,4.27-48.56,5.75-105.77,9.6-188.3,81.04-228.05,159.18-15.1,29.69-25.62,62.12-18.32,93.6,7.3,31.48,36.11,61.46,75.82,67.57-35.12,20.71-70.23,41.43-105.35,62.14,38.41-.76,77,4.83,112.59,16.29-25.79,9.8-53.78,15.96-82.26,18.09,715.26-19.71,1431.21,73.72,2145.4,37.02-50.31-12.49-100.62-24.98-150.93-37.46,23.43-1.71,46.87-3.41,70.3-5.12,93.01-8.96,186.01-17.93,279.02-26.89-142.36-10.16-284.71-20.32-427.07-30.49,2.55-.56,7.46-1.95,12.01-5.41,5.85-4.44,7.6-9.62,8.14-11.66.5-3.63,1.13-8.97,1.53-15.43Z"/>
      <g>
        <rect class="cls-2" x="669.76" y="1787.97" width="264.44" height="548.84"/>
        <rect class="cls-1" x="802.14" y="1787.97" width="132.06" height="204.82"/>
        <rect class="cls-1" x="669.76" y="1787.97" width="132.22" height="204.82"/>
        <rect class="cls-1" x="802.14" y="1992.8" width="132.06" height="204.82"/>
        <rect class="cls-1" x="669.76" y="1992.8" width="132.22" height="204.82"/>
      </g>
      <g>
        <rect class="cls-2" x="1033.55" y="1787.97" width="264.44" height="548.84"/>
        <rect class="cls-1" x="1165.94" y="1787.97" width="132.06" height="204.82"/>
        <rect class="cls-1" x="1033.55" y="1787.97" width="132.22" height="204.82"/>
        <rect class="cls-1" x="1165.94" y="1992.8" width="132.06" height="204.82"/>
        <rect class="cls-1" x="1033.55" y="1992.8" width="132.22" height="204.82"/>
      </g>
      <g>
        <rect class="cls-2" x="1411.47" y="1787.97" width="264.44" height="548.84"/>
        <rect class="cls-1" x="1543.85" y="1787.97" width="132.06" height="204.82"/>
        <rect class="cls-1" x="1411.47" y="1787.97" width="132.22" height="204.82"/>
        <rect class="cls-1" x="1543.85" y="1992.8" width="132.06" height="204.82"/>
        <rect class="cls-1" x="1411.47" y="1992.8" width="132.22" height="204.82"/>
      </g>
      <g>
        <rect class="cls-2" x="1783.87" y="1787.97" width="264.44" height="548.84"/>
        <rect class="cls-1" x="1916.25" y="1787.97" width="132.06" height="204.82"/>
        <rect class="cls-1" x="1783.87" y="1787.97" width="132.22" height="204.82"/>
        <rect class="cls-1" x="1916.25" y="1992.8" width="132.06" height="204.82"/>
        <rect class="cls-1" x="1783.87" y="1992.8" width="132.22" height="204.82"/>
      </g>
      <g>
        <rect class="cls-2" x="669.76" y="2455.53" width="264.44" height="548.84"/>
        <rect class="cls-1" x="802.14" y="2455.53" width="132.06" height="204.82"/>
        <rect class="cls-1" x="669.76" y="2455.53" width="132.22" height="204.82"/>
        <rect class="cls-1" x="802.14" y="2660.35" width="132.06" height="204.82"/>
        <rect class="cls-1" x="669.76" y="2660.35" width="132.22" height="204.82"/>
      </g>
      <g>
        <rect class="cls-2" x="1033.55" y="2455.53" width="264.44" height="548.84"/>
        <rect class="cls-1" x="1165.94" y="2455.53" width="132.06" height="204.82"/>
        <rect class="cls-1" x="1033.55" y="2455.53" width="132.22" height="204.82"/>
        <rect class="cls-1" x="1165.94" y="2660.35" width="132.06" height="204.82"/>
        <rect class="cls-1" x="1033.55" y="2660.35" width="132.22" height="204.82"/>
      </g>
      <g>
        <rect class="cls-2" x="1411.47" y="2455.53" width="264.44" height="548.84"/>
        <rect class="cls-1" x="1543.85" y="2455.53" width="132.06" height="204.82"/>
        <rect class="cls-1" x="1411.47" y="2455.53" width="132.22" height="204.82"/>
        <rect class="cls-1" x="1543.85" y="2660.35" width="132.06" height="204.82"/>
        <rect class="cls-1" x="1411.47" y="2660.35" width="132.22" height="204.82"/>
      </g>
      <g>
        <rect class="cls-2" x="1783.87" y="2455.53" width="264.44" height="548.84"/>
        <rect class="cls-1" x="1916.25" y="2455.53" width="132.06" height="204.82"/>
        <rect class="cls-1" x="1783.87" y="2455.53" width="132.22" height="204.82"/>
        <rect class="cls-1" x="1916.25" y="2660.35" width="132.06" height="204.82"/>
        <rect class="cls-1" x="1783.87" y="2660.35" width="132.22" height="204.82"/>
      </g>
      <g>
        <rect class="cls-2" x="3071.21" y="1787.97" width="264.44" height="548.84"/>
        <rect class="cls-1" x="3203.59" y="1787.97" width="132.06" height="204.82"/>
        <rect class="cls-1" x="3071.21" y="1787.97" width="132.22" height="204.82"/>
        <rect class="cls-1" x="3203.59" y="1992.8" width="132.06" height="204.82"/>
        <rect class="cls-1" x="3071.21" y="1992.8" width="132.22" height="204.82"/>
      </g>
      <g>
        <rect class="cls-2" x="3435.01" y="1787.97" width="264.44" height="548.84"/>
        <rect class="cls-1" x="3567.39" y="1787.97" width="132.06" height="204.82"/>
        <rect class="cls-1" x="3435.01" y="1787.97" width="132.22" height="204.82"/>
        <rect class="cls-1" x="3567.39" y="1992.8" width="132.06" height="204.82"/>
        <rect class="cls-1" x="3435.01" y="1992.8" width="132.22" height="204.82"/>
      </g>
      <g>
        <rect class="cls-2" x="3812.92" y="1787.97" width="264.44" height="548.84"/>
        <rect class="cls-1" x="3945.3" y="1787.97" width="132.06" height="204.82"/>
        <rect class="cls-1" x="3812.92" y="1787.97" width="132.22" height="204.82"/>
        <rect class="cls-1" x="3945.3" y="1992.8" width="132.06" height="204.82"/>
        <rect class="cls-1" x="3812.92" y="1992.8" width="132.22" height="204.82"/>
      </g>
      <g>
        <rect class="cls-2" x="4185.32" y="1787.97" width="264.44" height="548.84"/>
        <rect class="cls-1" x="4317.7" y="1787.97" width="132.06" height="204.82"/>
        <rect class="cls-1" x="4185.32" y="1787.97" width="132.22" height="204.82"/>
        <rect class="cls-1" x="4317.7" y="1992.8" width="132.06" height="204.82"/>
        <rect class="cls-1" x="4185.32" y="1992.8" width="132.22" height="204.82"/>
      </g>
      <g>
        <rect class="cls-2" x="3071.21" y="2455.53" width="264.44" height="548.84"/>
        <rect class="cls-1" x="3203.59" y="2455.53" width="132.06" height="204.82"/>
        <rect class="cls-1" x="3071.21" y="2455.53" width="132.22" height="204.82"/>
        <rect class="cls-1" x="3203.59" y="2660.35" width="132.06" height="204.82"/>
        <rect class="cls-1" x="3071.21" y="2660.35" width="132.22" height="204.82"/>
      </g>
      <g>
        <rect class="cls-2" x="3435.01" y="2455.53" width="264.44" height="548.84"/>
        <rect class="cls-1" x="3567.39" y="2455.53" width="132.06" height="204.82"/>
        <rect class="cls-1" x="3435.01" y="2455.53" width="132.22" height="204.82"/>
        <rect class="cls-1" x="3567.39" y="2660.35" width="132.06" height="204.82"/>
        <rect class="cls-1" x="3435.01" y="2660.35" width="132.22" height="204.82"/>
      </g>
      <g>
        <rect class="cls-2" x="3812.92" y="2455.53" width="264.44" height="548.84"/>
        <rect class="cls-1" x="3945.3" y="2455.53" width="132.06" height="204.82"/>
        <rect class="cls-1" x="3812.92" y="2455.53" width="132.22" height="204.82"/>
        <rect class="cls-1" x="3945.3" y="2660.35" width="132.06" height="204.82"/>
        <rect class="cls-1" x="3812.92" y="2660.35" width="132.22" height="204.82"/>
      </g>
      <g>
        <rect class="cls-2" x="4185.32" y="2455.53" width="264.44" height="548.84"/>
        <rect class="cls-1" x="4317.7" y="2455.53" width="132.06" height="204.82"/>
        <rect class="cls-1" x="4185.32" y="2455.53" width="132.22" height="204.82"/>
        <rect class="cls-1" x="4317.7" y="2660.35" width="132.06" height="204.82"/>
        <rect class="cls-1" x="4185.32" y="2660.35" width="132.22" height="204.82"/>
      </g>
      <path class="cls-11" d="M4548.21,1693.9c-1315.19,1.11-2630.38,2.21-3945.58,3.32-11.85-8.88-23.69-17.77-35.54-26.65h4021.55c-13.48,7.78-26.96,15.55-40.44,23.33Z"/>
      <path class="cls-11" d="M4548.87,3219.6c-1315.41-.78-2630.82-1.56-3946.23-2.34-10.87,8.74-21.75,17.48-32.62,26.23h4021.55c-14.24-7.96-28.47-15.93-42.71-23.89Z"/>
      <rect class="cls-12" x="567.1" y="1560.84" width="4021.55" height="109.73"/>
      <rect class="cls-12" x="570.02" y="3243.48" width="4021.55" height="109.73"/>
      <rect class="cls-14" x="2139.65" y="1392.33" width="845.12" height="1973.15"/>
      <path class="cls-11" d="M2984.77,3304.79v19.08c-281.71,1.48-563.41,2.96-845.12,4.44v-26.75l-61.46,45.36h968.05l-61.46-42.13Z"/>
      <rect class="cls-12" x="2079.56" y="1323.13" width="968.05" height="109.73"/>
      <rect class="cls-12" x="2078.19" y="3346.92" width="968.05" height="109.73"/>
      <rect class="cls-12" x="2043.8" y="3394.24" width="1032.4" height="64.63"/>
      <g>
        <path class="cls-1" d="M2569.64,1594.67h0c129.64,0,234.89,105.25,234.89,234.89v566.61h-468.15v-568.25c0-128.74,104.52-233.26,233.26-233.26Z"/>
        <path class="cls-1" d="M2570.74,1594.67h0c129.03,0,233.79,104.76,233.79,233.79v65.33h-233.79v-299.12h0Z"/>
        <path class="cls-1" d="M2570.45,1594.67h0v299.12h-234.08v-65.04c0-129.19,104.89-234.08,234.08-234.08Z"/>
        <rect class="cls-1" x="2570.74" y="1893.78" width="233.79" height="299.12"/>
        <rect class="cls-1" x="2336.38" y="1893.78" width="234.08" height="299.12"/>
      </g>
      <g>
        <rect class="cls-1" x="2349.41" y="2825.43" width="210.59" height="489.58"/>
        <rect class="cls-1" x="2560" y="2825.43" width="210.59" height="489.58"/>
      </g>
      <rect class="cls-15" x="2224.92" y="2512.04" width="694.74" height="192.73"/>
      <text class="cls-19" transform="translate(2238.79 2658.09)"><tspan x="0" y="0">SCHOOL</tspan></text>
      <path class="cls-11" d="M2984.77,1463.8c-281.71-1.23-563.41-2.47-845.12-3.7-20.03-9.08-40.06-18.16-60.09-27.23h968.05c-20.94,10.31-41.89,20.62-62.83,30.94Z"/>
      <path class="cls-11" d="M3046.24,3376.5c-322.68.18-645.37.35-968.05.53-11.46,5.74-22.93,11.48-34.39,17.22h1032.4c-9.99-5.92-19.97-11.83-29.96-17.75Z"/>
      <path class="cls-17" d="M1269.49,3561.4c-14.29-21.74-31.32-41.68-50.61-59.15-5.37-4.86-10.92-9.53-16.63-14-1.06-.83-2.5-1.04-3.54,0-.91.91-1.01,2.64,0,3.54,17.27,15.31,32.82,32.57,46.16,51.42,3.81,5.38,7.44,10.89,10.89,16.51,1.54,2.51,5.07.8,4.57-1.93-1.18-6.4-5-12.01-10.32-15.7-1.11-.77-2.78-.2-3.42.9-.73,1.24-.22,2.65.9,3.42,4.29,2.98,7.08,7.61,8.02,12.71,1.52-.64,3.05-1.28,4.57-1.93-12.31-20.02-26.92-38.65-43.47-55.35-4.64-4.68-9.44-9.21-14.37-13.59-1.18,1.18-2.36,2.36-3.54,3.54,20.13,15.78,38.34,34.08,53.88,54.4,4.4,5.76,8.59,11.68,12.58,17.73,1.76,2.68,6.09.18,4.32-2.52h0Z"/>
      <path class="cls-17" d="M1241.12,3559.54c-10.54-7.84-21.3-15.59-33.51-20.63-5.97-2.47-12.24-4.13-18.69-4.69-4.85-.42-10.03.04-14.7-.62-2.41-.34-4.78-.9-6.66-2.04-1.5-.91-2.5-2.29-2.66-3.97-1.25.72-2.51,1.44-3.76,2.16,9.07,5.55,15.81,14.46,18.72,24.68,1.22-.94,2.45-1.88,3.67-2.82-6.92-3.31-13.84-6.62-20.76-9.94-1.22-.58-2.7-.34-3.42.9-.64,1.09-.33,2.84.9,3.42,6.92,3.31,13.84,6.62,20.76,9.94,1.89.9,4.31-.59,3.67-2.82-3.26-11.47-10.85-21.45-21.02-27.67-1.51-.92-3.94.25-3.76,2.16,1.07,11.21,14.98,11.47,23.54,11.45,6.38-.02,12.51,1,18.55,3.07,6.33,2.16,12.28,5.3,17.96,8.79,6.45,3.97,12.57,8.44,18.64,12.96,1.08.81,2.79.18,3.42-.9.75-1.27.19-2.61-.9-3.42h0Z"/>
      <path class="cls-17" d="M1360.67,3542.53c1.03-6.05,4.05-11.4,8.71-15.38l-2.43.64c-.32-.12.05.02.17.11.31.25-.33-.4.12.12.12.13.15.16.24.35-.11-.24.12.37.12.37.04.15.08.31.11.47-.06-.4,0,.61-.02.8.03-.4-.11.46-.17.65-.13.42.23-.51-.07.18-.06.14-.15.28-.24.41.26-.39-.62.55-.23.25-.45.35-.15.14-.73.26.81,1.39,1.62,2.79,2.43,4.18,10.96-9.38,19.13-21.91,23.48-35.65,1.22-3.86,2.12-7.81,2.7-11.81-1.64-.22-3.27-.44-4.91-.66-.51,16.41-2.32,32.76-5.47,48.87-.9,4.6-1.91,9.17-3.01,13.72h4.82c-.14-.48.27-.85.82-.81,1.35.11,2.5-1.22,2.5-2.5,0-1.44-1.15-2.39-2.5-2.5-3.73-.29-6.66,3.63-5.64,7.14.67,2.3,4.23,2.45,4.82,0,3.96-16.3,6.6-32.93,7.89-49.65.37-4.75.62-9.51.77-14.27.09-2.75-4.5-3.5-4.91-.66-1.97,13.56-7.72,26.52-16.61,36.96-2.54,2.98-5.31,5.74-8.28,8.29-.83.71-.92,2.13-.39,3.03.59,1,1.73,1.37,2.82,1.15,3.1-.61,4.92-3.59,5.11-6.57.21-3.14-1.45-5.94-4.4-7.04-.86-.32-1.79.09-2.43.64-5.23,4.47-8.84,10.8-10,17.59-.23,1.33.35,2.69,1.75,3.08,1.2.33,2.85-.41,3.08-1.75h0Z"/>
      <path class="cls-17" d="M1489.86,3522.3c16.21-3.81,31.93-9.61,46.76-17.19,2.87-1.46.34-5.78-2.52-4.32-14.45,7.39-29.77,12.97-45.57,16.68-3.13.74-1.81,5.56,1.33,4.82h0Z"/>
      <path class="cls-17" d="M1552.31,3509.55c-.3.75.21-.41-.14.32-.11.23-.21.45-.32.68-.18.37-.38.74-.58,1.11-.45.8-.94,1.57-1.47,2.32-.44.61-.81,1.07-1.5,1.82-.65.71-1.34,1.37-2.06,2-.79.68-.95.81-1.87,1.44-.76.51-1.54.99-2.36,1.41-.4.21-.82.42-1.23.61-.08.03-.72.31-.32.14-.19.08-.39.15-.58.23-.9.34-1.81.62-2.74.85-1.31.33-2.1,1.8-1.75,3.08s1.76,2.07,3.08,1.75c8.48-2.1,15.4-8.37,18.66-16.41.51-1.25-.55-2.75-1.75-3.08-1.43-.39-2.57.49-3.08,1.75h0Z"/>
      <path class="cls-17" d="M1591.27,3530.33c14.83-.82,29.67-1.53,44.49-2.46,3.27-.21,6.74-.62,9.5-2.54,2.38-1.66,3.72-4.28,5.95-6.06,2.25-1.8,5.42-2.11,8.19-2.26,3.34-.17,6.7-.1,10.04.2,7.58.69,15.1,2.7,22.02,5.85,1.23.56,2.69.35,3.42-.9.63-1.07.34-2.86-.9-3.42-6.45-2.93-13.23-5.01-20.25-6.02-3.54-.51-7.1-.8-10.68-.8-3.27,0-6.69.08-9.87.96-3.19.88-5.63,2.7-7.73,5.21-.85,1.01-1.67,2.12-2.72,2.93-1.24.95-2.81,1.37-4.33,1.61-3.25.52-6.65.48-9.93.66-3.8.21-7.61.42-11.41.63-8.6.47-17.2.95-25.8,1.42-3.2.18-3.22,5.18,0,5h0Z"/>
      <path class="cls-17" d="M1683.79,3555.89c22.53-14.52,43.68-31.2,63.01-49.77,5.5-5.28,10.84-10.71,16.04-16.28-1.31-1.01-2.62-2.02-3.93-3.03-5.93,12.82-11.86,25.63-17.78,38.45-1.46,3.15-3.03,6.27-4.36,9.48-.98,2.36-1.55,5.37.05,7.6,4.13,5.78,11.95-1.5,15.32-4.6,4.78-4.39,8.7-9.76,11.46-15.63-1.31.17-2.62.34-3.93.51,3.02,3.1,4.16,7.47,5.77,11.37,1.73,4.19,4.04,8.07,8.05,10.43,7.43,4.38,16.66,2.22,24.78,1.97,4.41-.13,8.79.18,12.54,2.66,2.69,1.78,5.2-2.55,2.52-4.32-7.28-4.82-16.41-3.18-24.59-2.74-3.87.21-7.84.33-11.42-1.21-3.42-1.47-5.58-4.65-7.06-8.13-2.01-4.74-3.36-9.78-7.05-13.57-1.04-1.07-3.24-.96-3.93.51-2.13,4.54-4.92,8.73-8.39,12.37-1.69,1.78-3.52,3.46-5.48,4.94-.96.72-1.94,1.44-2.98,2.04-.38.21-.85.5-1.29.53-.32.02-.12.22-.31-.11.05.08,0-.26,0-.45,0-.41.09-.82.22-1.27.32-1.16.87-2.2,1.38-3.29,1.33-2.86,2.65-5.73,3.98-8.59,2.62-5.65,5.23-11.31,7.85-16.96,3-6.48,6-12.97,9-19.45.52-1.13.41-2.43-.64-3.23-.96-.72-2.42-.73-3.28.2-18.09,19.4-38.04,37.08-59.53,52.64-6.05,4.38-12.23,8.59-18.51,12.64-2.7,1.74-.19,6.07,2.52,4.32h0Z"/>
      <path class="cls-17" d="M988.08,3540.15c-10.95-10.98-20.87-22.95-29.58-35.79-8.7-12.83-16.23-26.46-22.43-40.67-3.48-7.97-6.5-16.13-9.1-24.42-.96-3.06-5.69-1.79-4.82,1.33,3.53,12.74,7.07,25.48,10.6,38.22l4.82-1.33c-6.09-15.65-12.18-31.3-18.27-46.95-.45-1.16-1.43-1.99-2.74-1.79-1.1.17-2.33,1.21-2.17,2.46,3.45,26.74,6.91,53.47,10.36,80.21.25,1.9.49,3.8.74,5.69.2,1.54.59,3.17.45,4.73-.08.86-.37,1.86-.81,2.61-.24.4-.35.59-.48.57.08.01.32-.11.44-.11.51.03.37.17-.07-.14-1.11-.77-2.78-.2-3.42.9-.73,1.25-.21,2.65.9,3.42,2.38,1.66,5.11.54,6.64-1.65,1.39-1.98,2.01-4.72,1.77-7.11-.73-7.19-1.86-14.37-2.78-21.54-1.86-14.44-3.73-28.88-5.59-43.32-1.04-8.09-2.09-16.17-3.13-24.26-1.64.22-3.27.44-4.91.66,6.09,15.65,12.18,31.3,18.27,46.95.49,1.26,1.68,2.13,3.08,1.75,1.3-.36,2.11-1.77,1.75-3.08-3.53-12.74-7.07-25.48-10.6-38.22l-4.82,1.33c4.76,15.12,10.94,29.81,18.42,43.79,7.46,13.92,16.24,27.11,26.13,39.41,5.58,6.94,11.54,13.58,17.84,19.88,2.28,2.28,5.81-1.25,3.54-3.54h0Z"/>
      <path class="cls-17" d="M907.59,3493.14c1.77,14.74,3.56,30.42-1.09,44.83-1.26,3.91-3.06,7.6-5.36,11.01-1.8,2.68,2.53,5.18,4.32,2.52,8.89-13.19,9.67-29.69,8.5-45.05-.34-4.45-.84-8.88-1.37-13.31-.16-1.34-1.03-2.5-2.5-2.5-1.23,0-2.66,1.15-2.5,2.5h0Z"/>
      <path class="cls-17" d="M834.99,3531.29c-9.69,1.59-13.52,12.06-15.81,20.28-1.21,4.34-2.39,9.36-5.59,12.74-1.34,1.41-2.83,2.1-4.51.82-1.76-1.34-3.02-3.5-4.19-5.32-3.13-4.88-5.46-10.17-6.98-15.76-1.61.44-3.21.89-4.82,1.33,1.24,3.67,2.49,7.34,3.73,11.01,1.52-.64,3.05-1.28,4.57-1.93-4.76-9.51-9.52-19.02-14.29-28.53-1.44-2.88-5.76-.35-4.32,2.52,4.76,9.51,9.52,19.02,14.29,28.53,1.26,2.51,5.48.76,4.57-1.93-1.24-3.67-2.49-7.34-3.73-11.01-1.02-3.02-5.67-1.81-4.82,1.33,1.47,5.42,3.67,10.66,6.56,15.47,2.46,4.1,6,10.28,11.55,10.02,5.64-.26,8.85-6.49,10.63-11.07,1.79-4.62,2.53-9.6,4.49-14.15,1.89-4.38,5-8.7,9.99-9.52,1.33-.22,2.08-1.87,1.75-3.08-.39-1.42-1.74-1.97-3.08-1.75h0Z"/>
      <path class="cls-17" d="M750.79,3532.18c3.22,0,3.22-5,0-5s-3.22,5,0,5h0Z"/>
      <path class="cls-17" d="M754.39,3577.99c2.18,1.47,4.35,2.93,6.53,4.4,2.43,1.64,4.9-1.92,3.03-3.93-19.97-21.47-39.46-43.37-58.46-65.7-5.35-6.29-10.66-12.62-15.94-18.98-.86-1.04-2.64-.89-3.54,0-1.03,1.03-.86,2.49,0,3.54,18.72,22.57,37.93,44.72,57.63,66.43,5.55,6.12,11.14,12.2,16.77,18.25,1.01-1.31,2.02-2.62,3.03-3.93-2.18-1.47-4.35-2.93-6.53-4.4-2.68-1.8-5.18,2.53-2.52,4.32h0Z"/>
      <path class="cls-17" d="M690.16,3499.45c7.56,15.91,13.28,32.67,17.08,49.87,1.09,4.95,2.02,9.94,2.8,14.95.21,1.34,1.88,2.07,3.08,1.75,1.43-.39,1.95-1.74,1.75-3.08-2.75-17.77-7.51-35.22-14.21-51.91-1.91-4.76-3.97-9.47-6.17-14.11-.58-1.22-2.33-1.54-3.42-.9-1.25.73-1.48,2.2-.9,3.42h0Z"/>
      <path class="cls-17" d="M657.81,3568.09c-4.94-15.15-10.86-29.97-17.68-44.36-1.01-2.12-3.9-1.23-4.57.6-2.24,6.08-4.86,13.56-10.88,16.9-4.33,2.41-10.82,2.17-13.23-2.38l-3.42,3.42c3.83,1.75,7.66,3.49,11.49,5.24,1.13.52,2.43.42,3.23-.64.74-1,.69-2.37-.2-3.28-6.78-6.93-15.86-11.66-25.45-13.13-5.19-.79-10.25-.36-15.47-.27-4.25.07-8.99-.26-11.91-3.64-1.07-1.24-1.94-3.12-2.11-4.47-.21-1.74.15-2.86,1.45-3.99,1.02-.89.91-2.63,0-3.54-1.01-1.01-2.52-.89-3.54,0-3.4,2.97-3.54,7.73-1.85,11.63,1.85,4.27,5.56,7.16,10.03,8.26,5.56,1.37,11.25.37,16.88.44,4.97.06,9.87,1.09,14.49,2.92,5.23,2.07,9.99,5.31,13.92,9.32l3.03-3.93c-3.83-1.75-7.66-3.49-11.49-5.24-2.23-1.02-4.65,1.09-3.42,3.42,2.8,5.31,9.05,6.97,14.64,6.08,6.35-1.02,11.03-5.82,14.06-11.23,1.87-3.35,3.23-6.97,4.55-10.57-1.52.2-3.05.4-4.57.6,6.64,14.01,12.37,28.43,17.18,43.17.99,3.05,5.82,1.74,4.82-1.33h0Z"/>
      <path class="cls-17" d="M585.24,3525.72c.49.02-.22-.12.18.04-.5-.2-.2-.09-.09-.01-.02-.01-.39-.23-.17-.11-.01,0-.1-.1-.08-.14.03-.06-.06-.21,0,.05.02.08.09.61.06.24-.03-.33-.02.29-.03.38,0,.29.03-.09.03-.13-.02.11-.04.22-.06.33-.07.26-.13.51-.22.76.14-.39-.11.23-.18.36-.05.1-.35.57-.25.43.09-.12-.31.34-.41.45-.11.12-.52.35-.63.39-.42.14.21.04-.24.05-.26,0-.53,0-.78-.02-.72-.09-1.46-.35-2.11-.67-3.04-1.47-5.43-3.97-8.45-5.48-3.32-1.66-6.99-2.45-10.7-2.47-7.66-.04-14.86,3-21.24,7.03-3.3,2.08-6.43,4.4-9.58,6.69-1.57,1.14-3.14,2.36-4.81,3.36-.66.39-1.3.71-2.06.84-.3.05-.39,0-.47,0-.14-.02-.75-.26-.55-.16-1.78-.88-2.49-3.82-1.65-5.82,1.41-3.35,5.17-5.25,8.17-6.9l-3.67-1.49c1.08,7.4-5.25,13.97-11.75,16.4-8.21,3.08-16.82.14-23.69-4.7-4.16-2.93-7.75-6.63-10.96-10.55-.86-1.05-2.65-.89-3.54,0-1.03,1.03-.86,2.49,0,3.54,6.39,7.81,14.76,14.97,24.83,17.27,9.38,2.15,19.55-.82,25.69-8.45,3.44-4.28,5.04-9.38,4.24-14.83-.24-1.66-2.41-2.19-3.67-1.49-3.56,1.96-7.23,4.16-9.43,7.71-1.96,3.16-2.06,7.15-.27,10.41,1.91,3.48,5.82,4.93,9.51,3.44,2.09-.85,3.88-2.28,5.7-3.59s3.69-2.69,5.55-4.01c6.9-4.9,14.51-9.58,23.24-9.67,4.01-.04,7.75,1,11.07,3.27,3.29,2.25,6.32,4.94,10.47,5.32,3.67.33,6.64-2.32,7.6-5.74.98-3.49-.68-7.12-4.59-7.31-3.22-.15-3.21,4.85,0,5h0Z"/>
      <path class="cls-17" d="M519.45,3375.69c-.27,1.7-.57,3.41-1.18,5.03-.04.11-.08.21-.12.32.14-.34.16-.38.05-.13-.07.15-.14.3-.22.45-.1.2-.21.39-.33.58-.06.1-.26.53-.37.55.22-.28.25-.32.08-.11l-.11.13c-.15.17-.3.33-.47.49-.07.07-.14.13-.22.2-.2.16-.13.11.21-.16-.13.06-.25.17-.37.24s-.26.14-.39.21c-.38.2.63-.22,0,0-.29.1-.58.16-.88.23-.43.1.7-.06.02,0-.17.01-.34.02-.51.02-.13,0-.25-.01-.38-.02-.44-.01.69.13.04,0-.28-.06-.55-.17-.82-.24.7.16.3.14.06,0-.14-.08-.26-.18-.39-.25.61.35.32.25.15.09-.22-.22-.28-.53.01.07-.07-.14-.17-.27-.25-.4-.21-.35.22.64.03.03-.39-1.25-1.76-2.17-3.08-1.75-1.26.41-2.16,1.74-1.75,3.08.96,3.09,4.15,4.73,7.27,4.34,1.72-.21,3.23-.81,4.56-1.94s2.28-2.84,2.93-4.52c.65-1.66.96-3.43,1.24-5.19.11-.68.11-1.31-.25-1.93-.3-.52-.9-1.01-1.49-1.15-1.2-.27-2.85.37-3.08,1.75h0Z"/>
      <path class="cls-17" d="M505.25,3364.52c1.17,15.18.59,30.5-1.86,45.53-.22,1.33.35,2.69,1.75,3.08,1.19.33,2.86-.41,3.08-1.75,2.52-15.49,3.25-31.21,2.04-46.86-.1-1.35-1.07-2.5-2.5-2.5-1.27,0-2.6,1.15-2.5,2.5h0Z"/>
      <path class="cls-17" d="M469.03,3412.41c-6.67-20.06-13.34-40.12-20.01-60.18-1.01-3.03-5.68-1.8-4.82,1.33,2.3,8.33,5.02,17.65,2.19,26.18-1.97,5.95-7.15,11.64-13.8,11.62-3.22,0-3.22,4.99,0,5,6.59.02,12.22-3.97,15.76-9.32,4.16-6.29,4.73-13.93,3.74-21.23-.63-4.61-1.83-9.1-3.06-13.58l-4.82,1.33c6.67,20.06,13.34,40.12,20.01,60.18,1.01,3.04,5.84,1.74,4.82-1.33h0Z"/>
      <path class="cls-17" d="M405.42,3389.52c-5.78,9.25-18.06,13.3-28.26,9.65-1.27-.45-2.74.51-3.08,1.75-.38,1.39.47,2.62,1.75,3.08,12.33,4.4,27.01-.91,33.91-11.95,1.71-2.74-2.61-5.25-4.32-2.52h0Z"/>
      <path class="cls-17" d="M353.5,3403.42c-8.06,3.58-14.89,9.7-19.49,17.22,1.52.2,3.05.4,4.57.6-.37-2.09-.75-4.18-1.12-6.28-.24-1.33-1.86-2.08-3.08-1.75-1.4.39-1.98,1.74-1.75,3.08.37,2.09.75,4.18,1.12,6.28.39,2.22,3.53,2.3,4.57.6,4.18-6.84,10.36-12.16,17.69-15.42,1.23-.55,1.52-2.35.9-3.42-.74-1.27-2.18-1.45-3.42-.9h0Z"/>
      <path class="cls-17" d="M338.03,3390.61c-4.4,13.47-14.15,24.93-26.52,31.79-3.48,1.93-7.14,3.45-10.95,4.58-3.08.91-1.77,5.74,1.33,4.82,14.82-4.37,27.69-14.57,35.55-27.85,2.24-3.78,4.05-7.83,5.41-12.01,1-3.07-3.83-4.38-4.82-1.33h0Z"/>
      <path class="cls-17" d="M243.35,3440.57c.98-4.66,1.95-9.31,2.93-13.97.87-4.13,2.05-8.35,2.18-12.59.11-3.61-.85-7.59-3.87-9.86-2.54-1.91-6.19-1.55-8.77.1-3.19,2.04-4.36,5.72-1.87,8.81.85,1.05,2.65.88,3.54,0,1.04-1.04.85-2.48,0-3.54.13.16-.07-.1-.01-.12.03.32.04.34.02.05-.06.32-.06.34,0,.06.08-.51-.16.24.08-.18.16-.23.16-.25,0-.04.1-.12.2-.23.32-.34.34-.34.49-.44,1.11-.75.27-.13.31-.15.12-.05.16-.06.33-.11.49-.16.17-.05.33-.09.5-.12-.24.02-.21.02.1,0,.79-.05.56-.01,1.31.19-.21-.06.06.06.18.16.18.16.37.36.52.55.95,1.22,1.21,2.83,1.24,4.33.08,3.93-1.11,7.88-1.91,11.69-1.01,4.82-2.02,9.63-3.03,14.45-.28,1.32.39,2.7,1.75,3.08,1.24.34,2.8-.42,3.08-1.75h0Z"/>
      <path class="cls-17" d="M205.77,3444.94c15.8-7.34,27.84-21.97,32.69-38.63,1.37-4.7,2.13-9.58,2.3-14.47.08-2.46-3.49-3.43-4.66-1.26-6.82,12.61-10.18,26.97-9.56,41.3.1,2.26,2.62,3.17,4.27,1.77,5.48-4.66,10.96-9.32,16.44-13.98,1.03-.88.9-2.63,0-3.54-1.02-1.02-2.5-.88-3.54,0-5.48,4.66-10.96,9.32-16.44,13.98,1.42.59,2.85,1.18,4.27,1.77-.58-13.47,2.46-26.91,8.88-38.78-1.55-.42-3.11-.84-4.66-1.26-.55,16.11-8.62,31.46-21.03,41.64-3.49,2.87-7.39,5.24-11.49,7.15-1.22.57-1.53,2.33-.9,3.42.73,1.26,2.19,1.47,3.42.9h0Z"/>
      <path class="cls-17" d="M251.68,3418.08c.22,4.66.97,9.85,4.19,13.46,2.67,2.99,7.07,3.84,10.67,2.19,2.87-1.31,4.81-4.17,6.35-6.81,1.66-2.85,3.01-5.87,4.76-8.66,1.02-1.62,1.5-2.28,2.96-3.62.06-.06.61-.48.14-.13.16-.12.33-.24.5-.35.34-.22.69-.41,1.06-.58-.47.22-.15.06-.04.02.26-.09.51-.17.78-.24.13-.03.27-.06.4-.09.29-.05.27-.05-.04,0,.14-.02.28-.03.43-.03-.8-.61-1.61-1.22-2.41-1.84,2.09,7.48.73,15.49-3.61,21.92-1.61,2.39,1.95,5,3.93,3.03,11.49-11.49,21.06-24.87,28.17-39.47.59-1.21.33-2.7-.9-3.42-1.1-.64-2.83-.32-3.42.9-6.94,14.25-16.18,27.25-27.39,38.46,1.31,1.01,2.62,2.02,3.93,3.03,5.05-7.48,6.54-17.09,4.11-25.77-.28-1-1.32-1.91-2.41-1.84-6.95.47-10.38,6.98-13.26,12.47-.72,1.37-1.44,2.75-2.23,4.08-.36.61-.74,1.21-1.15,1.78-.1.15-.21.29-.32.44.06-.07.3-.37,0,0-.24.29-.48.57-.74.84-.2.21-.41.42-.63.62-.14.13-.29.25-.44.37.07-.05.43-.29.06-.06-.26.16-.52.32-.78.47-.1.06-.22.11-.33.16.6-.27.04-.03-.08,0-.16.04-1.12.22-.41.14-.29.03-.57.03-.86.04-.17,0-.33-.02-.5-.03.53.04.17.03.05,0-.51-.1-.97-.22-1.3-.38-1.56-.76-2.52-2.44-3.11-4.21-.75-2.25-1.02-4.55-1.13-6.9-.15-3.2-5.15-3.22-5,0h0Z"/>
      <path class="cls-17" d="M56.14,3416.2c4.91-15.51,11.2-30.53,18.81-44.9-1.55-.42-3.11-.84-4.66-1.26.05,6.07.09,12.15.14,18.22.04,5.69-.17,11.44.21,17.11.32,4.77,1.56,9.66,5.68,12.54,4.05,2.84,9.59,2.28,13.8.12,5.22-2.68,8.42-8.06,11.26-12.96-1.52-.64-3.05-1.28-4.57-1.93-1.04,7.1.28,14.29,4.06,20.42.91,1.48,2.67,1.52,3.93.51,3.78-3.07,7.57-6.15,11.35-9.22,1.05-.85.89-2.65,0-3.54-1.04-1.04-2.48-.85-3.54,0-3.78,3.07-7.57,6.15-11.35,9.22,1.31.17,2.62.34,3.93.51-3.02-4.91-4.4-10.83-3.56-16.57.18-1.23-.2-2.45-1.45-2.95-1.14-.46-2.48-.08-3.12,1.02-2.13,3.67-4.34,7.72-7.89,10.21-2.83,1.99-7.13,3.11-10.18.94s-3.31-6.48-3.43-9.82c-.17-5.2-.1-10.42-.14-15.62-.05-6.07-.09-12.15-.14-18.22-.02-2.4-3.47-3.5-4.66-1.26-7.81,14.74-14.28,30.19-19.31,46.1-.97,3.08,3.85,4.39,4.82,1.33h0Z"/>
      <path class="cls-17" d="M121.14,3402.81c3.23-4.06,6.45-8.12,9.68-12.17.43-.54.73-1.05.73-1.77,0-.61-.27-1.35-.73-1.77-.9-.83-2.67-1.09-3.54,0-3.23,4.06-6.45,8.12-9.68,12.17-.43.54-.73,1.05-.73,1.77,0,.61.27,1.35.73,1.77.9.83,2.67,1.09,3.54,0h0Z"/>
      <path class="cls-17" d="M139.32,3375.66c-7.09,9.8-7.31,23.95-.62,34,1.77,2.67,6.11.17,4.32-2.52-5.8-8.71-5.51-20.49.62-28.95.79-1.09.19-2.79-.9-3.42-1.26-.74-2.63-.2-3.42.9h0Z"/>
      <path class="cls-17" d="M311.82,3561.18c-13.18-2.83-23.97-14.62-25.18-28.15l-.73,1.77s.52-.55.27-.36c.31-.24-.03-.07.36-.14-.4.07.33.01.39.02-.33-.04.19.05.29.09.68.25,1.35.64,1.69,1.44,1.03,2.42-1,6.11-2.05,8.46-3.07,6.91-6.13,13.81-9.2,20.72-.55,1.23-.36,2.69.9,3.42,1.06.62,2.87.34,3.42-.9,3.23-7.29,6.47-14.57,9.7-21.86,1.5-3.38,3.11-7.05,2.13-10.82-.69-2.67-2.99-4.8-5.68-5.39-1.42-.31-2.97-.21-4.26.51-.54.3-1.02.7-1.42,1.16-.81.92-.85,1.79-.71,2.94.34,2.93,1,5.79,2.06,8.54,2.08,5.37,5.32,10.25,9.52,14.2,4.79,4.5,10.72,7.79,17.16,9.17,3.14.67,4.48-4.14,1.33-4.82h0Z"/>
      <path class="cls-17" d="M262.54,3564.71c-.31.62-.66,1.21-1.06,1.77-.04.05-.38.51-.17.24s-.15.18-.19.23c-.22.26-.46.52-.7.76s-.49.48-.75.71c-.13.11-.26.23-.39.33-.09.07-.49.34-.06.05-.57.39-1.13.78-1.74,1.12-.3.17-.61.32-.92.47-.23.11-.18.08.03,0-.19.08-.38.15-.58.22-.61.22-1.24.41-1.88.55-.17.04-.34.07-.51.1,0,0-.65.1-.28.05s-.21.02-.28.03c-.17.02-.34.03-.51.04-.72.04-1.45.01-2.17-.06-1.31-.14-2.56,1.25-2.5,2.5.07,1.47,1.1,2.35,2.5,2.5,6.62.69,13.51-3.15,16.49-9.09.59-1.17.35-2.76-.9-3.42-1.13-.6-2.79-.35-3.42.9h0Z"/>
      <path class="cls-17" d="M234.24,3560.93c-.09.06-.89.54-.42.27-.06.04-.23.09-.3.09-.37,0,.44-.03.08,0-.25.02-.7-.06-.18.02-.11-.02-.27-.06-.37-.1.18.09.31.16.06.02s-.48-.27-.71-.43c.37.26-.17-.15-.28-.25-.46-.42-.88-.88-1.29-1.34-1.87-2.16-3.41-4.61-5.56-6.52-2.49-2.21-5.42-3.28-8.75-2.7-3.05.53-5.77,2.34-8.38,3.89-1.33.78-2.79,1.64-4.07,2.09-1.53.54-2.57.67-3.94.26-3.09-.93-4.41,3.89-1.33,4.82,6.8,2.06,11.93-4.03,17.6-5.87,2.49-.81,4.11-.21,6.03,1.72,2.07,2.07,3.59,4.61,5.63,6.7,2.37,2.42,5.6,3.64,8.68,1.67,2.7-1.73.2-6.06-2.52-4.32h0Z"/>
      <path class="cls-17" d="M194.19,3559.66c-16,5.81-33.05,7.14-49.92,7.98-13.58.68-27.74,1.58-40.93-2.4-6.81-2.06-12.97-5.63-17.62-11.07-1.62-1.9-4.95.12-4.18,2.43,1.95,5.88,10.57,8.07,14.73,3.13,1.68-1.99.05-4.56-2.43-4.18-15.16,2.33-30.33,4.66-45.49,6.99-1.34.21-2.07,1.88-1.75,3.08.39,1.43,1.74,1.95,3.08,1.75,15.16-2.33,30.33-4.66,45.49-6.99l-2.43-4.18c-1.67,1.98-5.57,1.49-6.38-.93-1.39.81-2.79,1.62-4.18,2.43,9.19,10.75,23.41,14.32,36.98,15.22,7.05.47,14.11.24,21.16-.09,8.74-.42,17.49-.86,26.19-1.9,9.86-1.17,19.65-3.06,29.01-6.46,1.27-.46,2.12-1.7,1.75-3.08-.34-1.22-1.8-2.21-3.08-1.75h0Z"/>
      <path class="cls-17" d="M519.76,3130.06c-2.29-3.47-4.57-6.94-6.86-10.4-1.06-1.6-4.21-1.69-4.57.6-1.02,6.41-4.27,12.06-9.31,16.15h3.54c-2.33-2.63-5.48-4.48-8.92-5.22-1.4-.3-2.59.42-3.08,1.75-2.86,7.81-10.84,13.3-19.11,13.41-3.21.04-3.22,5.04,0,5,10.62-.14,20.3-7.15,23.94-17.08l-3.08,1.75c2.67.58,4.9,1.89,6.71,3.93.96,1.09,2.54.81,3.54,0,5.61-4.55,9.46-11.23,10.59-18.36-1.52.2-3.05.4-4.57.6l6.86,10.4c1.76,2.67,6.1.17,4.32-2.52h0Z"/>
      <path class="cls-17" d="M452.02,3153.25c3.22,0,3.22-5,0-5s-3.22,5,0,5h0Z"/>
      <path class="cls-17" d="M429.42,3154.21c-8.86,4.12-19.2,2.67-28.54,1.46-10.93-1.42-21.88-2.62-32.86-3.51-22.16-1.8-44.42-2.48-66.65-2.02-12.47.26-24.93.87-37.36,1.84-1.73.13-3.32,2.07-2.16,3.76,7.95,11.56,25.46,15.03,36.99,6.73,2.2-1.58.97-5.34-1.93-4.57-15.53,4.15-33.9,8.81-48.79.2-2.79-1.61-5.31,2.71-2.52,4.32,12.51,7.23,27.39,6.07,40.99,3.16,3.91-.84,7.79-1.83,11.65-2.86-.64-1.52-1.28-3.05-1.93-4.57-9.17,6.61-23.59,4.59-30.15-4.94l-2.16,3.76c22.42-1.74,44.92-2.33,67.39-1.77,22.47.57,44.92,2.29,67.22,5.17,11.15,1.44,22.76,3.06,33.33-1.85,1.22-.57,1.53-2.33.9-3.42-.73-1.26-2.19-1.47-3.42-.9h0Z"/>
      <path class="cls-17" d="M239.42,3158.28c-9.42,4.61-19.82,6.99-30.3,7.04-3.22.02-3.22,5.02,0,5,11.39-.06,22.6-2.73,32.83-7.73,1.21-.59,1.54-2.32.9-3.42-.72-1.24-2.2-1.49-3.42-.9h0Z"/>
      <path class="cls-17" d="M189.7,3148.89c-7.82-.82-12.32,6.4-15.81,12.2-1.84,3.06-3.6,6.13-5.87,8.54-1.31,1.38-2.15,2.06-3.84,2.92-.47.24-1.23.53-2.13.65s-1.9.03-2.82-.21c-4.09-1.07-7.88-5.34-7.1-9.63-1.22.5-2.45,1-3.67,1.49.24.11.47.22.69.36-.07-.05-.35-.25.06.05.57.42-.19-.17.11.1.09.08.29.56.1.08.06.13.1.28.13.42.17.67,0-.31.03.12,0,.2,0,.39,0,.58-.03.7.12-.4-.05.3-.37,1.57-1.18,2.84-2.51,3.99-1.39,1.21-3.29,1.54-5.45,1.54-2.84,0-5.61-.63-8.36-1.31-2.86-.71-5.71-1.49-8.63-1.9-3.22-.45-6.44-.48-9.67-.17-6.37.61-12.57,2.25-18.87,3.32-19.63,3.33-40.36-.52-57.86-9.87-9.94-5.31-18.84-12.38-26.16-20.96-.88-1.03-2.63-.9-3.54,0-1.02,1.02-.88,2.51,0,3.54,14.09,16.51,34.14,27.72,55.42,31.73,10.73,2.02,21.69,2.26,32.47.55,6.51-1.03,12.9-2.87,19.48-3.38,3.22-.25,6.44-.18,9.62.44,3.12.61,6.17,1.54,9.28,2.2,5.89,1.24,12.78,1.65,17-3.43,3-3.6,4.59-10.21-.77-12.62-1.33-.6-3.36-.25-3.67,1.49-1.95,10.77,10.41,19.93,20.05,14.49,7.02-3.96,9.82-12.27,14.43-18.42.48-.64-.15.18.14-.18.18-.22.36-.44.54-.65.31-.36.63-.7.96-1.04s.66-.63,1.01-.92c.56-.46-.4.26.2-.15.18-.12.36-.25.55-.36.37-.23.75-.43,1.14-.6-.53.23.13-.04.21-.06.21-.06.41-.13.63-.18s.43-.1.65-.13c-.55.09.11,0,.23,0,.56-.01,1.11,0,1.67.05,1.34.14,2.5-1.25,2.5-2.5,0-1.47-1.15-2.36-2.5-2.5h0Z"/>
      <path class="cls-17" d="M79.41,3046.35c12.73-8.06,23.49-19,31.32-31.88h-4.32c1.67,2.43.82,5.49-.04,8.08-1.17,3.54-2.53,7.2-1.66,10.98,1.27,5.51,9.54,9.02,13,3.41,1.69-2.75-2.63-5.26-4.32-2.52-.19.3-.08.23-.37.34.41-.15-.33.06-.34.06.28-.04.04-.02-.1-.03-.24,0-.55-.03-1.06-.23-.14-.05-.6-.29-.91-.52-.54-.4-.84-.91-1.02-1.63-.34-1.34-.13-2.74.19-4.06,1.3-5.33,4.52-11.2.94-16.4-1.06-1.54-3.29-1.69-4.32,0-7.38,12.14-17.52,22.48-29.53,30.08-2.71,1.72-.21,6.05,2.52,4.32h0Z"/>
      <path class="cls-17" d="M236.42,3014.48c6.48-2.41,12.97-4.82,19.45-7.23,1.26-.47,2.13-1.69,1.75-3.08-.33-1.22-1.8-2.22-3.08-1.75-6.48,2.41-12.97,4.82-19.45,7.23-1.26.47-2.13,1.69-1.75,3.08.33,1.22,1.8,2.22,3.08,1.75h0Z"/>
      <path class="cls-17" d="M265.04,3002.68c-5.02,3.17-4.69,10.4-.89,14.42,4.89,5.17,13.16,3.45,18.69.48,5.24-2.81,9.96-7.47,15.94-7.56,1.98-.03,4.16.39,5.4,1.51.63.57.96,1.06,1.18,1.84.48,1.69.03,3.54.07,5.27.04,1.79.37,3.73,1.64,5.07,1.06,1.12,2.53,1.72,4.04,1.87,3.2.32,5.65-1.84,5.16-5.1-.2-1.34-1.89-2.07-3.08-1.75-1.43.39-1.95,1.73-1.75,3.08-.09-.61.17-.75.47-1.19-.17.25.21.02-.14.03.52,0,.13-.03.02-.02-.47.04-1.08-.19-1.19-.45.14.35-.1-.53-.13-.68-.12-.7-.05-1.47-.02-2.16.08-1.68.19-3.35-.2-5.01-1.1-4.63-5.56-6.86-9.96-7.25-5.33-.47-9.93,1.88-14.28,4.68-4.34,2.79-9.47,6.6-14.98,5.5-1.23-.25-2.46-.79-3.25-1.58-.6-.6-1.03-1.4-1.27-2.2-.54-1.8-.34-3.6,1.05-4.47,2.71-1.71.21-6.04-2.52-4.32h0Z"/>
      <path class="cls-17" d="M346.94,3021.91c6.63,2.3,14.05,2.27,20.66-.11,1.27-.46,2.12-1.7,1.75-3.08-.34-1.23-1.8-2.21-3.08-1.75-5.85,2.11-12.12,2.16-18,.11-1.28-.44-2.73.51-3.08,1.75-.38,1.38.47,2.63,1.75,3.08h0Z"/>
      <path class="cls-17" d="M397.48,3016.44c13.43,9,30.41,4.4,44.52-.27,8.14-2.69,16.22-5.44,24.54-7.55,8.75-2.22,17.6-3.97,26.5-5.48,10.01-1.7,20.06-3.08,30.11-4.47,1.34-.18,2.07-1.9,1.75-3.08-.4-1.44-1.73-1.93-3.08-1.75-17.5,2.41-35.03,4.82-52.24,8.88-8.4,1.98-16.63,4.46-24.8,7.24-7.24,2.46-14.56,4.93-22.14,6.1-7.83,1.21-15.92.56-22.64-3.94-2.68-1.8-5.19,2.53-2.52,4.32h0Z"/>
      <path class="cls-17" d="M3165.3,3569.03c-.58-14.45-3.16-28.79-7.7-42.52-1.52.64-3.05,1.28-4.57,1.93,7.7,11.71,16.5,22.71,26.25,32.78,1.17,1.21,3.06.81,3.93-.51,2.7-4.12,5.4-8.24,8.1-12.36,1.77-2.7-2.56-5.21-4.32-2.52-2.7,4.12-5.4,8.24-8.1,12.36l3.93-.51c-9.46-9.78-17.99-20.4-25.47-31.77-1.48-2.26-5.5-.9-4.57,1.93,4.41,13.32,6.96,27.17,7.52,41.19.13,3.21,5.13,3.22,5,0h0Z"/>
      <path class="cls-17" d="M3203.16,3530.24c1.85,5.67,5.82,10.5,11.14,13.24,1.46.75,3.18.1,3.67-1.49,3.01-9.68,1.89-20.35-2.95-29.23-1.54-2.83-5.84-.31-4.32,2.52,5.4,10.04,12.54,19.14,21.02,26.76,1.73,1.56,5.03.08,4.18-2.43-2.16-6.32-2.76-13.08-1.57-19.67-1.22.5-2.45,1-3.67,1.49,11.29,6.45,18.96,18.65,19.71,31.65.16,2.73,4.16,3.5,4.91.66,1.28-4.82,2.55-9.65,3.83-14.47.82-3.11-4-4.44-4.82-1.33-1.28,4.82-2.55,9.65-3.83,14.47,1.64.22,3.27.44,4.91.66-.84-14.76-9.32-28.63-22.18-35.97-1.3-.74-3.38-.13-3.67,1.49-1.36,7.46-.89,15.13,1.57,22.33,1.39-.81,2.79-1.62,4.18-2.43-8.19-7.36-15.02-16.04-20.24-25.75l-4.32,2.52c4.22,7.75,5.06,16.97,2.45,25.38,1.22-.5,2.45-1,3.67-1.49-4.17-2.15-7.38-5.78-8.84-10.26-.99-3.05-5.82-1.74-4.82,1.33h0Z"/>
      <path class="cls-17" d="M3274.7,3536.05c7.62-11.85,16.71-22.69,26.99-32.31,10.33-9.67,21.82-18.05,34.18-24.93,6.92-3.85,14.1-7.23,21.49-10.06l-3.08-3.08c-4.03,10.61-13.05,18.28-20.97,25.97-8.24,7.99-16.03,17.19-18.44,28.74-1.32,6.31-.73,12.8,2.5,18.45,1.6,2.79,5.92.28,4.32-2.52-5.43-9.52-1.13-20.86,4.54-29.2,6.26-9.2,15.49-15.89,22.81-24.17,4.22-4.77,7.79-9.97,10.06-15.95.65-1.71-1.36-3.73-3.08-3.08-13.61,5.22-26.55,12.08-38.47,20.49-11.9,8.4-22.81,18.2-32.32,29.23-5.41,6.27-10.38,12.92-14.86,19.88-1.75,2.71,2.58,5.22,4.32,2.52h0Z"/>
      <path class="cls-17" d="M3460.68,3524.58c3.21-11.01,1.25-23.35-5.32-32.76v2.52c.64-.99,1.6-1.42,2.65-1.41,1.38,0,2.77.33,4.17.98,3.57,1.63,6.17,4.48,8.72,7.38,5.74,6.55,10.42,14.16,13.64,22.25,1.88,4.71,3.3,9.58,4.26,14.55,1.39-.81,2.79-1.62,4.18-2.43-6.8-7.26-7.45-19-1.82-27.12.77-1.11.2-2.78-.9-3.42-1.24-.73-2.65-.22-3.42.9-6.91,9.97-5.64,24.37,2.6,33.18,1.82,1.95,4.62-.13,4.18-2.43-1.89-9.74-5.57-19.16-10.77-27.61-2.62-4.26-5.63-8.29-8.96-12.01-3.04-3.4-6.26-6.42-10.55-8.14-4.41-1.77-9.51-1.46-12.3,2.81-.45.69-.48,1.83,0,2.52,5.85,8.38,7.68,19.08,4.82,28.91-.9,3.1,3.92,4.42,4.82,1.33h0Z"/>
      <path class="cls-17" d="M3519.54,3522.27c1.01-1.01,2.02-2.02,3.03-3.03.45-.45.73-1.13.73-1.77.01-.34-.06-.67-.22-.96-.1-.31-.27-.58-.52-.8-.48-.44-1.1-.76-1.77-.73s-1.29.25-1.77.73c-1.01,1.01-2.02,2.02-3.03,3.03-.45.45-.73,1.13-.73,1.77-.01.34.06.67.22.96.1.31.27.58.52.8.48.44,1.1.76,1.77.73s1.29-.25,1.77-.73h0Z"/>
      <path class="cls-17" d="M3543.08,3523.42c-.54,1.56-.97,3.16-1.06,4.82-.11,1.96.46,3.82,1.72,5.33,2.02,2.41,6.18,1.86,8.11-.38.68-.78,1.14-1.7,1.17-2.75.03-1.11-.45-2.06-1.16-2.87-.87-.98-2.66-.95-3.54,0-.96,1.05-.93,2.49,0,3.54.04.04.07.08.1.12l-.39-.51c.09.12.16.23.22.37l-.25-.6c.05.12.08.24.1.37l-.09-.66c0,.1,0,.2,0,.31l.09-.66c-.02.15-.06.28-.11.42l.25-.6c-.07.16-.16.31-.27.45l.39-.51c-.15.19-.32.35-.51.5l.51-.39c-.25.19-.51.34-.8.46l.6-.25c-.32.13-.65.23-.99.28l.66-.09c-.28.04-.57.04-.85,0l.66.09c-.23-.03-.44-.09-.65-.18l.6.25c-.16-.08-.31-.16-.46-.27l.51.39c-.16-.13-.3-.29-.43-.45l.39.51c-.23-.3-.41-.62-.56-.97l.25.6c-.15-.38-.25-.77-.31-1.18l.09.66c-.08-.66-.06-1.31.02-1.97l-.09.66c.16-1.2.51-2.36.91-3.51.43-1.24-.49-2.79-1.75-3.08-1.39-.32-2.61.42-3.08,1.75h0Z"/>
      <path class="cls-17" d="M3566.31,3526.54c13.31-12.92,26.61-25.83,39.92-38.75-1.39-.81-2.79-1.62-4.18-2.43-2.25,14.32-4.49,28.65-6.74,42.97-.21,1.33.34,2.69,1.75,3.08,1.19.33,2.86-.4,3.08-1.75,2.25-14.32,4.49-28.65,6.74-42.97.37-2.35-2.25-4.31-4.18-2.43-13.31,12.92-26.61,25.83-39.92,38.75-2.31,2.25,1.22,5.78,3.54,3.54h0Z"/>
      <path class="cls-17" d="M3615.97,3530.72c1.01,2.02,2.03,4.04,3.04,6.06.27.54.93.99,1.49,1.15.6.16,1.4.09,1.93-.25s1-.86,1.15-1.49c.15-.68.06-1.3-.25-1.93-1.01-2.02-2.03-4.04-3.04-6.06-.27-.54-.93-.99-1.49-1.15-.6-.16-1.4-.09-1.93.25s-1,.86-1.15,1.49c-.15.68-.06,1.3.25,1.93h0Z"/>
      <path class="cls-17" d="M3738.46,3483.58c2.76.85,5.27,2.55,7,4.88l.39-3.03c-5.72,5.21-9.97,11.83-12.47,19.14-.44,1.28.5,2.73,1.75,3.08,1.37.38,2.64-.46,3.08-1.75,2.22-6.51,6.1-12.3,11.18-16.93.74-.68,1.02-2.18.39-3.03-2.53-3.43-5.89-5.91-9.98-7.18-3.08-.96-4.4,3.87-1.33,4.82h0Z"/>
      <path class="cls-17" d="M3860.86,3495.53c-3.9,11.94-7.8,23.89-11.69,35.83-.56,1.73,1.3,3.72,3.08,3.08,12.04-4.41,22.4-12.46,29.63-23.05-1.52-.2-3.05-.4-4.57-.6,2,9.66,4,19.31,6,28.97.27,1.32,1.83,2.09,3.08,1.75,1.37-.38,2.02-1.75,1.75-3.08-2-9.66-4-19.31-6-28.97-.47-2.26-3.45-2.24-4.57-.6-6.45,9.45-15.89,16.82-26.64,20.76l3.08,3.08c3.9-11.94,7.8-23.89,11.69-35.83,1-3.07-3.83-4.38-4.82-1.33h0Z"/>
      <path class="cls-17" d="M3911.96,3546.52c11.54-22.47,29.45-41.45,51.1-54.44,23.56-14.14,51.09-20.48,78.47-18.57,15.85,1.1,31.57,4.99,46.05,11.56.64-1.52,1.28-3.05,1.93-4.57-12.57-3.69-24.33,3.14-33.05,11.76-4.66,4.61-8.72,9.82-12.43,15.22-3.09,4.49-5.41,9.3-6.05,14.78s1.28,11.23,7.16,12.37c1.32.26,2.7-.37,3.08-1.75.34-1.22-.41-2.82-1.75-3.08-.26-.05-.53-.11-.78-.18-.01,0-.79-.29-.34-.09-.35-.15-.71-.36-1.01-.59.46.35-.72-.85-.36-.37-.27-.36-.5-.77-.67-1.18.16.38-.16-.55-.21-.75-.06-.24-.11-.48-.15-.73-.14-.8.02.47-.04-.35-.08-1.05-.06-2.11.07-3.15.51-4.23,2.63-8.37,5.17-12.08,6.2-9.06,13.75-18.42,23.81-23.36,5.11-2.51,10.76-3.23,16.25-1.62,2.65.78,4.56-3.38,1.93-4.57-13.55-6.15-27.95-10.06-42.74-11.71-14.6-1.63-29.46-.94-43.86,1.98-13.51,2.74-26.58,7.59-38.65,14.25-11.4,6.29-21.95,14.21-31.21,23.36-9.3,9.19-17.37,19.71-23.75,31.13-.78,1.4-1.54,2.81-2.27,4.24-1.47,2.86,2.85,5.39,4.32,2.52h0Z"/>
      <path class="cls-17" d="M4075.35,3526.35c8.14-6.4,21.2-4.35,27.88,3.33,3.41,3.92,5.24,12.06,11.87,11.61,3.98-.27,6.52-4.06,8.97-6.77,2.93-3.25,5.86-6.49,8.78-9.74,6.52-7.22,13.04-14.45,19.56-21.67l-3.03.39c.88.44,1.3.78,1.73,1.48s.75,1.68.8,2.3c.1,1.11.04,1.66-.31,2.64-.17.48-.74,1.33-1.2,1.67-1.97,1.42-1.35,4.57,1.26,4.66,5.87.21,11.63,2.37,16.14,6.16,1.03.87,2.52,1.01,3.54,0,.89-.89,1.04-2.66,0-3.54-5.56-4.67-12.41-7.36-19.68-7.62.42,1.55.84,3.11,1.26,4.66,5.53-3.99,5.38-13.54-1.02-16.73-.96-.48-2.26-.46-3.03.39-5.8,6.43-11.6,12.86-17.4,19.29-2.87,3.18-5.75,6.37-8.62,9.55-1.49,1.65-2.98,3.31-4.48,4.96-.92,1.02-2.03,2.69-3.48,2.94-.28.05-.55.01-.95-.17-.21-.09-.68-.47-1.05-.85-.94-.96-1.62-2.14-2.29-3.3-1.46-2.56-2.89-5.01-5.02-7.09-4.21-4.09-9.77-6.44-15.55-7.13-6.52-.78-13.07.98-18.22,5.03-1.06.84-.87,2.66,0,3.54,1.05,1.05,2.47.84,3.54,0h0Z"/>
      <path class="cls-17" d="M4338.36,3540.58c10.6-10.61,18.94-23.22,24.71-37.05-1.52.2-3.05.4-4.57.6,1.01,1.61,1.92,3.27,2.71,4.99.35.77.67,1.55.97,2.34.36.97.56,2.29,1.31,3.04,2.04,2.04,5.43,3.31,8.16,4.04,5.87,1.57,12.19.92,17.69-1.63,2.68-1.24,5.15-3.06,7.13-5.25,2.14-2.37,3.86-5.44,6.61-7.17,4.61-2.9,10.88-1.09,14.78,2.23,5.78,4.91,7.96,12.75,10,19.74.38,1.3,1.76,2.11,3.08,1.75,1.44-.4,1.94-1.73,1.75-3.08-1.12-7.86-2.24-15.71-3.36-23.57-.8,1.05-1.61,2.11-2.41,3.16,5.36.61,10.5,3.65,13.65,8.02,1,1.39,2.61,1.61,3.93.51,2.38-1.99,4.76-3.97,7.13-5.96h-3.54c1.69,1.89,3.38,3.79,5.07,5.68,2.15,2.41,5.67-1.14,3.54-3.54-1.69-1.89-3.38-3.79-5.07-5.68-.96-1.07-2.55-.83-3.54,0-2.38,1.99-4.76,3.97-7.13,5.96,1.31.17,2.62.34,3.93.51-4.29-5.95-10.69-9.67-17.97-10.5-1.8-.2-2.61,1.75-2.41,3.16,1.12,7.86,2.24,15.71,3.36,23.57,1.61-.44,3.21-.89,4.82-1.33-1.8-6.14-3.69-12.53-7.53-17.75-3.64-4.95-8.78-8.45-14.96-9.2-2.83-.34-5.69.07-8.28,1.26-2.79,1.28-4.83,3.56-6.71,5.92-1.7,2.13-3.4,4.23-5.71,5.74-2.13,1.39-4.47,2.33-6.96,2.86-5.56,1.19-11.44,0-16.02-3.39.38.5.77,1,1.15,1.49-1.19-3.67-2.81-7.19-4.86-10.47-1.24-1.98-3.76-1.33-4.57.6-5.43,13-13.48,24.88-23.42,34.84-2.28,2.28,1.26,5.82,3.54,3.54h0Z"/>
      <path class="cls-17" d="M4521.42,3519.27c8.19-.2,15.37-6.71,16.31-14.86s-4.91-15.91-12.6-17.81c-1.63-.4-3.09.77-3.16,2.41-.37,8.2,2.09,16.49,6.93,23.13.6.82,1.74,1.58,2.82,1.15,13.65-5.45,29.36-5.26,42.75.91,1.23.56,2.69.35,3.42-.9.63-1.08.34-2.85-.9-3.42-14.57-6.71-31.66-7.38-46.61-1.41.94.38,1.88.77,2.82,1.15-4.38-6-6.58-13.18-6.25-20.6-1.05.8-2.11,1.61-3.16,2.41,5.49,1.36,9.63,6.94,8.97,12.64-.64,5.53-5.85,10.07-11.35,10.2-3.21.08-3.22,5.08,0,5h0Z"/>
      <path class="cls-17" d="M4607.9,3522.91c-.43-2.61.18-5.37,1.49-7.65,1.46-2.55,3.63-3.92,6.09-5.39,2.55-1.52,5.05-3.48,5.73-6.53.61-2.77-.15-6.01-2.89-7.35-.64,1.52-1.28,3.05-1.93,4.57,10.43,4.21,20.73,8.73,30.89,13.53,1.22.58,2.7.34,3.42-.9.64-1.09.33-2.84-.9-3.42-10.56-4.99-21.26-9.66-32.09-14.03-2.61-1.06-4.46,3.33-1.93,4.57.07.03.57.39.39.22-.23-.23.18.29.21.36-.14-.31.05.35.01.11-.03-.16.03.43.03.51,0,.7-.33,1.52-.8,2.04-1.89,2.1-4.86,3.07-7.02,4.88-4.57,3.83-6.49,10.03-5.54,15.81.22,1.33,1.87,2.08,3.08,1.75,1.42-.39,1.97-1.74,1.75-3.08h0Z"/>
      <path class="cls-17" d="M4691.36,3515.34c14.22,1.18,27.27,11.44,31.85,24.93.59,1.73,2.81,2.52,4.18,1.1,9.98-10.34,25.92-13.5,39.41-9.04,3.69,1.22,7.23,3.06,10.28,5.47,1.06.84,2.5,1.03,3.54,0,.87-.87,1.07-2.69,0-3.54-12.88-10.18-31.14-11.53-45.79-4.39-4.08,1.99-7.82,4.7-10.97,7.97,1.39.37,2.79.74,4.18,1.1-4.14-12.19-13.94-21.86-25.98-26.3-3.44-1.27-7.04-2-10.7-2.31-1.35-.11-2.5,1.23-2.5,2.5,0,1.45,1.15,2.39,2.5,2.5h0Z"/>
      <path class="cls-17" d="M4697.56,3393.96c3.51-18.93,8.72-37.53,15.59-55.52,1.93-5.06,4-10.07,6.19-15.02l-3.93.51c3.33,3.18,4.09,7.74,3.85,12.16-.28,5.42-2.25,10.51-3.75,15.66-1.65,5.7-3.03,12.22-1.09,18.04,1.39,4.15,4.63,7.75,8.58,9.63,4.48,2.12,9.77,2.12,13.44-1.58,2.27-2.29-1.27-5.82-3.54-3.54-1.1,1.11-2.3,1.59-3.67,1.62-1.51.03-3.08-.44-4.51-1.23-3.25-1.81-5.43-4.78-6.02-8.45-.91-5.67,1.06-11.43,2.71-16.77,1.48-4.79,2.83-9.62,2.87-14.67.05-5.3-1.43-10.67-5.36-14.41-1.05-1-3.25-1.02-3.93.51-7.92,17.87-14.26,36.42-18.82,55.44-1.3,5.4-2.44,10.84-3.46,16.3-.25,1.33.37,2.7,1.75,3.08,1.22.33,2.83-.41,3.08-1.75h0Z"/>
      <path class="cls-17" d="M4740.92,3370.01c1.01,2.02,2.03,4.04,3.04,6.06.27.54.93.99,1.49,1.15.6.16,1.4.09,1.93-.25s1-.86,1.15-1.49c.15-.68.06-1.3-.25-1.93-1.01-2.02-2.03-4.04-3.04-6.06-.27-.54-.93-.99-1.49-1.15-.6-.16-1.4-.09-1.93.25s-1,.86-1.15,1.49c-.15.68-.06,1.3.25,1.93h0Z"/>
      <path class="cls-17" d="M4768.41,3368.2c9.94-5.81,18.3-14.08,24.23-23.94-1.52-.64-3.05-1.28-4.57-1.93-2.98,7.28,6.33,13.13,12.65,11.56,7.61-1.88,10.86-9.99,14.41-16.07,1.84-3.15,4.15-6.51,7.76-7.74-.94-1.22-1.88-2.45-2.82-3.67-4.42,9.28-2.79,20.46,3.55,28.45,6.32,7.96,17.01,10.75,26.68,8.24,5.39-1.4,10.44-4.47,13.87-8.89.83-1.07,1.04-2.5,0-3.54-.86-.86-2.7-1.07-3.54,0-5.01,6.45-13.68,9.58-21.7,7.95s-14.19-8.35-15.93-16.5c-.94-4.37-.55-9.13,1.38-13.18.86-1.81-.59-4.43-2.82-3.67-6.65,2.27-9.91,8.49-13.06,14.28-2.38,4.38-6.67,11.46-12.48,9.21-1.09-.42-2.22-1.23-2.82-2.07-.39-.55-.54-.83-.64-1.49.06.41.02-.69-.02-.37.05-.4.21-.79.36-1.16.47-1.14-.41-2.53-1.45-2.95-1.15-.46-2.47-.07-3.12,1.02-5.5,9.14-13.23,16.77-22.44,22.15-2.78,1.62-.26,5.95,2.52,4.32h0Z"/>
      <path class="cls-17" d="M4864.08,3344.1c3.22,0,3.22-5,0-5s-3.22,5,0,5h0Z"/>
      <path class="cls-17" d="M4899.74,3332.04c-4.3,3.54-5.86,10.01-4.1,15.23,1.91,5.65,7.35,9.15,13.26,9.07,3.32-.04,6.43-1.2,8.96-3.35,1.03-.88.9-2.63,0-3.54-1.02-1.02-2.5-.88-3.54,0-.12.1-.23.2-.36.3.04-.03.28-.21.04-.05s-.44.3-.67.44c-.2.12-.4.23-.6.33-.14.07-.27.13-.41.2.23-.11.15-.06-.04.01-.51.18-1.01.34-1.54.46-.26.06-.53.11-.79.15-.29.05.05-.01.09-.01-.15.01-.31.03-.46.04-.54.04-1.08.04-1.61,0-.15,0-.31-.03-.46-.04-.03,0-.41-.05-.13-.01s-.09-.02-.12-.02c-.19-.04-.38-.07-.57-.11-.49-.11-.97-.24-1.44-.41-.14-.05-.29-.11-.43-.16.04.02.33.15.07.03-.28-.13-.55-.26-.82-.41-.43-.24-.86-.51-1.25-.81.35.27-.2-.19-.28-.27-.23-.21-.44-.43-.65-.66-.09-.1-.5-.64-.26-.3-.15-.22-.3-.43-.44-.66s-.27-.46-.39-.69c-.05-.1-.1-.2-.15-.3-.18-.35.12.34-.02-.02-.19-.49-.35-.99-.48-1.51-.06-.26-.11-.52-.16-.78,0-.03-.06-.41-.02-.12.04.32-.03-.36-.03-.35-.04-.49-.04-.99-.02-1.48.01-.27.04-.53.06-.8-.05.48.05-.29.08-.46.12-.59.28-1.18.49-1.75.04-.11.08-.21.12-.32.15-.38-.26.49.06-.13.12-.23.23-.47.36-.7.15-.26.31-.52.48-.77.04-.05.31-.44.13-.21-.15.21.13-.15.16-.19.42-.49.88-.94,1.38-1.35,1.04-.86.89-2.65,0-3.54-1.03-1.03-2.49-.86-3.54,0h0Z"/>
      <path class="cls-17" d="M4926.63,3345.15c13.99,5.37,30.08,4.98,43.9-.75,4-1.66,7.79-3.7,11.32-6.2l-3.42-.9c4.16,6.49,10.84,11.19,18.42,12.71,1.32.26,2.7-.38,3.08-1.75.34-1.23-.42-2.81-1.75-3.08-6.32-1.26-11.94-4.96-15.43-10.41-.68-1.06-2.28-1.7-3.42-.9-11.37,8.06-25.89,11.59-39.7,9.52-3.99-.6-7.9-1.63-11.66-3.08-1.26-.48-2.74.54-3.08,1.75-.39,1.41.48,2.59,1.75,3.08h0Z"/>
      <path class="cls-17" d="M5025.39,3337.74c21.24-6.39,44.07-7.1,65.67-2.07,6.08,1.42,12.05,3.28,17.87,5.57,1.26.49,2.74-.54,3.08-1.75.39-1.42-.48-2.58-1.75-3.08-21.36-8.4-44.8-10.91-67.49-7.64-6.33.91-12.58,2.3-18.71,4.14-3.07.92-1.76,5.75,1.33,4.82h0Z"/>
      <path class="cls-17" d="M4684.65,3150.57c-.06-3.75-.11-7.5-.17-11.25h-5c.36,12.12,6.37,23.87,15.82,31.44,4.67,3.75,10.53,7.19,16.59,7.85,3.17.35,6.45-.83,8.2-3.6,1.19-1.88,1.44-4.2,1.33-6.38-.14-2.68-.68-5-.86-7.48-.05-.62-.07-1.25-.05-1.87,0-.26.02-.51.04-.77.03-.31.03-.34,0-.08.03-.16.06-.32.09-.48.06-.23.12-.47.19-.7.1-.28.11-.3,0-.07.07-.14.14-.29.21-.42.12-.2.24-.42.39-.6-.26.33.38-.34.45-.4h-3.54c6.21,4.96,11.65,10.81,16.05,17.42,1.78,2.66,6.11.16,4.32-2.52-4.64-6.97-10.29-13.2-16.84-18.43-1.09-.87-2.45-1-3.54,0-3.55,3.25-2.97,8.23-2.38,12.53.25,1.8.55,3.63.44,5.69,0,.05-.12.84-.02.3-.03.19-.07.39-.12.58s-.1.37-.16.55c-.22.67.24-.37-.11.24-.11.2-.22.4-.36.58.25-.34,0-.03-.05.03-.31.36-.55.56-1.24.8-2.31.78-5.3-.55-7.41-1.44-2.54-1.08-4.95-2.5-7.18-4.12-4.23-3.08-7.76-7.15-10.37-11.67-2.98-5.16-4.74-10.97-4.91-16.94-.09-3.21-5.05-3.23-5,0,.06,3.75.11,7.5.17,11.25.05,3.21,5.05,3.22,5,0h0Z"/>
      <path class="cls-17" d="M4788.28,3151.97c1.73-2.99,4.36-6.74,7.88-7.73.61-.17,1.19-.22,1.76-.09.28.06.52.16.77.29.19.1.37.22.54.33.23.16-.21-.21.11.09.21.2.42.4.61.62-.31-.37.14.23.22.37.06.1.42.86.22.37.13.31.23.63.31.94.34,1.23.37,1.93.36,3.49,0,1.39-.12,2.78-.24,4.17-.25,2.85-.56,5.7-.12,8.54.49,3.18,2.46,5.64,5.56,6.59s4.4-3.88,1.33-4.82c-.14-.04-.29-.08-.43-.14.46.19.03.02-.08-.05-.1-.06-.71-.47-.49-.29.21.17-.34-.37-.42-.46.37.44-.07-.19-.17-.35-.28-.43.03.26-.15-.39-.08-.26-.15-.52-.21-.79-.03-.16-.14-.94-.08-.39-.04-.38-.07-.75-.08-1.13-.11-2.94.37-5.88.53-8.81s.04-6.15-1.41-8.82c-1.88-3.46-5.98-5.18-9.76-4.11-4.81,1.36-8.46,5.88-10.87,10.03-1.62,2.79,2.7,5.31,4.32,2.52h0Z"/>
      <path class="cls-17" d="M4852.1,3165.68c-.89-12.21-1.77-24.42-2.66-36.63-1.64.22-3.27.44-4.91.66,6.68,15.85,13.97,31.43,21.92,46.68,2.25,4.31,4.55,8.59,6.9,12.85,1.09,1.98,3.9,1.35,4.57-.6,5.65-16.55,11.3-33.11,16.94-49.66-1.39.37-2.79.74-4.18,1.1,6.52,7.33,13.05,14.66,19.57,21.99,2.62,2.94,6.24,7.24,10.73,5.69,4.3-1.49,5-7.21,6.13-10.98,1.58-5.28,3.16-10.55,4.75-15.83-1.52.2-3.05.4-4.57.6,7.73,12.88,22.36,18.58,36.35,21.76,4.01.91,8.06,1.65,12.12,2.33,1.33.22,2.69-.35,3.08-1.75.33-1.2-.41-2.85-1.75-3.08-6.94-1.17-13.87-2.49-20.6-4.59-6.26-1.96-12.53-4.65-17.63-8.86-2.88-2.37-5.33-5.15-7.26-8.35-1.12-1.87-3.95-1.46-4.57.6-1.25,4.17-2.5,8.35-3.76,12.52-.61,2.05-1.23,4.09-1.84,6.14-.38,1.27-.66,3.58-1.72,4.52-.78.69-1.98-.26-2.61-.77-1.56-1.26-2.83-2.95-4.16-4.44-2.93-3.29-5.86-6.59-8.79-9.88-3.32-3.73-6.64-7.46-9.95-11.18-1.33-1.49-3.61-.56-4.18,1.1-5.65,16.55-11.3,33.11-16.94,49.66,1.52-.2,3.05-.4,4.57-.6-8.16-14.8-15.72-29.92-22.65-45.34-1.94-4.31-3.83-8.64-5.66-13-.48-1.15-1.41-1.99-2.74-1.79-1.15.17-2.26,1.2-2.17,2.46.89,12.21,1.77,24.42,2.66,36.63.1,1.35,1.08,2.5,2.5,2.5,1.28,0,2.6-1.15,2.5-2.5h0Z"/>
      <path class="cls-17" d="M5050.59,3153.09c12.51,7.91,22.84,18.96,29.95,31.93,1.55,2.82,5.87.3,4.32-2.52-7.52-13.71-18.53-25.37-31.75-33.73-2.73-1.72-5.24,2.6-2.52,4.32h0Z"/>
      <path class="cls-17" d="M4642.53,3015.52c-1.44-.74-2.05-1.87-2.12-3.34-.09-1.85.41-3.49,1.53-5.13,2.77-4.05,9.29-3.65,13.89-2.69,6.81,1.43,13.51,3.57,20.22,5.4,7.07,1.93,14.13,3.85,21.2,5.78,7.87,2.15,15.74,4.29,23.61,6.44,3.11.85,4.43-3.97,1.33-4.82-15.42-4.2-30.83-8.41-46.25-12.61-3.85-1.05-7.71-2.1-11.56-3.15-3.52-.96-7.02-1.95-10.64-2.43-6.12-.8-13,.37-16.42,6.05-2.85,4.73-2.81,12.02,2.69,14.83,2.86,1.46,5.39-2.85,2.52-4.32h0Z"/>
      <path class="cls-17" d="M4748.84,3021.04c19.24.28,38.39,2.53,57.16,6.75,3.13.7,4.47-4.12,1.33-4.82-19.19-4.31-38.82-6.64-58.49-6.92-3.22-.05-3.22,4.95,0,5h0Z"/>
      <path class="cls-17" d="M4890.87,3019.79c-2.06-3.37-1.38-6.84.83-10.1,2.36-3.49,6.23-6.15,10.18-7.51,5.2-1.79,10.98-1.18,16.36-.72,6.13.52,12.26,1.15,18.37.1,2.94-.51,5.66-1.57,8.41-2.69,2.59-1.06,5.25-2.12,8.08-2.2,5.61-.17,10.86,2.54,15.79,4.9,10.75,5.16,22.05,8.45,33.83,10.27,13.4,2.07,26.96,2.54,40.5,2.95,3.22.1,3.22-4.9,0-5-12.33-.37-24.72-.72-36.96-2.44-12.17-1.71-23.94-4.86-35.04-10.18-5.49-2.63-11.24-5.46-17.48-5.5-6.33-.03-11.54,3.69-17.58,4.92-6.03,1.22-12.32.35-18.38-.15-5.79-.48-11.98-.95-17.55,1.06-9.48,3.42-20.1,14.3-13.67,24.84,1.68,2.74,6,.23,4.32-2.52h0Z"/>
      <path class="cls-17" d="M2069.63,3540.88c.36-10.51,3.22-20.82,8.31-30.02l-4.66-1.26c1.35,13.86-7.61,27.31-20.21,32.75-3.44,1.48-7.16,2.27-10.9,2.32-3.21.04-3.22,5.04,0,5,15.88-.22,30.08-12.08,34.73-27.01,1.31-4.2,1.82-8.68,1.39-13.05-.11-1.11-.7-2.1-1.84-2.41-1.05-.29-2.29.18-2.82,1.15-5.52,9.98-8.6,21.15-8.99,32.55-.11,3.22,4.89,3.21,5,0h0Z"/>
      <path class="cls-17" d="M2034.26,3548.01c-7.56.43-12.65,5.94-19.09,9.09-2.69,1.32-6.18,2.37-9.07,1.06-.49-.22-.8-.47-.94-.6-.5-.5-.44-.41-.77-.97s-.27-.41-.47-1.04c-.08-.25-.13-.49-.2-.74-.03-.12-.05-.25-.07-.38.04.27,0,.06,0-.09-.02-.29-.03-.58-.02-.88,0-.12.01-.25.02-.37.03-.46-.03.09.02-.18s.13-.54.21-.8c0-.02.15-.38.04-.13s.09-.17.12-.21c.08-.13.45-.66.18-.31.06-.08.15-.17.23-.24.3-.24-.32.19,0-.02.13-.09.7-.35.31-.21.31-.11.63-.17.95-.22-.94-1.22-1.88-2.45-2.82-3.67-2.76,5.97-7.85,10.6-14.15,12.56.94.38,1.88.77,2.82,1.15-5.68-11.77-8.14-24.9-7.3-37.93.14-2.1-2.88-3.39-4.27-1.77-9.58,11.15-19.16,22.3-28.74,33.45-1.32,1.53-.68,3.44,1.1,4.18,3.86,1.59,6.7-2.47,6.84-5.87.19-4.74-4.22-7.27-8.54-6.78-2.52.28-4.83,1.24-7.12,2.3-2.64,1.23-5.28,2.47-7.92,3.71-5.2,2.44-10.4,4.88-15.61,7.32-5.88,2.76-11.76,5.51-17.64,8.27-1.22.57-1.53,2.33-.9,3.42.73,1.25,2.19,1.47,3.42.9,8.6-4.03,17.19-8.06,25.79-12.09,4.37-2.05,8.75-4.1,13.12-6.15,2.77-1.3,7.22-3.94,10.04-2.22-.19-.11.09.09.11.12-.26-.28.04.05.09.16.13.26.01-.02,0-.06.07.18.12.38.16.58.06.29,0-.02,0-.07.02.2.01.41,0,.61,0,.29.02,0,.03-.06-.02.2-.09.39-.13.59-.11.52.05.02-.19.47-.05.1-.11.19-.17.28.28-.4,0,0-.09.05-.29.15.16-.08.11-.09.54.09-.11-.01.2-.04.37-.04-.04,0-.06-.02.28.04.32.04.13-.01-.11-.03-.22-.07-.33-.13.37,1.39.74,2.79,1.1,4.18,9.58-11.15,19.16-22.3,28.74-33.45-1.42-.59-2.85-1.18-4.27-1.77-.9,13.92,1.92,27.9,7.98,40.45.46.96,1.83,1.46,2.82,1.15,7.46-2.32,13.84-7.74,17.14-14.86.97-2.1-.62-3.99-2.82-3.67-6.42.93-6.98,9.59-3.8,13.9,5.44,7.38,15.83,2.8,21.82-1.21,3.59-2.4,7.41-5.36,11.89-5.61,3.2-.18,3.22-5.18,0-5h0Z"/>
      <path class="cls-17" d="M1897.32,3535.13c-5.3,5.3-10.6,10.6-15.89,15.89-.93.93-.99,2.62,0,3.54,1,.92,2.55.99,3.54,0,5.3-5.3,10.6-10.6,15.89-15.89.93-.93.99-2.62,0-3.54-1-.92-2.55-.99-3.54,0h0Z"/>
      <path class="cls-17" d="M1980.28,3458.63c-9.56-5.63-13.47-19.04-8.33-28.86-.94.38-1.88.77-2.82,1.15,1,.28,1.38.48,2.11,1.34.18.22,0,0-.03-.04.07.1.14.2.2.3.14.25.29.48.41.74-.16-.33.08.2.12.31.1.32.19.64.27.97.36,1.65.05,4.14-.77,5.8-1.2,2.42-2.85,3.79-5.56,4.78-3.32,1.21-6.84,1.38-10.34,1.34-3.82-.04-7.64-.28-11.46-.22-3.95.07-7.9.35-11.82.83-7.86.96-15.61,2.65-23.12,5.16-8.47,2.82-16.62,6.6-24.23,11.27-2.74,1.68-.23,6.01,2.52,4.32,14.16-8.68,30.26-14.23,46.79-15.97,4.15-.44,8.32-.65,12.49-.62,3.98.03,7.96.36,11.93.19,7-.3,14.59-2.49,17.52-9.48,2.43-5.79,1.17-13.95-5.69-15.85-1.02-.28-2.32.18-2.82,1.15-6.4,12.24-1.82,28.67,10.13,35.7,2.78,1.64,5.3-2.68,2.52-4.32h0Z"/>
      <path class="cls-17" d="M1884.72,3432.64c-16.28-5.51-34.67-3.69-49.81,4.32-4.25,2.25-8.2,5.03-11.81,8.21-1.01.89-.91,2.62,0,3.54,1.01,1.01,2.52.9,3.54,0,11.86-10.47,28.08-15.4,43.78-14.03,4.42.39,8.77,1.35,12.97,2.78,3.05,1.03,4.37-3.79,1.33-4.82h0Z"/>
      <path class="cls-17" d="M1678.62,3442.17c-8.36,4.62-20.62-2.73-20.51-12.33.02-1.97-2.12-3.02-3.76-2.16-23.9,12.51-49.76,21.12-76.33,25.74-26.41,4.59-53.55,5.15-80.13,1.69-14.87-1.93-29.58-5.22-43.88-9.73-3.08-.97-4.39,3.86-1.33,4.82,26.13,8.23,53.58,12.25,80.97,12.12,27.25-.13,54.53-4.35,80.51-12.57,14.72-4.65,29.04-10.6,42.71-17.76l-3.76-2.16c-.15,13.45,16.33,23.13,28.04,16.65,2.82-1.56.3-5.88-2.52-4.32h0Z"/>
      <path class="cls-17" d="M3200.89,3413.73c-.36-8.68-.72-17.36-1.07-26.03-1.55.42-3.11.84-4.66,1.26,7.66,11.64,22.12,18.12,35.93,16.6,4.03-.45,7.85-1.5,11.53-3.21,1.22-.57,1.53-2.33.9-3.42-.73-1.26-2.19-1.47-3.42-.9-10.88,5.06-24.49,2.88-33.88-4.35-2.62-2.02-4.92-4.48-6.74-7.24-1.29-1.96-4.77-1.35-4.66,1.26.36,8.68.72,17.36,1.07,26.03.13,3.21,5.13,3.22,5,0h0Z"/>
      <path class="cls-17" d="M3283.51,3400.56c9.82-7.14,21.72-10.83,33.82-11.1,12.08-.27,24.25,2.71,34.69,8.86,5.89,3.47,11.1,7.93,15.41,13.24.85,1.05,2.65.88,3.54,0,1.04-1.04.85-2.48,0-3.54-8.17-10.07-19.65-17.13-32.05-20.74-12.43-3.61-25.95-3.85-38.44-.37-6.97,1.94-13.63,5.07-19.48,9.33-1.09.79-1.63,2.17-.9,3.42.63,1.08,2.32,1.7,3.42.9h0Z"/>
      <path class="cls-17" d="M3448.8,3396.45c16.03-1.8,30.88,6.75,46.56,8.4,7.49.78,14.69-.48,21.51-3.63,6.16-2.85,11.69-6.84,17.28-10.63,5.19-3.52,10.59-7.19,16.59-9.01,2.8-.85,5.33-1.21,8.28-.97,3.35.27,6.7,1.72,9.73,3.44,3.59,2.04,7.03,4.26,10.9,5.73,3.27,1.25,6.72,1.94,10.2,2.27,7.14.68,14.36-.46,21.33-1.96,13.8-2.98,28.04-8.42,42.38-6.47,1.68.23,3.34.6,4.97,1.05,3.11.85,4.43-3.97,1.33-4.82-14.46-3.98-29.35.43-43.44,3.89-6.88,1.69-13.86,3.3-20.97,3.49-7.16.19-13.75-1.4-19.95-5.01-3.61-2.1-7.15-4.4-11.17-5.63-3.06-.94-6.35-1.26-9.53-.91-6.4.71-12.21,3.59-17.62,6.95-11.23,6.98-22.01,17.04-35.93,17.46-7.85.24-15.5-1.97-22.97-4.11s-15.59-4.52-23.69-4.77c-1.94-.06-3.87.02-5.79.24-1.34.15-2.5,1.04-2.5,2.5,0,1.23,1.15,2.65,2.5,2.5h0Z"/>
      <path class="cls-18" d="M2329.49,3490.96c-8.77,18.97-17.4,38.01-25.87,57.12-8.47,19.11-16.79,38.29-24.96,57.53-8.16,19.22-16.17,38.49-24.02,57.84-7.84,19.29-15.52,38.64-23.05,58.06-7.56,19.49-14.96,39.04-22.21,58.64-.9,2.43-1.8,4.86-2.69,7.3-.47,1.27.52,2.74,1.75,3.08,1.39.38,2.61-.47,3.08-1.75,7.18-19.54,14.52-39.03,22.01-58.46,7.49-19.43,15.13-38.8,22.93-58.1,7.75-19.18,15.64-38.3,23.69-57.36,8.13-19.26,16.42-38.45,24.85-57.57,8.37-18.98,16.89-37.89,25.56-56.73,1.08-2.36,2.17-4.71,3.26-7.06.57-1.22.35-2.69-.9-3.42-1.08-.63-2.85-.33-3.42.9h0Z"/>
      <path class="cls-18" d="M2517.75,3506.55c-.15,19-.45,37.99-.9,56.98-.45,18.99-1.05,37.98-1.8,56.96-.75,18.9-1.65,37.79-2.7,56.68-1.05,18.97-2.26,37.93-3.62,56.88-1.36,18.95-2.86,37.89-4.52,56.81-.2,2.31-.41,4.63-.62,6.94-.12,1.35,1.24,2.5,2.5,2.5,1.45,0,2.38-1.15,2.5-2.5,1.69-18.92,3.24-37.86,4.63-56.8,1.39-18.95,2.64-37.9,3.73-56.87,1.09-18.88,2.02-37.78,2.81-56.67.79-18.98,1.43-37.97,1.92-56.96.49-18.99.82-37.99,1.01-56.98.02-2.32.04-4.65.06-6.97.03-3.22-4.97-3.22-5,0h0Z"/>
      <path class="cls-18" d="M2713.39,3514.34c9.08,15.14,16.31,31.29,22.05,47.97,5.74,16.67,10.08,33.79,13.69,51.04,3.69,17.64,6.64,35.42,9.54,53.2,2.91,17.79,5.77,35.59,9.28,53.27,3.49,17.56,7.62,35.02,13.08,52.08.68,2.12,1.38,4.23,2.09,6.33.44,1.28,1.72,2.12,3.08,1.75,1.24-.34,2.18-1.79,1.75-3.08-5.81-17.01-10.22-34.45-13.88-52.03-3.69-17.71-6.65-35.56-9.56-53.41-2.91-17.8-5.77-35.61-9.31-53.3-3.48-17.44-7.62-34.78-13.12-51.71-5.49-16.88-12.34-33.37-21.04-48.86-1.09-1.93-2.2-3.85-3.34-5.75-1.65-2.76-5.98-.24-4.32,2.52h0Z"/>
      <path class="cls-18" d="M2891.58,3526.86c6.83,18.68,13.66,37.36,20.49,56.04,6.8,18.6,13.6,37.2,20.4,55.8,6.83,18.68,13.66,37.36,20.49,56.04,6.8,18.6,13.6,37.2,20.4,55.8,6.8,18.6,13.6,37.2,20.4,55.8.86,2.34,1.71,4.69,2.57,7.03.46,1.27,1.7,2.12,3.08,1.75,1.22-.34,2.21-1.8,1.75-3.08-6.83-18.68-13.66-37.36-20.49-56.04-6.8-18.6-13.6-37.2-20.4-55.8-6.83-18.68-13.66-37.36-20.49-56.04-6.8-18.6-13.6-37.2-20.4-55.8-6.8-18.6-13.6-37.2-20.4-55.8-.86-2.34-1.71-4.69-2.57-7.03-.46-1.27-1.7-2.12-3.08-1.75-1.22.34-2.21,1.8-1.75,3.08h0Z"/>
      <path class="cls-18" d="M2243.88,3589.11c23.31.77,46.61,1.55,69.92,2.25,23.31.71,46.62,1.35,69.93,1.87,23.39.52,46.79.91,70.19,1.1,23.31.19,46.63.19,69.94-.06,23.08-.25,46.16-.8,69.24-1.51,22.97-.71,45.93-1.56,68.9-2.35,23.04-.79,46.09-1.53,69.14-2,22.93-.47,45.87-.68,68.8-.42s45.77.97,68.61,2.36,45.63,3.44,68.33,6.35c5.46.7,10.91,1.46,16.36,2.27,1.33.2,2.69-.33,3.08-1.75.32-1.18-.4-2.88-1.75-3.08-22.79-3.37-45.69-5.87-68.66-7.61-22.89-1.74-45.84-2.76-68.8-3.26-22.92-.5-45.84-.49-68.77-.16-22.97.33-45.93.97-68.88,1.71-23.05.75-46.1,1.62-69.15,2.39-23.07.77-46.14,1.45-69.22,1.83-23.31.39-46.63.5-69.94.41-23.31-.09-46.63-.4-69.94-.84-23.4-.45-46.79-1.04-70.18-1.72-23.39-.68-46.78-1.43-70.17-2.2-5.66-.19-11.32-.37-16.98-.56-3.22-.11-3.21,4.89,0,5h0Z"/>
      <path class="cls-18" d="M2151.52,3714.91c27.46-1.12,54.93-2.11,82.4-2.94,27.47-.84,54.95-1.53,82.43-2.08,27.4-.55,54.79-.95,82.19-1.22,27.4-.26,54.8-.38,82.2-.36,27.48.02,54.97.19,82.45.5,27.48.31,54.96.77,82.44,1.36,27.39.6,54.79,1.34,82.17,2.22,27.39.88,54.77,1.91,82.15,3.07,27.54,1.17,55.08,2.49,82.61,3.96,27.36,1.45,54.72,3.05,82.06,4.79,6.63.42,13.26.85,19.89,1.29,1.35.09,2.5-1.21,2.5-2.5,0-1.43-1.15-2.41-2.5-2.5-27.42-1.81-54.86-3.49-82.3-5.01-27.44-1.53-54.89-2.91-82.35-4.15-27.37-1.24-54.75-2.33-82.14-3.28-27.38-.95-54.77-1.76-82.17-2.42-27.48-.67-54.96-1.19-82.44-1.57-27.48-.38-54.97-.62-82.45-.71-27.4-.09-54.8-.04-82.2.15-27.4.19-54.8.53-82.2,1.01-27.56.48-55.12,1.11-82.68,1.88-27.39.77-54.78,1.68-82.16,2.73-6.64.26-13.28.52-19.91.79-3.21.13-3.22,5.13,0,5h0Z"/>
      <path class="cls-18" d="M1899.9,3644.22c-8.02,14.09-16.03,28.18-24.05,42.26-1.59,2.8,2.72,5.32,4.32,2.52,8.02-14.09,16.03-28.18,24.05-42.26,1.59-2.8-2.72-5.32-4.32-2.52h0Z"/>
      <path class="cls-18" d="M1840.63,3741.63c-12.15,18.81-22.31,38.86-30.36,59.75-2.29,5.95-4.4,11.97-6.34,18.04-.98,3.07,3.85,4.39,4.82,1.33,6.72-21.06,15.61-41.4,26.52-60.63,3.07-5.41,6.3-10.74,9.68-15.96,1.75-2.71-2.58-5.22-4.32-2.52h0Z"/>
      <path class="cls-18" d="M1601.56,3652.78c-15.23,19.09-30.69,37.99-46.4,56.69-15.71,18.7-31.65,37.2-47.83,55.49-9.08,10.26-18.23,20.46-27.45,30.59-2.16,2.38,1.36,5.92,3.54,3.54,16.44-18.06,32.65-36.33,48.62-54.8,15.97-18.47,31.71-37.15,47.2-56.02,8.69-10.59,17.31-21.24,25.85-31.95.84-1.05,1.03-2.51,0-3.54-.87-.87-2.69-1.06-3.54,0h0Z"/>
      <path class="cls-18" d="M1473.28,3797.01c-10.6,10.26-19.65,22.11-26.76,35.05-1.55,2.82,2.77,5.35,4.32,2.52,6.91-12.59,15.66-24.05,25.98-34.03,2.32-2.24-1.22-5.78-3.54-3.54h0Z"/>
      <path class="cls-18" d="M1178.51,3637.44c-17.39,20.17-35.22,39.97-53.49,59.35-18.16,19.27-36.74,38.14-55.73,56.58-10.74,10.43-21.61,20.73-32.61,30.89-2.37,2.19,1.17,5.72,3.54,3.54,19.56-18.08,38.72-36.58,57.46-55.51,18.63-18.81,36.84-38.04,54.62-57.66,10.05-11.09,19.97-22.31,29.74-33.66.88-1.02,1-2.53,0-3.54-.9-.9-2.65-1.03-3.54,0h0Z"/>
      <path class="cls-18" d="M1017.35,3818.77c-5.3,7.27-8.2,16.13-8.38,25.11-.06,3.22,4.94,3.22,5,0,.16-8.16,2.9-16,7.7-22.58.8-1.09.18-2.79-.9-3.42-1.27-.74-2.62-.2-3.42.9h0Z"/>
      <path class="cls-18" d="M825.85,3668.18c-14.67,11.32-29.05,23.01-43.11,35.09s-27.81,24.55-41.21,37.38c-13.35,12.77-26.35,25.89-39,39.35-6.32,6.73-12.56,13.54-18.7,20.44-5.52,6.2-10.92,12.51-16.64,18.53-10.52,11.09-22.55,21.84-37.47,26.38-1.85.56-3.72,1.02-5.61,1.39-1.33.26-2.08,1.84-1.75,3.08.38,1.38,1.75,2.01,3.08,1.75,15.72-3.08,28.92-12.83,40.15-23.82,5.75-5.63,11.1-11.66,16.42-17.7,6.02-6.84,12.11-13.62,18.29-20.31,12.64-13.68,25.65-27.01,39.01-39.99,13.3-12.92,26.95-25.49,40.92-37.69,13.97-12.2,28.27-24.02,42.88-35.45,1.76-1.37,3.51-2.74,5.28-4.11,1.07-.82,1.64-2.15.9-3.42-.61-1.05-2.34-1.73-3.42-.9h0Z"/>
      <path class="cls-18" d="M618.18,3847.76c-4.44,5.27-8.88,10.55-13.33,15.82-.84,1-1.05,2.57,0,3.54.93.85,2.64,1.07,3.54,0,4.44-5.27,8.88-10.55,13.33-15.82.84-1,1.05-2.57,0-3.54-.93-.85-2.64-1.07-3.54,0h0Z"/>
      <path class="cls-18" d="M478.48,3651.09c-10.71,14.74-23.02,28.25-36.03,40.98-13.06,12.78-26.84,24.79-40.71,36.67-15.28,13.08-30.6,26.11-45.9,39.16s-31.05,26.49-46.58,39.74c-15.59,13.3-31.18,26.6-46.77,39.9-1.9,1.62-3.8,3.24-5.7,4.87-1.03.88-.9,2.63,0,3.54,1.02,1.02,2.51.88,3.54,0,15.59-13.3,31.18-26.6,46.77-39.9,15.65-13.35,31.3-26.71,46.96-40.06,15.49-13.21,30.98-26.42,46.46-39.64,13.95-11.91,27.87-23.87,41.13-36.54,13.32-12.72,25.94-26.18,37.14-40.82,1.36-1.77,2.69-3.56,4-5.37.79-1.09.19-2.79-.9-3.42-1.26-.74-2.62-.2-3.42.9h0Z"/>
      <path class="cls-18" d="M174.11,3661.86c-10.34,13.46-20.69,26.92-31.2,40.25-10.56,13.39-21.29,26.65-32.34,39.64-11.01,12.95-22.34,25.64-34.12,37.9-11.69,12.16-23.83,23.9-36.52,35.03-6.37,5.59-12.88,11.02-19.54,16.26-3.28,2.59-6.6,5.13-9.96,7.62-1.23.91-1.94,1.29-3.37,1.59-.92.19-1.99.17-2.84-.04-.55-.14.04.1-.24-.11s.02-.07.07.06c-.02-.05-.28-.27-.02-.01.12.12.13.25.21.4-.18-.33-.03.02,0,.13-.06-.19.15-.33-.02.06.06-.13.09-.31.14-.45.87-2.44-2.49-4.08-4.18-2.43-2.46,2.39-4.92,4.79-7.38,7.18-2.31,2.25,1.23,5.78,3.54,3.54,2.46-2.39,4.92-4.79,7.38-7.18-1.39-.81-2.79-1.62-4.18-2.43-1.1,3.09,1.12,5.73,4.13,6.25,2.93.51,6.3-.1,8.75-1.83,7.21-5.09,14.09-10.74,20.87-16.38,13.54-11.25,26.46-23.22,38.86-35.7s24.27-25.43,35.78-38.71c11.6-13.38,22.82-27.09,33.85-40.95,11.02-13.86,21.83-27.87,32.62-41.91,1.34-1.74,2.68-3.49,4.02-5.23.82-1.07.16-2.8-.9-3.42-1.29-.75-2.6-.18-3.42.9h0Z"/>
      <path class="cls-18" d="M3415.02,3819.11c12.18,9.58,22.82,21.04,31.36,33.98,1.77,2.67,6.1.17,4.32-2.52-8.78-13.28-19.63-25.14-32.15-34.99-1.06-.83-2.5-1.03-3.54,0-.87.87-1.07,2.7,0,3.54h0Z"/>
      <path class="cls-18" d="M3272.78,3646.24c19.47,21.86,38.94,43.72,58.41,65.58,19.47,21.86,38.94,43.72,58.41,65.58,10.95,12.3,21.9,24.59,32.85,36.89,2.14,2.41,5.67-1.14,3.54-3.54-19.47-21.86-38.94-43.72-58.41-65.58-19.47-21.86-38.94-43.72-58.41-65.58-10.95-12.3-21.9-24.59-32.85-36.89-2.14-2.41-5.67,1.14-3.54,3.54h0Z"/>
      <path class="cls-18" d="M3572.2,3648.92c15.93,10.61,30.52,23.07,44.11,36.51,13.75,13.6,26.49,28.19,38.85,43.05,12.41,14.93,24.45,30.16,36.8,45.15,12.27,14.89,24.85,29.54,38.37,43.31,13.47,13.7,27.91,26.49,43.63,37.57,1.96,1.38,3.95,2.74,5.95,4.06,2.69,1.78,5.2-2.55,2.52-4.32-15.95-10.57-30.56-23-44.16-36.43-13.76-13.58-26.51-28.15-38.88-43.01-12.42-14.92-24.46-30.16-36.8-45.14-12.26-14.89-24.84-29.56-38.35-43.34-13.45-13.72-27.87-26.54-43.58-37.64-1.96-1.39-3.94-2.74-5.94-4.08-2.69-1.79-5.19,2.54-2.52,4.32h0Z"/>
      <path class="cls-18" d="M3886.31,3652.48c22.5,19.03,44.2,38.99,65.01,59.84,20.82,20.85,40.76,42.58,59.75,65.1,10.67,12.66,21.05,25.57,31.1,38.73.82,1.07,2.15,1.64,3.42.9,1.05-.62,1.72-2.34.9-3.42-18.02-23.58-37.01-46.42-56.95-68.4-19.9-21.94-40.72-43.03-62.4-63.2-12.17-11.32-24.61-22.35-37.3-33.08-1.03-.87-2.52-1.01-3.54,0-.89.89-1.04,2.66,0,3.54h0Z"/>
      <path class="cls-18" d="M4058.78,3836.07c7.16,4.26,14.32,8.51,21.47,12.77,2.77,1.65,5.29-2.67,2.52-4.32-7.16-4.26-14.32-8.51-21.47-12.77-2.77-1.65-5.29,2.67-2.52,4.32h0Z"/>
      <path class="cls-18" d="M4190.4,3655.8c21.76,17.34,42.83,35.53,63.15,54.53,20.32,19,39.89,38.8,58.65,59.35,10.56,11.56,20.86,23.36,30.89,35.39.87,1.04,2.64.89,3.54,0,1.03-1.03.87-2.5,0-3.54-17.83-21.36-36.5-42.01-55.95-61.9-19.46-19.89-39.7-39-60.66-57.29-11.8-10.29-23.83-20.32-36.08-30.08-1.05-.84-2.51-1.03-3.54,0-.87.87-1.06,2.69,0,3.54h0Z"/>
      <path class="cls-18" d="M4493.71,3654.27c13.04,12.61,26.09,25.22,39.13,37.83s26.09,25.22,39.13,37.83c13.04,12.61,26.09,25.22,39.13,37.83,13.1,12.67,26.21,25.34,39.31,38.01,13.04,12.61,26.09,25.22,39.13,37.83,1.62,1.56,3.23,3.12,4.85,4.69,2.31,2.24,5.85-1.29,3.54-3.54-13.04-12.61-26.09-25.22-39.13-37.83-13.04-12.61-26.09-25.22-39.13-37.83-13.04-12.61-26.09-25.22-39.13-37.83-13.1-12.67-26.21-25.34-39.31-38.01-13.04-12.61-26.09-25.22-39.13-37.83-1.62-1.56-3.23-3.12-4.85-4.69-2.31-2.24-5.85,1.29-3.54,3.54h0Z"/>
      <path class="cls-18" d="M4829.65,3653.01c16.2,9.62,31.18,21.09,45.28,33.56,14.19,12.56,27.5,26.06,40.54,39.8,13.14,13.84,26.02,27.94,39.29,41.66,13.12,13.56,26.65,26.78,41.16,38.86,14.39,11.98,29.75,22.87,46.31,31.66,2.08,1.1,4.17,2.17,6.28,3.2,1.21.59,2.7.33,3.42-.9.64-1.1.32-2.82-.9-3.42-16.79-8.24-32.45-18.64-47.01-30.35-14.65-11.77-28.27-24.77-41.42-38.17-13.36-13.62-26.25-27.69-39.34-41.58s-26.3-27.52-40.37-40.33c-13.95-12.69-28.74-24.55-44.7-34.63-1.99-1.26-4-2.48-6.02-3.69-2.77-1.65-5.29,2.67-2.52,4.32h0Z"/>
      <path class="cls-18" d="M4894.81,3743c26.82,2,53.65,4,80.47,6,7.62.57,15.23,1.14,22.85,1.7,1.35.1,2.5-1.22,2.5-2.5,0-1.44-1.15-2.4-2.5-2.5-26.82-2-53.65-4-80.47-6-7.62-.57-15.23-1.14-22.85-1.7-1.35-.1-2.5,1.22-2.5,2.5,0,1.44,1.15,2.4,2.5,2.5h0Z"/>
      <path class="cls-18" d="M4598.09,3749.18c30.93,1.9,61.92,2.65,92.9,2.24,8.78-.12,17.56-.33,26.34-.62,3.21-.11,3.22-5.11,0-5-30.97,1.06-61.97.97-92.93-.28-8.77-.35-17.55-.8-26.31-1.34-3.21-.2-3.2,4.8,0,5h0Z"/>
      <path class="cls-18" d="M4262.31,3766.27c21.11-3.02,42.34-5.2,63.63-6.55,21.26-1.35,42.58-1.88,63.88-1.57,12.04.17,24.08.61,36.11,1.31,3.21.19,3.2-4.81,0-5-21.43-1.25-42.91-1.66-64.38-1.23-21.46.43-42.91,1.7-64.28,3.82-12.13,1.2-24.23,2.67-36.29,4.4-1.34.19-2.07,1.89-1.75,3.08.4,1.44,1.73,1.94,3.08,1.75h0Z"/>
      <path class="cls-18" d="M3959.77,3764.51c16.91-.58,33.83-.84,50.75-.76,16.84.07,33.67.46,50.49,1.18,9.53.41,19.05.92,28.57,1.53,1.35.09,2.5-1.21,2.5-2.5,0-1.43-1.15-2.41-2.5-2.5-16.89-1.08-33.79-1.85-50.7-2.28-16.83-.43-33.67-.54-50.51-.33-9.54.12-19.07.35-28.61.67-3.21.11-3.22,5.11,0,5h0Z"/>
      <path class="cls-18" d="M3334.13,3766.28c21.46,6.42,44.02,9.29,66.4,8.42,6.35-.25,12.68-.8,18.97-1.64,1.34-.18,2.5-1.02,2.5-2.5,0-1.21-1.15-2.68-2.5-2.5-21.85,2.93-44.17,2.29-65.8-2.04-6.15-1.23-12.24-2.76-18.25-4.55-3.09-.92-4.41,3.9-1.33,4.82h0Z"/>
      <path class="cls-18" d="M1547.92,3730.86c22.89-1.28,45.79-2.37,68.7-3.26,22.91-.9,45.83-1.6,68.75-2.11,22.84-.51,45.68-.83,68.53-.96,22.84-.13,45.69-.07,68.53.18,22.93.25,45.85.7,68.77,1.33,2.82.08,5.65.16,8.47.24,3.22.1,3.22-4.9,0-5-22.92-.68-45.84-1.17-68.77-1.47-22.93-.3-45.85-.41-68.78-.32-22.84.08-45.69.36-68.53.82-22.84.47-45.68,1.12-68.5,1.97-22.91.85-45.82,1.89-68.71,3.12-2.82.15-5.64.31-8.46.46-3.2.18-3.22,5.18,0,5h0Z"/>
      <path class="cls-18" d="M1033.41,3759.26c19.13.18,38.27.27,57.4.28,19.22,0,38.44-.08,57.65-.26,19.13-.18,38.27-.44,57.4-.79,19.13-.35,38.26-.8,57.39-1.33,19.13-.53,38.25-1.15,57.37-1.86,2.41-.09,4.82-.18,7.23-.27,3.21-.12,3.22-5.12,0-5-19.12.73-38.25,1.37-57.37,1.93-19.21.56-38.42,1.02-57.64,1.4-19.13.38-38.26.66-57.4.86-19.13.2-38.27.31-57.4.32-19.13.02-38.27-.05-57.4-.21-2.41-.02-4.83-.04-7.24-.06-3.22-.03-3.22,4.97,0,5h0Z"/>
      <path class="cls-18" d="M892.74,3757.02c4.76.99,9.51,1.98,14.27,2.96,1.28.27,2.76-.37,3.08-1.75.28-1.25-.38-2.79-1.75-3.08-4.76-.99-9.51-1.98-14.27-2.96-1.28-.27-2.76.37-3.08,1.75-.28,1.25.38,2.79,1.75,3.08h0Z"/>
      <path class="cls-18" d="M621.7,3774.03c17.86-1.06,35.73-1.88,53.6-2.46,17.88-.58,35.76-.91,53.65-1.01,17.89-.1,35.78.05,53.66.43,17.8.38,35.6,1.01,53.38,1.87s35.72,1.97,53.56,3.32c2.23.17,4.46.34,6.69.52,1.35.11,2.5-1.22,2.5-2.5,0-1.44-1.15-2.39-2.5-2.5-17.83-1.4-35.68-2.57-53.55-3.5-17.86-.92-35.74-1.61-53.62-2.05-17.88-.44-35.77-.65-53.66-.61-17.8.04-35.61.31-53.41.83-17.88.52-35.75,1.28-53.61,2.28-2.23.12-4.46.25-6.7.39-3.2.19-3.22,5.19,0,5h0Z"/>
      <path class="cls-18" d="M270.16,3772.5c30.89-1.72,61.85-2.12,92.78-1.17,30.92.95,61.8,3.23,92.53,6.84,17.17,2.02,34.29,4.47,51.35,7.32,1.33.22,2.69-.35,3.08-1.75.33-1.2-.41-2.85-1.75-3.08-30.73-5.14-61.69-8.97-92.75-11.45-30.84-2.46-61.79-3.58-92.72-3.37-17.51.12-35.03.67-52.51,1.65-3.2.18-3.22,5.18,0,5h0Z"/>
      <path class="cls-18" d="M-7.28,3758.4c26.2,2.81,52.74,1.88,78.7-2.67,7.37-1.29,14.69-2.88,21.93-4.76,3.11-.81,1.79-5.63-1.33-4.82-25.23,6.54-51.33,9.49-77.38,8.75-7.32-.21-14.63-.71-21.91-1.49-1.34-.14-2.5,1.25-2.5,2.5,0,1.47,1.15,2.36,2.5,2.5h0Z"/>
      <path class="cls-18" d="M3623.65,3750.1c18.84-2.74,37.75-4.94,56.71-6.59,19.1-1.67,38.25-2.8,57.42-3.37,10.78-.32,21.56-.47,32.34-.45,3.22,0,3.22-4.99,0-5-19.26-.04-38.51.47-57.74,1.54-19.23,1.07-38.42,2.68-57.56,4.85-10.85,1.23-21.68,2.64-32.49,4.21-1.34.19-2.07,1.89-1.75,3.08.39,1.43,1.73,1.94,3.08,1.75h0Z"/>
      <path class="cls-18" d="M3065.51,3651.28c14.27,27.75,27.56,56.01,39.81,84.71,3.45,8.09,6.81,16.21,10.1,24.36.5,1.25,1.67,2.13,3.08,1.75,1.19-.33,2.25-1.82,1.75-3.08-11.8-29.3-24.64-58.17-38.51-86.55-3.89-7.95-7.86-15.86-11.9-23.72-1.47-2.86-5.79-.34-4.32,2.52h0Z"/>
      <path class="cls-18" d="M2080.14,3653.03c-7.04,21.48-14.46,42.83-22.27,64.04s-15.88,41.98-24.38,62.75c-4.81,11.75-9.74,23.46-14.79,35.11-.5,1.14-.43,2.42.64,3.23.95.71,2.43.75,3.28-.2,2.33-2.58,4.65-5.16,6.98-7.75,2.15-2.39-1.38-5.93-3.54-3.54-2.33,2.58-4.65,5.16-6.98,7.75,1.31,1.01,2.62,2.02,3.93,3.03,9.04-20.86,17.71-41.88,26-63.06s16.16-42.39,23.66-63.8c4.22-12.04,8.31-24.12,12.28-36.24,1-3.06-3.82-4.38-4.82-1.33h0Z"/>
    </g>
  </g>
</svg>