<?xml version="1.0" encoding="UTF-8"?>
<svg id="Layer_4" data-name="Layer 4" xmlns="http://www.w3.org/2000/svg" viewBox="0 0 5120 5120">
  <defs>
    <style>
      .cls-1 {
        stroke-width: 20px;
      }

      .cls-1, .cls-2 {
        fill: none;
        stroke: #231f20;
        stroke-miterlimit: 10;
      }

      .cls-3 {
        fill: #f15a29;
      }

      .cls-2 {
        stroke-width: 50px;
      }
    </style>
  </defs>
  <path class="cls-3" d="M5068.09,1897.44v1325.12c0,73.5-59.58,133.09-133.09,133.09H946.79c-13.88,0-27.75,0-41.63,0l-98.13-92.38-536.26-504.84-125.34-118-93.52-88.04,93.52-88.04,125.34-117.99,502.74-473.28,115.48-108.72h4046.01c73.51,0,133.09,59.59,133.09,133.09Z"/>
  <path class="cls-2" d="M5068.09,1897.44v1325.12c0,73.5-59.58,133.09-133.09,133.09-1343.28,0-2686.56,0-4029.84,0-274.37-267.58-548.73-535.17-823.1-802.75,268.98-262.85,537.95-525.69,806.93-788.54,1348.67,0,2697.34,0,4046.01,0,73.51,0,133.09,59.58,133.09,133.08Z"/>
  <path class="cls-1" d="M4957.42,1955.4v1224.8c0,45.87-36.66,83.05-81.9,83.05H956.75c-252.61-236.62-505.23-473.23-757.85-709.85,241.59-227.02,483.18-454.04,724.77-681.06h3951.84c45.24,0,81.9,37.18,81.9,83.05Z"/>
</svg>