<?xml version="1.0" encoding="UTF-8"?>
<svg id="Layer_1" data-name="Layer 1" xmlns="http://www.w3.org/2000/svg" viewBox="0 0 5120 5120">
  <defs>
    <style>
      .cls-1 {
        fill: #eab355;
      }

      .cls-2 {
        fill: #ffcd5d;
      }

      .cls-3 {
        fill: #bcbec0;
      }
    </style>
  </defs>
  <path class="cls-3" d="M3803.42,2386.24c0-10.11,0-20.23.02-30.34.31,10.13.31,20.24-.02,30.34Z"/>
  <path class="cls-3" d="M958.31,2921.3v18.73c-.12-6.25-.12-12.5,0-18.73Z"/>
  <g>
    <path class="cls-1" d="M4762.85,1689.08c-.14,244.68-.31,489.34-.45,734.02-.02,15.65-.02,31.32-.03,46.98v.19c-2.21,68.67-14,136.64-36.04,202.94-70.06,210.62-233.31,372.58-452.78,475.17l-865.11,808.63c-6.39,35.3-15.3,70.29-26.8,104.87-189.36,569.2-1011.13,808.32-1835.51,534.07-681.86-226.83-1151.9-733.83-1186.86-1224.44-1.05-14.68-1.72-29.36-1.97-43.99v-738.15c2.18,122.61,32.1,246.83,86.26,367.95,110.05-211.48,316.35-367.06,577.33-454.63l938.33-771.5c187.87-515.01,942.16-728.72,1698.78-477.02,480.47,159.85,847.76,469.4,1011.38,808.49,22.96-40.27,42.07-82.83,56.96-127.61,26.66-80.14,38.3-162.73,36.18-246.06.11.03.23.06.34.09Z"/>
    <path class="cls-2" d="M4726.32,1935.04c-46.19,138.82-132.86,256.52-249.43,349.99-60.28,48.34-128.54,90.22-203.35,125.18l-865.11,808.63c-6.39,35.3-15.3,70.29-26.8,104.87-189.36,569.2-1011.13,808.32-1835.51,534.07-231.86-77.14-439.24-186.66-613.33-316.94-353.21-264.26-569.49-613.88-575.5-951.49-1.58-87.63,11.02-174.45,39.06-258.75,89.37-268.65,319.62-463.76,624.52-566.07l938.33-771.5c187.87-515.01,942.16-728.72,1698.78-477.02,649.9,216.2,1092.73,706.33,1104.53,1172.98,2.12,83.33-9.52,165.92-36.18,246.06Z"/>
    <circle class="cls-1" cx="3007.1" cy="1105.99" r="74.55"/>
    <ellipse class="cls-1" cx="3669.14" cy="1068.72" rx="68.59" ry="37.28"/>
    <ellipse class="cls-1" cx="2127.36" cy="1580.16" rx="95.43" ry="71.57"/>
    <ellipse class="cls-1" cx="1325.16" cy="2331.67" rx="98.41" ry="83.5"/>
    <ellipse class="cls-1" cx="1653.2" cy="3089.14" rx="122.27" ry="89.47"/>
    <ellipse class="cls-1" cx="1909.66" cy="2200.45" rx="134.2" ry="101.39"/>
    <ellipse class="cls-1" cx="2413.65" cy="1976.79" rx="101.39" ry="62.63"/>
    <ellipse class="cls-1" cx="2578.45" cy="1627.87" rx="87.26" ry="47.71"/>
    <ellipse class="cls-1" cx="2544.87" cy="1311.76" rx="53.68" ry="47.71"/>
    <ellipse class="cls-1" cx="3487.23" cy="1994.68" rx="113.32" ry="80.52"/>
    <ellipse class="cls-1" cx="3567.75" cy="2570.24" rx="104.38" ry="83.5"/>
    <ellipse class="cls-1" cx="2649.24" cy="2627.75" rx="134.2" ry="67.75"/>
    <ellipse class="cls-1" cx="2799.13" cy="2260.28" rx="133.42" ry="95.62"/>
    <ellipse class="cls-1" cx="3089.11" cy="1589.11" rx="82.01" ry="50.7"/>
    <ellipse class="cls-1" cx="3871.93" cy="1505.61" rx="104.38" ry="74.55"/>
    <ellipse class="cls-1" cx="2737.22" cy="634.81" rx="87.97" ry="32.8"/>
    <ellipse class="cls-1" cx="4301.36" cy="1308.78" rx="74.55" ry="44.73"/>
    <ellipse class="cls-1" cx="1200.64" cy="1978.51" rx="117.03" ry="64.35"/>
  </g>
  <path class="cls-3" d="M959.58,2968.44c-.42-.25-.85-.52-1.27-.78v-27.63c.16,9.45.59,18.93,1.27,28.41Z"/>
</svg>