<?xml version="1.0" encoding="UTF-8"?>
<svg id="Layer_1" data-name="Layer 1" xmlns="http://www.w3.org/2000/svg" xmlns:xlink="http://www.w3.org/1999/xlink" viewBox="0 0 5120 5120">
  <defs>
    <style>
      .cls-1 {
        fill: #603913;
      }

      .cls-2 {
        fill: url(#linear-gradient);
      }
    </style>
    <linearGradient id="linear-gradient" x1="2524.11" y1="5086.94" x2="2567.88" y2="360.18" gradientUnits="userSpaceOnUse">
      <stop offset=".34" stop-color="#866630"/>
      <stop offset=".79" stop-color="#a98334"/>
    </linearGradient>
  </defs>
  <path class="cls-2" d="M4712.33,2996.74c-.23,0-.36-.04-.39-.12-.89-2.15,69.75-33.42,211.89-93.8v-120.36l-295.34-87.6,295.34-36.07v-146.21l-260.65-13.23,260.65-12.71v-145.66l-260.65-68.77,260.65,29.1v-130.71l-280.89-47.89h280.89v-112.13h-66.95l66.95-24.73v-140.26H171.49v88.54l190.97,90.09h-190.97v88.73c40.43,29.24,80.85,58.48,121.28,87.72l-121.28,13.19v123.85l98.47,69.95-98.47,68.2v214.36l149.79-30.2-149.79,116.58v143.22l184.01,49.27-184.01,12.77v259.2h4752.35v-276.25c-70.5,10.65-141,21.29-211.5,31.94Z"/>
  <polygon class="cls-1" points="4923.84 1845.58 4948.51 1873.2 4948.51 1997.58 4856.89 2010.58 4923.84 1985.84 4923.84 1845.58"/>
  <polygon class="cls-1" points="4923.84 2010.58 4948.51 2023.81 4948.51 2145.28 4642.95 2122.7 4923.84 2122.7 4923.84 2010.58"/>
  <polygon class="cls-1" points="4923.84 2170.59 4948.51 2181.23 4948.51 2330.88 4663.19 2272.21 4923.84 2301.31 4923.84 2170.59"/>
  <polygon class="cls-1" points="4923.84 2340.98 4948.51 2354.2 4948.51 2504.81 4663.19 2499.34 4923.84 2486.64 4923.84 2340.98"/>
  <polygon class="cls-1" points="4923.84 2512.57 4948.51 2523.28 4948.51 2676.81 4923.84 2658.78 4923.84 2512.57"/>
  <polygon class="cls-1" points="4628.5 2694.85 4703.25 2694.85 4948.51 2676.81 4923.84 2658.78 4628.5 2694.85"/>
  <polygon class="cls-1" points="4948.51 2775.92 4923.84 2782.45 4628.5 2694.85 4703.25 2694.85 4948.51 2775.92"/>
  <path class="cls-1" d="M4948.51,2775.92v131.18c-156.85,61.77-235.69,91.61-236.56,89.51-.83-2.01,69.81-33.28,211.89-93.8v-120.36l24.67-6.53Z"/>
  <polygon class="cls-1" points="4923.84 2964.8 4948.51 2964.8 4948.51 3274.42 207.6 3274.42 171.49 3241.05 4923.84 3241.05 4923.84 2964.8"/>
  <polygon class="cls-1" points="171.49 1934.12 194.13 1960.42 362.46 2024.21 171.49 1934.12"/>
  <polygon class="cls-1" points="171.49 2024.21 213.44 2020.37 362.46 2024.21 171.49 2024.21"/>
  <polygon class="cls-1" points="171.49 2213.85 198.02 2205.22 292.77 2200.66 171.49 2213.85"/>
  <polygon class="cls-1" points="171.49 2690.21 204.89 2701.49 321.29 2660.01 171.49 2690.21"/>
  <polygon class="cls-1" points="171.49 2919.82 201.97 2943.3 355.5 2969.09 171.49 2919.82"/>
  <path class="cls-1" d="M411.21,2978.03h199.22c22.14,0,44.27,0,66.41,0h74.4c3.22,0,3.22-5,0-5h-132.82c-22.14,0-44.27,0-66.41,0h-140.8c-3.22,0-3.22,5,0,5h0Z"/>
  <path class="cls-1" d="M427.25,2643.06h151.71c25.24,0,50.49,0,75.73,0h302.92c25.33,0,50.65,0,75.98,0,25.24,0,50.49,0,75.73,0,25.24,0,50.49,0,75.73,0,6.16,0,12.33,0,18.49,0,3.22,0,3.22-5,0-5-25.33,0-50.65,0-75.98,0-25.24,0-50.49,0-75.73,0-25.24,0-50.49,0-75.73,0h-227.44c-25.16,0-50.32,0-75.48,0-25.33,0-50.65,0-75.98,0s-50.49,0-75.73,0h-94.22c-3.22,0-3.22,5,0,5h0Z"/>
  <path class="cls-1" d="M436.87,2780.24h79.48c26.58,0,53.15,0,79.73,0s52.99,0,79.48,0h159.21c26.49,0,52.99,0,79.48,0,26.49,0,52.99,0,79.48,0,26.49,0,52.99,0,79.48,0,26.49,0,52.99,0,79.48,0h98.97c3.22,0,3.22-5,0-5h-238.69c-26.58,0-53.15,0-79.73,0h-238.44c-26.49,0-52.99,0-79.48,0s-52.99,0-79.48,0h-98.97c-3.22,0-3.22,5,0,5h0Z"/>
  <path class="cls-1" d="M359.88,2422.94h266.25c3.22,0,3.22-5,0-5h-266.25c-3.22,0-3.22,5,0,5h0Z"/>
  <path class="cls-1" d="M372.71,2174.11c28.81,0,57.62,0,86.44,0,28.81,0,57.62,0,86.44,0s57.62,0,86.44,0,57.62,0,86.44,0,57.62,0,86.44,0h10.49c3.22,0,3.22-5,0-5-28.81,0-57.62,0-86.44,0-28.81,0-57.62,0-86.44,0s-57.62,0-86.44,0-57.62,0-86.44,0h-96.93c-3.22,0-3.22,5,0,5h0Z"/>
  <path class="cls-1" d="M475.36,2024.18c18.14,0,36.28,0,54.42,0s36.28,0,54.42,0c18.14,0,36.28,0,54.42,0s36.44,0,54.67,0,36.28,0,54.42,0h6.74c3.22,0,3.22-5,0-5-18.14,0-36.28,0-54.42,0-18.14,0-36.28,0-54.42,0s-36.28,0-54.42,0c-18.22,0-36.44,0-54.67,0s-36.28,0-54.42,0h-6.74c-3.22,0-3.22,5,0,5h0Z"/>
  <path class="cls-1" d="M827.45,2471.75c23.8,0,47.61,0,71.41,0s47.61,0,71.41,0c23.8,0,47.61,0,71.41,0s47.44,0,71.16,0,47.61,0,71.41,0h8.74c3.22,0,3.22-5,0-5-23.8,0-47.61,0-71.41,0s-47.61,0-71.41,0c-23.8,0-47.61,0-71.41,0s-47.44,0-71.16,0-47.61,0-71.41,0h-8.74c-3.22,0-3.22,5,0,5h0Z"/>
  <path class="cls-1" d="M951.17,2348.7h123.73c3.22,0,3.22-5,0-5h-123.73c-3.22,0-3.22,5,0,5h0Z"/>
  <path class="cls-1" d="M1541.69,2578.01c31.48,0,62.96,0,94.43,0s62.96,0,94.43,0c17.65,0,35.31,0,52.96,0,3.22,0,3.22-5,0-5-31.48,0-62.96,0-94.43,0-31.48,0-62.96,0-94.43,0-17.65,0-35.31,0-52.96,0-3.22,0-3.22,5,0,5h0Z"/>
  <path class="cls-1" d="M4612.37,2086.42h-194.39c-21.57,0-43.14,0-64.71,0s-43.14,0-64.71,0h-8c-3.22,0-3.22,5,0,5h129.43c21.65,0,43.31,0,64.96,0h64.71c21.57,0,43.14,0,64.71,0h8c3.22,0,3.22-5,0-5h0Z"/>
  <path class="cls-1" d="M4809.2,1963.38h-298.07c-3.22,0-3.22,5,0,5h298.07c3.22,0,3.22-5,0-5h0Z"/>
  <path class="cls-1" d="M4584.25,2259.81c-20.5,0-40.99,0-61.49,0s-40.99,0-61.49,0c-11.5,0-23,0-34.49,0-3.22,0-3.22,5,0,5,20.5,0,40.99,0,61.49,0s40.99,0,61.49,0c11.5,0,23,0,34.49,0,3.22,0,3.22-5,0-5h0Z"/>
  <path class="cls-1" d="M4606.74,2461.15c-17.16,0-34.31,0-51.47,0s-34.48,0-51.72,0-34.31,0-51.47,0-34.48,0-51.72,0-34.31,0-51.47,0h-6.5c-3.22,0-3.22,5,0,5,17.16,0,34.31,0,51.47,0s34.48,0,51.72,0,34.31,0,51.47,0,34.48,0,51.72,0,34.31,0,51.47,0h6.5c3.22,0,3.22-5,0-5h0Z"/>
  <path class="cls-1" d="M4567.37,2651.31h-207.64c-23.07,0-46.14,0-69.21,0-22.99,0-45.98,0-68.96,0-23.07,0-46.14,0-69.21,0s-46.14,0-69.21,0h-138.43c-22.99,0-45.98,0-68.96,0h-16.99c-3.22,0-3.22,5,0,5h207.64c23.07,0,46.14,0,69.21,0,22.99,0,45.98,0,68.96,0,23.07,0,46.14,0,69.21,0s46.14,0,69.21,0c23.07,0,46.14,0,69.21,0s46.14,0,69.21,0c22.99,0,45.98,0,68.96,0h16.99c3.22,0,3.22-5,0-5h0Z"/>
  <path class="cls-1" d="M4640.49,2975.71h-995.44c-3.22,0-3.22,5,0,5h995.44c3.22,0,3.22-5,0-5h0Z"/>
  <path class="cls-1" d="M3678.79,2880.63c-20.89,0-41.78,0-62.67,0-20.81,0-41.61,0-62.42,0-20.89,0-41.78,0-62.67,0-20.81,0-41.61,0-62.42,0-20.89,0-41.78,0-62.67,0h-7.74c-3.22,0-3.22,5,0,5,20.89,0,41.78,0,62.67,0s41.61,0,62.42,0,41.78,0,62.67,0,41.61,0,62.42,0,41.78,0,62.67,0c2.58,0,5.16,0,7.74,0,3.22,0,3.22-5,0-5h0Z"/>
  <path class="cls-1" d="M2891.44,2947.74c-21.08,0-42.15,0-63.23,0h-63.23c-20.99,0-41.98,0-62.98,0-21.08,0-42.15,0-63.23,0s-41.98,0-62.98,0-42.15,0-63.23,0-41.98,0-62.98,0c-21.08,0-42.15,0-63.23,0-21.08,0-42.15,0-63.23,0-20.99,0-41.98,0-62.98,0h-15.49c-3.22,0-3.22,5,0,5,21.08,0,42.15,0,63.23,0h63.23c20.99,0,41.98,0,62.98,0,21.08,0,42.15,0,63.23,0h62.98c21.08,0,42.15,0,63.23,0h62.98c21.08,0,42.15,0,63.23,0,21.08,0,42.15,0,63.23,0s41.98,0,62.98,0c5.16,0,10.33,0,15.49,0,3.22,0,3.22-5,0-5h0Z"/>
  <path class="cls-1" d="M3363.85,2259.81c-24.57,0-49.14,0-73.71,0h-73.46c-24.57,0-49.14,0-73.71,0h-73.46c-24.49,0-48.97,0-73.46,0h-73.71c-24.49,0-48.97,0-73.46,0h-73.71c-24.49,0-48.97,0-73.46,0s-48.97,0-73.46,0h-17.99c-3.22,0-3.22,5,0,5,24.57,0,49.14,0,73.71,0s48.97,0,73.46,0c24.57,0,49.14,0,73.71,0h73.46c24.49,0,48.97,0,73.46,0s49.14,0,73.71,0h73.46c24.57,0,49.14,0,73.71,0s48.97,0,73.46,0,48.97,0,73.46,0c6,0,11.99,0,17.99,0,3.22,0,3.22-5,0-5h0Z"/>
  <path class="cls-1" d="M2722.72,2019.31h-77.96c-25.99,0-51.97,0-77.96,0s-51.97,0-77.96,0-51.97,0-77.96,0-51.97,0-77.96,0-51.97,0-77.96,0c-25.99,0-51.97,0-77.96,0-25.99,0-51.97,0-77.96,0h-77.96c-25.99,0-51.97,0-77.96,0h-18.99c-3.22,0-3.22,5,0,5h77.96c25.99,0,51.97,0,77.96,0s51.97,0,77.96,0,51.97,0,77.96,0,51.97,0,77.96,0,51.97,0,77.96,0c25.99,0,51.97,0,77.96,0s51.97,0,77.96,0h77.96c25.99,0,51.97,0,77.96,0h18.99c3.22,0,3.22-5,0-5h0Z"/>
</svg>